G04 EAGLE Gerber RS-274X export*
G75*
%MOMM*%
%FSLAX34Y34*%
%LPD*%
%INTop Solder Mask*%
%IPPOS*%
%AMOC8*
5,1,8,0,0,1.08239X$1,22.5*%
G01*
%ADD10R,0.045719X0.022856*%
%ADD11R,0.091438X0.022863*%
%ADD12R,0.160019X0.022856*%
%ADD13R,0.205738X0.022856*%
%ADD14R,0.228600X0.022856*%
%ADD15R,0.274319X0.022856*%
%ADD16R,0.320038X0.022863*%
%ADD17R,0.365756X0.022856*%
%ADD18R,0.388619X0.022856*%
%ADD19R,0.411481X0.022856*%
%ADD20R,0.457200X0.022856*%
%ADD21R,0.502919X0.022863*%
%ADD22R,0.525781X0.022856*%
%ADD23R,0.548638X0.022856*%
%ADD24R,0.617219X0.022856*%
%ADD25R,0.662938X0.022856*%
%ADD26R,0.662938X0.022863*%
%ADD27R,0.685800X0.022856*%
%ADD28R,0.708656X0.022856*%
%ADD29R,0.731519X0.022856*%
%ADD30R,0.777238X0.022856*%
%ADD31R,0.800100X0.022863*%
%ADD32R,0.800100X0.022856*%
%ADD33R,0.822956X0.022856*%
%ADD34R,0.845819X0.022856*%
%ADD35R,0.868681X0.022856*%
%ADD36R,0.914400X0.022863*%
%ADD37R,0.937256X0.022856*%
%ADD38R,0.960119X0.022856*%
%ADD39R,0.982981X0.022856*%
%ADD40R,0.982981X0.022863*%
%ADD41R,1.005837X0.022856*%
%ADD42R,1.028700X0.022856*%
%ADD43R,1.051556X0.022856*%
%ADD44R,1.074419X0.022856*%
%ADD45R,1.074419X0.022863*%
%ADD46R,1.097281X0.022863*%
%ADD47R,1.120138X0.022856*%
%ADD48R,1.120138X0.022863*%
%ADD49R,1.097275X0.022856*%
%ADD50R,1.005837X0.022863*%
%ADD51R,0.502919X0.022856*%
%ADD52R,0.068575X0.022856*%
%ADD53R,0.114300X0.022856*%
%ADD54R,0.137156X0.022856*%
%ADD55R,0.342900X0.022863*%
%ADD56R,0.022863X0.022856*%
%ADD57R,0.571500X0.022856*%
%ADD58R,0.022856X0.022856*%
%ADD59R,0.708656X0.022863*%
%ADD60R,0.914400X0.022856*%
%ADD61R,1.188719X0.022856*%
%ADD62R,0.754381X0.022856*%
%ADD63R,0.434338X0.022856*%
%ADD64R,0.297181X0.022856*%
%ADD65R,0.388619X0.022863*%
%ADD66R,0.274319X0.022863*%
%ADD67R,0.434338X0.022863*%
%ADD68R,0.342900X0.022856*%
%ADD69R,0.320038X0.022856*%
%ADD70R,0.251456X0.022856*%
%ADD71R,0.251456X0.022863*%
%ADD72R,0.297175X0.022856*%
%ADD73R,0.297181X0.022863*%
%ADD74R,0.297175X0.022863*%
%ADD75R,0.365762X0.022856*%
%ADD76R,1.485900X0.022856*%
%ADD77R,2.628900X0.022863*%
%ADD78R,2.674619X0.022856*%
%ADD79R,2.697481X0.022856*%
%ADD80R,2.743200X0.022856*%
%ADD81R,2.766056X0.022856*%
%ADD82R,2.788919X0.022863*%
%ADD83R,2.834637X0.022856*%
%ADD84R,2.857500X0.022856*%
%ADD85R,2.880356X0.022856*%
%ADD86R,2.926081X0.022856*%
%ADD87R,2.948937X0.022863*%
%ADD88R,1.600200X0.022856*%
%ADD89R,0.640081X0.022856*%
%ADD90R,0.685800X0.022863*%
%ADD91R,0.365756X0.022863*%
%ADD92R,0.411481X0.022863*%
%ADD93R,0.411475X0.022856*%
%ADD94R,2.080256X0.022863*%
%ADD95R,3.817619X0.022856*%
%ADD96R,3.840481X0.022856*%
%ADD97R,3.863338X0.022856*%
%ADD98R,3.886200X0.022863*%
%ADD99R,3.931919X0.022856*%
%ADD100R,3.954781X0.022856*%
%ADD101R,3.977638X0.022856*%
%ADD102R,4.000500X0.022863*%
%ADD103R,4.000500X0.022856*%
%ADD104R,2.148837X0.022856*%
%ADD105R,0.411475X0.022863*%
%ADD106R,0.480056X0.022856*%
%ADD107R,0.480056X0.022863*%
%ADD108R,2.446019X0.022856*%
%ADD109R,0.068581X0.022856*%
%ADD110R,4.594856X0.022856*%
%ADD111R,4.640581X0.022856*%
%ADD112R,4.640581X0.022863*%
%ADD113R,4.663438X0.022856*%
%ADD114R,4.686300X0.022863*%
%ADD115R,4.686300X0.022856*%
%ADD116R,4.709156X0.022856*%
%ADD117R,4.732019X0.022856*%
%ADD118R,2.560319X0.022856*%
%ADD119R,0.617219X0.022863*%
%ADD120R,0.640075X0.022856*%
%ADD121R,0.640081X0.022863*%
%ADD122R,0.640075X0.022863*%
%ADD123R,0.754381X0.022863*%
%ADD124R,0.731519X0.022863*%
%ADD125R,0.754375X0.022856*%
%ADD126R,0.777238X0.022863*%
%ADD127R,0.754375X0.022863*%
%ADD128R,5.097781X0.022856*%
%ADD129R,5.097781X0.022863*%
%ADD130R,5.143500X0.022856*%
%ADD131R,5.189219X0.022856*%
%ADD132R,5.189219X0.022863*%
%ADD133R,0.822956X0.022863*%
%ADD134R,2.743200X0.022863*%
%ADD135R,0.457200X0.022863*%
%ADD136R,0.480063X0.022856*%
%ADD137R,2.880362X0.022863*%
%ADD138R,5.463538X0.022856*%
%ADD139R,5.463538X0.022863*%
%ADD140R,5.486400X0.022863*%
%ADD141R,5.509256X0.022856*%
%ADD142R,2.903219X0.022856*%
%ADD143R,1.234438X0.022856*%
%ADD144R,0.594356X0.022856*%
%ADD145R,3.017519X0.022856*%
%ADD146R,5.600700X0.022856*%
%ADD147R,5.623556X0.022863*%
%ADD148R,5.623556X0.022856*%
%ADD149R,5.646419X0.022856*%
%ADD150R,5.646419X0.022863*%
%ADD151R,2.994656X0.022856*%
%ADD152R,3.063238X0.022856*%
%ADD153R,5.737856X0.022863*%
%ADD154R,5.737856X0.022856*%
%ADD155R,0.068581X0.022863*%
%ADD156R,3.040375X0.022863*%
%ADD157R,3.086100X0.022863*%
%ADD158R,5.692138X0.022856*%
%ADD159R,5.692138X0.022863*%
%ADD160R,5.600700X0.022863*%
%ADD161R,2.948937X0.022856*%
%ADD162R,1.348738X0.022856*%
%ADD163R,0.525775X0.022856*%
%ADD164R,0.480063X0.022863*%
%ADD165R,0.022856X0.022863*%
%ADD166R,0.022863X0.022863*%
%ADD167R,0.365762X0.022863*%
%ADD168R,0.160019X0.022863*%
%ADD169R,0.205738X0.022863*%
%ADD170R,2.926075X0.022863*%
%ADD171R,5.166356X0.022863*%
%ADD172R,5.143500X0.022863*%
%ADD173R,2.514600X0.022856*%
%ADD174R,4.777738X0.022856*%
%ADD175R,4.754875X0.022863*%
%ADD176R,4.732019X0.022863*%
%ADD177R,2.468881X0.022856*%
%ADD178R,0.548638X0.022863*%
%ADD179R,2.286000X0.022856*%
%ADD180R,4.183381X0.022863*%
%ADD181R,4.183381X0.022856*%
%ADD182R,4.160519X0.022856*%
%ADD183R,4.137656X0.022856*%
%ADD184R,4.114800X0.022856*%
%ADD185R,4.091938X0.022863*%
%ADD186R,4.091938X0.022856*%
%ADD187R,4.069075X0.022856*%
%ADD188R,4.046219X0.022856*%
%ADD189R,0.525775X0.022863*%
%ADD190R,2.240281X0.022863*%
%ADD191R,1.828800X0.022863*%
%ADD192R,3.360419X0.022856*%
%ADD193R,3.314700X0.022856*%
%ADD194R,3.268981X0.022856*%
%ADD195R,3.246119X0.022863*%
%ADD196R,3.223256X0.022856*%
%ADD197R,3.200400X0.022856*%
%ADD198R,3.154675X0.022856*%
%ADD199R,3.131819X0.022856*%
%ADD200R,3.108956X0.022863*%
%ADD201R,3.086100X0.022856*%
%ADD202R,1.668781X0.022856*%
%ADD203R,0.594363X0.022863*%
%ADD204R,0.594363X0.022856*%
%ADD205R,0.525781X0.022863*%
%ADD206R,0.571500X0.022863*%
%ADD207R,0.594356X0.022863*%
%ADD208R,1.051562X0.022856*%
%ADD209R,1.783075X0.022856*%
%ADD210R,1.737356X0.022856*%
%ADD211R,1.691638X0.022863*%
%ADD212R,1.623063X0.022856*%
%ADD213R,1.577338X0.022856*%
%ADD214R,1.508756X0.022856*%
%ADD215R,1.417319X0.022856*%
%ADD216R,1.394456X0.022863*%
%ADD217R,1.143000X0.022856*%
%ADD218R,0.937262X0.022863*%
%ADD219R,0.355600X0.008887*%
%ADD220R,0.364488X0.008887*%
%ADD221R,1.831338X0.008887*%
%ADD222R,0.337819X0.008887*%
%ADD223R,0.373375X0.008887*%
%ADD224R,0.382269X0.008887*%
%ADD225R,0.391156X0.008887*%
%ADD226R,0.400050X0.008887*%
%ADD227R,0.408938X0.008887*%
%ADD228R,0.417825X0.008887*%
%ADD229R,0.426719X0.008887*%
%ADD230R,0.435606X0.008887*%
%ADD231R,0.444500X0.008887*%
%ADD232R,0.453387X0.008887*%
%ADD233R,0.462275X0.008887*%
%ADD234R,0.471169X0.008887*%
%ADD235R,0.480056X0.008887*%
%ADD236R,0.488950X0.008887*%
%ADD237R,0.497838X0.008887*%
%ADD238R,0.506725X0.008887*%
%ADD239R,0.515619X0.008887*%
%ADD240R,0.524506X0.008887*%
%ADD241R,0.533400X0.008887*%
%ADD242R,0.542288X0.008887*%
%ADD243R,0.551175X0.008887*%
%ADD244R,0.560069X0.008887*%
%ADD245R,0.568956X0.008887*%
%ADD246R,0.577850X0.008887*%
%ADD247R,0.586738X0.008887*%
%ADD248R,0.595625X0.008887*%
%ADD249R,0.604519X0.008887*%
%ADD250R,0.613406X0.008887*%
%ADD251R,0.622300X0.008887*%
%ADD252R,0.631188X0.008887*%
%ADD253R,0.640075X0.008887*%
%ADD254R,0.648969X0.008887*%
%ADD255R,0.657856X0.008887*%
%ADD256R,0.346706X0.008887*%
%ADD257R,0.666750X0.008887*%
%ADD258R,0.675638X0.008887*%
%ADD259R,0.684525X0.008887*%
%ADD260R,0.693419X0.008887*%
%ADD261R,0.702306X0.008887*%
%ADD262R,0.711200X0.008887*%
%ADD263R,0.720087X0.008887*%
%ADD264R,0.728975X0.008887*%
%ADD265R,0.737869X0.008887*%
%ADD266R,0.746756X0.008887*%
%ADD267R,0.755650X0.008887*%
%ADD268R,0.764538X0.008887*%
%ADD269R,0.773425X0.008887*%
%ADD270R,0.782319X0.008887*%
%ADD271R,0.791206X0.008887*%
%ADD272R,0.800100X0.008887*%
%ADD273R,0.808988X0.008887*%
%ADD274R,0.462281X0.008887*%
%ADD275R,0.826769X0.008887*%
%ADD276R,0.817881X0.008887*%
%ADD277R,0.773431X0.008887*%
%ADD278R,0.728981X0.008887*%
%ADD279R,0.684531X0.008887*%
%ADD280R,0.640081X0.008887*%
%ADD281R,0.595631X0.008887*%
%ADD282R,0.551181X0.008887*%
%ADD283R,0.506731X0.008887*%
%ADD284R,0.417831X0.008887*%
%ADD285R,0.373381X0.008887*%
%ADD286R,1.203200X3.703200*%
%ADD287R,1.703200X3.603200*%
%ADD288R,1.503200X1.703200*%
%ADD289C,1.625600*%
%ADD290C,3.403200*%
%ADD291R,1.803400X0.609600*%
%ADD292R,1.803400X0.812800*%
%ADD293C,2.082800*%
%ADD294C,0.959600*%


D10*
X220358Y99886D03*
D11*
X220358Y100114D03*
D12*
X220243Y100343D03*
D13*
X220472Y100571D03*
D14*
X220358Y100800D03*
D15*
X220358Y101029D03*
D16*
X220358Y101257D03*
D17*
X220358Y101486D03*
D18*
X220472Y101714D03*
D19*
X220358Y101943D03*
D20*
X220358Y102172D03*
D21*
X220358Y102400D03*
D22*
X220472Y102629D03*
D23*
X220358Y102857D03*
D24*
X220243Y103086D03*
D25*
X220472Y103315D03*
D26*
X220472Y103543D03*
D27*
X220358Y103772D03*
D28*
X220472Y104000D03*
D29*
X220358Y104229D03*
D30*
X220358Y104458D03*
D31*
X220472Y104686D03*
D32*
X220472Y104915D03*
D33*
X220358Y105143D03*
D34*
X220472Y105372D03*
D35*
X220358Y105601D03*
D36*
X220358Y105829D03*
D37*
X220472Y106058D03*
X220472Y106286D03*
D38*
X220358Y106515D03*
D39*
X220472Y106744D03*
D40*
X220472Y106972D03*
D41*
X220358Y107201D03*
D42*
X220472Y107429D03*
D43*
X220358Y107658D03*
D44*
X220472Y107887D03*
D45*
X220472Y108115D03*
D44*
X220472Y108344D03*
X220472Y108572D03*
X220472Y108801D03*
X220472Y109030D03*
D46*
X220358Y109258D03*
D47*
X220472Y109487D03*
X220472Y109715D03*
X220472Y109944D03*
X220472Y110173D03*
D48*
X220472Y110401D03*
D47*
X220472Y110630D03*
X220472Y110858D03*
X220472Y111087D03*
X220472Y111316D03*
D48*
X220472Y111544D03*
D47*
X220472Y111773D03*
X220472Y112001D03*
X220472Y112230D03*
X220472Y112459D03*
D48*
X220472Y112687D03*
D49*
X220586Y112916D03*
D44*
X220472Y113144D03*
X220472Y113373D03*
X220472Y113602D03*
D45*
X220472Y113830D03*
D44*
X220472Y114059D03*
X220472Y114287D03*
D43*
X220586Y114516D03*
D42*
X220472Y114745D03*
D50*
X220586Y114973D03*
D39*
X220472Y115202D03*
D51*
X222872Y115430D03*
D52*
X220243Y125489D03*
D53*
X220472Y125717D03*
D54*
X220358Y125946D03*
D14*
X220129Y126175D03*
D55*
X220243Y126403D03*
D19*
X220358Y126632D03*
D51*
X220129Y126860D03*
D56*
X217272Y127089D03*
D57*
X220472Y127089D03*
D24*
X220243Y127318D03*
D58*
X223672Y127318D03*
D59*
X220243Y127546D03*
D32*
X220243Y127775D03*
D34*
X220472Y128003D03*
D60*
X220129Y128232D03*
D42*
X220243Y128461D03*
D45*
X220472Y128689D03*
D47*
X220243Y128918D03*
D61*
X220358Y129146D03*
D19*
X216471Y129375D03*
D62*
X222758Y129375D03*
D63*
X215900Y129604D03*
D64*
X220472Y129604D03*
D19*
X224472Y129604D03*
D65*
X215443Y129832D03*
D66*
X220586Y129832D03*
D67*
X225044Y129832D03*
D68*
X215214Y130061D03*
D15*
X220358Y130061D03*
D18*
X225501Y130061D03*
D68*
X214757Y130289D03*
D64*
X220472Y130289D03*
D68*
X225730Y130289D03*
D69*
X214414Y130518D03*
D15*
X220586Y130518D03*
D68*
X226187Y130518D03*
D69*
X214185Y130747D03*
D70*
X220472Y130747D03*
D69*
X226530Y130747D03*
D16*
X213957Y130975D03*
D71*
X220472Y130975D03*
D16*
X226758Y130975D03*
D64*
X213614Y131204D03*
D70*
X220472Y131204D03*
D69*
X226987Y131204D03*
D72*
X213385Y131432D03*
D70*
X220472Y131432D03*
D64*
X227330Y131432D03*
D72*
X213157Y131661D03*
D70*
X220472Y131661D03*
D64*
X227559Y131661D03*
D69*
X212814Y131890D03*
D70*
X220472Y131890D03*
D64*
X227787Y131890D03*
D16*
X212585Y132118D03*
D71*
X220472Y132118D03*
D16*
X228130Y132118D03*
D15*
X212357Y132347D03*
D70*
X220472Y132347D03*
D69*
X228359Y132347D03*
X212128Y132575D03*
D70*
X220472Y132575D03*
D15*
X228587Y132575D03*
D72*
X212014Y132804D03*
D15*
X220358Y132804D03*
D69*
X228816Y132804D03*
D64*
X211785Y133033D03*
X220472Y133033D03*
X228930Y133033D03*
D73*
X211557Y133261D03*
X220472Y133261D03*
D74*
X229159Y133261D03*
D15*
X211442Y133490D03*
X220586Y133490D03*
D72*
X229387Y133490D03*
X211099Y133718D03*
D70*
X220472Y133718D03*
D15*
X229502Y133718D03*
D72*
X210871Y133947D03*
D70*
X220472Y133947D03*
D64*
X229845Y133947D03*
D72*
X210871Y134176D03*
D70*
X220472Y134176D03*
D64*
X230073Y134176D03*
D16*
X210528Y134404D03*
D71*
X220472Y134404D03*
D73*
X230073Y134404D03*
D69*
X210299Y134633D03*
D70*
X220472Y134633D03*
D69*
X230416Y134633D03*
D64*
X210185Y134861D03*
D70*
X220472Y134861D03*
D69*
X230645Y134861D03*
D68*
X209956Y135090D03*
D70*
X220472Y135090D03*
D64*
X230759Y135090D03*
D68*
X209956Y135319D03*
D70*
X220472Y135319D03*
D68*
X230988Y135319D03*
D55*
X209956Y135547D03*
D71*
X220472Y135547D03*
D55*
X230988Y135547D03*
D75*
X209842Y135776D03*
D70*
X220472Y135776D03*
D68*
X230988Y135776D03*
D19*
X209613Y136004D03*
D15*
X220358Y136004D03*
D17*
X231102Y136004D03*
D63*
X209728Y136233D03*
D53*
X212700Y136233D03*
D20*
X216014Y136233D03*
D68*
X220243Y136233D03*
D19*
X231330Y136233D03*
D76*
X214986Y136462D03*
D20*
X224930Y136462D03*
D53*
X228244Y136462D03*
D63*
X231216Y136462D03*
D77*
X220243Y136690D03*
D78*
X220472Y136919D03*
D79*
X220358Y137147D03*
D80*
X220358Y137376D03*
D81*
X220472Y137605D03*
D82*
X220358Y137833D03*
D83*
X220358Y138062D03*
D84*
X220472Y138290D03*
D85*
X220358Y138519D03*
D86*
X220358Y138748D03*
D87*
X220472Y138976D03*
D24*
X208585Y139205D03*
D88*
X227216Y139205D03*
D89*
X208470Y139433D03*
D70*
X220472Y139433D03*
D24*
X232359Y139433D03*
D89*
X208470Y139662D03*
D70*
X220472Y139662D03*
D89*
X232473Y139662D03*
D25*
X208356Y139891D03*
D70*
X220472Y139891D03*
D89*
X232473Y139891D03*
D90*
X208242Y140119D03*
D71*
X220472Y140119D03*
D26*
X232588Y140119D03*
D27*
X208242Y140348D03*
D70*
X220472Y140348D03*
D27*
X232702Y140348D03*
D68*
X206527Y140576D03*
D69*
X210071Y140576D03*
D70*
X220472Y140576D03*
D27*
X232702Y140576D03*
D68*
X206299Y140805D03*
D69*
X210071Y140805D03*
D15*
X220358Y140805D03*
D69*
X230873Y140805D03*
D68*
X234417Y140805D03*
D69*
X206184Y141034D03*
X210071Y141034D03*
D64*
X220472Y141034D03*
D69*
X230873Y141034D03*
D68*
X234645Y141034D03*
D91*
X205956Y141262D03*
D16*
X210071Y141262D03*
D73*
X220472Y141262D03*
D16*
X230873Y141262D03*
X234759Y141262D03*
D68*
X205842Y141491D03*
D69*
X210071Y141491D03*
D15*
X220586Y141491D03*
D69*
X230873Y141491D03*
D75*
X234988Y141491D03*
D68*
X205842Y141719D03*
D69*
X210071Y141719D03*
D15*
X220358Y141719D03*
D69*
X230873Y141719D03*
D68*
X235102Y141719D03*
D17*
X205727Y141948D03*
D69*
X210071Y141948D03*
D64*
X220472Y141948D03*
D69*
X230873Y141948D03*
D68*
X235102Y141948D03*
D17*
X205499Y142177D03*
D69*
X210071Y142177D03*
D15*
X220586Y142177D03*
D69*
X230873Y142177D03*
D17*
X235217Y142177D03*
D65*
X205384Y142405D03*
D16*
X210071Y142405D03*
D71*
X220472Y142405D03*
D16*
X230873Y142405D03*
D91*
X235445Y142405D03*
D75*
X205270Y142634D03*
D64*
X210185Y142634D03*
D15*
X220358Y142634D03*
D69*
X230873Y142634D03*
D18*
X235560Y142634D03*
D75*
X205270Y142862D03*
D69*
X210071Y142862D03*
D64*
X220472Y142862D03*
X230759Y142862D03*
D17*
X235674Y142862D03*
D18*
X205156Y143091D03*
D69*
X210071Y143091D03*
D64*
X220472Y143091D03*
D69*
X230873Y143091D03*
D17*
X235674Y143091D03*
X205041Y143320D03*
D69*
X210071Y143320D03*
D64*
X220472Y143320D03*
D69*
X230873Y143320D03*
D18*
X235788Y143320D03*
D65*
X204927Y143548D03*
D16*
X210071Y143548D03*
D73*
X220472Y143548D03*
D16*
X230873Y143548D03*
D91*
X235902Y143548D03*
D18*
X204699Y143777D03*
D69*
X210071Y143777D03*
D15*
X220586Y143777D03*
D69*
X230873Y143777D03*
D18*
X236017Y143777D03*
D17*
X204584Y144005D03*
D69*
X210071Y144005D03*
D70*
X220472Y144005D03*
D69*
X230873Y144005D03*
D18*
X236245Y144005D03*
D17*
X204584Y144234D03*
D69*
X210071Y144234D03*
D70*
X220472Y144234D03*
D69*
X230873Y144234D03*
D17*
X236360Y144234D03*
D18*
X204470Y144463D03*
D69*
X210071Y144463D03*
D70*
X220472Y144463D03*
D69*
X230873Y144463D03*
D17*
X236360Y144463D03*
D91*
X204356Y144691D03*
D16*
X210071Y144691D03*
D71*
X220472Y144691D03*
D16*
X230873Y144691D03*
D65*
X236474Y144691D03*
D18*
X204241Y144920D03*
D69*
X210071Y144920D03*
D70*
X220472Y144920D03*
D69*
X230873Y144920D03*
D17*
X236588Y144920D03*
D75*
X204127Y145148D03*
D69*
X210071Y145148D03*
D70*
X220472Y145148D03*
D69*
X230873Y145148D03*
D18*
X236703Y145148D03*
X204013Y145377D03*
D69*
X210071Y145377D03*
D70*
X220472Y145377D03*
D69*
X230873Y145377D03*
D17*
X236817Y145377D03*
D19*
X203898Y145606D03*
D69*
X210071Y145606D03*
D70*
X220472Y145606D03*
D69*
X230873Y145606D03*
D18*
X236931Y145606D03*
D65*
X203784Y145834D03*
D73*
X210185Y145834D03*
D71*
X220472Y145834D03*
D16*
X230873Y145834D03*
D92*
X237045Y145834D03*
D17*
X203670Y146063D03*
D64*
X210185Y146063D03*
D70*
X220472Y146063D03*
D64*
X230759Y146063D03*
D18*
X237160Y146063D03*
X203556Y146291D03*
D64*
X210185Y146291D03*
D70*
X220472Y146291D03*
D64*
X230759Y146291D03*
D75*
X237274Y146291D03*
D93*
X203441Y146520D03*
D69*
X210071Y146520D03*
D15*
X220358Y146520D03*
D64*
X230759Y146520D03*
D18*
X237388Y146520D03*
D93*
X203441Y146749D03*
D69*
X210071Y146749D03*
X220358Y146749D03*
X230873Y146749D03*
D19*
X237503Y146749D03*
D94*
X211785Y146977D03*
D16*
X230873Y146977D03*
D92*
X237503Y146977D03*
D95*
X220472Y147206D03*
D96*
X220358Y147434D03*
D97*
X220472Y147663D03*
X220472Y147892D03*
D98*
X220358Y148120D03*
D99*
X220358Y148349D03*
D100*
X220472Y148577D03*
X220472Y148806D03*
D101*
X220358Y149035D03*
D102*
X220472Y149263D03*
D103*
X220472Y149492D03*
D63*
X202184Y149720D03*
D69*
X210071Y149720D03*
D104*
X229730Y149720D03*
D19*
X202070Y149949D03*
D69*
X210071Y149949D03*
D64*
X220472Y149949D03*
D69*
X230873Y149949D03*
D63*
X238760Y149949D03*
D19*
X202070Y150178D03*
D69*
X210071Y150178D03*
D15*
X220586Y150178D03*
D69*
X230873Y150178D03*
D93*
X238874Y150178D03*
D67*
X201955Y150406D03*
D73*
X210185Y150406D03*
D66*
X220358Y150406D03*
D16*
X230873Y150406D03*
D105*
X238874Y150406D03*
D19*
X201841Y150635D03*
D69*
X210071Y150635D03*
D15*
X220586Y150635D03*
D64*
X230759Y150635D03*
D63*
X238989Y150635D03*
D19*
X201841Y150863D03*
D69*
X210071Y150863D03*
D70*
X220472Y150863D03*
D69*
X230873Y150863D03*
D93*
X239103Y150863D03*
D19*
X201841Y151092D03*
D69*
X210071Y151092D03*
D70*
X220472Y151092D03*
D69*
X230873Y151092D03*
D93*
X239103Y151092D03*
D19*
X201612Y151321D03*
D64*
X210185Y151321D03*
D70*
X220472Y151321D03*
D69*
X230873Y151321D03*
D93*
X239103Y151321D03*
D67*
X201498Y151549D03*
D73*
X210185Y151549D03*
D71*
X220472Y151549D03*
D73*
X230759Y151549D03*
D92*
X239331Y151549D03*
D63*
X201498Y151778D03*
D64*
X210185Y151778D03*
D70*
X220472Y151778D03*
D64*
X230759Y151778D03*
D63*
X239446Y151778D03*
D93*
X201384Y152006D03*
D64*
X210185Y152006D03*
D70*
X220472Y152006D03*
D64*
X230759Y152006D03*
D63*
X239446Y152006D03*
D93*
X201384Y152235D03*
D64*
X210185Y152235D03*
D70*
X220472Y152235D03*
D64*
X230759Y152235D03*
D19*
X239560Y152235D03*
D63*
X201270Y152464D03*
D64*
X210185Y152464D03*
D70*
X220472Y152464D03*
D64*
X230759Y152464D03*
D19*
X239560Y152464D03*
D105*
X201155Y152692D03*
D73*
X210185Y152692D03*
D71*
X220472Y152692D03*
D73*
X230759Y152692D03*
D67*
X239674Y152692D03*
D93*
X201155Y152921D03*
D64*
X210185Y152921D03*
D70*
X220472Y152921D03*
D64*
X230759Y152921D03*
D19*
X239789Y152921D03*
D63*
X201041Y153149D03*
D64*
X210185Y153149D03*
D70*
X220472Y153149D03*
D64*
X230759Y153149D03*
D19*
X239789Y153149D03*
D18*
X201041Y153378D03*
D64*
X210185Y153378D03*
D70*
X220472Y153378D03*
D64*
X230759Y153378D03*
D63*
X239903Y153378D03*
X200812Y153607D03*
D64*
X210185Y153607D03*
D70*
X220472Y153607D03*
D64*
X230759Y153607D03*
D18*
X239903Y153607D03*
D67*
X200812Y153835D03*
D73*
X210185Y153835D03*
D71*
X220472Y153835D03*
D73*
X230759Y153835D03*
D67*
X240132Y153835D03*
D19*
X200698Y154064D03*
D64*
X210185Y154064D03*
D70*
X220472Y154064D03*
D64*
X230759Y154064D03*
D63*
X240132Y154064D03*
X200584Y154292D03*
D64*
X210185Y154292D03*
D15*
X220358Y154292D03*
D64*
X230759Y154292D03*
D93*
X240246Y154292D03*
D63*
X200584Y154521D03*
D64*
X210185Y154521D03*
X220472Y154521D03*
X230759Y154521D03*
D63*
X240360Y154521D03*
X200584Y154750D03*
D64*
X210185Y154750D03*
X220472Y154750D03*
X230759Y154750D03*
D63*
X240360Y154750D03*
D67*
X200584Y154978D03*
D73*
X210185Y154978D03*
D66*
X220586Y154978D03*
D73*
X230759Y154978D03*
D67*
X240360Y154978D03*
D63*
X200584Y155207D03*
D64*
X210185Y155207D03*
D70*
X220472Y155207D03*
D64*
X230759Y155207D03*
D63*
X240360Y155207D03*
D106*
X200355Y155435D03*
D64*
X210185Y155435D03*
D70*
X220472Y155435D03*
D64*
X230759Y155435D03*
D63*
X240360Y155435D03*
D106*
X200355Y155664D03*
D64*
X210185Y155664D03*
D15*
X220358Y155664D03*
D64*
X230759Y155664D03*
D106*
X240589Y155664D03*
X200355Y155893D03*
D64*
X210185Y155893D03*
D15*
X220586Y155893D03*
D64*
X230759Y155893D03*
D106*
X240589Y155893D03*
D107*
X200355Y156121D03*
D16*
X210071Y156121D03*
D71*
X220472Y156121D03*
D73*
X230759Y156121D03*
D107*
X240589Y156121D03*
D106*
X200355Y156350D03*
D64*
X210185Y156350D03*
D70*
X220472Y156350D03*
D69*
X230873Y156350D03*
D106*
X240589Y156350D03*
D51*
X200241Y156578D03*
D64*
X210185Y156578D03*
D70*
X220472Y156578D03*
D64*
X230759Y156578D03*
D106*
X240589Y156578D03*
D51*
X200241Y156807D03*
D64*
X210185Y156807D03*
D70*
X220472Y156807D03*
D64*
X230759Y156807D03*
D51*
X240703Y156807D03*
X200241Y157036D03*
D69*
X210071Y157036D03*
D70*
X220472Y157036D03*
D64*
X230759Y157036D03*
D51*
X240703Y157036D03*
D21*
X200241Y157264D03*
D16*
X210071Y157264D03*
D66*
X220358Y157264D03*
D16*
X230873Y157264D03*
D21*
X240703Y157264D03*
D51*
X200241Y157493D03*
D68*
X209956Y157493D03*
D52*
X215671Y157493D03*
D69*
X220358Y157493D03*
X230873Y157493D03*
D51*
X240703Y157493D03*
D108*
X209956Y157721D03*
D109*
X225273Y157721D03*
D68*
X230988Y157721D03*
D51*
X240703Y157721D03*
D110*
X220243Y157950D03*
D111*
X220472Y158179D03*
D112*
X220472Y158407D03*
D111*
X220472Y158636D03*
X220472Y158864D03*
X220472Y159093D03*
D113*
X220358Y159322D03*
D114*
X220472Y159550D03*
D115*
X220472Y159779D03*
D116*
X220358Y160007D03*
D117*
X220243Y160236D03*
D24*
X199669Y160465D03*
D69*
X210071Y160465D03*
D118*
X231559Y160465D03*
D119*
X199669Y160693D03*
D16*
X210071Y160693D03*
D73*
X220701Y160693D03*
D16*
X230873Y160693D03*
D119*
X241275Y160693D03*
D24*
X199669Y160922D03*
D64*
X210185Y160922D03*
D70*
X220472Y160922D03*
D69*
X230873Y160922D03*
D24*
X241275Y160922D03*
X199669Y161150D03*
D64*
X210185Y161150D03*
D70*
X220472Y161150D03*
D64*
X230759Y161150D03*
D24*
X241275Y161150D03*
D89*
X199555Y161379D03*
D69*
X210071Y161379D03*
D70*
X220472Y161379D03*
D64*
X230759Y161379D03*
D24*
X241275Y161379D03*
D89*
X199555Y161608D03*
D64*
X210185Y161608D03*
D15*
X220358Y161608D03*
D69*
X230873Y161608D03*
D120*
X241389Y161608D03*
D121*
X199555Y161836D03*
D73*
X210185Y161836D03*
X220472Y161836D03*
X230759Y161836D03*
D122*
X241389Y161836D03*
D89*
X199555Y162065D03*
D69*
X210071Y162065D03*
D64*
X220472Y162065D03*
X230759Y162065D03*
D120*
X241389Y162065D03*
D89*
X199555Y162293D03*
D69*
X210071Y162293D03*
D64*
X220472Y162293D03*
D69*
X230873Y162293D03*
D120*
X241389Y162293D03*
D89*
X199555Y162522D03*
D64*
X210185Y162522D03*
X220472Y162522D03*
D69*
X230873Y162522D03*
D120*
X241389Y162522D03*
D89*
X199555Y162751D03*
D64*
X210185Y162751D03*
X220472Y162751D03*
X230759Y162751D03*
D120*
X241389Y162751D03*
D90*
X199326Y162979D03*
D73*
X210185Y162979D03*
X220472Y162979D03*
X230759Y162979D03*
D122*
X241389Y162979D03*
D27*
X199326Y163208D03*
D69*
X210071Y163208D03*
D64*
X220472Y163208D03*
X230759Y163208D03*
D27*
X241617Y163208D03*
X199326Y163436D03*
D69*
X210071Y163436D03*
D15*
X220586Y163436D03*
D69*
X230873Y163436D03*
D27*
X241617Y163436D03*
X199326Y163665D03*
D69*
X210071Y163665D03*
D70*
X220472Y163665D03*
D69*
X230873Y163665D03*
D27*
X241617Y163665D03*
X199326Y163894D03*
D69*
X210071Y163894D03*
D70*
X220472Y163894D03*
D69*
X230873Y163894D03*
D27*
X241617Y163894D03*
D90*
X199326Y164122D03*
D16*
X210071Y164122D03*
D71*
X220472Y164122D03*
D16*
X230873Y164122D03*
D90*
X241617Y164122D03*
D27*
X199326Y164351D03*
D69*
X210071Y164351D03*
D70*
X220472Y164351D03*
D69*
X230873Y164351D03*
D27*
X241617Y164351D03*
X199326Y164579D03*
D69*
X210071Y164579D03*
D70*
X220472Y164579D03*
D69*
X230873Y164579D03*
D27*
X241617Y164579D03*
D28*
X199212Y164808D03*
D64*
X210185Y164808D03*
D70*
X220472Y164808D03*
D69*
X230873Y164808D03*
D27*
X241617Y164808D03*
D28*
X199212Y165037D03*
D64*
X210185Y165037D03*
D70*
X220472Y165037D03*
D64*
X230759Y165037D03*
D28*
X241732Y165037D03*
D59*
X199212Y165265D03*
D73*
X210185Y165265D03*
D71*
X220472Y165265D03*
D73*
X230759Y165265D03*
D59*
X241732Y165265D03*
D28*
X199212Y165494D03*
D64*
X210185Y165494D03*
D70*
X220472Y165494D03*
D64*
X230759Y165494D03*
D28*
X241732Y165494D03*
X199212Y165722D03*
D64*
X210185Y165722D03*
D70*
X220472Y165722D03*
D64*
X230759Y165722D03*
D28*
X241732Y165722D03*
D29*
X199098Y165951D03*
D64*
X210185Y165951D03*
D70*
X220472Y165951D03*
D64*
X230759Y165951D03*
D28*
X241732Y165951D03*
D29*
X199098Y166180D03*
D64*
X210185Y166180D03*
D70*
X220472Y166180D03*
D64*
X230759Y166180D03*
D28*
X241732Y166180D03*
D123*
X198984Y166408D03*
D73*
X210185Y166408D03*
D71*
X220472Y166408D03*
D73*
X230759Y166408D03*
D124*
X241846Y166408D03*
D62*
X198984Y166637D03*
D64*
X210185Y166637D03*
D70*
X220472Y166637D03*
D64*
X230759Y166637D03*
D125*
X241960Y166637D03*
D62*
X198984Y166865D03*
D64*
X210185Y166865D03*
D70*
X220472Y166865D03*
D64*
X230759Y166865D03*
D125*
X241960Y166865D03*
D62*
X198984Y167094D03*
D64*
X210185Y167094D03*
D70*
X220472Y167094D03*
D64*
X230759Y167094D03*
D125*
X241960Y167094D03*
D62*
X198984Y167323D03*
D64*
X210185Y167323D03*
D15*
X220358Y167323D03*
D64*
X230759Y167323D03*
D125*
X241960Y167323D03*
D126*
X198869Y167551D03*
D73*
X210185Y167551D03*
D66*
X220586Y167551D03*
D73*
X230759Y167551D03*
D127*
X241960Y167551D03*
D30*
X198869Y167780D03*
D69*
X210071Y167780D03*
D70*
X220472Y167780D03*
D64*
X230759Y167780D03*
D30*
X242075Y167780D03*
X198869Y168008D03*
D69*
X210071Y168008D03*
D70*
X220472Y168008D03*
D69*
X230873Y168008D03*
D30*
X242075Y168008D03*
D78*
X208356Y168237D03*
D69*
X230873Y168237D03*
D30*
X242075Y168237D03*
D128*
X220472Y168466D03*
D129*
X220472Y168694D03*
D128*
X220472Y168923D03*
X220472Y169151D03*
D130*
X220243Y169380D03*
D131*
X220472Y169609D03*
D132*
X220472Y169837D03*
D131*
X220472Y170066D03*
X220472Y170294D03*
X220472Y170523D03*
X220472Y170752D03*
D133*
X198641Y170980D03*
D16*
X210071Y170980D03*
D134*
X232702Y170980D03*
D20*
X196812Y171209D03*
D69*
X201155Y171209D03*
X210071Y171209D03*
D64*
X220472Y171209D03*
D69*
X230873Y171209D03*
D33*
X242303Y171209D03*
D63*
X196698Y171437D03*
D69*
X201155Y171437D03*
X210071Y171437D03*
D15*
X220586Y171437D03*
D69*
X230873Y171437D03*
X239789Y171437D03*
D20*
X244132Y171437D03*
X196583Y171666D03*
D69*
X201155Y171666D03*
X210071Y171666D03*
D70*
X220472Y171666D03*
D69*
X230873Y171666D03*
X239789Y171666D03*
D63*
X244246Y171666D03*
X196469Y171895D03*
D69*
X201155Y171895D03*
X210071Y171895D03*
D70*
X220472Y171895D03*
D69*
X230873Y171895D03*
X239789Y171895D03*
D20*
X244361Y171895D03*
D67*
X196469Y172123D03*
D16*
X201155Y172123D03*
X210071Y172123D03*
D71*
X220472Y172123D03*
D16*
X230873Y172123D03*
X239789Y172123D03*
D67*
X244475Y172123D03*
D63*
X196469Y172352D03*
D69*
X201155Y172352D03*
X210071Y172352D03*
D70*
X220472Y172352D03*
D69*
X230873Y172352D03*
X239789Y172352D03*
D63*
X244475Y172352D03*
X196469Y172580D03*
D69*
X201155Y172580D03*
D64*
X210185Y172580D03*
D70*
X220472Y172580D03*
D69*
X230873Y172580D03*
X239789Y172580D03*
D63*
X244475Y172580D03*
X196469Y172809D03*
D69*
X201155Y172809D03*
X210071Y172809D03*
D70*
X220472Y172809D03*
D64*
X230759Y172809D03*
D69*
X239789Y172809D03*
D63*
X244475Y172809D03*
X196469Y173038D03*
D69*
X201155Y173038D03*
X210071Y173038D03*
D70*
X220472Y173038D03*
D69*
X230873Y173038D03*
X239789Y173038D03*
D63*
X244475Y173038D03*
D67*
X196469Y173266D03*
D16*
X201155Y173266D03*
X210071Y173266D03*
D71*
X220472Y173266D03*
D16*
X230873Y173266D03*
X239789Y173266D03*
D67*
X244475Y173266D03*
D63*
X196469Y173495D03*
D69*
X201155Y173495D03*
D64*
X210185Y173495D03*
D70*
X220472Y173495D03*
D69*
X230873Y173495D03*
X239789Y173495D03*
D63*
X244475Y173495D03*
D19*
X196355Y173723D03*
D69*
X201155Y173723D03*
D64*
X210185Y173723D03*
D70*
X220472Y173723D03*
D64*
X230759Y173723D03*
D69*
X239789Y173723D03*
D63*
X244475Y173723D03*
X196240Y173952D03*
D69*
X201155Y173952D03*
D64*
X210185Y173952D03*
D70*
X220472Y173952D03*
D64*
X230759Y173952D03*
D69*
X239789Y173952D03*
D93*
X244589Y173952D03*
D20*
X196126Y174181D03*
D69*
X201155Y174181D03*
D64*
X210185Y174181D03*
D70*
X220472Y174181D03*
D64*
X230759Y174181D03*
D69*
X239789Y174181D03*
D63*
X244704Y174181D03*
D135*
X196126Y174409D03*
D16*
X201155Y174409D03*
D73*
X210185Y174409D03*
D71*
X220472Y174409D03*
D73*
X230759Y174409D03*
D16*
X239789Y174409D03*
D135*
X244818Y174409D03*
D20*
X196126Y174638D03*
D69*
X201155Y174638D03*
D64*
X210185Y174638D03*
D70*
X220472Y174638D03*
D64*
X230759Y174638D03*
D69*
X239789Y174638D03*
D20*
X244818Y174638D03*
X196126Y174866D03*
D69*
X201155Y174866D03*
D64*
X210185Y174866D03*
D70*
X220472Y174866D03*
D64*
X230759Y174866D03*
D69*
X239789Y174866D03*
D20*
X244818Y174866D03*
D63*
X196012Y175095D03*
D69*
X201155Y175095D03*
D64*
X210185Y175095D03*
D70*
X220472Y175095D03*
D64*
X230759Y175095D03*
D69*
X239789Y175095D03*
D20*
X244818Y175095D03*
D63*
X196012Y175324D03*
D69*
X201155Y175324D03*
D64*
X210185Y175324D03*
D70*
X220472Y175324D03*
D64*
X230759Y175324D03*
D69*
X239789Y175324D03*
D63*
X244932Y175324D03*
D67*
X196012Y175552D03*
D16*
X201155Y175552D03*
D73*
X210185Y175552D03*
D71*
X220472Y175552D03*
D73*
X230759Y175552D03*
D16*
X239789Y175552D03*
D67*
X244932Y175552D03*
D63*
X196012Y175781D03*
D69*
X201155Y175781D03*
D64*
X210185Y175781D03*
D70*
X220472Y175781D03*
D64*
X230759Y175781D03*
D69*
X239789Y175781D03*
D63*
X244932Y175781D03*
X196012Y176009D03*
D69*
X201155Y176009D03*
D64*
X210185Y176009D03*
D70*
X220472Y176009D03*
D64*
X230759Y176009D03*
D69*
X239789Y176009D03*
D63*
X244932Y176009D03*
D20*
X195897Y176238D03*
D69*
X201155Y176238D03*
D64*
X210185Y176238D03*
D70*
X220472Y176238D03*
D64*
X230759Y176238D03*
D69*
X239789Y176238D03*
D63*
X244932Y176238D03*
X195783Y176467D03*
D69*
X201155Y176467D03*
D64*
X210185Y176467D03*
D70*
X220472Y176467D03*
D64*
X230759Y176467D03*
D69*
X239789Y176467D03*
D20*
X245046Y176467D03*
D67*
X195783Y176695D03*
D16*
X201155Y176695D03*
D73*
X210185Y176695D03*
D71*
X220472Y176695D03*
D73*
X230759Y176695D03*
D16*
X239789Y176695D03*
D67*
X245161Y176695D03*
D63*
X195783Y176924D03*
D69*
X201155Y176924D03*
D64*
X210185Y176924D03*
D70*
X220472Y176924D03*
D64*
X230759Y176924D03*
D69*
X239789Y176924D03*
D63*
X245161Y176924D03*
X195783Y177152D03*
D69*
X201155Y177152D03*
D64*
X210185Y177152D03*
D70*
X220472Y177152D03*
D64*
X230759Y177152D03*
D69*
X239789Y177152D03*
D63*
X245161Y177152D03*
X195783Y177381D03*
D69*
X201155Y177381D03*
D64*
X210185Y177381D03*
D15*
X220358Y177381D03*
D64*
X230759Y177381D03*
D69*
X239789Y177381D03*
D63*
X245161Y177381D03*
X195783Y177610D03*
D69*
X201155Y177610D03*
D64*
X210185Y177610D03*
X220472Y177610D03*
X230759Y177610D03*
D69*
X239789Y177610D03*
D63*
X245161Y177610D03*
D135*
X195669Y177838D03*
D16*
X201155Y177838D03*
D73*
X210185Y177838D03*
X220472Y177838D03*
X230759Y177838D03*
D16*
X239789Y177838D03*
D67*
X245161Y177838D03*
D136*
X195555Y178067D03*
D69*
X201155Y178067D03*
X210071Y178067D03*
D64*
X220472Y178067D03*
X230759Y178067D03*
D69*
X239789Y178067D03*
D20*
X245275Y178067D03*
D136*
X195555Y178295D03*
D69*
X201155Y178295D03*
X210071Y178295D03*
D64*
X220472Y178295D03*
D69*
X230873Y178295D03*
X239789Y178295D03*
D106*
X245389Y178295D03*
D136*
X195555Y178524D03*
D64*
X201270Y178524D03*
D69*
X210071Y178524D03*
D64*
X220472Y178524D03*
D69*
X230873Y178524D03*
X239789Y178524D03*
D106*
X245389Y178524D03*
D136*
X195555Y178753D03*
D69*
X201155Y178753D03*
X210071Y178753D03*
D64*
X220472Y178753D03*
D69*
X230873Y178753D03*
D72*
X239674Y178753D03*
D106*
X245389Y178753D03*
D137*
X207556Y178981D03*
D16*
X230873Y178981D03*
X239789Y178981D03*
D107*
X245389Y178981D03*
D138*
X220472Y179210D03*
X220472Y179438D03*
X220472Y179667D03*
X220472Y179896D03*
D139*
X220472Y180124D03*
D138*
X220472Y180353D03*
X220472Y180581D03*
X220472Y180810D03*
X220472Y181039D03*
D140*
X220358Y181267D03*
D141*
X220472Y181496D03*
D20*
X195212Y181724D03*
D69*
X201155Y181724D03*
X210071Y181724D03*
D142*
X233502Y181724D03*
D63*
X195097Y181953D03*
D69*
X201155Y181953D03*
X210071Y181953D03*
D64*
X220472Y181953D03*
D69*
X230873Y181953D03*
X239789Y181953D03*
D20*
X245732Y181953D03*
D63*
X195097Y182182D03*
D69*
X201155Y182182D03*
X210071Y182182D03*
D15*
X220586Y182182D03*
D69*
X230873Y182182D03*
X239789Y182182D03*
D63*
X245847Y182182D03*
D67*
X195097Y182410D03*
D16*
X201155Y182410D03*
X210071Y182410D03*
D71*
X220472Y182410D03*
D16*
X230873Y182410D03*
X239789Y182410D03*
D67*
X245847Y182410D03*
D63*
X195097Y182639D03*
D69*
X201155Y182639D03*
X210071Y182639D03*
D70*
X220472Y182639D03*
D69*
X230873Y182639D03*
X239789Y182639D03*
D63*
X245847Y182639D03*
X195097Y182867D03*
D69*
X201155Y182867D03*
D64*
X210185Y182867D03*
D70*
X220472Y182867D03*
D69*
X230873Y182867D03*
X239789Y182867D03*
D63*
X245847Y182867D03*
X195097Y183096D03*
D69*
X201155Y183096D03*
X210071Y183096D03*
D70*
X220472Y183096D03*
D64*
X230759Y183096D03*
D69*
X239789Y183096D03*
D63*
X245847Y183096D03*
X195097Y183325D03*
D69*
X201155Y183325D03*
X210071Y183325D03*
D70*
X220472Y183325D03*
D69*
X230873Y183325D03*
X239789Y183325D03*
D63*
X245847Y183325D03*
D67*
X195097Y183553D03*
D16*
X201155Y183553D03*
X210071Y183553D03*
D66*
X220358Y183553D03*
D16*
X230873Y183553D03*
X239789Y183553D03*
D67*
X245847Y183553D03*
D63*
X195097Y183782D03*
D69*
X201155Y183782D03*
X210071Y183782D03*
D64*
X220472Y183782D03*
D69*
X230873Y183782D03*
X239789Y183782D03*
D63*
X245847Y183782D03*
X195097Y184010D03*
D69*
X201155Y184010D03*
X210071Y184010D03*
D15*
X220586Y184010D03*
D69*
X230873Y184010D03*
X239789Y184010D03*
D63*
X245847Y184010D03*
X195097Y184239D03*
D69*
X201155Y184239D03*
X210071Y184239D03*
D70*
X220472Y184239D03*
D69*
X230873Y184239D03*
X239789Y184239D03*
D63*
X245847Y184239D03*
D19*
X194983Y184468D03*
D69*
X201155Y184468D03*
X210071Y184468D03*
D70*
X220472Y184468D03*
D69*
X230873Y184468D03*
X239789Y184468D03*
D63*
X245847Y184468D03*
D92*
X194983Y184696D03*
D16*
X201155Y184696D03*
X210071Y184696D03*
D71*
X220472Y184696D03*
D16*
X230873Y184696D03*
X239789Y184696D03*
D105*
X245961Y184696D03*
D63*
X194869Y184925D03*
D69*
X201155Y184925D03*
X210071Y184925D03*
D70*
X220472Y184925D03*
D69*
X230873Y184925D03*
X239789Y184925D03*
D93*
X245961Y184925D03*
D63*
X194869Y185153D03*
D69*
X201155Y185153D03*
X210071Y185153D03*
D70*
X220472Y185153D03*
D69*
X230873Y185153D03*
X239789Y185153D03*
D63*
X246075Y185153D03*
D20*
X194754Y185382D03*
D69*
X201155Y185382D03*
D64*
X210185Y185382D03*
D70*
X220472Y185382D03*
D69*
X230873Y185382D03*
X239789Y185382D03*
D63*
X246075Y185382D03*
D20*
X194754Y185611D03*
D69*
X201155Y185611D03*
D64*
X210185Y185611D03*
D70*
X220472Y185611D03*
D64*
X230759Y185611D03*
D69*
X239789Y185611D03*
D20*
X246189Y185611D03*
D135*
X194754Y185839D03*
D16*
X201155Y185839D03*
D73*
X210185Y185839D03*
D71*
X220472Y185839D03*
D73*
X230759Y185839D03*
D16*
X239789Y185839D03*
D135*
X246189Y185839D03*
D20*
X194754Y186068D03*
D69*
X201155Y186068D03*
D64*
X210185Y186068D03*
D70*
X220472Y186068D03*
D64*
X230759Y186068D03*
D69*
X239789Y186068D03*
D20*
X246189Y186068D03*
X194754Y186296D03*
D69*
X201155Y186296D03*
D64*
X210185Y186296D03*
D70*
X220472Y186296D03*
D64*
X230759Y186296D03*
D69*
X239789Y186296D03*
D20*
X246189Y186296D03*
X194754Y186525D03*
D69*
X201155Y186525D03*
D64*
X210185Y186525D03*
D70*
X220472Y186525D03*
D64*
X230759Y186525D03*
D69*
X239789Y186525D03*
D20*
X246189Y186525D03*
X194754Y186754D03*
D69*
X201155Y186754D03*
D64*
X210185Y186754D03*
D70*
X220472Y186754D03*
D64*
X230759Y186754D03*
D69*
X239789Y186754D03*
D20*
X246189Y186754D03*
D135*
X194754Y186982D03*
D16*
X201155Y186982D03*
D73*
X210185Y186982D03*
D71*
X220472Y186982D03*
D73*
X230759Y186982D03*
D16*
X239789Y186982D03*
D135*
X246189Y186982D03*
D63*
X194640Y187211D03*
D69*
X201155Y187211D03*
D64*
X210185Y187211D03*
D70*
X220472Y187211D03*
D64*
X230759Y187211D03*
D69*
X239789Y187211D03*
D20*
X246189Y187211D03*
D63*
X194640Y187439D03*
D69*
X201155Y187439D03*
D64*
X210185Y187439D03*
D70*
X220472Y187439D03*
D64*
X230759Y187439D03*
D69*
X239789Y187439D03*
D63*
X246304Y187439D03*
X194640Y187668D03*
D69*
X201155Y187668D03*
D64*
X210185Y187668D03*
D70*
X220472Y187668D03*
D64*
X230759Y187668D03*
D69*
X239789Y187668D03*
D63*
X246304Y187668D03*
X194640Y187897D03*
D69*
X201155Y187897D03*
X210071Y187897D03*
D70*
X220472Y187897D03*
D64*
X230759Y187897D03*
D69*
X239789Y187897D03*
D63*
X246304Y187897D03*
D67*
X194640Y188125D03*
D16*
X201155Y188125D03*
X210071Y188125D03*
D71*
X220472Y188125D03*
D16*
X230873Y188125D03*
X239789Y188125D03*
D67*
X246304Y188125D03*
D63*
X194640Y188354D03*
D69*
X201155Y188354D03*
X210071Y188354D03*
D70*
X220472Y188354D03*
D69*
X230873Y188354D03*
X239789Y188354D03*
D63*
X246304Y188354D03*
D93*
X194526Y188582D03*
D69*
X201155Y188582D03*
X210071Y188582D03*
D15*
X220358Y188582D03*
D69*
X230873Y188582D03*
X239789Y188582D03*
D63*
X246304Y188582D03*
D93*
X194526Y188811D03*
D69*
X201155Y188811D03*
X210071Y188811D03*
D64*
X220472Y188811D03*
D69*
X230873Y188811D03*
X239789Y188811D03*
D19*
X246418Y188811D03*
D93*
X194526Y189040D03*
D69*
X201155Y189040D03*
X210071Y189040D03*
D15*
X220586Y189040D03*
D69*
X230873Y189040D03*
X239789Y189040D03*
D19*
X246418Y189040D03*
D67*
X194640Y189268D03*
D16*
X201155Y189268D03*
X210071Y189268D03*
D66*
X220358Y189268D03*
D16*
X230873Y189268D03*
X239789Y189268D03*
D92*
X246418Y189268D03*
D25*
X195783Y189497D03*
D143*
X205499Y189497D03*
D144*
X214871Y189497D03*
D75*
X220129Y189497D03*
D69*
X230873Y189497D03*
X239789Y189497D03*
D63*
X246304Y189497D03*
D145*
X207556Y189725D03*
D144*
X226073Y189725D03*
D143*
X235445Y189725D03*
D25*
X245161Y189725D03*
D146*
X220472Y189954D03*
X220472Y190183D03*
D147*
X220358Y190411D03*
D148*
X220358Y190640D03*
D149*
X220472Y190868D03*
X220472Y191097D03*
X220472Y191326D03*
D150*
X220472Y191554D03*
D149*
X220472Y191783D03*
X220472Y192011D03*
D20*
X194526Y192240D03*
D68*
X201041Y192240D03*
D17*
X210071Y192240D03*
D151*
X233731Y192240D03*
D63*
X194412Y192469D03*
D69*
X201155Y192469D03*
X210071Y192469D03*
X220586Y192469D03*
D17*
X230873Y192469D03*
D68*
X239903Y192469D03*
D20*
X246418Y192469D03*
D67*
X194412Y192697D03*
D16*
X201155Y192697D03*
X210071Y192697D03*
D66*
X220586Y192697D03*
D16*
X230873Y192697D03*
X239789Y192697D03*
D67*
X246532Y192697D03*
D63*
X194412Y192926D03*
D69*
X201155Y192926D03*
X210071Y192926D03*
D70*
X220472Y192926D03*
D69*
X230873Y192926D03*
X239789Y192926D03*
D63*
X246532Y192926D03*
X194412Y193154D03*
D69*
X201155Y193154D03*
X210071Y193154D03*
D70*
X220472Y193154D03*
D69*
X230873Y193154D03*
X239789Y193154D03*
D63*
X246532Y193154D03*
X194412Y193383D03*
D69*
X201155Y193383D03*
D64*
X210185Y193383D03*
D15*
X220358Y193383D03*
D69*
X230873Y193383D03*
X239789Y193383D03*
D63*
X246532Y193383D03*
D93*
X194297Y193612D03*
D69*
X201155Y193612D03*
D64*
X210185Y193612D03*
X220472Y193612D03*
X230759Y193612D03*
D69*
X239789Y193612D03*
D63*
X246532Y193612D03*
D105*
X194297Y193840D03*
D16*
X201155Y193840D03*
X210071Y193840D03*
D73*
X220472Y193840D03*
X230759Y193840D03*
D16*
X239789Y193840D03*
D92*
X246647Y193840D03*
D93*
X194297Y194069D03*
D69*
X201155Y194069D03*
X210071Y194069D03*
D15*
X220586Y194069D03*
D69*
X230873Y194069D03*
X239789Y194069D03*
D19*
X246647Y194069D03*
D93*
X194297Y194297D03*
D69*
X201155Y194297D03*
X210071Y194297D03*
D70*
X220472Y194297D03*
D69*
X230873Y194297D03*
X239789Y194297D03*
D19*
X246647Y194297D03*
D93*
X194297Y194526D03*
D69*
X201155Y194526D03*
X210071Y194526D03*
D15*
X220358Y194526D03*
D69*
X230873Y194526D03*
X239789Y194526D03*
D19*
X246647Y194526D03*
D93*
X194297Y194755D03*
D69*
X201155Y194755D03*
X210071Y194755D03*
D64*
X220472Y194755D03*
D69*
X230873Y194755D03*
X239789Y194755D03*
D19*
X246647Y194755D03*
D67*
X194183Y194983D03*
D16*
X201155Y194983D03*
D73*
X210185Y194983D03*
X220472Y194983D03*
D16*
X230873Y194983D03*
X239789Y194983D03*
D92*
X246647Y194983D03*
D63*
X194183Y195212D03*
D69*
X201155Y195212D03*
D64*
X210185Y195212D03*
X220472Y195212D03*
X230759Y195212D03*
D69*
X239789Y195212D03*
D19*
X246647Y195212D03*
D63*
X194183Y195440D03*
D69*
X201155Y195440D03*
D64*
X210185Y195440D03*
D15*
X220586Y195440D03*
D64*
X230759Y195440D03*
D69*
X239789Y195440D03*
D19*
X246647Y195440D03*
D63*
X194183Y195669D03*
D69*
X201155Y195669D03*
D64*
X210185Y195669D03*
D70*
X220472Y195669D03*
D64*
X230759Y195669D03*
D69*
X239789Y195669D03*
D19*
X246647Y195669D03*
D93*
X194297Y195898D03*
D69*
X201155Y195898D03*
D64*
X210185Y195898D03*
D15*
X220358Y195898D03*
D64*
X230759Y195898D03*
D69*
X239789Y195898D03*
D19*
X246647Y195898D03*
D105*
X194297Y196126D03*
D16*
X201155Y196126D03*
D73*
X210185Y196126D03*
X220472Y196126D03*
X230759Y196126D03*
D16*
X239789Y196126D03*
D92*
X246647Y196126D03*
D63*
X194183Y196355D03*
D69*
X201155Y196355D03*
D64*
X210185Y196355D03*
D15*
X220586Y196355D03*
D64*
X230759Y196355D03*
D69*
X239789Y196355D03*
D19*
X246647Y196355D03*
D63*
X194183Y196583D03*
D69*
X201155Y196583D03*
D64*
X210185Y196583D03*
D70*
X220472Y196583D03*
D64*
X230759Y196583D03*
D69*
X239789Y196583D03*
D63*
X246761Y196583D03*
X194183Y196812D03*
D69*
X201155Y196812D03*
D64*
X210185Y196812D03*
D70*
X220472Y196812D03*
D64*
X230759Y196812D03*
D69*
X239789Y196812D03*
D63*
X246761Y196812D03*
D19*
X194069Y197041D03*
D69*
X201155Y197041D03*
D64*
X210185Y197041D03*
D70*
X220472Y197041D03*
D64*
X230759Y197041D03*
D69*
X239789Y197041D03*
D63*
X246761Y197041D03*
D92*
X194069Y197269D03*
D16*
X201155Y197269D03*
D73*
X210185Y197269D03*
D71*
X220472Y197269D03*
D73*
X230759Y197269D03*
D16*
X239789Y197269D03*
D105*
X246875Y197269D03*
D19*
X194069Y197498D03*
D69*
X201155Y197498D03*
D64*
X210185Y197498D03*
D70*
X220472Y197498D03*
D64*
X230759Y197498D03*
D69*
X239789Y197498D03*
D93*
X246875Y197498D03*
D19*
X194069Y197726D03*
D69*
X201155Y197726D03*
D64*
X210185Y197726D03*
D70*
X220472Y197726D03*
D64*
X230759Y197726D03*
D69*
X239789Y197726D03*
D93*
X246875Y197726D03*
D19*
X194069Y197955D03*
D69*
X201155Y197955D03*
D64*
X210185Y197955D03*
D70*
X220472Y197955D03*
D64*
X230759Y197955D03*
D69*
X239789Y197955D03*
D93*
X246875Y197955D03*
D19*
X194069Y198184D03*
D69*
X201155Y198184D03*
X210071Y198184D03*
D15*
X220358Y198184D03*
D64*
X230759Y198184D03*
D69*
X239789Y198184D03*
D93*
X246875Y198184D03*
D92*
X194069Y198412D03*
D16*
X201155Y198412D03*
X210071Y198412D03*
D66*
X220586Y198412D03*
D16*
X230873Y198412D03*
X239789Y198412D03*
D105*
X246875Y198412D03*
D19*
X194069Y198641D03*
D69*
X201155Y198641D03*
X210071Y198641D03*
D70*
X220472Y198641D03*
D69*
X230873Y198641D03*
X239789Y198641D03*
D93*
X246875Y198641D03*
D19*
X194069Y198869D03*
D69*
X201155Y198869D03*
X210071Y198869D03*
D70*
X220472Y198869D03*
D69*
X230873Y198869D03*
X239789Y198869D03*
D93*
X246875Y198869D03*
D19*
X194069Y199098D03*
D69*
X201155Y199098D03*
X210071Y199098D03*
D70*
X220472Y199098D03*
D69*
X230873Y199098D03*
X239789Y199098D03*
D93*
X246875Y199098D03*
D19*
X194069Y199327D03*
D69*
X201155Y199327D03*
X210071Y199327D03*
D70*
X220472Y199327D03*
D69*
X230873Y199327D03*
X239789Y199327D03*
D93*
X246875Y199327D03*
D92*
X194069Y199555D03*
D16*
X201155Y199555D03*
X210071Y199555D03*
D71*
X220472Y199555D03*
D16*
X230873Y199555D03*
X239789Y199555D03*
D105*
X246875Y199555D03*
D19*
X194069Y199784D03*
D69*
X201155Y199784D03*
X210071Y199784D03*
D15*
X220358Y199784D03*
D69*
X230873Y199784D03*
X239789Y199784D03*
D93*
X246875Y199784D03*
D19*
X194069Y200012D03*
D69*
X201155Y200012D03*
X210071Y200012D03*
D64*
X220472Y200012D03*
D69*
X230873Y200012D03*
X239789Y200012D03*
D93*
X246875Y200012D03*
D20*
X194069Y200241D03*
D10*
X197498Y200241D03*
D51*
X201841Y200241D03*
D10*
X205499Y200241D03*
D17*
X210299Y200241D03*
D10*
X217614Y200241D03*
D68*
X220243Y200241D03*
D69*
X230873Y200241D03*
X239789Y200241D03*
D93*
X246875Y200241D03*
D152*
X207099Y200470D03*
D10*
X223329Y200470D03*
D17*
X230645Y200470D03*
D10*
X235445Y200470D03*
D51*
X239103Y200470D03*
D10*
X243446Y200470D03*
D20*
X246875Y200470D03*
D153*
X220472Y200698D03*
D154*
X220472Y200927D03*
X220472Y201155D03*
X220472Y201384D03*
X220472Y201613D03*
D153*
X220472Y201841D03*
D154*
X220472Y202070D03*
X220472Y202298D03*
X220472Y202527D03*
X220472Y202756D03*
D135*
X194069Y202984D03*
D55*
X201041Y202984D03*
D155*
X206985Y202984D03*
D55*
X209956Y202984D03*
D156*
X233959Y202984D03*
D63*
X193954Y203213D03*
D69*
X201155Y203213D03*
X210071Y203213D03*
X220586Y203213D03*
D68*
X230988Y203213D03*
D52*
X233959Y203213D03*
D68*
X239903Y203213D03*
D20*
X246875Y203213D03*
D63*
X193954Y203441D03*
D64*
X201270Y203441D03*
X210185Y203441D03*
D15*
X220586Y203441D03*
D69*
X230873Y203441D03*
X239789Y203441D03*
D63*
X246990Y203441D03*
X193954Y203670D03*
D69*
X201155Y203670D03*
X210071Y203670D03*
D15*
X220358Y203670D03*
D64*
X230759Y203670D03*
D72*
X239674Y203670D03*
D63*
X246990Y203670D03*
X193954Y203899D03*
D69*
X201155Y203899D03*
X210071Y203899D03*
D64*
X220472Y203899D03*
D69*
X230873Y203899D03*
X239789Y203899D03*
D63*
X246990Y203899D03*
D67*
X193954Y204127D03*
D16*
X201155Y204127D03*
X210071Y204127D03*
D73*
X220472Y204127D03*
D16*
X230873Y204127D03*
X239789Y204127D03*
D67*
X246990Y204127D03*
D63*
X193954Y204356D03*
D69*
X201155Y204356D03*
X210071Y204356D03*
D15*
X220586Y204356D03*
D69*
X230873Y204356D03*
X239789Y204356D03*
D63*
X246990Y204356D03*
X193954Y204584D03*
D69*
X201155Y204584D03*
X210071Y204584D03*
D70*
X220472Y204584D03*
D69*
X230873Y204584D03*
X239789Y204584D03*
D63*
X246990Y204584D03*
X193954Y204813D03*
D69*
X201155Y204813D03*
X210071Y204813D03*
D70*
X220472Y204813D03*
D69*
X230873Y204813D03*
X239789Y204813D03*
D63*
X246990Y204813D03*
X193954Y205042D03*
D69*
X201155Y205042D03*
X210071Y205042D03*
D70*
X220472Y205042D03*
D69*
X230873Y205042D03*
X239789Y205042D03*
D63*
X246990Y205042D03*
D67*
X193954Y205270D03*
D16*
X201155Y205270D03*
X210071Y205270D03*
D71*
X220472Y205270D03*
D16*
X230873Y205270D03*
X239789Y205270D03*
D67*
X246990Y205270D03*
D63*
X193954Y205499D03*
D69*
X201155Y205499D03*
X210071Y205499D03*
D70*
X220472Y205499D03*
D69*
X230873Y205499D03*
X239789Y205499D03*
D63*
X246990Y205499D03*
D19*
X193840Y205727D03*
D69*
X201155Y205727D03*
D64*
X210185Y205727D03*
D70*
X220472Y205727D03*
D69*
X230873Y205727D03*
X239789Y205727D03*
D63*
X246990Y205727D03*
D19*
X193840Y205956D03*
D69*
X201155Y205956D03*
D64*
X210185Y205956D03*
D70*
X220472Y205956D03*
D64*
X230759Y205956D03*
D69*
X239789Y205956D03*
D93*
X247104Y205956D03*
D19*
X193840Y206185D03*
D69*
X201155Y206185D03*
D64*
X210185Y206185D03*
D70*
X220472Y206185D03*
D64*
X230759Y206185D03*
D69*
X239789Y206185D03*
D93*
X247104Y206185D03*
D92*
X193840Y206413D03*
D16*
X201155Y206413D03*
D73*
X210185Y206413D03*
D71*
X220472Y206413D03*
D73*
X230759Y206413D03*
D16*
X239789Y206413D03*
D105*
X247104Y206413D03*
D19*
X193840Y206642D03*
D69*
X201155Y206642D03*
D64*
X210185Y206642D03*
D70*
X220472Y206642D03*
D64*
X230759Y206642D03*
D69*
X239789Y206642D03*
D93*
X247104Y206642D03*
D19*
X193840Y206870D03*
D69*
X201155Y206870D03*
D64*
X210185Y206870D03*
D70*
X220472Y206870D03*
D64*
X230759Y206870D03*
D69*
X239789Y206870D03*
D93*
X247104Y206870D03*
D19*
X193840Y207099D03*
D69*
X201155Y207099D03*
D64*
X210185Y207099D03*
D70*
X220472Y207099D03*
D64*
X230759Y207099D03*
D69*
X239789Y207099D03*
D93*
X247104Y207099D03*
D19*
X193840Y207328D03*
D69*
X201155Y207328D03*
D64*
X210185Y207328D03*
D70*
X220472Y207328D03*
D64*
X230759Y207328D03*
D69*
X239789Y207328D03*
D93*
X247104Y207328D03*
D92*
X193840Y207556D03*
D16*
X201155Y207556D03*
D73*
X210185Y207556D03*
D71*
X220472Y207556D03*
D73*
X230759Y207556D03*
D16*
X239789Y207556D03*
D105*
X247104Y207556D03*
D19*
X193840Y207785D03*
D69*
X201155Y207785D03*
D64*
X210185Y207785D03*
D70*
X220472Y207785D03*
D64*
X230759Y207785D03*
D69*
X239789Y207785D03*
D93*
X247104Y207785D03*
D19*
X193840Y208013D03*
D69*
X201155Y208013D03*
D64*
X210185Y208013D03*
D70*
X220472Y208013D03*
D64*
X230759Y208013D03*
D69*
X239789Y208013D03*
D93*
X247104Y208013D03*
D19*
X193840Y208242D03*
D69*
X201155Y208242D03*
D64*
X210185Y208242D03*
D70*
X220472Y208242D03*
D64*
X230759Y208242D03*
D69*
X239789Y208242D03*
D93*
X247104Y208242D03*
D19*
X193840Y208471D03*
D69*
X201155Y208471D03*
D64*
X210185Y208471D03*
D70*
X220472Y208471D03*
D64*
X230759Y208471D03*
D69*
X239789Y208471D03*
D93*
X247104Y208471D03*
D92*
X193840Y208699D03*
D16*
X201155Y208699D03*
D73*
X210185Y208699D03*
D71*
X220472Y208699D03*
D73*
X230759Y208699D03*
D16*
X239789Y208699D03*
D105*
X247104Y208699D03*
D19*
X193840Y208928D03*
D69*
X201155Y208928D03*
D64*
X210185Y208928D03*
D70*
X220472Y208928D03*
D64*
X230759Y208928D03*
D69*
X239789Y208928D03*
D93*
X247104Y208928D03*
D19*
X193840Y209156D03*
D69*
X201155Y209156D03*
X210071Y209156D03*
D70*
X220472Y209156D03*
D64*
X230759Y209156D03*
D69*
X239789Y209156D03*
D93*
X247104Y209156D03*
D19*
X193840Y209385D03*
D69*
X201155Y209385D03*
D64*
X210185Y209385D03*
D70*
X220472Y209385D03*
D69*
X230873Y209385D03*
X239789Y209385D03*
D93*
X247104Y209385D03*
D63*
X193954Y209614D03*
D69*
X201155Y209614D03*
D64*
X210185Y209614D03*
D70*
X220472Y209614D03*
D64*
X230759Y209614D03*
D69*
X239789Y209614D03*
D93*
X247104Y209614D03*
D67*
X193954Y209842D03*
D16*
X201155Y209842D03*
D73*
X210185Y209842D03*
D71*
X220472Y209842D03*
D73*
X230759Y209842D03*
D16*
X239789Y209842D03*
D67*
X246990Y209842D03*
D63*
X193954Y210071D03*
D69*
X201155Y210071D03*
D64*
X210185Y210071D03*
D70*
X220472Y210071D03*
D64*
X230759Y210071D03*
D69*
X239789Y210071D03*
D63*
X246990Y210071D03*
X193954Y210299D03*
D69*
X201155Y210299D03*
D64*
X210185Y210299D03*
D70*
X220472Y210299D03*
D64*
X230759Y210299D03*
D69*
X239789Y210299D03*
D63*
X246990Y210299D03*
X193954Y210528D03*
D69*
X201155Y210528D03*
X210071Y210528D03*
D15*
X220358Y210528D03*
D64*
X230759Y210528D03*
D69*
X239789Y210528D03*
D63*
X246990Y210528D03*
D20*
X194069Y210757D03*
D17*
X201155Y210757D03*
D69*
X210071Y210757D03*
D18*
X220015Y210757D03*
D69*
X230873Y210757D03*
X239789Y210757D03*
D63*
X246990Y210757D03*
D157*
X207442Y210985D03*
D16*
X230873Y210985D03*
D91*
X239789Y210985D03*
D135*
X246875Y210985D03*
D158*
X220472Y211214D03*
X220472Y211442D03*
X220472Y211671D03*
X220472Y211900D03*
D159*
X220472Y212128D03*
D158*
X220472Y212357D03*
X220472Y212585D03*
X220472Y212814D03*
X220472Y213043D03*
D159*
X220472Y213271D03*
D158*
X220472Y213500D03*
D63*
X194183Y213728D03*
D69*
X201155Y213728D03*
X210071Y213728D03*
D145*
X233845Y213728D03*
D19*
X194069Y213957D03*
D69*
X201155Y213957D03*
X210071Y213957D03*
D64*
X220701Y213957D03*
D69*
X230873Y213957D03*
X239789Y213957D03*
D63*
X246761Y213957D03*
D19*
X194069Y214186D03*
D69*
X201155Y214186D03*
X210071Y214186D03*
D15*
X220358Y214186D03*
D69*
X230873Y214186D03*
X239789Y214186D03*
D93*
X246875Y214186D03*
D92*
X194069Y214414D03*
D16*
X201155Y214414D03*
X210071Y214414D03*
D73*
X220472Y214414D03*
D16*
X230873Y214414D03*
X239789Y214414D03*
D105*
X246875Y214414D03*
D19*
X194069Y214643D03*
D69*
X201155Y214643D03*
X210071Y214643D03*
D15*
X220586Y214643D03*
D69*
X230873Y214643D03*
X239789Y214643D03*
D93*
X246875Y214643D03*
D19*
X194069Y214871D03*
D69*
X201155Y214871D03*
X210071Y214871D03*
D70*
X220472Y214871D03*
D69*
X230873Y214871D03*
X239789Y214871D03*
D93*
X246875Y214871D03*
D19*
X194069Y215100D03*
D69*
X201155Y215100D03*
X210071Y215100D03*
D70*
X220472Y215100D03*
D69*
X230873Y215100D03*
X239789Y215100D03*
D93*
X246875Y215100D03*
D19*
X194069Y215329D03*
D69*
X201155Y215329D03*
X210071Y215329D03*
D70*
X220472Y215329D03*
D69*
X230873Y215329D03*
X239789Y215329D03*
D93*
X246875Y215329D03*
D65*
X194183Y215557D03*
D16*
X201155Y215557D03*
X210071Y215557D03*
D71*
X220472Y215557D03*
D16*
X230873Y215557D03*
X239789Y215557D03*
D105*
X246875Y215557D03*
D18*
X194183Y215786D03*
D69*
X201155Y215786D03*
X210071Y215786D03*
D70*
X220472Y215786D03*
D69*
X230873Y215786D03*
X239789Y215786D03*
D18*
X246761Y215786D03*
X194183Y216014D03*
D69*
X201155Y216014D03*
X210071Y216014D03*
D70*
X220472Y216014D03*
D69*
X230873Y216014D03*
X239789Y216014D03*
D18*
X246761Y216014D03*
X194183Y216243D03*
D69*
X201155Y216243D03*
D64*
X210185Y216243D03*
D70*
X220472Y216243D03*
D69*
X230873Y216243D03*
X239789Y216243D03*
D18*
X246761Y216243D03*
X194183Y216472D03*
D69*
X201155Y216472D03*
X210071Y216472D03*
D70*
X220472Y216472D03*
D64*
X230759Y216472D03*
D69*
X239789Y216472D03*
D18*
X246761Y216472D03*
D92*
X194069Y216700D03*
D16*
X201155Y216700D03*
X210071Y216700D03*
D71*
X220472Y216700D03*
D16*
X230873Y216700D03*
X239789Y216700D03*
D65*
X246761Y216700D03*
D19*
X194069Y216929D03*
D69*
X201155Y216929D03*
D64*
X210185Y216929D03*
D70*
X220472Y216929D03*
D69*
X230873Y216929D03*
X239789Y216929D03*
D93*
X246875Y216929D03*
D18*
X194183Y217157D03*
D69*
X201155Y217157D03*
D64*
X210185Y217157D03*
D70*
X220472Y217157D03*
D64*
X230759Y217157D03*
D69*
X239789Y217157D03*
D93*
X246875Y217157D03*
D18*
X194183Y217386D03*
D69*
X201155Y217386D03*
D64*
X210185Y217386D03*
D70*
X220472Y217386D03*
D64*
X230759Y217386D03*
D69*
X239789Y217386D03*
D18*
X246761Y217386D03*
X194183Y217615D03*
D69*
X201155Y217615D03*
D64*
X210185Y217615D03*
D70*
X220472Y217615D03*
D64*
X230759Y217615D03*
D69*
X239789Y217615D03*
D18*
X246761Y217615D03*
D65*
X194183Y217843D03*
D16*
X201155Y217843D03*
D73*
X210185Y217843D03*
D71*
X220472Y217843D03*
D73*
X230759Y217843D03*
D16*
X239789Y217843D03*
D65*
X246761Y217843D03*
D18*
X194183Y218072D03*
D69*
X201155Y218072D03*
D64*
X210185Y218072D03*
D70*
X220472Y218072D03*
D64*
X230759Y218072D03*
D69*
X239789Y218072D03*
D18*
X246761Y218072D03*
D93*
X194297Y218300D03*
D69*
X201155Y218300D03*
D64*
X210185Y218300D03*
D70*
X220472Y218300D03*
D64*
X230759Y218300D03*
D69*
X239789Y218300D03*
D18*
X246761Y218300D03*
D93*
X194297Y218529D03*
D69*
X201155Y218529D03*
X210071Y218529D03*
D70*
X220472Y218529D03*
D64*
X230759Y218529D03*
D69*
X239789Y218529D03*
D19*
X246647Y218529D03*
D93*
X194297Y218758D03*
D69*
X201155Y218758D03*
X210071Y218758D03*
D70*
X220472Y218758D03*
D69*
X230873Y218758D03*
X239789Y218758D03*
D19*
X246647Y218758D03*
D105*
X194297Y218986D03*
D16*
X201155Y218986D03*
X210071Y218986D03*
D71*
X220472Y218986D03*
D16*
X230873Y218986D03*
X239789Y218986D03*
D92*
X246647Y218986D03*
D93*
X194297Y219215D03*
D69*
X201155Y219215D03*
X210071Y219215D03*
D70*
X220472Y219215D03*
D69*
X230873Y219215D03*
X239789Y219215D03*
D19*
X246647Y219215D03*
D93*
X194297Y219443D03*
D69*
X201155Y219443D03*
X210071Y219443D03*
D70*
X220472Y219443D03*
D69*
X230873Y219443D03*
X239789Y219443D03*
D19*
X246647Y219443D03*
D93*
X194297Y219672D03*
D69*
X201155Y219672D03*
X210071Y219672D03*
D70*
X220472Y219672D03*
D69*
X230873Y219672D03*
X239789Y219672D03*
D19*
X246647Y219672D03*
D93*
X194297Y219901D03*
D69*
X201155Y219901D03*
X210071Y219901D03*
D70*
X220472Y219901D03*
D69*
X230873Y219901D03*
X239789Y219901D03*
D19*
X246647Y219901D03*
D105*
X194297Y220129D03*
D73*
X201270Y220129D03*
D16*
X210071Y220129D03*
D66*
X220358Y220129D03*
D16*
X230873Y220129D03*
X239789Y220129D03*
D92*
X246647Y220129D03*
D93*
X194297Y220358D03*
D69*
X201155Y220358D03*
X210071Y220358D03*
D15*
X220586Y220358D03*
D69*
X230873Y220358D03*
D72*
X239674Y220358D03*
D19*
X246647Y220358D03*
D93*
X194297Y220586D03*
D69*
X201155Y220586D03*
X210071Y220586D03*
D70*
X220472Y220586D03*
D69*
X230873Y220586D03*
X239789Y220586D03*
D19*
X246647Y220586D03*
D93*
X194297Y220815D03*
D69*
X201155Y220815D03*
X210071Y220815D03*
D70*
X220472Y220815D03*
D69*
X230873Y220815D03*
X239789Y220815D03*
D19*
X246647Y220815D03*
D93*
X194297Y221044D03*
D69*
X201155Y221044D03*
X210071Y221044D03*
D70*
X220472Y221044D03*
D69*
X230873Y221044D03*
X239789Y221044D03*
D19*
X246647Y221044D03*
D67*
X194412Y221272D03*
D16*
X201155Y221272D03*
X210071Y221272D03*
D66*
X220358Y221272D03*
D16*
X230873Y221272D03*
X239789Y221272D03*
D92*
X246647Y221272D03*
D63*
X194412Y221501D03*
D17*
X201155Y221501D03*
D69*
X210071Y221501D03*
X220358Y221501D03*
X230873Y221501D03*
X239789Y221501D03*
D63*
X246532Y221501D03*
D151*
X207213Y221729D03*
D69*
X230873Y221729D03*
D17*
X239789Y221729D03*
D63*
X246532Y221729D03*
D148*
X220586Y221958D03*
D146*
X220472Y222187D03*
D160*
X220472Y222415D03*
D146*
X220472Y222644D03*
X220472Y222872D03*
X220472Y223101D03*
X220472Y223330D03*
D160*
X220472Y223558D03*
D146*
X220472Y223787D03*
X220472Y224015D03*
X220472Y224244D03*
D93*
X194526Y224473D03*
D69*
X201155Y224473D03*
X210071Y224473D03*
D161*
X233731Y224473D03*
D105*
X194526Y224701D03*
D73*
X201270Y224701D03*
D16*
X210071Y224701D03*
D66*
X220586Y224701D03*
D16*
X230873Y224701D03*
X239789Y224701D03*
D92*
X246418Y224701D03*
D93*
X194526Y224930D03*
D69*
X201155Y224930D03*
X210071Y224930D03*
D70*
X220472Y224930D03*
D69*
X230873Y224930D03*
D72*
X239674Y224930D03*
D19*
X246418Y224930D03*
D93*
X194526Y225158D03*
D69*
X201155Y225158D03*
X210071Y225158D03*
D70*
X220472Y225158D03*
D69*
X230873Y225158D03*
X239789Y225158D03*
D19*
X246418Y225158D03*
D93*
X194526Y225387D03*
D69*
X201155Y225387D03*
X210071Y225387D03*
D70*
X220472Y225387D03*
D69*
X230873Y225387D03*
X239789Y225387D03*
D19*
X246418Y225387D03*
D93*
X194526Y225616D03*
D69*
X201155Y225616D03*
X210071Y225616D03*
D70*
X220472Y225616D03*
D69*
X230873Y225616D03*
X239789Y225616D03*
D19*
X246418Y225616D03*
D105*
X194526Y225844D03*
D16*
X201155Y225844D03*
X210071Y225844D03*
D71*
X220472Y225844D03*
D16*
X230873Y225844D03*
X239789Y225844D03*
D92*
X246418Y225844D03*
D93*
X194526Y226073D03*
D69*
X201155Y226073D03*
X210071Y226073D03*
D70*
X220472Y226073D03*
D69*
X230873Y226073D03*
X239789Y226073D03*
D19*
X246418Y226073D03*
D93*
X194526Y226301D03*
D69*
X201155Y226301D03*
X210071Y226301D03*
D70*
X220472Y226301D03*
D69*
X230873Y226301D03*
X239789Y226301D03*
D19*
X246418Y226301D03*
D63*
X194640Y226530D03*
D69*
X201155Y226530D03*
D64*
X210185Y226530D03*
D15*
X220358Y226530D03*
D69*
X230873Y226530D03*
X239789Y226530D03*
D19*
X246418Y226530D03*
D63*
X194640Y226759D03*
D69*
X201155Y226759D03*
D64*
X210185Y226759D03*
D15*
X220586Y226759D03*
D64*
X230759Y226759D03*
D69*
X239789Y226759D03*
D63*
X246304Y226759D03*
D67*
X194640Y226987D03*
D16*
X201155Y226987D03*
D73*
X210185Y226987D03*
D71*
X220472Y226987D03*
D73*
X230759Y226987D03*
D16*
X239789Y226987D03*
D67*
X246304Y226987D03*
D63*
X194640Y227216D03*
D69*
X201155Y227216D03*
D64*
X210185Y227216D03*
D70*
X220472Y227216D03*
D64*
X230759Y227216D03*
D69*
X239789Y227216D03*
D63*
X246304Y227216D03*
D19*
X194754Y227444D03*
D69*
X201155Y227444D03*
D64*
X210185Y227444D03*
D70*
X220472Y227444D03*
D64*
X230759Y227444D03*
D69*
X239789Y227444D03*
D63*
X246304Y227444D03*
D19*
X194754Y227673D03*
D69*
X201155Y227673D03*
D64*
X210185Y227673D03*
D70*
X220472Y227673D03*
D64*
X230759Y227673D03*
D69*
X239789Y227673D03*
D19*
X246189Y227673D03*
D63*
X194869Y227902D03*
D69*
X201155Y227902D03*
D64*
X210185Y227902D03*
D70*
X220472Y227902D03*
D64*
X230759Y227902D03*
D69*
X239789Y227902D03*
D19*
X246189Y227902D03*
D67*
X194869Y228130D03*
D16*
X201155Y228130D03*
D73*
X210185Y228130D03*
D71*
X220472Y228130D03*
D73*
X230759Y228130D03*
D16*
X239789Y228130D03*
D67*
X246075Y228130D03*
D63*
X194869Y228359D03*
D69*
X201155Y228359D03*
D64*
X210185Y228359D03*
D70*
X220472Y228359D03*
D64*
X230759Y228359D03*
D69*
X239789Y228359D03*
D63*
X246075Y228359D03*
D19*
X194983Y228587D03*
D69*
X201155Y228587D03*
D64*
X210185Y228587D03*
D70*
X220472Y228587D03*
D64*
X230759Y228587D03*
D69*
X239789Y228587D03*
D63*
X246075Y228587D03*
D19*
X194983Y228816D03*
D69*
X201155Y228816D03*
X210071Y228816D03*
D70*
X220472Y228816D03*
D64*
X230759Y228816D03*
D69*
X239789Y228816D03*
D93*
X245961Y228816D03*
D19*
X194983Y229045D03*
D69*
X201155Y229045D03*
X210071Y229045D03*
D70*
X220472Y229045D03*
D69*
X230873Y229045D03*
X239789Y229045D03*
D93*
X245961Y229045D03*
D92*
X194983Y229273D03*
D16*
X201155Y229273D03*
X210071Y229273D03*
D71*
X220472Y229273D03*
D16*
X230873Y229273D03*
X239789Y229273D03*
D105*
X245961Y229273D03*
D19*
X194983Y229502D03*
D69*
X201155Y229502D03*
X210071Y229502D03*
D70*
X220472Y229502D03*
D69*
X230873Y229502D03*
X239789Y229502D03*
D93*
X245961Y229502D03*
D19*
X194983Y229730D03*
D69*
X201155Y229730D03*
X210071Y229730D03*
D70*
X220472Y229730D03*
D69*
X230873Y229730D03*
X239789Y229730D03*
D93*
X245961Y229730D03*
D19*
X194983Y229959D03*
D69*
X201155Y229959D03*
X210071Y229959D03*
D70*
X220472Y229959D03*
D69*
X230873Y229959D03*
X239789Y229959D03*
D93*
X245961Y229959D03*
D19*
X194983Y230188D03*
D69*
X201155Y230188D03*
X210071Y230188D03*
D70*
X220472Y230188D03*
D69*
X230873Y230188D03*
X239789Y230188D03*
D93*
X245961Y230188D03*
D92*
X194983Y230416D03*
D16*
X201155Y230416D03*
X210071Y230416D03*
D71*
X220472Y230416D03*
D16*
X230873Y230416D03*
X239789Y230416D03*
D105*
X245961Y230416D03*
D63*
X195097Y230645D03*
D69*
X201155Y230645D03*
X210071Y230645D03*
D70*
X220472Y230645D03*
D69*
X230873Y230645D03*
X239789Y230645D03*
D93*
X245961Y230645D03*
D63*
X195097Y230873D03*
D69*
X201155Y230873D03*
X210071Y230873D03*
D70*
X220472Y230873D03*
D69*
X230873Y230873D03*
X239789Y230873D03*
D63*
X245847Y230873D03*
X195097Y231102D03*
D69*
X201155Y231102D03*
X210071Y231102D03*
D15*
X220358Y231102D03*
D69*
X230873Y231102D03*
X239789Y231102D03*
D63*
X245847Y231102D03*
X195097Y231331D03*
D69*
X201155Y231331D03*
X210071Y231331D03*
D15*
X220586Y231331D03*
D69*
X230873Y231331D03*
X239789Y231331D03*
D63*
X245847Y231331D03*
D67*
X195097Y231559D03*
D16*
X201155Y231559D03*
X210071Y231559D03*
D66*
X220358Y231559D03*
D16*
X230873Y231559D03*
X239789Y231559D03*
D67*
X245847Y231559D03*
D63*
X195097Y231788D03*
D69*
X201155Y231788D03*
X210071Y231788D03*
D15*
X220586Y231788D03*
D69*
X230873Y231788D03*
X239789Y231788D03*
D63*
X245847Y231788D03*
X195097Y232016D03*
D69*
X201155Y232016D03*
D68*
X209956Y232016D03*
D72*
X220243Y232016D03*
D69*
X230873Y232016D03*
X239789Y232016D03*
D63*
X245847Y232016D03*
D162*
X199669Y232245D03*
D22*
X209271Y232245D03*
D75*
X215557Y232245D03*
D52*
X217957Y232245D03*
D68*
X220472Y232245D03*
X230988Y232245D03*
D69*
X239789Y232245D03*
D63*
X245847Y232245D03*
D142*
X207670Y232474D03*
D109*
X222987Y232474D03*
D17*
X225387Y232474D03*
D163*
X231673Y232474D03*
D162*
X241275Y232474D03*
D139*
X220472Y232702D03*
D138*
X220472Y232931D03*
X220472Y233159D03*
X220472Y233388D03*
X220472Y233617D03*
D139*
X220472Y233845D03*
D138*
X220472Y234074D03*
X220472Y234302D03*
X220472Y234531D03*
X220472Y234760D03*
D164*
X195555Y234988D03*
D165*
X198298Y234988D03*
D166*
X198984Y234988D03*
D91*
X201155Y234988D03*
D167*
X206413Y234988D03*
D16*
X210071Y234988D03*
D168*
X212928Y234988D03*
D165*
X215671Y234988D03*
D169*
X217043Y234988D03*
D170*
X233159Y234988D03*
D20*
X195440Y235217D03*
D69*
X201155Y235217D03*
X210071Y235217D03*
D68*
X220701Y235217D03*
D13*
X223901Y235217D03*
D56*
X225273Y235217D03*
D12*
X228016Y235217D03*
D69*
X230873Y235217D03*
D17*
X234531Y235217D03*
X239789Y235217D03*
D58*
X241960Y235217D03*
X242646Y235217D03*
D106*
X245389Y235217D03*
D20*
X195440Y235445D03*
D69*
X201155Y235445D03*
X210071Y235445D03*
D15*
X220586Y235445D03*
D69*
X230873Y235445D03*
X239789Y235445D03*
D20*
X245504Y235445D03*
X195440Y235674D03*
D69*
X201155Y235674D03*
X210071Y235674D03*
D70*
X220472Y235674D03*
D69*
X230873Y235674D03*
X239789Y235674D03*
D20*
X245504Y235674D03*
X195440Y235903D03*
D69*
X201155Y235903D03*
X210071Y235903D03*
D70*
X220472Y235903D03*
D69*
X230873Y235903D03*
X239789Y235903D03*
D20*
X245504Y235903D03*
D135*
X195669Y236131D03*
D16*
X201155Y236131D03*
X210071Y236131D03*
D71*
X220472Y236131D03*
D16*
X230873Y236131D03*
X239789Y236131D03*
D135*
X245504Y236131D03*
D20*
X195669Y236360D03*
D69*
X201155Y236360D03*
X210071Y236360D03*
D70*
X220472Y236360D03*
D69*
X230873Y236360D03*
X239789Y236360D03*
D20*
X245275Y236360D03*
D63*
X195783Y236588D03*
D69*
X201155Y236588D03*
D64*
X210185Y236588D03*
D70*
X220472Y236588D03*
D69*
X230873Y236588D03*
X239789Y236588D03*
D20*
X245275Y236588D03*
D63*
X195783Y236817D03*
D69*
X201155Y236817D03*
D64*
X210185Y236817D03*
D70*
X220472Y236817D03*
D64*
X230759Y236817D03*
D69*
X239789Y236817D03*
D63*
X245161Y236817D03*
X195783Y237046D03*
D69*
X201155Y237046D03*
D64*
X210185Y237046D03*
D70*
X220472Y237046D03*
D64*
X230759Y237046D03*
D69*
X239789Y237046D03*
D63*
X245161Y237046D03*
D67*
X195783Y237274D03*
D16*
X201155Y237274D03*
D73*
X210185Y237274D03*
D71*
X220472Y237274D03*
D73*
X230759Y237274D03*
D16*
X239789Y237274D03*
D67*
X245161Y237274D03*
D63*
X195783Y237503D03*
D69*
X201155Y237503D03*
D64*
X210185Y237503D03*
D70*
X220472Y237503D03*
D64*
X230759Y237503D03*
D69*
X239789Y237503D03*
D63*
X245161Y237503D03*
X195783Y237731D03*
D69*
X201155Y237731D03*
D64*
X210185Y237731D03*
D70*
X220472Y237731D03*
D64*
X230759Y237731D03*
D69*
X239789Y237731D03*
D63*
X245161Y237731D03*
D19*
X195897Y237960D03*
D69*
X201155Y237960D03*
D64*
X210185Y237960D03*
D70*
X220472Y237960D03*
D64*
X230759Y237960D03*
D69*
X239789Y237960D03*
D63*
X245161Y237960D03*
D19*
X195897Y238189D03*
D69*
X201155Y238189D03*
D64*
X210185Y238189D03*
D70*
X220472Y238189D03*
D64*
X230759Y238189D03*
D69*
X239789Y238189D03*
D63*
X245161Y238189D03*
D92*
X195897Y238417D03*
D16*
X201155Y238417D03*
D73*
X210185Y238417D03*
D71*
X220472Y238417D03*
D73*
X230759Y238417D03*
D16*
X239789Y238417D03*
D92*
X245046Y238417D03*
D63*
X196012Y238646D03*
D69*
X201155Y238646D03*
D64*
X210185Y238646D03*
D70*
X220472Y238646D03*
D64*
X230759Y238646D03*
D69*
X239789Y238646D03*
D19*
X245046Y238646D03*
D63*
X196012Y238874D03*
D69*
X201155Y238874D03*
D64*
X210185Y238874D03*
D70*
X220472Y238874D03*
D64*
X230759Y238874D03*
D69*
X239789Y238874D03*
D63*
X244932Y238874D03*
X196012Y239103D03*
D69*
X201155Y239103D03*
X210071Y239103D03*
D70*
X220472Y239103D03*
D64*
X230759Y239103D03*
D69*
X239789Y239103D03*
D63*
X244932Y239103D03*
X196012Y239332D03*
D69*
X201155Y239332D03*
X210071Y239332D03*
D70*
X220472Y239332D03*
D69*
X230873Y239332D03*
X239789Y239332D03*
D63*
X244932Y239332D03*
D135*
X196126Y239560D03*
D16*
X201155Y239560D03*
X210071Y239560D03*
D71*
X220472Y239560D03*
D16*
X230873Y239560D03*
X239789Y239560D03*
D67*
X244932Y239560D03*
D20*
X196126Y239789D03*
D69*
X201155Y239789D03*
X210071Y239789D03*
D70*
X220472Y239789D03*
D69*
X230873Y239789D03*
X239789Y239789D03*
D20*
X244818Y239789D03*
X196126Y240017D03*
D69*
X201155Y240017D03*
D64*
X210185Y240017D03*
D70*
X220472Y240017D03*
D69*
X230873Y240017D03*
X239789Y240017D03*
D20*
X244818Y240017D03*
X196126Y240246D03*
D69*
X201155Y240246D03*
X210071Y240246D03*
D70*
X220472Y240246D03*
D64*
X230759Y240246D03*
D69*
X239789Y240246D03*
D20*
X244818Y240246D03*
D63*
X196240Y240475D03*
D69*
X201155Y240475D03*
X210071Y240475D03*
D70*
X220472Y240475D03*
D69*
X230873Y240475D03*
X239789Y240475D03*
D20*
X244818Y240475D03*
D67*
X196240Y240703D03*
D16*
X201155Y240703D03*
X210071Y240703D03*
D71*
X220472Y240703D03*
D16*
X230873Y240703D03*
X239789Y240703D03*
D67*
X244704Y240703D03*
D63*
X196240Y240932D03*
D69*
X201155Y240932D03*
X210071Y240932D03*
D70*
X220472Y240932D03*
D69*
X230873Y240932D03*
X239789Y240932D03*
D63*
X244704Y240932D03*
X196240Y241160D03*
D69*
X201155Y241160D03*
X210071Y241160D03*
D70*
X220472Y241160D03*
D69*
X230873Y241160D03*
X239789Y241160D03*
D63*
X244704Y241160D03*
D20*
X196355Y241389D03*
D69*
X201155Y241389D03*
X210071Y241389D03*
D70*
X220472Y241389D03*
D69*
X230873Y241389D03*
X239789Y241389D03*
D63*
X244704Y241389D03*
D20*
X196355Y241618D03*
D69*
X201155Y241618D03*
X210071Y241618D03*
D70*
X220472Y241618D03*
D69*
X230873Y241618D03*
X239789Y241618D03*
D20*
X244589Y241618D03*
D67*
X196469Y241846D03*
D16*
X201155Y241846D03*
D73*
X210185Y241846D03*
D71*
X220472Y241846D03*
D16*
X230873Y241846D03*
X239789Y241846D03*
D135*
X244589Y241846D03*
D93*
X196583Y242075D03*
D64*
X201270Y242075D03*
X210185Y242075D03*
D70*
X220472Y242075D03*
D64*
X230759Y242075D03*
D69*
X239789Y242075D03*
D63*
X244475Y242075D03*
D93*
X196583Y242303D03*
D69*
X201155Y242303D03*
D64*
X210185Y242303D03*
D70*
X220472Y242303D03*
D64*
X230759Y242303D03*
D72*
X239674Y242303D03*
D19*
X244361Y242303D03*
D93*
X196583Y242532D03*
D69*
X201155Y242532D03*
X210071Y242532D03*
D70*
X220472Y242532D03*
D64*
X230759Y242532D03*
D69*
X239789Y242532D03*
D19*
X244361Y242532D03*
D63*
X196698Y242761D03*
D69*
X201155Y242761D03*
X210071Y242761D03*
D15*
X220358Y242761D03*
D69*
X230873Y242761D03*
X239789Y242761D03*
D19*
X244361Y242761D03*
D134*
X208242Y242989D03*
D16*
X230873Y242989D03*
X239789Y242989D03*
D67*
X244246Y242989D03*
D131*
X220472Y243218D03*
X220472Y243446D03*
X220472Y243675D03*
X220472Y243904D03*
D171*
X220586Y244132D03*
D130*
X220472Y244361D03*
X220472Y244589D03*
X220472Y244818D03*
X220472Y245047D03*
D172*
X220472Y245275D03*
D130*
X220472Y245504D03*
D32*
X198755Y245732D03*
D69*
X210071Y245732D03*
D80*
X232473Y245732D03*
D32*
X198755Y245961D03*
D69*
X210071Y245961D03*
X220586Y245961D03*
X230873Y245961D03*
D32*
X242189Y245961D03*
X198755Y246190D03*
D69*
X210071Y246190D03*
D15*
X220586Y246190D03*
D69*
X230873Y246190D03*
D32*
X242189Y246190D03*
D126*
X198869Y246418D03*
D73*
X210185Y246418D03*
D71*
X220472Y246418D03*
D16*
X230873Y246418D03*
D31*
X242189Y246418D03*
D62*
X198984Y246647D03*
D64*
X210185Y246647D03*
D15*
X220358Y246647D03*
D64*
X230759Y246647D03*
D30*
X242075Y246647D03*
D62*
X198984Y246875D03*
D69*
X210071Y246875D03*
D15*
X220586Y246875D03*
D64*
X230759Y246875D03*
D125*
X241960Y246875D03*
D62*
X198984Y247104D03*
D69*
X210071Y247104D03*
D70*
X220472Y247104D03*
D69*
X230873Y247104D03*
D125*
X241960Y247104D03*
D62*
X198984Y247333D03*
D69*
X210071Y247333D03*
D70*
X220472Y247333D03*
D69*
X230873Y247333D03*
D125*
X241960Y247333D03*
D123*
X198984Y247561D03*
D73*
X210185Y247561D03*
D71*
X220472Y247561D03*
D16*
X230873Y247561D03*
D127*
X241960Y247561D03*
D62*
X198984Y247790D03*
D64*
X210185Y247790D03*
D70*
X220472Y247790D03*
D64*
X230759Y247790D03*
D125*
X241960Y247790D03*
D62*
X198984Y248018D03*
D64*
X210185Y248018D03*
D70*
X220472Y248018D03*
D64*
X230759Y248018D03*
D125*
X241960Y248018D03*
D29*
X199098Y248247D03*
D64*
X210185Y248247D03*
D70*
X220472Y248247D03*
D64*
X230759Y248247D03*
D125*
X241960Y248247D03*
D29*
X199098Y248476D03*
D64*
X210185Y248476D03*
D70*
X220472Y248476D03*
D64*
X230759Y248476D03*
D29*
X241846Y248476D03*
D124*
X199098Y248704D03*
D73*
X210185Y248704D03*
D71*
X220472Y248704D03*
D73*
X230759Y248704D03*
D124*
X241846Y248704D03*
D29*
X199098Y248933D03*
D64*
X210185Y248933D03*
D70*
X220472Y248933D03*
D64*
X230759Y248933D03*
D29*
X241846Y248933D03*
X199098Y249161D03*
D64*
X210185Y249161D03*
D70*
X220472Y249161D03*
D64*
X230759Y249161D03*
D29*
X241846Y249161D03*
X199098Y249390D03*
D64*
X210185Y249390D03*
D70*
X220472Y249390D03*
D64*
X230759Y249390D03*
D29*
X241846Y249390D03*
D28*
X199212Y249619D03*
D64*
X210185Y249619D03*
D70*
X220472Y249619D03*
D64*
X230759Y249619D03*
D29*
X241846Y249619D03*
D59*
X199212Y249847D03*
D73*
X210185Y249847D03*
D71*
X220472Y249847D03*
D73*
X230759Y249847D03*
D59*
X241732Y249847D03*
D28*
X199212Y250076D03*
D64*
X210185Y250076D03*
D70*
X220472Y250076D03*
D64*
X230759Y250076D03*
D28*
X241732Y250076D03*
X199212Y250304D03*
D64*
X210185Y250304D03*
D70*
X220472Y250304D03*
D64*
X230759Y250304D03*
D28*
X241732Y250304D03*
D27*
X199326Y250533D03*
D64*
X210185Y250533D03*
D70*
X220472Y250533D03*
D64*
X230759Y250533D03*
D28*
X241732Y250533D03*
D27*
X199326Y250762D03*
D64*
X210185Y250762D03*
D70*
X220472Y250762D03*
D64*
X230759Y250762D03*
D27*
X241617Y250762D03*
D26*
X199441Y250990D03*
D73*
X210185Y250990D03*
D71*
X220472Y250990D03*
D73*
X230759Y250990D03*
D90*
X241617Y250990D03*
D25*
X199441Y251219D03*
D64*
X210185Y251219D03*
D70*
X220472Y251219D03*
D64*
X230759Y251219D03*
D25*
X241503Y251219D03*
X199441Y251447D03*
D64*
X210185Y251447D03*
D70*
X220472Y251447D03*
D64*
X230759Y251447D03*
D25*
X241503Y251447D03*
X199441Y251676D03*
D64*
X210185Y251676D03*
D70*
X220472Y251676D03*
D64*
X230759Y251676D03*
D25*
X241503Y251676D03*
X199441Y251905D03*
D64*
X210185Y251905D03*
D70*
X220472Y251905D03*
D64*
X230759Y251905D03*
D25*
X241503Y251905D03*
D26*
X199441Y252133D03*
D73*
X210185Y252133D03*
D71*
X220472Y252133D03*
D73*
X230759Y252133D03*
D26*
X241503Y252133D03*
D25*
X199441Y252362D03*
D64*
X210185Y252362D03*
D70*
X220472Y252362D03*
D64*
X230759Y252362D03*
D25*
X241503Y252362D03*
X199441Y252590D03*
D64*
X210185Y252590D03*
D70*
X220472Y252590D03*
D64*
X230759Y252590D03*
D25*
X241503Y252590D03*
D89*
X199555Y252819D03*
D64*
X210185Y252819D03*
D70*
X220472Y252819D03*
D64*
X230759Y252819D03*
D25*
X241503Y252819D03*
D89*
X199555Y253048D03*
D64*
X210185Y253048D03*
D70*
X220472Y253048D03*
D64*
X230759Y253048D03*
D120*
X241389Y253048D03*
D119*
X199669Y253276D03*
D16*
X210071Y253276D03*
D71*
X220472Y253276D03*
D73*
X230759Y253276D03*
D122*
X241389Y253276D03*
D24*
X199669Y253505D03*
D69*
X210071Y253505D03*
D70*
X220472Y253505D03*
D69*
X230873Y253505D03*
D24*
X241275Y253505D03*
D173*
X209156Y253733D03*
D69*
X230873Y253733D03*
D24*
X241275Y253733D03*
D174*
X220472Y253962D03*
X220472Y254191D03*
D175*
X220586Y254419D03*
D117*
X220472Y254648D03*
X220472Y254876D03*
X220472Y255105D03*
X220472Y255334D03*
D176*
X220472Y255562D03*
D117*
X220472Y255791D03*
D116*
X220586Y256019D03*
D113*
X220586Y256248D03*
D23*
X200012Y256477D03*
D69*
X210071Y256477D03*
D177*
X231330Y256477D03*
D178*
X200012Y256705D03*
D73*
X210185Y256705D03*
X220472Y256705D03*
D16*
X230873Y256705D03*
D178*
X240932Y256705D03*
D22*
X200127Y256934D03*
D64*
X210185Y256934D03*
X220472Y256934D03*
X230759Y256934D03*
D23*
X240932Y256934D03*
D22*
X200127Y257162D03*
D64*
X210185Y257162D03*
D15*
X220586Y257162D03*
D64*
X230759Y257162D03*
D163*
X240817Y257162D03*
D51*
X200241Y257391D03*
D69*
X210071Y257391D03*
D70*
X220472Y257391D03*
D64*
X230759Y257391D03*
D163*
X240817Y257391D03*
D51*
X200241Y257620D03*
D69*
X210071Y257620D03*
D70*
X220472Y257620D03*
D69*
X230873Y257620D03*
D51*
X240703Y257620D03*
D107*
X200355Y257848D03*
D73*
X210185Y257848D03*
D71*
X220472Y257848D03*
D16*
X230873Y257848D03*
D21*
X240703Y257848D03*
D20*
X200469Y258077D03*
D64*
X210185Y258077D03*
D70*
X220472Y258077D03*
D64*
X230759Y258077D03*
D106*
X240589Y258077D03*
D20*
X200469Y258305D03*
D69*
X210071Y258305D03*
D15*
X220358Y258305D03*
D64*
X230759Y258305D03*
D20*
X240474Y258305D03*
X200469Y258534D03*
D64*
X210185Y258534D03*
D15*
X220586Y258534D03*
D69*
X230873Y258534D03*
D20*
X240474Y258534D03*
X200469Y258763D03*
D64*
X210185Y258763D03*
D70*
X220472Y258763D03*
D64*
X230759Y258763D03*
D20*
X240474Y258763D03*
D135*
X200469Y258991D03*
D73*
X210185Y258991D03*
D71*
X220472Y258991D03*
D73*
X230759Y258991D03*
D135*
X240474Y258991D03*
D20*
X200469Y259220D03*
D64*
X210185Y259220D03*
D70*
X220472Y259220D03*
D64*
X230759Y259220D03*
D20*
X240474Y259220D03*
X200469Y259448D03*
D64*
X210185Y259448D03*
D70*
X220472Y259448D03*
D64*
X230759Y259448D03*
D20*
X240474Y259448D03*
X200469Y259677D03*
D64*
X210185Y259677D03*
D70*
X220472Y259677D03*
D64*
X230759Y259677D03*
D20*
X240474Y259677D03*
X200469Y259906D03*
D64*
X210185Y259906D03*
D70*
X220472Y259906D03*
D64*
X230759Y259906D03*
D20*
X240474Y259906D03*
D135*
X200469Y260134D03*
D73*
X210185Y260134D03*
D71*
X220472Y260134D03*
D73*
X230759Y260134D03*
D135*
X240474Y260134D03*
D20*
X200469Y260363D03*
D64*
X210185Y260363D03*
D70*
X220472Y260363D03*
D64*
X230759Y260363D03*
D20*
X240474Y260363D03*
X200469Y260591D03*
D64*
X210185Y260591D03*
D70*
X220472Y260591D03*
D64*
X230759Y260591D03*
D20*
X240474Y260591D03*
X200469Y260820D03*
D64*
X210185Y260820D03*
D70*
X220472Y260820D03*
D64*
X230759Y260820D03*
D20*
X240474Y260820D03*
X200698Y261049D03*
D64*
X210185Y261049D03*
D70*
X220472Y261049D03*
D64*
X230759Y261049D03*
D20*
X240474Y261049D03*
D67*
X200812Y261277D03*
D73*
X210185Y261277D03*
D71*
X220472Y261277D03*
D73*
X230759Y261277D03*
D135*
X240246Y261277D03*
D63*
X200812Y261506D03*
D64*
X210185Y261506D03*
D70*
X220472Y261506D03*
D64*
X230759Y261506D03*
D63*
X240132Y261506D03*
D20*
X200927Y261734D03*
D64*
X210185Y261734D03*
D70*
X220472Y261734D03*
D64*
X230759Y261734D03*
D63*
X240132Y261734D03*
D20*
X200927Y261963D03*
D64*
X210185Y261963D03*
D70*
X220472Y261963D03*
D64*
X230759Y261963D03*
D20*
X240017Y261963D03*
X201155Y262192D03*
D64*
X210185Y262192D03*
D70*
X220472Y262192D03*
D64*
X230759Y262192D03*
D20*
X240017Y262192D03*
D135*
X201155Y262420D03*
D73*
X210185Y262420D03*
D71*
X220472Y262420D03*
D73*
X230759Y262420D03*
D135*
X239789Y262420D03*
D20*
X201155Y262649D03*
D64*
X210185Y262649D03*
D70*
X220472Y262649D03*
D64*
X230759Y262649D03*
D20*
X239789Y262649D03*
X201155Y262877D03*
D64*
X210185Y262877D03*
D70*
X220472Y262877D03*
D64*
X230759Y262877D03*
D20*
X239789Y262877D03*
D63*
X201270Y263106D03*
D64*
X210185Y263106D03*
D70*
X220472Y263106D03*
D64*
X230759Y263106D03*
D20*
X239789Y263106D03*
X201384Y263335D03*
D64*
X210185Y263335D03*
D70*
X220472Y263335D03*
D64*
X230759Y263335D03*
D63*
X239674Y263335D03*
D67*
X201498Y263563D03*
D73*
X210185Y263563D03*
D71*
X220472Y263563D03*
D73*
X230759Y263563D03*
D135*
X239560Y263563D03*
D20*
X201612Y263792D03*
D64*
X210185Y263792D03*
D70*
X220472Y263792D03*
D64*
X230759Y263792D03*
D63*
X239446Y263792D03*
X201727Y264020D03*
D69*
X210071Y264020D03*
D70*
X220472Y264020D03*
D64*
X230759Y264020D03*
D20*
X239331Y264020D03*
D106*
X201955Y264249D03*
D69*
X206184Y264249D03*
D37*
X212928Y264249D03*
D69*
X220129Y264249D03*
X230873Y264249D03*
D63*
X239217Y264249D03*
D179*
X210985Y264478D03*
D37*
X228016Y264478D03*
D69*
X234759Y264478D03*
D136*
X238989Y264478D03*
D180*
X220472Y264706D03*
D181*
X220472Y264935D03*
D182*
X220586Y265163D03*
D183*
X220472Y265392D03*
D184*
X220586Y265621D03*
D185*
X220472Y265849D03*
D186*
X220472Y266078D03*
X220472Y266306D03*
D187*
X220586Y266535D03*
D188*
X220472Y266764D03*
D189*
X202870Y266992D03*
D91*
X210071Y266992D03*
D165*
X215671Y266992D03*
D190*
X229502Y266992D03*
D106*
X202641Y267221D03*
D69*
X210071Y267221D03*
D17*
X220815Y267221D03*
D56*
X225273Y267221D03*
D17*
X230873Y267221D03*
D22*
X238074Y267221D03*
D63*
X202870Y267449D03*
D69*
X210071Y267449D03*
D15*
X220586Y267449D03*
D69*
X230873Y267449D03*
D106*
X238303Y267449D03*
D20*
X202984Y267678D03*
D69*
X210071Y267678D03*
D15*
X220358Y267678D03*
D69*
X230873Y267678D03*
D63*
X238074Y267678D03*
D20*
X202984Y267907D03*
D69*
X210071Y267907D03*
D64*
X220472Y267907D03*
D69*
X230873Y267907D03*
D20*
X237960Y267907D03*
D135*
X203213Y268135D03*
D73*
X210185Y268135D03*
X220472Y268135D03*
D16*
X230873Y268135D03*
D135*
X237960Y268135D03*
D20*
X203213Y268364D03*
D64*
X210185Y268364D03*
D15*
X220586Y268364D03*
D64*
X230759Y268364D03*
D20*
X237731Y268364D03*
X203213Y268592D03*
D64*
X210185Y268592D03*
D70*
X220472Y268592D03*
D64*
X230759Y268592D03*
D20*
X237731Y268592D03*
D106*
X203327Y268821D03*
D69*
X210071Y268821D03*
D70*
X220472Y268821D03*
D64*
X230759Y268821D03*
D20*
X237731Y268821D03*
X203441Y269050D03*
D69*
X210071Y269050D03*
D70*
X220472Y269050D03*
D69*
X230873Y269050D03*
D106*
X237617Y269050D03*
D67*
X203556Y269278D03*
D16*
X210071Y269278D03*
D71*
X220472Y269278D03*
D16*
X230873Y269278D03*
D135*
X237503Y269278D03*
D20*
X203670Y269507D03*
D64*
X210185Y269507D03*
D70*
X220472Y269507D03*
D69*
X230873Y269507D03*
D63*
X237388Y269507D03*
D20*
X203670Y269735D03*
D64*
X210185Y269735D03*
D70*
X220472Y269735D03*
D64*
X230759Y269735D03*
D20*
X237274Y269735D03*
X203898Y269964D03*
D64*
X210185Y269964D03*
D70*
X220472Y269964D03*
D64*
X230759Y269964D03*
D20*
X237274Y269964D03*
X203898Y270193D03*
D64*
X210185Y270193D03*
D70*
X220472Y270193D03*
D64*
X230759Y270193D03*
D20*
X237045Y270193D03*
D107*
X204013Y270421D03*
D73*
X210185Y270421D03*
D71*
X220472Y270421D03*
D73*
X230759Y270421D03*
D135*
X237045Y270421D03*
D20*
X204127Y270650D03*
D64*
X210185Y270650D03*
D70*
X220472Y270650D03*
D64*
X230759Y270650D03*
D106*
X236931Y270650D03*
D63*
X204241Y270878D03*
D64*
X210185Y270878D03*
D70*
X220472Y270878D03*
D64*
X230759Y270878D03*
D20*
X236817Y270878D03*
X204356Y271107D03*
D69*
X210071Y271107D03*
D70*
X220472Y271107D03*
D64*
X230759Y271107D03*
D63*
X236703Y271107D03*
D106*
X204470Y271336D03*
D69*
X210071Y271336D03*
D70*
X220472Y271336D03*
D69*
X230873Y271336D03*
D20*
X236588Y271336D03*
D107*
X204470Y271564D03*
D16*
X210071Y271564D03*
D71*
X220472Y271564D03*
D16*
X230873Y271564D03*
D107*
X236474Y271564D03*
D20*
X204584Y271793D03*
D69*
X210071Y271793D03*
D70*
X220472Y271793D03*
D69*
X230873Y271793D03*
D106*
X236474Y271793D03*
D136*
X204699Y272021D03*
D69*
X210071Y272021D03*
D70*
X220472Y272021D03*
D69*
X230873Y272021D03*
D20*
X236360Y272021D03*
D136*
X204699Y272250D03*
D69*
X210071Y272250D03*
D70*
X220472Y272250D03*
D69*
X230873Y272250D03*
D106*
X236245Y272250D03*
X204927Y272479D03*
D69*
X210071Y272479D03*
D70*
X220472Y272479D03*
D69*
X230873Y272479D03*
D106*
X236245Y272479D03*
D135*
X205041Y272707D03*
D16*
X210071Y272707D03*
D71*
X220472Y272707D03*
D16*
X230873Y272707D03*
D107*
X236017Y272707D03*
D106*
X205156Y272936D03*
D69*
X210071Y272936D03*
D70*
X220472Y272936D03*
D69*
X230873Y272936D03*
D20*
X235902Y272936D03*
X205270Y273164D03*
D69*
X210071Y273164D03*
D15*
X220358Y273164D03*
D69*
X230873Y273164D03*
D106*
X235788Y273164D03*
X205384Y273393D03*
D69*
X210071Y273393D03*
D64*
X220472Y273393D03*
D69*
X230873Y273393D03*
D20*
X235674Y273393D03*
D106*
X205384Y273622D03*
D69*
X210071Y273622D03*
D15*
X220586Y273622D03*
D69*
X230873Y273622D03*
D136*
X235560Y273622D03*
D107*
X205613Y273850D03*
D16*
X210071Y273850D03*
D71*
X220472Y273850D03*
D16*
X230873Y273850D03*
D164*
X235560Y273850D03*
D20*
X205727Y274079D03*
D69*
X210071Y274079D03*
D70*
X220472Y274079D03*
D69*
X230873Y274079D03*
D106*
X235331Y274079D03*
D136*
X205842Y274307D03*
D69*
X210071Y274307D03*
D70*
X220472Y274307D03*
D69*
X230873Y274307D03*
D20*
X235217Y274307D03*
D136*
X205842Y274536D03*
D69*
X210071Y274536D03*
D15*
X220358Y274536D03*
D69*
X230873Y274536D03*
D106*
X235102Y274536D03*
D20*
X205956Y274765D03*
D69*
X210071Y274765D03*
D64*
X220472Y274765D03*
D69*
X230873Y274765D03*
D106*
X235102Y274765D03*
D191*
X212814Y274993D03*
D16*
X230873Y274993D03*
D135*
X234988Y274993D03*
D192*
X220472Y275222D03*
D193*
X220701Y275450D03*
D194*
X220472Y275679D03*
X220472Y275908D03*
D195*
X220586Y276136D03*
D196*
X220472Y276365D03*
D197*
X220586Y276593D03*
D198*
X220586Y276822D03*
D199*
X220472Y277051D03*
D200*
X220586Y277279D03*
D201*
X220472Y277508D03*
D25*
X208356Y277736D03*
D202*
X227559Y277736D03*
D89*
X208470Y277965D03*
D70*
X220472Y277965D03*
D25*
X232588Y277965D03*
D24*
X208585Y278194D03*
D70*
X220472Y278194D03*
D89*
X232473Y278194D03*
D203*
X208699Y278422D03*
D71*
X220472Y278422D03*
D119*
X232359Y278422D03*
D204*
X208699Y278651D03*
D70*
X220472Y278651D03*
D144*
X232245Y278651D03*
D57*
X208813Y278879D03*
D70*
X220472Y278879D03*
D144*
X232245Y278879D03*
D23*
X208928Y279108D03*
D70*
X220472Y279108D03*
D57*
X232131Y279108D03*
D23*
X208928Y279337D03*
D70*
X220472Y279337D03*
D23*
X232016Y279337D03*
D205*
X209042Y279565D03*
D71*
X220472Y279565D03*
D178*
X232016Y279565D03*
D22*
X209042Y279794D03*
D70*
X220472Y279794D03*
D22*
X231902Y279794D03*
X209042Y280022D03*
D70*
X220472Y280022D03*
D22*
X231902Y280022D03*
D136*
X209271Y280251D03*
D70*
X220472Y280251D03*
D22*
X231902Y280251D03*
X209499Y280480D03*
D70*
X220472Y280480D03*
D106*
X231673Y280480D03*
D189*
X209728Y280708D03*
D71*
X220472Y280708D03*
D189*
X231445Y280708D03*
D163*
X209728Y280937D03*
D70*
X220472Y280937D03*
D22*
X231216Y280937D03*
D51*
X210071Y281165D03*
D70*
X220472Y281165D03*
D22*
X231216Y281165D03*
X210185Y281394D03*
D70*
X220472Y281394D03*
D51*
X230873Y281394D03*
D22*
X210414Y281623D03*
D70*
X220472Y281623D03*
D22*
X230759Y281623D03*
D178*
X210528Y281851D03*
D71*
X220472Y281851D03*
D189*
X230530Y281851D03*
D23*
X210756Y282080D03*
D70*
X220472Y282080D03*
D23*
X230416Y282080D03*
X210985Y282308D03*
D70*
X220472Y282308D03*
D23*
X230187Y282308D03*
D163*
X211099Y282537D03*
D70*
X220472Y282537D03*
D23*
X229959Y282537D03*
D57*
X211328Y282766D03*
D70*
X220472Y282766D03*
D22*
X229845Y282766D03*
D178*
X211671Y282994D03*
D71*
X220472Y282994D03*
D206*
X229616Y282994D03*
D23*
X211899Y283223D03*
D70*
X220472Y283223D03*
D23*
X229273Y283223D03*
D57*
X212014Y283451D03*
D70*
X220472Y283451D03*
D23*
X229044Y283451D03*
D57*
X212242Y283680D03*
D70*
X220472Y283680D03*
D57*
X228930Y283680D03*
D144*
X212585Y283909D03*
D70*
X220472Y283909D03*
D57*
X228702Y283909D03*
D119*
X212700Y284137D03*
D71*
X220472Y284137D03*
D207*
X228359Y284137D03*
D144*
X213042Y284366D03*
D70*
X220472Y284366D03*
D24*
X228244Y284366D03*
X213385Y284594D03*
D70*
X220472Y284594D03*
D144*
X227901Y284594D03*
D120*
X213728Y284823D03*
D70*
X220472Y284823D03*
D24*
X227559Y284823D03*
D120*
X213957Y285052D03*
D70*
X220472Y285052D03*
D89*
X227216Y285052D03*
D90*
X214414Y285280D03*
D71*
X220472Y285280D03*
D121*
X226987Y285280D03*
D28*
X214757Y285509D03*
D15*
X220358Y285509D03*
D27*
X226530Y285509D03*
D208*
X216700Y285737D03*
D28*
X226187Y285737D03*
D209*
X220586Y285966D03*
D210*
X220586Y286195D03*
D211*
X220586Y286423D03*
D212*
X220701Y286652D03*
D213*
X220472Y286880D03*
D214*
X220815Y287109D03*
D215*
X220586Y287338D03*
D216*
X220472Y287566D03*
D162*
X220701Y287795D03*
D143*
X220815Y288023D03*
D217*
X220586Y288252D03*
D43*
X220815Y288481D03*
D218*
X220701Y288709D03*
D34*
X220701Y288938D03*
D29*
X220815Y289166D03*
D23*
X221043Y289395D03*
D18*
X220701Y289624D03*
D168*
X221386Y289852D03*
D219*
X41205Y384937D03*
D220*
X55918Y384937D03*
D221*
X85477Y384937D03*
D222*
X41205Y385026D03*
D220*
X55829Y385026D03*
D221*
X85477Y385026D03*
D222*
X41205Y385115D03*
D220*
X55829Y385115D03*
D221*
X85477Y385115D03*
D222*
X41205Y385204D03*
D223*
X55785Y385204D03*
D221*
X85477Y385204D03*
D222*
X41205Y385293D03*
D224*
X55740Y385293D03*
D221*
X85477Y385293D03*
D222*
X41205Y385382D03*
D225*
X55696Y385382D03*
D221*
X85477Y385382D03*
D222*
X41205Y385470D03*
D226*
X55651Y385470D03*
D221*
X85477Y385470D03*
D222*
X41205Y385559D03*
D227*
X55607Y385559D03*
D221*
X85477Y385559D03*
D222*
X41205Y385648D03*
D228*
X55563Y385648D03*
D221*
X85477Y385648D03*
D222*
X41205Y385737D03*
D228*
X55563Y385737D03*
D221*
X85477Y385737D03*
D222*
X41205Y385826D03*
D229*
X55518Y385826D03*
D221*
X85477Y385826D03*
D222*
X41205Y385915D03*
D230*
X55474Y385915D03*
D221*
X85477Y385915D03*
D222*
X41205Y386004D03*
D231*
X55429Y386004D03*
D221*
X85477Y386004D03*
D222*
X41205Y386093D03*
D231*
X55429Y386093D03*
D221*
X85477Y386093D03*
D222*
X41205Y386182D03*
D232*
X55385Y386182D03*
D221*
X85477Y386182D03*
D222*
X41205Y386271D03*
D233*
X55340Y386271D03*
D221*
X85477Y386271D03*
D222*
X41205Y386359D03*
D234*
X55296Y386359D03*
D221*
X85477Y386359D03*
D222*
X41205Y386448D03*
D235*
X55251Y386448D03*
D221*
X85477Y386448D03*
D222*
X41205Y386537D03*
D236*
X55207Y386537D03*
D221*
X85477Y386537D03*
D222*
X41205Y386626D03*
D236*
X55207Y386626D03*
D221*
X85477Y386626D03*
D222*
X41205Y386715D03*
D237*
X55162Y386715D03*
D221*
X85477Y386715D03*
D222*
X41205Y386804D03*
D238*
X55118Y386804D03*
D221*
X85477Y386804D03*
D222*
X41205Y386893D03*
D239*
X55074Y386893D03*
D221*
X85477Y386893D03*
D222*
X41205Y386982D03*
D240*
X55029Y386982D03*
D221*
X85477Y386982D03*
D222*
X41205Y387071D03*
D241*
X54985Y387071D03*
D221*
X85477Y387071D03*
D222*
X41205Y387160D03*
D242*
X54940Y387160D03*
D221*
X85477Y387160D03*
D222*
X41205Y387248D03*
D243*
X54896Y387248D03*
D221*
X85477Y387248D03*
D222*
X41205Y387337D03*
D244*
X54851Y387337D03*
D221*
X85477Y387337D03*
D222*
X41205Y387426D03*
D245*
X54807Y387426D03*
D221*
X85477Y387426D03*
D222*
X41205Y387515D03*
D245*
X54807Y387515D03*
D221*
X85477Y387515D03*
D222*
X41205Y387604D03*
D246*
X54762Y387604D03*
D221*
X85477Y387604D03*
D222*
X41205Y387693D03*
D247*
X54718Y387693D03*
D221*
X85477Y387693D03*
D222*
X41205Y387782D03*
D248*
X54674Y387782D03*
D221*
X85477Y387782D03*
D222*
X41205Y387871D03*
D249*
X54629Y387871D03*
D221*
X85477Y387871D03*
D222*
X41205Y387960D03*
D250*
X54585Y387960D03*
D221*
X85477Y387960D03*
D222*
X41205Y388049D03*
D251*
X54540Y388049D03*
D221*
X85477Y388049D03*
D222*
X41205Y388137D03*
D252*
X54496Y388137D03*
D221*
X85477Y388137D03*
D222*
X41205Y388226D03*
D253*
X54451Y388226D03*
D221*
X85477Y388226D03*
D222*
X41205Y388315D03*
D253*
X54451Y388315D03*
D221*
X85477Y388315D03*
D222*
X41205Y388404D03*
D254*
X54407Y388404D03*
D221*
X85477Y388404D03*
D222*
X41205Y388493D03*
D255*
X54362Y388493D03*
D219*
X78099Y388493D03*
D256*
X92901Y388493D03*
D222*
X41205Y388582D03*
D257*
X54318Y388582D03*
D219*
X78099Y388582D03*
D256*
X92901Y388582D03*
D222*
X41205Y388671D03*
D258*
X54273Y388671D03*
D219*
X78099Y388671D03*
D256*
X92901Y388671D03*
D222*
X41205Y388760D03*
D259*
X54229Y388760D03*
D219*
X78099Y388760D03*
D256*
X92901Y388760D03*
D222*
X41205Y388849D03*
D260*
X54185Y388849D03*
D219*
X78099Y388849D03*
D256*
X92901Y388849D03*
D222*
X41205Y388938D03*
D261*
X54140Y388938D03*
D219*
X78099Y388938D03*
D256*
X92901Y388938D03*
D222*
X41205Y389026D03*
D262*
X54096Y389026D03*
D219*
X78099Y389026D03*
D256*
X92901Y389026D03*
D222*
X41205Y389115D03*
D262*
X54096Y389115D03*
D219*
X78099Y389115D03*
D256*
X92901Y389115D03*
D222*
X41205Y389204D03*
D263*
X54051Y389204D03*
D219*
X78099Y389204D03*
D256*
X92901Y389204D03*
D222*
X41205Y389293D03*
D264*
X54007Y389293D03*
D219*
X78099Y389293D03*
D256*
X92901Y389293D03*
D222*
X41205Y389382D03*
D265*
X53962Y389382D03*
D219*
X78099Y389382D03*
D256*
X92901Y389382D03*
D222*
X41205Y389471D03*
D266*
X53918Y389471D03*
D219*
X78099Y389471D03*
D256*
X92901Y389471D03*
D222*
X41205Y389560D03*
D267*
X53873Y389560D03*
D219*
X78099Y389560D03*
D256*
X92901Y389560D03*
D222*
X41205Y389649D03*
D268*
X53829Y389649D03*
D219*
X78099Y389649D03*
D256*
X92901Y389649D03*
D222*
X41205Y389738D03*
D268*
X53829Y389738D03*
D219*
X78099Y389738D03*
D256*
X92901Y389738D03*
D222*
X41205Y389827D03*
D269*
X53785Y389827D03*
D219*
X78099Y389827D03*
D256*
X92901Y389827D03*
D222*
X41205Y389915D03*
D270*
X53740Y389915D03*
D219*
X78099Y389915D03*
D256*
X92901Y389915D03*
D222*
X41205Y390004D03*
D271*
X53696Y390004D03*
D219*
X78099Y390004D03*
D256*
X92901Y390004D03*
D222*
X41205Y390093D03*
D272*
X53651Y390093D03*
D219*
X78099Y390093D03*
D256*
X92901Y390093D03*
D222*
X41205Y390182D03*
D273*
X53607Y390182D03*
D219*
X78099Y390182D03*
D256*
X92901Y390182D03*
D222*
X41205Y390271D03*
D231*
X51695Y390271D03*
D256*
X55918Y390271D03*
D219*
X78099Y390271D03*
D256*
X92901Y390271D03*
D222*
X41205Y390360D03*
D231*
X51695Y390360D03*
D256*
X55918Y390360D03*
D219*
X78099Y390360D03*
D256*
X92901Y390360D03*
D222*
X41205Y390449D03*
D231*
X51606Y390449D03*
D256*
X55918Y390449D03*
D219*
X78099Y390449D03*
D256*
X92901Y390449D03*
D222*
X41205Y390538D03*
D231*
X51518Y390538D03*
D256*
X55918Y390538D03*
D219*
X78099Y390538D03*
D256*
X92901Y390538D03*
D222*
X41205Y390627D03*
D231*
X51429Y390627D03*
D256*
X55918Y390627D03*
D219*
X78099Y390627D03*
D256*
X92901Y390627D03*
D222*
X41205Y390716D03*
D231*
X51340Y390716D03*
D256*
X55918Y390716D03*
D219*
X78099Y390716D03*
D256*
X92901Y390716D03*
D222*
X41205Y390804D03*
D232*
X51295Y390804D03*
D256*
X55918Y390804D03*
D219*
X78099Y390804D03*
D256*
X92901Y390804D03*
D222*
X41205Y390893D03*
D232*
X51206Y390893D03*
D256*
X55918Y390893D03*
D219*
X78099Y390893D03*
D256*
X92901Y390893D03*
D222*
X41205Y390982D03*
D232*
X51118Y390982D03*
D256*
X55918Y390982D03*
D219*
X78099Y390982D03*
D256*
X92901Y390982D03*
D222*
X41205Y391071D03*
D231*
X51073Y391071D03*
D256*
X55918Y391071D03*
D219*
X78099Y391071D03*
D256*
X92901Y391071D03*
D222*
X41205Y391160D03*
D231*
X50984Y391160D03*
D256*
X55918Y391160D03*
D219*
X78099Y391160D03*
D256*
X92901Y391160D03*
D222*
X41205Y391249D03*
D231*
X50895Y391249D03*
D256*
X55918Y391249D03*
D219*
X78099Y391249D03*
D256*
X92901Y391249D03*
D222*
X41205Y391338D03*
D231*
X50806Y391338D03*
D256*
X55918Y391338D03*
D219*
X78099Y391338D03*
D256*
X92901Y391338D03*
D222*
X41205Y391427D03*
D232*
X50762Y391427D03*
D256*
X55918Y391427D03*
D219*
X78099Y391427D03*
D256*
X92901Y391427D03*
D222*
X41205Y391516D03*
D232*
X50673Y391516D03*
D256*
X55918Y391516D03*
D219*
X78099Y391516D03*
D256*
X92901Y391516D03*
D222*
X41205Y391605D03*
D232*
X50584Y391605D03*
D256*
X55918Y391605D03*
D219*
X78099Y391605D03*
D256*
X92901Y391605D03*
D222*
X41205Y391693D03*
D232*
X50495Y391693D03*
D256*
X55918Y391693D03*
D219*
X78099Y391693D03*
D256*
X92901Y391693D03*
D222*
X41205Y391782D03*
D231*
X50451Y391782D03*
D256*
X55918Y391782D03*
D219*
X78099Y391782D03*
D256*
X92901Y391782D03*
D222*
X41205Y391871D03*
D231*
X50362Y391871D03*
D256*
X55918Y391871D03*
D219*
X78099Y391871D03*
D256*
X92901Y391871D03*
D222*
X41205Y391960D03*
D231*
X50273Y391960D03*
D256*
X55918Y391960D03*
D219*
X78099Y391960D03*
D256*
X92901Y391960D03*
D222*
X41205Y392049D03*
D232*
X50229Y392049D03*
D256*
X55918Y392049D03*
D219*
X78099Y392049D03*
D256*
X92901Y392049D03*
D222*
X41205Y392138D03*
D232*
X50140Y392138D03*
D256*
X55918Y392138D03*
D219*
X78099Y392138D03*
D256*
X92901Y392138D03*
D222*
X41205Y392227D03*
D232*
X50051Y392227D03*
D256*
X55918Y392227D03*
D219*
X78099Y392227D03*
D256*
X92901Y392227D03*
D222*
X41205Y392316D03*
D232*
X49962Y392316D03*
D256*
X55918Y392316D03*
D219*
X78099Y392316D03*
D256*
X92901Y392316D03*
D222*
X41205Y392405D03*
D232*
X49873Y392405D03*
D256*
X55918Y392405D03*
D219*
X78099Y392405D03*
D256*
X92901Y392405D03*
D222*
X41205Y392494D03*
D232*
X49784Y392494D03*
D256*
X55918Y392494D03*
D219*
X78099Y392494D03*
D256*
X92901Y392494D03*
D222*
X41205Y392582D03*
D232*
X49784Y392582D03*
D256*
X55918Y392582D03*
D219*
X78099Y392582D03*
D256*
X92901Y392582D03*
D222*
X41205Y392671D03*
D232*
X49695Y392671D03*
D256*
X55918Y392671D03*
D219*
X78099Y392671D03*
D256*
X92901Y392671D03*
D222*
X41205Y392760D03*
D232*
X49606Y392760D03*
D256*
X55918Y392760D03*
D219*
X78099Y392760D03*
D256*
X92901Y392760D03*
D222*
X41205Y392849D03*
D232*
X49517Y392849D03*
D256*
X55918Y392849D03*
D219*
X78099Y392849D03*
D256*
X92901Y392849D03*
D222*
X41205Y392938D03*
D232*
X49428Y392938D03*
D256*
X55918Y392938D03*
D219*
X78099Y392938D03*
D256*
X92901Y392938D03*
D222*
X41205Y393027D03*
D232*
X49340Y393027D03*
D256*
X55918Y393027D03*
D219*
X78099Y393027D03*
D256*
X92901Y393027D03*
D222*
X41205Y393116D03*
D231*
X49295Y393116D03*
D256*
X55918Y393116D03*
D219*
X78099Y393116D03*
D256*
X92901Y393116D03*
D222*
X41205Y393205D03*
D232*
X49251Y393205D03*
D256*
X55918Y393205D03*
D219*
X78099Y393205D03*
D256*
X92901Y393205D03*
D222*
X41205Y393294D03*
D232*
X49162Y393294D03*
D256*
X55918Y393294D03*
D219*
X78099Y393294D03*
D256*
X92901Y393294D03*
D222*
X41205Y393383D03*
D232*
X49073Y393383D03*
D256*
X55918Y393383D03*
D219*
X78099Y393383D03*
D256*
X92901Y393383D03*
D222*
X41205Y393471D03*
D233*
X49028Y393471D03*
D256*
X55918Y393471D03*
D219*
X78099Y393471D03*
D256*
X92901Y393471D03*
D222*
X41205Y393560D03*
D274*
X48939Y393560D03*
D256*
X55918Y393560D03*
D219*
X78099Y393560D03*
D256*
X92901Y393560D03*
D222*
X41205Y393649D03*
D232*
X48895Y393649D03*
D256*
X55918Y393649D03*
D219*
X78099Y393649D03*
D256*
X92901Y393649D03*
D222*
X41205Y393738D03*
D232*
X48806Y393738D03*
D256*
X55918Y393738D03*
D219*
X78099Y393738D03*
D256*
X92901Y393738D03*
D222*
X41205Y393827D03*
D232*
X48717Y393827D03*
D256*
X55918Y393827D03*
D219*
X78099Y393827D03*
D256*
X92901Y393827D03*
D222*
X41205Y393916D03*
D232*
X48628Y393916D03*
D256*
X55918Y393916D03*
D219*
X78099Y393916D03*
D256*
X92901Y393916D03*
D222*
X41205Y394005D03*
D232*
X48539Y394005D03*
D256*
X55918Y394005D03*
D219*
X78099Y394005D03*
D256*
X92901Y394005D03*
D222*
X41205Y394094D03*
D232*
X48451Y394094D03*
D256*
X55918Y394094D03*
D219*
X78099Y394094D03*
D256*
X92901Y394094D03*
D222*
X41205Y394183D03*
D232*
X48362Y394183D03*
D256*
X55918Y394183D03*
D219*
X78099Y394183D03*
D256*
X92901Y394183D03*
D222*
X41205Y394272D03*
D232*
X48273Y394272D03*
D256*
X55918Y394272D03*
D219*
X78099Y394272D03*
D256*
X92901Y394272D03*
D222*
X41205Y394360D03*
D233*
X48228Y394360D03*
D256*
X55918Y394360D03*
D219*
X78099Y394360D03*
D256*
X92901Y394360D03*
D222*
X41205Y394449D03*
D232*
X48184Y394449D03*
D256*
X55918Y394449D03*
D219*
X78099Y394449D03*
D256*
X92901Y394449D03*
D222*
X41205Y394538D03*
D232*
X48095Y394538D03*
D256*
X55918Y394538D03*
D219*
X78099Y394538D03*
D256*
X92901Y394538D03*
D222*
X41205Y394627D03*
D232*
X48006Y394627D03*
D256*
X55918Y394627D03*
D219*
X78099Y394627D03*
D256*
X92901Y394627D03*
D222*
X41205Y394716D03*
D232*
X47917Y394716D03*
D256*
X55918Y394716D03*
D219*
X78099Y394716D03*
D256*
X92901Y394716D03*
D222*
X41205Y394805D03*
D232*
X47828Y394805D03*
D256*
X55918Y394805D03*
D219*
X78099Y394805D03*
D256*
X92901Y394805D03*
D222*
X41205Y394894D03*
D232*
X47739Y394894D03*
D256*
X55918Y394894D03*
D219*
X78099Y394894D03*
D256*
X92901Y394894D03*
D222*
X41205Y394983D03*
D233*
X47695Y394983D03*
D256*
X55918Y394983D03*
D219*
X78099Y394983D03*
D256*
X92901Y394983D03*
D222*
X41205Y395072D03*
D274*
X47606Y395072D03*
D256*
X55918Y395072D03*
D219*
X78099Y395072D03*
D256*
X92901Y395072D03*
D222*
X41205Y395161D03*
D274*
X47517Y395161D03*
D256*
X55918Y395161D03*
D219*
X78099Y395161D03*
D256*
X92901Y395161D03*
D222*
X41205Y395249D03*
D274*
X47428Y395249D03*
D256*
X55918Y395249D03*
D219*
X78099Y395249D03*
D256*
X92901Y395249D03*
D222*
X41205Y395338D03*
D233*
X47339Y395338D03*
D256*
X55918Y395338D03*
D219*
X78099Y395338D03*
D256*
X92901Y395338D03*
D222*
X41205Y395427D03*
D232*
X47295Y395427D03*
D256*
X55918Y395427D03*
D219*
X78099Y395427D03*
D256*
X92901Y395427D03*
D222*
X41205Y395516D03*
D233*
X47250Y395516D03*
D256*
X55918Y395516D03*
D219*
X78099Y395516D03*
D256*
X92901Y395516D03*
D222*
X41205Y395605D03*
D274*
X47161Y395605D03*
D256*
X55918Y395605D03*
D219*
X78099Y395605D03*
D256*
X92901Y395605D03*
D222*
X41205Y395694D03*
D274*
X47073Y395694D03*
D256*
X55918Y395694D03*
D219*
X78099Y395694D03*
D256*
X92901Y395694D03*
D222*
X41205Y395783D03*
D274*
X46984Y395783D03*
D256*
X55918Y395783D03*
D219*
X78099Y395783D03*
D256*
X92901Y395783D03*
D222*
X41205Y395872D03*
D233*
X46895Y395872D03*
D256*
X55918Y395872D03*
D219*
X78099Y395872D03*
D256*
X92901Y395872D03*
D222*
X41205Y395961D03*
D233*
X46806Y395961D03*
D256*
X55918Y395961D03*
D219*
X78099Y395961D03*
D256*
X92901Y395961D03*
D222*
X41205Y396050D03*
D232*
X46761Y396050D03*
D256*
X55918Y396050D03*
D219*
X78099Y396050D03*
D256*
X92901Y396050D03*
D222*
X41205Y396138D03*
D274*
X46717Y396138D03*
D256*
X55918Y396138D03*
D219*
X78099Y396138D03*
D256*
X92901Y396138D03*
D222*
X41205Y396227D03*
D274*
X46628Y396227D03*
D256*
X55918Y396227D03*
D219*
X78099Y396227D03*
D256*
X92901Y396227D03*
D222*
X41205Y396316D03*
D274*
X46539Y396316D03*
D256*
X55918Y396316D03*
D219*
X78099Y396316D03*
D256*
X92901Y396316D03*
D222*
X41205Y396405D03*
D233*
X46450Y396405D03*
D256*
X55918Y396405D03*
D219*
X78099Y396405D03*
D256*
X92901Y396405D03*
D222*
X41205Y396494D03*
D233*
X46361Y396494D03*
D256*
X55918Y396494D03*
D219*
X78099Y396494D03*
D256*
X92901Y396494D03*
D222*
X41205Y396583D03*
D232*
X46317Y396583D03*
D256*
X55918Y396583D03*
D219*
X78099Y396583D03*
D256*
X92901Y396583D03*
D222*
X41205Y396672D03*
D232*
X46228Y396672D03*
D256*
X55918Y396672D03*
D219*
X78099Y396672D03*
D256*
X92901Y396672D03*
D222*
X41205Y396761D03*
D232*
X46139Y396761D03*
D256*
X55918Y396761D03*
D219*
X78099Y396761D03*
D256*
X92901Y396761D03*
D222*
X41205Y396850D03*
D274*
X46095Y396850D03*
D256*
X55918Y396850D03*
D219*
X78099Y396850D03*
D256*
X92901Y396850D03*
D222*
X41205Y396939D03*
D233*
X46006Y396939D03*
D256*
X55918Y396939D03*
D219*
X78099Y396939D03*
D256*
X92901Y396939D03*
D222*
X41205Y397027D03*
D233*
X45917Y397027D03*
D256*
X55918Y397027D03*
D219*
X78099Y397027D03*
D256*
X92901Y397027D03*
D222*
X41205Y397116D03*
D233*
X45917Y397116D03*
D256*
X55918Y397116D03*
D219*
X78099Y397116D03*
D256*
X92901Y397116D03*
D222*
X41205Y397205D03*
D274*
X45828Y397205D03*
D256*
X55918Y397205D03*
D219*
X78099Y397205D03*
D256*
X92901Y397205D03*
D222*
X41205Y397294D03*
D274*
X45739Y397294D03*
D256*
X55918Y397294D03*
D219*
X78099Y397294D03*
D256*
X92901Y397294D03*
D222*
X41205Y397383D03*
D274*
X45650Y397383D03*
D256*
X55918Y397383D03*
D219*
X78099Y397383D03*
D256*
X92901Y397383D03*
D222*
X41205Y397472D03*
D233*
X45561Y397472D03*
D256*
X55918Y397472D03*
D219*
X78099Y397472D03*
D256*
X92901Y397472D03*
X41250Y397561D03*
D234*
X45517Y397561D03*
D256*
X55918Y397561D03*
D219*
X78099Y397561D03*
D256*
X92901Y397561D03*
D275*
X43650Y397650D03*
D256*
X55918Y397650D03*
D219*
X78099Y397650D03*
D256*
X92901Y397650D03*
D276*
X43605Y397739D03*
D256*
X55918Y397739D03*
D219*
X78099Y397739D03*
D256*
X92901Y397739D03*
D273*
X43561Y397828D03*
D256*
X55918Y397828D03*
D219*
X78099Y397828D03*
D256*
X92901Y397828D03*
D272*
X43517Y397916D03*
D256*
X55918Y397916D03*
D219*
X78099Y397916D03*
D256*
X92901Y397916D03*
D271*
X43472Y398005D03*
D256*
X55918Y398005D03*
D219*
X78099Y398005D03*
D256*
X92901Y398005D03*
D271*
X43472Y398094D03*
D256*
X55918Y398094D03*
D219*
X78099Y398094D03*
D256*
X92901Y398094D03*
D270*
X43428Y398183D03*
D256*
X55918Y398183D03*
D219*
X78099Y398183D03*
D256*
X92901Y398183D03*
D277*
X43383Y398272D03*
D256*
X55918Y398272D03*
D219*
X78099Y398272D03*
D256*
X92901Y398272D03*
D268*
X43339Y398361D03*
D256*
X55918Y398361D03*
D219*
X78099Y398361D03*
D256*
X92901Y398361D03*
D267*
X43294Y398450D03*
D256*
X55918Y398450D03*
D219*
X78099Y398450D03*
D256*
X92901Y398450D03*
D266*
X43250Y398539D03*
D256*
X55918Y398539D03*
D219*
X78099Y398539D03*
D256*
X92901Y398539D03*
D265*
X43205Y398628D03*
D256*
X55918Y398628D03*
D219*
X78099Y398628D03*
D256*
X92901Y398628D03*
D265*
X43205Y398717D03*
D256*
X55918Y398717D03*
D219*
X78099Y398717D03*
D256*
X92901Y398717D03*
D278*
X43161Y398805D03*
D256*
X55918Y398805D03*
D219*
X78099Y398805D03*
D256*
X92901Y398805D03*
D263*
X43117Y398894D03*
D256*
X55918Y398894D03*
D219*
X78099Y398894D03*
D256*
X92901Y398894D03*
D262*
X43072Y398983D03*
D256*
X55918Y398983D03*
D219*
X78099Y398983D03*
D256*
X92901Y398983D03*
D261*
X43028Y399072D03*
D256*
X55918Y399072D03*
D219*
X78099Y399072D03*
D256*
X92901Y399072D03*
D260*
X42983Y399161D03*
D256*
X55918Y399161D03*
D219*
X78099Y399161D03*
D256*
X92901Y399161D03*
D279*
X42939Y399250D03*
D256*
X55918Y399250D03*
D219*
X78099Y399250D03*
D256*
X92901Y399250D03*
D258*
X42894Y399339D03*
D256*
X55918Y399339D03*
D219*
X78099Y399339D03*
D256*
X92901Y399339D03*
D257*
X42850Y399428D03*
D256*
X55918Y399428D03*
D219*
X78099Y399428D03*
D256*
X92901Y399428D03*
D255*
X42805Y399517D03*
D256*
X55918Y399517D03*
D219*
X78099Y399517D03*
D256*
X92901Y399517D03*
D254*
X42761Y399606D03*
D256*
X55918Y399606D03*
D219*
X78099Y399606D03*
D256*
X92901Y399606D03*
D280*
X42716Y399694D03*
D256*
X55918Y399694D03*
D219*
X78099Y399694D03*
D256*
X92901Y399694D03*
D280*
X42716Y399783D03*
D256*
X55918Y399783D03*
D219*
X78099Y399783D03*
D256*
X92901Y399783D03*
D252*
X42672Y399872D03*
D256*
X55918Y399872D03*
D219*
X78099Y399872D03*
D256*
X92901Y399872D03*
D251*
X42628Y399961D03*
D256*
X55918Y399961D03*
D219*
X78099Y399961D03*
D256*
X92901Y399961D03*
D250*
X42583Y400050D03*
D256*
X55918Y400050D03*
D219*
X78099Y400050D03*
D256*
X92901Y400050D03*
D249*
X42539Y400139D03*
D256*
X55918Y400139D03*
D219*
X78099Y400139D03*
D256*
X92901Y400139D03*
D281*
X42494Y400228D03*
D256*
X55918Y400228D03*
D219*
X78099Y400228D03*
D256*
X92901Y400228D03*
D247*
X42450Y400317D03*
D256*
X55918Y400317D03*
D219*
X78099Y400317D03*
D256*
X92901Y400317D03*
D247*
X42450Y400406D03*
D256*
X55918Y400406D03*
D219*
X78099Y400406D03*
D256*
X92901Y400406D03*
D246*
X42405Y400495D03*
D256*
X55918Y400495D03*
D219*
X78099Y400495D03*
D256*
X92901Y400495D03*
D245*
X42361Y400583D03*
D256*
X55918Y400583D03*
D219*
X78099Y400583D03*
D256*
X92901Y400583D03*
D244*
X42316Y400672D03*
D256*
X55918Y400672D03*
D219*
X78099Y400672D03*
D256*
X92901Y400672D03*
D244*
X42316Y400761D03*
D256*
X55918Y400761D03*
D219*
X78099Y400761D03*
D256*
X92901Y400761D03*
D282*
X42272Y400850D03*
D256*
X55918Y400850D03*
D219*
X78099Y400850D03*
D256*
X92901Y400850D03*
D242*
X42228Y400939D03*
D256*
X55918Y400939D03*
D219*
X78099Y400939D03*
D256*
X92901Y400939D03*
D241*
X42183Y401028D03*
D256*
X55918Y401028D03*
D219*
X78099Y401028D03*
D256*
X92901Y401028D03*
D241*
X42183Y401117D03*
D256*
X55918Y401117D03*
D219*
X78099Y401117D03*
D256*
X92901Y401117D03*
D240*
X42139Y401206D03*
D256*
X55918Y401206D03*
D219*
X78099Y401206D03*
D256*
X92901Y401206D03*
D239*
X42094Y401295D03*
D256*
X55918Y401295D03*
D219*
X78099Y401295D03*
D256*
X92901Y401295D03*
D283*
X42050Y401384D03*
D256*
X55918Y401384D03*
D219*
X78099Y401384D03*
D256*
X92901Y401384D03*
D237*
X42005Y401472D03*
D256*
X55918Y401472D03*
D219*
X78099Y401472D03*
D256*
X92901Y401472D03*
D236*
X41961Y401561D03*
D256*
X55918Y401561D03*
D219*
X78099Y401561D03*
D256*
X92901Y401561D03*
D236*
X41961Y401650D03*
D256*
X55918Y401650D03*
D219*
X78099Y401650D03*
D256*
X92901Y401650D03*
D235*
X41916Y401739D03*
D256*
X55918Y401739D03*
D219*
X78099Y401739D03*
D256*
X92901Y401739D03*
D234*
X41872Y401828D03*
D256*
X55918Y401828D03*
D219*
X78099Y401828D03*
D256*
X92901Y401828D03*
D274*
X41827Y401917D03*
D256*
X55918Y401917D03*
D219*
X78099Y401917D03*
D256*
X92901Y401917D03*
D232*
X41783Y402006D03*
D256*
X55918Y402006D03*
D219*
X78099Y402006D03*
D256*
X92901Y402006D03*
D231*
X41739Y402095D03*
D256*
X55918Y402095D03*
D219*
X78099Y402095D03*
D256*
X92901Y402095D03*
D230*
X41694Y402184D03*
D256*
X55918Y402184D03*
D219*
X78099Y402184D03*
D256*
X92901Y402184D03*
D230*
X41694Y402273D03*
D256*
X55918Y402273D03*
D219*
X78099Y402273D03*
D256*
X92901Y402273D03*
D229*
X41650Y402361D03*
D256*
X55918Y402361D03*
D219*
X78099Y402361D03*
D256*
X92901Y402361D03*
D284*
X41605Y402450D03*
D256*
X55918Y402450D03*
D219*
X78099Y402450D03*
D256*
X92901Y402450D03*
D227*
X41561Y402539D03*
D256*
X55918Y402539D03*
D219*
X78099Y402539D03*
D256*
X92901Y402539D03*
D226*
X41516Y402628D03*
D256*
X55918Y402628D03*
D219*
X78099Y402628D03*
D256*
X92901Y402628D03*
D225*
X41472Y402717D03*
D256*
X55918Y402717D03*
D219*
X78099Y402717D03*
D256*
X92901Y402717D03*
D224*
X41427Y402806D03*
D256*
X55918Y402806D03*
D219*
X78099Y402806D03*
D256*
X92901Y402806D03*
D285*
X41383Y402895D03*
D256*
X55918Y402895D03*
D219*
X78099Y402895D03*
D256*
X92901Y402895D03*
D285*
X41383Y402984D03*
D256*
X55918Y402984D03*
D219*
X78099Y402984D03*
D256*
X92901Y402984D03*
D220*
X41339Y403073D03*
D256*
X55918Y403073D03*
D219*
X78099Y403073D03*
D256*
X92901Y403073D03*
D220*
X41250Y403162D03*
D256*
X55918Y403162D03*
D219*
X78099Y403162D03*
D256*
X92901Y403162D03*
D286*
X455122Y95631D03*
X435122Y95631D03*
D287*
X478622Y38131D03*
X411622Y38131D03*
D286*
X353522Y95631D03*
X333522Y95631D03*
D287*
X377022Y38131D03*
X310022Y38131D03*
D288*
X416572Y133731D03*
X435572Y133731D03*
X314972Y133731D03*
X333972Y133731D03*
D289*
X108572Y521081D03*
X133972Y521081D03*
X159372Y521081D03*
X184772Y521081D03*
X210172Y521081D03*
X235572Y521081D03*
X260972Y521081D03*
X286372Y521081D03*
X381622Y355981D03*
X381622Y330581D03*
X381622Y305181D03*
X381622Y279781D03*
X381622Y254381D03*
X381622Y228981D03*
X559422Y254381D03*
X559422Y279781D03*
X559422Y305181D03*
X559422Y330581D03*
D290*
X32372Y705231D03*
X32372Y165481D03*
X159372Y38481D03*
X699122Y38481D03*
D291*
X22720Y305181D03*
X46596Y300181D03*
X22720Y295181D03*
X46596Y290181D03*
X22720Y285181D03*
X46596Y280181D03*
X22720Y275181D03*
X46596Y270181D03*
X22720Y265181D03*
X46596Y260181D03*
X22720Y255181D03*
X46596Y250181D03*
D292*
X46596Y240216D03*
X46596Y315146D03*
X22720Y240216D03*
X22720Y315146D03*
D293*
X32372Y457581D03*
X32372Y482981D03*
X32372Y508381D03*
X32372Y533781D03*
X32372Y559181D03*
X32372Y584581D03*
X32372Y609981D03*
X32372Y635381D03*
X521322Y32131D03*
X546722Y32131D03*
X572122Y32131D03*
X597522Y32131D03*
X622922Y32131D03*
X648322Y32131D03*
D294*
X349872Y216281D03*
X349646Y381381D03*
X121272Y444881D03*
X121272Y336931D03*
X64122Y248031D03*
X368922Y95631D03*
X470522Y95631D03*
X343522Y203581D03*
X343070Y362331D03*
X133972Y438531D03*
X133972Y324231D03*
X70472Y508381D03*
X70472Y324231D03*
X83172Y482981D03*
X83172Y324231D03*
X371462Y435991D03*
X95872Y292481D03*
X95872Y470281D03*
X362572Y419481D03*
X108572Y451231D03*
X108572Y292481D03*
X349872Y406781D03*
X407022Y209931D03*
X565772Y38481D03*
X419722Y222631D03*
X591172Y38481D03*
X445122Y222631D03*
X470522Y228981D03*
M02*
