M48
;GenerationSoftware,Autodesk,EAGLE,9.2.2*%
;CreationDate,2019-02-12T04:20:43Z*%
FMAT,2
ICI,OFF
METRIC,TZ,000.000
T4C0.350
T3C0.750
T2C1.016
T1C3.200
%
G90
M71
T1
X69912Y3848
X3237Y70523
X3237Y16548
X15937Y3848
T2
X3237Y58458
X3237Y55918
X3237Y53378
X3237Y50838
X3237Y48298
X3237Y45758
X64832Y3213
X3237Y60998
X62292Y3213
X59752Y3213
X57212Y3213
X54672Y3213
X52132Y3213
X3237Y63538
T3
X26097Y52108
X28637Y52108
X38162Y33058
X38162Y30518
X38162Y27978
X38162Y25438
X38162Y22898
X55942Y25438
X55942Y27978
X55942Y30518
X55942Y33058
X13397Y52108
X10857Y52108
X38162Y35598
X15937Y52108
X18477Y52108
X21017Y52108
X23557Y52108
T4
X34987Y21628
X34965Y38138
X12127Y44488
X12127Y33693
X6412Y24803
X36892Y9563
X47052Y9563
X34307Y36233
X13397Y43853
X13397Y32423
X7047Y50838
X47052Y22898
X41972Y22263
X40702Y20993
X34987Y40678
X10857Y29248
X10857Y45123
X36257Y41948
X34352Y20358
X9587Y47028
X9587Y29248
X37146Y43599
X8317Y32423
X8317Y48298
X7047Y32423
X44512Y22263
M30