G04 EAGLE Gerber RS-274X export*
G75*
%MOMM*%
%FSLAX34Y34*%
%LPD*%
%INBottom Solder Mask*%
%IPPOS*%
%AMOC8*
5,1,8,0,0,1.08239X$1,22.5*%
G01*
%ADD10C,1.625600*%
%ADD11C,3.403200*%
%ADD12C,2.082800*%
%ADD13C,0.959600*%


D10*
X108572Y521081D03*
X133972Y521081D03*
X159372Y521081D03*
X184772Y521081D03*
X210172Y521081D03*
X235572Y521081D03*
X260972Y521081D03*
X286372Y521081D03*
X381622Y355981D03*
X381622Y330581D03*
X381622Y305181D03*
X381622Y279781D03*
X381622Y254381D03*
X381622Y228981D03*
X559422Y254381D03*
X559422Y279781D03*
X559422Y305181D03*
X559422Y330581D03*
D11*
X32372Y705231D03*
X32372Y165481D03*
X159372Y38481D03*
X699122Y38481D03*
D12*
X32372Y457581D03*
X32372Y482981D03*
X32372Y508381D03*
X32372Y533781D03*
X32372Y559181D03*
X32372Y584581D03*
X32372Y609981D03*
X32372Y635381D03*
X521322Y32131D03*
X546722Y32131D03*
X572122Y32131D03*
X597522Y32131D03*
X622922Y32131D03*
X648322Y32131D03*
D13*
X349872Y216281D03*
X349646Y381381D03*
X121272Y444881D03*
X121272Y336931D03*
X64122Y248031D03*
X368922Y95631D03*
X470522Y95631D03*
X343522Y203581D03*
X343070Y362331D03*
X133972Y438531D03*
X133972Y324231D03*
X70472Y508381D03*
X70472Y324231D03*
X83172Y482981D03*
X83172Y324231D03*
X371462Y435991D03*
X95872Y292481D03*
X95872Y470281D03*
X362572Y419481D03*
X108572Y451231D03*
X108572Y292481D03*
X349872Y406781D03*
X407022Y209931D03*
X565772Y38481D03*
X419722Y222631D03*
X591172Y38481D03*
X445122Y222631D03*
X470522Y228981D03*
M02*
