G04 EAGLE Gerber RS-274X export*
G75*
%MOMM*%
%FSLAX34Y34*%
%LPD*%
%INTop Copper*%
%IPPOS*%
%AMOC8*
5,1,8,0,0,1.08239X$1,22.5*%
G01*
%ADD10R,1.200000X1.200000*%
%ADD11C,1.270000*%
%ADD12R,1.000000X3.500000*%
%ADD13R,1.500000X3.400000*%
%ADD14R,1.500000X1.300000*%
%ADD15R,1.600200X0.406400*%
%ADD16R,1.600200X0.609600*%
%ADD17C,1.508000*%
%ADD18C,1.676400*%
%ADD19R,1.300000X1.500000*%
%ADD20C,1.879600*%
%ADD21C,0.254000*%
%ADD22C,0.756400*%
%ADD23C,0.304800*%
%ADD24C,0.812800*%
%ADD25C,0.609600*%
%ADD26C,1.016000*%

G36*
X234639Y10940D02*
X234639Y10940D01*
X234778Y10953D01*
X234797Y10960D01*
X234817Y10963D01*
X234946Y11014D01*
X235077Y11061D01*
X235094Y11072D01*
X235113Y11080D01*
X235225Y11161D01*
X235340Y11239D01*
X235354Y11255D01*
X235370Y11266D01*
X235459Y11373D01*
X235551Y11478D01*
X235560Y11496D01*
X235573Y11511D01*
X235632Y11637D01*
X235695Y11761D01*
X235700Y11781D01*
X235708Y11799D01*
X235734Y11935D01*
X235765Y12071D01*
X235764Y12092D01*
X235768Y12111D01*
X235760Y12250D01*
X235755Y12389D01*
X235750Y12409D01*
X235748Y12429D01*
X235706Y12561D01*
X235667Y12695D01*
X235657Y12712D01*
X235650Y12731D01*
X235576Y12849D01*
X235505Y12969D01*
X235487Y12990D01*
X235480Y13000D01*
X235465Y13014D01*
X235399Y13090D01*
X235351Y13137D01*
X235351Y49663D01*
X237137Y51449D01*
X254663Y51449D01*
X256449Y49663D01*
X256449Y13137D01*
X256401Y13090D01*
X256316Y12980D01*
X256227Y12873D01*
X256219Y12854D01*
X256206Y12838D01*
X256151Y12711D01*
X256092Y12585D01*
X256088Y12565D01*
X256080Y12546D01*
X256058Y12409D01*
X256032Y12272D01*
X256033Y12252D01*
X256030Y12232D01*
X256043Y12093D01*
X256052Y11955D01*
X256058Y11936D01*
X256060Y11916D01*
X256107Y11784D01*
X256150Y11653D01*
X256160Y11636D01*
X256167Y11616D01*
X256246Y11501D01*
X256320Y11384D01*
X256335Y11370D01*
X256346Y11353D01*
X256450Y11261D01*
X256551Y11166D01*
X256569Y11156D01*
X256584Y11143D01*
X256708Y11079D01*
X256830Y11012D01*
X256849Y11007D01*
X256868Y10998D01*
X257004Y10968D01*
X257138Y10933D01*
X257166Y10931D01*
X257178Y10928D01*
X257198Y10929D01*
X257299Y10923D01*
X301501Y10923D01*
X301639Y10940D01*
X301778Y10953D01*
X301797Y10960D01*
X301817Y10963D01*
X301946Y11014D01*
X302077Y11061D01*
X302094Y11072D01*
X302113Y11080D01*
X302225Y11161D01*
X302340Y11239D01*
X302354Y11255D01*
X302370Y11266D01*
X302459Y11373D01*
X302551Y11478D01*
X302560Y11496D01*
X302573Y11511D01*
X302632Y11637D01*
X302695Y11761D01*
X302700Y11781D01*
X302708Y11799D01*
X302734Y11935D01*
X302765Y12071D01*
X302764Y12092D01*
X302768Y12111D01*
X302760Y12250D01*
X302755Y12389D01*
X302750Y12409D01*
X302748Y12429D01*
X302706Y12561D01*
X302667Y12695D01*
X302657Y12712D01*
X302650Y12731D01*
X302576Y12849D01*
X302505Y12969D01*
X302487Y12990D01*
X302480Y13000D01*
X302465Y13014D01*
X302399Y13090D01*
X302351Y13137D01*
X302351Y49663D01*
X304137Y51449D01*
X321663Y51449D01*
X322952Y50159D01*
X323047Y50086D01*
X323136Y50007D01*
X323172Y49989D01*
X323204Y49964D01*
X323313Y49917D01*
X323419Y49863D01*
X323458Y49854D01*
X323496Y49838D01*
X323613Y49819D01*
X323729Y49793D01*
X323770Y49794D01*
X323810Y49788D01*
X323928Y49799D01*
X324047Y49803D01*
X324086Y49814D01*
X324126Y49818D01*
X324239Y49858D01*
X324353Y49891D01*
X324387Y49912D01*
X324426Y49925D01*
X324524Y49992D01*
X324627Y50053D01*
X324672Y50093D01*
X324689Y50104D01*
X324702Y50119D01*
X324747Y50159D01*
X326037Y51449D01*
X343563Y51449D01*
X345349Y49663D01*
X345349Y13137D01*
X345301Y13090D01*
X345216Y12980D01*
X345127Y12873D01*
X345119Y12854D01*
X345106Y12838D01*
X345051Y12711D01*
X344992Y12585D01*
X344988Y12565D01*
X344980Y12546D01*
X344958Y12409D01*
X344932Y12272D01*
X344933Y12252D01*
X344930Y12232D01*
X344943Y12093D01*
X344952Y11955D01*
X344958Y11936D01*
X344960Y11916D01*
X345007Y11784D01*
X345050Y11653D01*
X345060Y11636D01*
X345067Y11616D01*
X345146Y11501D01*
X345220Y11384D01*
X345235Y11370D01*
X345246Y11353D01*
X345350Y11261D01*
X345451Y11166D01*
X345469Y11156D01*
X345484Y11143D01*
X345608Y11079D01*
X345730Y11012D01*
X345749Y11007D01*
X345768Y10998D01*
X345904Y10968D01*
X346038Y10933D01*
X346066Y10931D01*
X346078Y10928D01*
X346098Y10929D01*
X346199Y10923D01*
X390401Y10923D01*
X390539Y10940D01*
X390678Y10953D01*
X390697Y10960D01*
X390717Y10963D01*
X390846Y11014D01*
X390977Y11061D01*
X390994Y11072D01*
X391013Y11080D01*
X391125Y11161D01*
X391240Y11239D01*
X391254Y11255D01*
X391270Y11266D01*
X391359Y11373D01*
X391451Y11478D01*
X391460Y11496D01*
X391473Y11511D01*
X391532Y11637D01*
X391595Y11761D01*
X391600Y11781D01*
X391608Y11799D01*
X391634Y11935D01*
X391665Y12071D01*
X391664Y12092D01*
X391668Y12111D01*
X391660Y12250D01*
X391655Y12389D01*
X391650Y12409D01*
X391648Y12429D01*
X391606Y12561D01*
X391567Y12695D01*
X391557Y12712D01*
X391550Y12731D01*
X391476Y12849D01*
X391405Y12969D01*
X391387Y12990D01*
X391380Y13000D01*
X391365Y13014D01*
X391299Y13090D01*
X391251Y13137D01*
X391251Y49663D01*
X393037Y51449D01*
X410563Y51449D01*
X412349Y49663D01*
X412349Y13137D01*
X412301Y13090D01*
X412216Y12980D01*
X412127Y12873D01*
X412119Y12854D01*
X412106Y12838D01*
X412051Y12711D01*
X411992Y12585D01*
X411988Y12565D01*
X411980Y12546D01*
X411958Y12409D01*
X411932Y12272D01*
X411933Y12252D01*
X411930Y12232D01*
X411943Y12093D01*
X411952Y11955D01*
X411958Y11936D01*
X411960Y11916D01*
X412007Y11784D01*
X412050Y11653D01*
X412060Y11636D01*
X412067Y11616D01*
X412146Y11501D01*
X412220Y11384D01*
X412235Y11370D01*
X412246Y11353D01*
X412350Y11261D01*
X412451Y11166D01*
X412469Y11156D01*
X412484Y11143D01*
X412608Y11079D01*
X412730Y11012D01*
X412749Y11007D01*
X412768Y10998D01*
X412904Y10968D01*
X413038Y10933D01*
X413066Y10931D01*
X413078Y10928D01*
X413098Y10929D01*
X413199Y10923D01*
X415001Y10923D01*
X415139Y10940D01*
X415278Y10953D01*
X415297Y10960D01*
X415317Y10963D01*
X415446Y11014D01*
X415577Y11061D01*
X415594Y11072D01*
X415613Y11080D01*
X415725Y11161D01*
X415840Y11239D01*
X415854Y11255D01*
X415870Y11266D01*
X415959Y11373D01*
X416051Y11478D01*
X416060Y11496D01*
X416073Y11511D01*
X416132Y11637D01*
X416195Y11761D01*
X416200Y11781D01*
X416208Y11799D01*
X416234Y11935D01*
X416265Y12071D01*
X416264Y12092D01*
X416268Y12111D01*
X416260Y12250D01*
X416255Y12389D01*
X416250Y12409D01*
X416248Y12429D01*
X416206Y12561D01*
X416167Y12695D01*
X416157Y12712D01*
X416150Y12731D01*
X416076Y12849D01*
X416005Y12969D01*
X415987Y12990D01*
X415980Y13000D01*
X415965Y13014D01*
X415899Y13090D01*
X415851Y13137D01*
X415851Y49663D01*
X417637Y51449D01*
X435163Y51449D01*
X436949Y49663D01*
X436949Y13137D01*
X436901Y13090D01*
X436816Y12980D01*
X436727Y12873D01*
X436719Y12854D01*
X436706Y12838D01*
X436651Y12711D01*
X436592Y12585D01*
X436588Y12565D01*
X436580Y12546D01*
X436558Y12409D01*
X436532Y12272D01*
X436533Y12252D01*
X436530Y12232D01*
X436543Y12093D01*
X436552Y11955D01*
X436558Y11936D01*
X436560Y11916D01*
X436607Y11784D01*
X436650Y11653D01*
X436660Y11636D01*
X436667Y11616D01*
X436746Y11501D01*
X436820Y11384D01*
X436835Y11370D01*
X436846Y11353D01*
X436950Y11261D01*
X437051Y11166D01*
X437069Y11156D01*
X437084Y11143D01*
X437208Y11079D01*
X437330Y11012D01*
X437349Y11007D01*
X437368Y10998D01*
X437504Y10968D01*
X437638Y10933D01*
X437666Y10931D01*
X437678Y10928D01*
X437698Y10929D01*
X437799Y10923D01*
X502001Y10923D01*
X502139Y10940D01*
X502278Y10953D01*
X502297Y10960D01*
X502317Y10963D01*
X502446Y11014D01*
X502577Y11061D01*
X502594Y11072D01*
X502613Y11080D01*
X502725Y11161D01*
X502840Y11239D01*
X502854Y11255D01*
X502870Y11266D01*
X502959Y11373D01*
X503051Y11478D01*
X503060Y11496D01*
X503073Y11511D01*
X503132Y11637D01*
X503195Y11761D01*
X503200Y11781D01*
X503208Y11799D01*
X503234Y11935D01*
X503265Y12071D01*
X503264Y12092D01*
X503268Y12111D01*
X503260Y12250D01*
X503255Y12389D01*
X503250Y12409D01*
X503248Y12429D01*
X503206Y12561D01*
X503167Y12695D01*
X503157Y12712D01*
X503150Y12731D01*
X503076Y12849D01*
X503005Y12969D01*
X502987Y12990D01*
X502980Y13000D01*
X502965Y13014D01*
X502899Y13090D01*
X502851Y13137D01*
X502851Y49663D01*
X504637Y51449D01*
X522163Y51449D01*
X523949Y49663D01*
X523949Y13137D01*
X523901Y13090D01*
X523816Y12980D01*
X523727Y12873D01*
X523719Y12854D01*
X523706Y12838D01*
X523651Y12711D01*
X523592Y12585D01*
X523588Y12565D01*
X523580Y12546D01*
X523558Y12409D01*
X523532Y12272D01*
X523533Y12252D01*
X523530Y12232D01*
X523543Y12093D01*
X523552Y11955D01*
X523558Y11936D01*
X523560Y11916D01*
X523607Y11784D01*
X523650Y11653D01*
X523660Y11636D01*
X523667Y11616D01*
X523746Y11501D01*
X523820Y11384D01*
X523835Y11370D01*
X523846Y11353D01*
X523950Y11261D01*
X524051Y11166D01*
X524069Y11156D01*
X524084Y11143D01*
X524208Y11079D01*
X524330Y11012D01*
X524349Y11007D01*
X524368Y10998D01*
X524504Y10968D01*
X524638Y10933D01*
X524666Y10931D01*
X524678Y10928D01*
X524698Y10929D01*
X524799Y10923D01*
X531511Y10923D01*
X531582Y10932D01*
X531655Y10931D01*
X531739Y10952D01*
X531826Y10963D01*
X531893Y10989D01*
X531964Y11006D01*
X532041Y11047D01*
X532122Y11080D01*
X532180Y11122D01*
X532244Y11156D01*
X532308Y11215D01*
X532379Y11266D01*
X532425Y11322D01*
X532479Y11371D01*
X532526Y11444D01*
X532582Y11511D01*
X532613Y11577D01*
X532652Y11637D01*
X532680Y11720D01*
X532717Y11799D01*
X532731Y11870D01*
X532754Y11939D01*
X532761Y12026D01*
X532777Y12111D01*
X532773Y12184D01*
X532778Y12256D01*
X532763Y12342D01*
X532758Y12429D01*
X532735Y12498D01*
X532723Y12569D01*
X532665Y12719D01*
X529594Y19445D01*
X527824Y31750D01*
X529594Y44055D01*
X534758Y55363D01*
X542898Y64758D01*
X553356Y71479D01*
X565284Y74981D01*
X577716Y74981D01*
X589644Y71479D01*
X600101Y64758D01*
X604115Y60126D01*
X604146Y60098D01*
X604171Y60065D01*
X604264Y59993D01*
X604351Y59914D01*
X604388Y59895D01*
X604421Y59869D01*
X604529Y59822D01*
X604633Y59767D01*
X604674Y59758D01*
X604713Y59741D01*
X604829Y59722D01*
X604943Y59695D01*
X604985Y59696D01*
X605026Y59689D01*
X605144Y59700D01*
X605261Y59702D01*
X605301Y59714D01*
X605343Y59717D01*
X605454Y59756D01*
X605567Y59788D01*
X605604Y59809D01*
X605643Y59823D01*
X605741Y59889D01*
X605843Y59948D01*
X605872Y59977D01*
X605907Y60000D01*
X605985Y60088D01*
X606070Y60170D01*
X606091Y60206D01*
X606119Y60237D01*
X606202Y60376D01*
X612582Y72738D01*
X625176Y89978D01*
X640272Y105074D01*
X657512Y117668D01*
X669472Y123840D01*
X669563Y123903D01*
X669658Y123958D01*
X669693Y123993D01*
X669734Y124020D01*
X669806Y124104D01*
X669885Y124181D01*
X669911Y124223D01*
X669943Y124260D01*
X669993Y124359D01*
X670050Y124453D01*
X670064Y124500D01*
X670086Y124544D01*
X670109Y124652D01*
X670141Y124758D01*
X670143Y124807D01*
X670154Y124855D01*
X670150Y124965D01*
X670154Y125076D01*
X670144Y125124D01*
X670142Y125173D01*
X670111Y125278D01*
X670088Y125387D01*
X670066Y125431D01*
X670052Y125478D01*
X669996Y125572D01*
X669946Y125671D01*
X669900Y125732D01*
X669889Y125751D01*
X669877Y125763D01*
X669849Y125799D01*
X661758Y135137D01*
X656594Y146445D01*
X654824Y158750D01*
X656594Y171055D01*
X661758Y182363D01*
X669899Y191758D01*
X680357Y198479D01*
X692284Y201981D01*
X704716Y201981D01*
X716644Y198479D01*
X717372Y198011D01*
X717375Y198009D01*
X717377Y198007D01*
X717516Y197942D01*
X717659Y197874D01*
X717662Y197873D01*
X717665Y197872D01*
X717816Y197843D01*
X717971Y197812D01*
X717974Y197812D01*
X717978Y197812D01*
X718131Y197821D01*
X718288Y197830D01*
X718292Y197831D01*
X718295Y197832D01*
X718442Y197879D01*
X718591Y197927D01*
X718594Y197929D01*
X718597Y197930D01*
X718729Y198013D01*
X718861Y198095D01*
X718863Y198098D01*
X718866Y198100D01*
X718974Y198214D01*
X719080Y198326D01*
X719082Y198329D01*
X719084Y198331D01*
X719158Y198466D01*
X719235Y198604D01*
X719236Y198607D01*
X719238Y198610D01*
X719276Y198761D01*
X719316Y198911D01*
X719316Y198915D01*
X719317Y198918D01*
X719327Y199079D01*
X719327Y278562D01*
X719321Y278612D01*
X719323Y278661D01*
X719301Y278769D01*
X719287Y278878D01*
X719269Y278924D01*
X719259Y278973D01*
X719211Y279071D01*
X719170Y279173D01*
X719141Y279214D01*
X719119Y279258D01*
X719048Y279342D01*
X718984Y279431D01*
X718945Y279462D01*
X718913Y279500D01*
X718823Y279563D01*
X718739Y279634D01*
X718694Y279655D01*
X718653Y279683D01*
X718550Y279722D01*
X718451Y279769D01*
X718402Y279778D01*
X718356Y279796D01*
X718246Y279808D01*
X718139Y279829D01*
X718089Y279826D01*
X718040Y279831D01*
X717931Y279816D01*
X717821Y279809D01*
X717774Y279794D01*
X717725Y279787D01*
X717572Y279735D01*
X716905Y279458D01*
X714187Y279458D01*
X712829Y280021D01*
X712781Y280034D01*
X712736Y280055D01*
X712628Y280076D01*
X712522Y280105D01*
X712472Y280106D01*
X712423Y280115D01*
X712314Y280108D01*
X712204Y280110D01*
X712156Y280098D01*
X712106Y280095D01*
X712002Y280062D01*
X711895Y280036D01*
X711851Y280013D01*
X711804Y279997D01*
X711711Y279939D01*
X711614Y279887D01*
X711577Y279854D01*
X711535Y279827D01*
X711460Y279747D01*
X711378Y279673D01*
X711351Y279632D01*
X711317Y279596D01*
X711264Y279499D01*
X711204Y279408D01*
X711187Y279360D01*
X711163Y279317D01*
X711136Y279211D01*
X711100Y279107D01*
X711096Y279057D01*
X711084Y279009D01*
X711074Y278848D01*
X711074Y273624D01*
X709288Y271838D01*
X690760Y271838D01*
X688983Y273615D01*
X688889Y273688D01*
X688800Y273767D01*
X688764Y273785D01*
X688732Y273810D01*
X688623Y273857D01*
X688517Y273911D01*
X688478Y273920D01*
X688440Y273936D01*
X688323Y273955D01*
X688207Y273981D01*
X688166Y273980D01*
X688126Y273986D01*
X688008Y273975D01*
X687889Y273971D01*
X687850Y273960D01*
X687810Y273956D01*
X687698Y273916D01*
X687583Y273883D01*
X687548Y273862D01*
X687510Y273849D01*
X687412Y273782D01*
X687309Y273721D01*
X687264Y273682D01*
X687247Y273670D01*
X687234Y273655D01*
X687188Y273615D01*
X685412Y271838D01*
X666884Y271838D01*
X665098Y273624D01*
X665098Y282246D01*
X666884Y284032D01*
X685412Y284032D01*
X687188Y282255D01*
X687283Y282182D01*
X687372Y282103D01*
X687408Y282085D01*
X687440Y282060D01*
X687549Y282013D01*
X687655Y281959D01*
X687694Y281950D01*
X687732Y281934D01*
X687849Y281915D01*
X687965Y281889D01*
X688006Y281890D01*
X688046Y281884D01*
X688164Y281895D01*
X688283Y281899D01*
X688322Y281910D01*
X688362Y281914D01*
X688475Y281954D01*
X688589Y281987D01*
X688623Y282008D01*
X688662Y282021D01*
X688760Y282088D01*
X688863Y282149D01*
X688908Y282189D01*
X688925Y282200D01*
X688938Y282215D01*
X688983Y282255D01*
X689256Y282528D01*
X689330Y282622D01*
X689408Y282711D01*
X689427Y282747D01*
X689451Y282779D01*
X689499Y282889D01*
X689553Y282995D01*
X689562Y283034D01*
X689578Y283071D01*
X689596Y283189D01*
X689622Y283305D01*
X689621Y283345D01*
X689628Y283385D01*
X689616Y283504D01*
X689613Y283623D01*
X689602Y283662D01*
X689598Y283702D01*
X689557Y283814D01*
X689524Y283928D01*
X689504Y283963D01*
X689490Y284001D01*
X689423Y284100D01*
X689363Y284202D01*
X689323Y284247D01*
X689312Y284264D01*
X689296Y284278D01*
X689256Y284323D01*
X688974Y284605D01*
X688974Y288317D01*
X688957Y288455D01*
X688944Y288594D01*
X688937Y288613D01*
X688934Y288633D01*
X688883Y288762D01*
X688836Y288893D01*
X688825Y288910D01*
X688817Y288929D01*
X688736Y289041D01*
X688658Y289156D01*
X688642Y289170D01*
X688631Y289186D01*
X688523Y289275D01*
X688419Y289367D01*
X688401Y289376D01*
X688386Y289389D01*
X688260Y289448D01*
X688136Y289511D01*
X688116Y289516D01*
X688098Y289524D01*
X687961Y289550D01*
X687826Y289581D01*
X687805Y289580D01*
X687786Y289584D01*
X687647Y289576D01*
X687508Y289571D01*
X687488Y289566D01*
X687468Y289564D01*
X687336Y289522D01*
X687202Y289483D01*
X687185Y289473D01*
X687166Y289466D01*
X687048Y289392D01*
X686928Y289321D01*
X686907Y289303D01*
X686897Y289296D01*
X686883Y289281D01*
X686808Y289215D01*
X685412Y287819D01*
X666884Y287819D01*
X666494Y288210D01*
X666416Y288270D01*
X666344Y288338D01*
X666291Y288367D01*
X666243Y288404D01*
X666152Y288444D01*
X666065Y288492D01*
X666006Y288507D01*
X665951Y288531D01*
X665853Y288546D01*
X665757Y288571D01*
X665657Y288577D01*
X665637Y288581D01*
X665624Y288579D01*
X665596Y288581D01*
X556211Y288581D01*
X547195Y297598D01*
X547117Y297658D01*
X547044Y297726D01*
X546991Y297755D01*
X546944Y297792D01*
X546853Y297832D01*
X546766Y297880D01*
X546707Y297895D01*
X546652Y297919D01*
X546554Y297934D01*
X546458Y297959D01*
X546358Y297965D01*
X546338Y297969D01*
X546325Y297967D01*
X546297Y297969D01*
X544741Y297969D01*
X542231Y299009D01*
X540309Y300931D01*
X539269Y303441D01*
X539269Y306159D01*
X540309Y308669D01*
X542231Y310591D01*
X544741Y311631D01*
X547459Y311631D01*
X549969Y310591D01*
X551891Y308669D01*
X552931Y306159D01*
X552931Y304603D01*
X552943Y304504D01*
X552946Y304405D01*
X552963Y304347D01*
X552971Y304287D01*
X553007Y304195D01*
X553035Y304100D01*
X553065Y304048D01*
X553088Y303991D01*
X553146Y303911D01*
X553196Y303826D01*
X553262Y303751D01*
X553274Y303734D01*
X553284Y303726D01*
X553302Y303705D01*
X559417Y297590D01*
X559495Y297530D01*
X559568Y297462D01*
X559621Y297433D01*
X559668Y297396D01*
X559759Y297356D01*
X559846Y297308D01*
X559905Y297293D01*
X559960Y297269D01*
X560058Y297254D01*
X560154Y297229D01*
X560254Y297223D01*
X560274Y297219D01*
X560287Y297221D01*
X560315Y297219D01*
X572707Y297219D01*
X572844Y297236D01*
X572983Y297249D01*
X573002Y297256D01*
X573022Y297259D01*
X573151Y297310D01*
X573283Y297357D01*
X573299Y297368D01*
X573318Y297376D01*
X573431Y297457D01*
X573546Y297535D01*
X573559Y297551D01*
X573576Y297562D01*
X573664Y297670D01*
X573756Y297774D01*
X573765Y297792D01*
X573778Y297807D01*
X573838Y297933D01*
X573901Y298057D01*
X573905Y298077D01*
X573914Y298095D01*
X573940Y298232D01*
X573970Y298367D01*
X573970Y298388D01*
X573974Y298407D01*
X573965Y298546D01*
X573961Y298685D01*
X573955Y298705D01*
X573954Y298725D01*
X573911Y298857D01*
X573872Y298991D01*
X573862Y299008D01*
X573856Y299027D01*
X573781Y299145D01*
X573711Y299265D01*
X573692Y299286D01*
X573686Y299296D01*
X573671Y299310D01*
X573604Y299385D01*
X572059Y300931D01*
X571019Y303441D01*
X571019Y306159D01*
X572059Y308669D01*
X573981Y310591D01*
X576491Y311631D01*
X579209Y311631D01*
X581719Y310591D01*
X583641Y308669D01*
X584681Y306159D01*
X584681Y304603D01*
X584693Y304504D01*
X584696Y304405D01*
X584713Y304347D01*
X584721Y304287D01*
X584757Y304195D01*
X584785Y304100D01*
X584815Y304048D01*
X584838Y303991D01*
X584896Y303911D01*
X584946Y303826D01*
X585012Y303751D01*
X585024Y303734D01*
X585034Y303726D01*
X585052Y303705D01*
X585617Y303140D01*
X585695Y303080D01*
X585768Y303012D01*
X585821Y302983D01*
X585868Y302946D01*
X585959Y302906D01*
X586046Y302858D01*
X586105Y302843D01*
X586160Y302819D01*
X586258Y302804D01*
X586354Y302779D01*
X586454Y302773D01*
X586474Y302769D01*
X586487Y302771D01*
X586515Y302769D01*
X663829Y302769D01*
X663947Y302784D01*
X664066Y302791D01*
X664104Y302804D01*
X664145Y302809D01*
X664255Y302852D01*
X664368Y302889D01*
X664403Y302911D01*
X664440Y302926D01*
X664536Y302995D01*
X664637Y303059D01*
X664665Y303089D01*
X664698Y303112D01*
X664774Y303204D01*
X664855Y303291D01*
X664875Y303326D01*
X664900Y303357D01*
X664951Y303465D01*
X665009Y303569D01*
X665019Y303609D01*
X665036Y303645D01*
X665058Y303762D01*
X665088Y303877D01*
X665092Y303937D01*
X665096Y303957D01*
X665094Y303978D01*
X665098Y304038D01*
X665098Y306195D01*
X665906Y307003D01*
X665979Y307097D01*
X666058Y307186D01*
X666076Y307222D01*
X666101Y307254D01*
X666148Y307363D01*
X666202Y307469D01*
X666211Y307508D01*
X666227Y307546D01*
X666246Y307663D01*
X666272Y307779D01*
X666271Y307820D01*
X666277Y307860D01*
X666266Y307978D01*
X666262Y308097D01*
X666251Y308136D01*
X666247Y308176D01*
X666207Y308288D01*
X666174Y308403D01*
X666153Y308438D01*
X666140Y308476D01*
X666073Y308574D01*
X666012Y308677D01*
X665973Y308722D01*
X665961Y308739D01*
X665946Y308752D01*
X665906Y308798D01*
X665098Y309605D01*
X665098Y316003D01*
X665083Y316121D01*
X665076Y316240D01*
X665063Y316278D01*
X665058Y316319D01*
X665015Y316429D01*
X664978Y316543D01*
X664956Y316577D01*
X664941Y316614D01*
X664872Y316710D01*
X664808Y316811D01*
X664778Y316839D01*
X664755Y316872D01*
X664663Y316948D01*
X664576Y317029D01*
X664541Y317049D01*
X664510Y317074D01*
X664402Y317125D01*
X664298Y317183D01*
X664258Y317193D01*
X664222Y317210D01*
X664105Y317232D01*
X663990Y317262D01*
X663930Y317266D01*
X663910Y317270D01*
X663889Y317269D01*
X663829Y317272D01*
X611350Y317272D01*
X611232Y317257D01*
X611113Y317250D01*
X611075Y317238D01*
X611034Y317232D01*
X610924Y317189D01*
X610811Y317152D01*
X610776Y317130D01*
X610739Y317115D01*
X610643Y317046D01*
X610542Y316982D01*
X610514Y316952D01*
X610481Y316929D01*
X610405Y316837D01*
X610324Y316750D01*
X610304Y316715D01*
X610279Y316684D01*
X610228Y316576D01*
X610170Y316472D01*
X610160Y316432D01*
X610143Y316396D01*
X610121Y316279D01*
X610092Y316169D01*
X609041Y313631D01*
X607119Y311709D01*
X604609Y310669D01*
X601891Y310669D01*
X599381Y311709D01*
X597459Y313631D01*
X596419Y316141D01*
X596419Y318859D01*
X596719Y319581D01*
X596732Y319629D01*
X596753Y319674D01*
X596774Y319782D01*
X596803Y319888D01*
X596803Y319938D01*
X596813Y319987D01*
X596806Y320096D01*
X596808Y320206D01*
X596796Y320255D01*
X596793Y320304D01*
X596759Y320408D01*
X596733Y320515D01*
X596710Y320559D01*
X596695Y320607D01*
X596636Y320699D01*
X596585Y320796D01*
X596551Y320833D01*
X596525Y320875D01*
X596445Y320951D01*
X596371Y321032D01*
X596329Y321059D01*
X596293Y321093D01*
X596197Y321146D01*
X596105Y321207D01*
X596058Y321223D01*
X596015Y321247D01*
X595908Y321274D01*
X595804Y321310D01*
X595755Y321314D01*
X595707Y321326D01*
X595546Y321336D01*
X454074Y321336D01*
X454045Y321333D01*
X454015Y321335D01*
X453887Y321313D01*
X453759Y321297D01*
X453731Y321286D01*
X453702Y321281D01*
X453584Y321227D01*
X453463Y321179D01*
X453439Y321162D01*
X453412Y321150D01*
X453311Y321069D01*
X453206Y320993D01*
X453187Y320970D01*
X453164Y320951D01*
X453086Y320848D01*
X453003Y320748D01*
X452990Y320721D01*
X452972Y320697D01*
X452901Y320553D01*
X452810Y320331D01*
X450166Y317687D01*
X446711Y316256D01*
X442972Y316256D01*
X439518Y317687D01*
X436874Y320331D01*
X435443Y323786D01*
X435443Y327525D01*
X435535Y327746D01*
X435543Y327775D01*
X435556Y327801D01*
X435565Y327840D01*
X435566Y327842D01*
X435569Y327859D01*
X435585Y327928D01*
X435619Y328053D01*
X435619Y328083D01*
X435626Y328111D01*
X435625Y328149D01*
X435626Y328155D01*
X435623Y328195D01*
X435622Y328241D01*
X435624Y328371D01*
X435617Y328400D01*
X435616Y328429D01*
X435607Y328462D01*
X435606Y328472D01*
X435585Y328538D01*
X435580Y328554D01*
X435550Y328680D01*
X435536Y328706D01*
X435528Y328735D01*
X435513Y328760D01*
X435508Y328775D01*
X435458Y328853D01*
X435401Y328961D01*
X435381Y328983D01*
X435366Y329009D01*
X435343Y329035D01*
X435338Y329043D01*
X435325Y329055D01*
X435260Y329130D01*
X427481Y336908D01*
X427481Y387833D01*
X427469Y387931D01*
X427466Y388030D01*
X427449Y388088D01*
X427441Y388148D01*
X427405Y388241D01*
X427377Y388336D01*
X427347Y388388D01*
X427324Y388444D01*
X427266Y388524D01*
X427216Y388610D01*
X427150Y388685D01*
X427138Y388701D01*
X427128Y388709D01*
X427110Y388730D01*
X426009Y389831D01*
X424969Y392341D01*
X424969Y395059D01*
X426009Y397569D01*
X427931Y399491D01*
X430441Y400531D01*
X433159Y400531D01*
X435669Y399491D01*
X437591Y397569D01*
X438631Y395059D01*
X438631Y392341D01*
X437591Y389831D01*
X436490Y388730D01*
X436430Y388652D01*
X436362Y388580D01*
X436333Y388527D01*
X436296Y388479D01*
X436256Y388388D01*
X436208Y388302D01*
X436193Y388243D01*
X436169Y388187D01*
X436154Y388089D01*
X436129Y387994D01*
X436123Y387894D01*
X436119Y387873D01*
X436121Y387861D01*
X436119Y387833D01*
X436119Y341012D01*
X436131Y340913D01*
X436134Y340814D01*
X436151Y340756D01*
X436159Y340696D01*
X436195Y340604D01*
X436223Y340509D01*
X436253Y340457D01*
X436276Y340400D01*
X436334Y340320D01*
X436384Y340235D01*
X436450Y340159D01*
X436462Y340143D01*
X436472Y340135D01*
X436490Y340114D01*
X441367Y335237D01*
X441391Y335219D01*
X441410Y335197D01*
X441516Y335122D01*
X441619Y335042D01*
X441646Y335030D01*
X441670Y335013D01*
X441791Y334968D01*
X441910Y334916D01*
X441940Y334911D01*
X441967Y334901D01*
X442096Y334886D01*
X442225Y334866D01*
X442254Y334869D01*
X442283Y334866D01*
X442412Y334884D01*
X442541Y334896D01*
X442569Y334906D01*
X442598Y334910D01*
X442751Y334962D01*
X442972Y335054D01*
X446711Y335054D01*
X450166Y333623D01*
X452810Y330979D01*
X452901Y330757D01*
X452916Y330732D01*
X452925Y330704D01*
X452995Y330594D01*
X453059Y330481D01*
X453080Y330460D01*
X453095Y330435D01*
X453190Y330346D01*
X453280Y330253D01*
X453305Y330237D01*
X453327Y330217D01*
X453441Y330154D01*
X453551Y330086D01*
X453580Y330078D01*
X453605Y330064D01*
X453731Y330031D01*
X453855Y329993D01*
X453885Y329991D01*
X453913Y329984D01*
X454074Y329974D01*
X495502Y329974D01*
X495640Y329991D01*
X495778Y330004D01*
X495797Y330011D01*
X495817Y330014D01*
X495947Y330065D01*
X496078Y330112D01*
X496094Y330123D01*
X496113Y330131D01*
X496226Y330212D01*
X496341Y330290D01*
X496354Y330306D01*
X496370Y330318D01*
X496459Y330425D01*
X496551Y330529D01*
X496560Y330547D01*
X496573Y330563D01*
X496632Y330688D01*
X496696Y330812D01*
X496700Y330832D01*
X496709Y330850D01*
X496735Y330987D01*
X496765Y331122D01*
X496765Y331143D01*
X496769Y331163D01*
X496760Y331301D01*
X496756Y331440D01*
X496750Y331460D01*
X496749Y331480D01*
X496706Y331612D01*
X496667Y331746D01*
X496657Y331763D01*
X496651Y331783D01*
X496576Y331900D01*
X496506Y332020D01*
X496487Y332041D01*
X496481Y332051D01*
X496466Y332065D01*
X496399Y332141D01*
X495859Y332681D01*
X494819Y335191D01*
X494819Y336747D01*
X494807Y336846D01*
X494804Y336945D01*
X494787Y337003D01*
X494779Y337063D01*
X494743Y337155D01*
X494715Y337250D01*
X494685Y337302D01*
X494662Y337359D01*
X494604Y337439D01*
X494554Y337524D01*
X494488Y337599D01*
X494476Y337616D01*
X494466Y337624D01*
X494448Y337645D01*
X484351Y347742D01*
X484273Y347802D01*
X484200Y347870D01*
X484147Y347899D01*
X484100Y347936D01*
X484009Y347976D01*
X483922Y348024D01*
X483863Y348039D01*
X483808Y348063D01*
X483710Y348078D01*
X483614Y348103D01*
X483514Y348109D01*
X483494Y348113D01*
X483481Y348112D01*
X483453Y348113D01*
X475186Y348113D01*
X472744Y350556D01*
X472689Y350599D01*
X472640Y350649D01*
X472563Y350696D01*
X472492Y350751D01*
X472428Y350779D01*
X472369Y350815D01*
X472283Y350841D01*
X472201Y350877D01*
X472132Y350888D01*
X472065Y350909D01*
X471975Y350913D01*
X471886Y350927D01*
X471817Y350921D01*
X471747Y350924D01*
X471659Y350906D01*
X471570Y350897D01*
X471504Y350874D01*
X471436Y350860D01*
X471355Y350820D01*
X471271Y350790D01*
X471213Y350751D01*
X471150Y350720D01*
X471082Y350662D01*
X471007Y350611D01*
X470961Y350559D01*
X470908Y350513D01*
X470856Y350440D01*
X470797Y350373D01*
X470765Y350310D01*
X470725Y350253D01*
X470693Y350169D01*
X470652Y350089D01*
X470637Y350021D01*
X470612Y349956D01*
X470602Y349867D01*
X470583Y349779D01*
X470585Y349709D01*
X470577Y349640D01*
X470590Y349551D01*
X470592Y349461D01*
X470612Y349394D01*
X470622Y349325D01*
X470674Y349173D01*
X472201Y345485D01*
X472201Y341746D01*
X470770Y338292D01*
X468126Y335648D01*
X464672Y334217D01*
X460933Y334217D01*
X457478Y335648D01*
X454834Y338292D01*
X453404Y341746D01*
X453404Y345485D01*
X454834Y348940D01*
X457478Y351584D01*
X460933Y353014D01*
X464672Y353014D01*
X468359Y351487D01*
X468427Y351469D01*
X468491Y351441D01*
X468580Y351427D01*
X468666Y351403D01*
X468736Y351402D01*
X468805Y351391D01*
X468894Y351399D01*
X468984Y351398D01*
X469052Y351414D01*
X469121Y351421D01*
X469206Y351451D01*
X469293Y351472D01*
X469355Y351505D01*
X469421Y351528D01*
X469495Y351579D01*
X469574Y351621D01*
X469626Y351668D01*
X469684Y351707D01*
X469743Y351774D01*
X469810Y351835D01*
X469848Y351893D01*
X469894Y351945D01*
X469935Y352025D01*
X469985Y352100D01*
X470007Y352167D01*
X470039Y352229D01*
X470059Y352316D01*
X470088Y352401D01*
X470093Y352471D01*
X470109Y352539D01*
X470106Y352629D01*
X470113Y352718D01*
X470101Y352787D01*
X470099Y352857D01*
X470074Y352943D01*
X470059Y353032D01*
X470030Y353095D01*
X470011Y353162D01*
X469965Y353240D01*
X469928Y353322D01*
X469885Y353376D01*
X469849Y353436D01*
X469743Y353557D01*
X449433Y373867D01*
X446531Y376768D01*
X446531Y413233D01*
X446519Y413331D01*
X446516Y413430D01*
X446499Y413488D01*
X446491Y413548D01*
X446455Y413640D01*
X446427Y413736D01*
X446397Y413788D01*
X446374Y413844D01*
X446316Y413924D01*
X446266Y414010D01*
X446200Y414085D01*
X446188Y414101D01*
X446178Y414109D01*
X446159Y414130D01*
X445059Y415231D01*
X444019Y417741D01*
X444019Y420459D01*
X445059Y422969D01*
X446981Y424891D01*
X449491Y425931D01*
X452209Y425931D01*
X454719Y424891D01*
X456641Y422969D01*
X457681Y420459D01*
X457681Y417741D01*
X456641Y415231D01*
X455541Y414130D01*
X455480Y414052D01*
X455412Y413980D01*
X455383Y413927D01*
X455346Y413879D01*
X455306Y413788D01*
X455258Y413702D01*
X455243Y413643D01*
X455219Y413587D01*
X455204Y413489D01*
X455179Y413394D01*
X455173Y413294D01*
X455169Y413273D01*
X455171Y413261D01*
X455169Y413233D01*
X455169Y388259D01*
X455186Y388121D01*
X455199Y387983D01*
X455206Y387964D01*
X455209Y387944D01*
X455260Y387814D01*
X455307Y387683D01*
X455318Y387667D01*
X455326Y387648D01*
X455407Y387535D01*
X455485Y387420D01*
X455501Y387407D01*
X455512Y387391D01*
X455620Y387302D01*
X455724Y387210D01*
X455742Y387201D01*
X455757Y387188D01*
X455883Y387129D01*
X456007Y387065D01*
X456027Y387061D01*
X456045Y387052D01*
X456181Y387026D01*
X456317Y386996D01*
X456338Y386996D01*
X456357Y386992D01*
X456496Y387001D01*
X456635Y387005D01*
X456655Y387011D01*
X456675Y387012D01*
X456807Y387055D01*
X456941Y387094D01*
X456958Y387104D01*
X456977Y387110D01*
X457095Y387185D01*
X457215Y387255D01*
X457236Y387274D01*
X457246Y387280D01*
X457260Y387295D01*
X457336Y387362D01*
X457478Y387505D01*
X460933Y388935D01*
X464672Y388935D01*
X468126Y387505D01*
X470770Y384861D01*
X472201Y381406D01*
X472201Y377667D01*
X470770Y374213D01*
X468126Y371569D01*
X466925Y371071D01*
X466882Y371047D01*
X466835Y371030D01*
X466745Y370968D01*
X466649Y370914D01*
X466613Y370879D01*
X466572Y370851D01*
X466500Y370769D01*
X466421Y370693D01*
X466395Y370650D01*
X466362Y370613D01*
X466312Y370515D01*
X466254Y370421D01*
X466240Y370374D01*
X466217Y370330D01*
X466193Y370223D01*
X466161Y370118D01*
X466158Y370068D01*
X466148Y370019D01*
X466151Y369910D01*
X466146Y369800D01*
X466156Y369751D01*
X466157Y369702D01*
X466188Y369596D01*
X466210Y369488D01*
X466232Y369444D01*
X466246Y369396D01*
X466301Y369301D01*
X466350Y369203D01*
X466382Y369165D01*
X466407Y369122D01*
X466514Y369001D01*
X470227Y365287D01*
X470267Y365257D01*
X470300Y365220D01*
X470392Y365160D01*
X470479Y365093D01*
X470524Y365073D01*
X470566Y365045D01*
X470670Y365010D01*
X470771Y364966D01*
X470820Y364958D01*
X470867Y364942D01*
X470976Y364934D01*
X471085Y364916D01*
X471134Y364921D01*
X471184Y364917D01*
X471292Y364936D01*
X471401Y364946D01*
X471448Y364963D01*
X471497Y364971D01*
X471597Y365017D01*
X471701Y365054D01*
X471742Y365082D01*
X471787Y365102D01*
X471873Y365171D01*
X471964Y365232D01*
X471996Y365270D01*
X472035Y365301D01*
X472102Y365388D01*
X472174Y365471D01*
X472197Y365515D01*
X472227Y365555D01*
X472298Y365699D01*
X472795Y366900D01*
X475439Y369544D01*
X478893Y370975D01*
X482632Y370975D01*
X486087Y369544D01*
X488731Y366900D01*
X490162Y363446D01*
X490162Y359707D01*
X488857Y356558D01*
X488850Y356530D01*
X488836Y356503D01*
X488808Y356377D01*
X488773Y356252D01*
X488773Y356222D01*
X488767Y356193D01*
X488770Y356063D01*
X488768Y355934D01*
X488775Y355905D01*
X488776Y355875D01*
X488812Y355751D01*
X488843Y355624D01*
X488856Y355598D01*
X488865Y355570D01*
X488931Y355458D01*
X488991Y355343D01*
X489011Y355321D01*
X489026Y355296D01*
X489133Y355175D01*
X490458Y353849D01*
X500555Y343752D01*
X500633Y343692D01*
X500706Y343624D01*
X500759Y343595D01*
X500806Y343558D01*
X500897Y343518D01*
X500984Y343470D01*
X501043Y343455D01*
X501098Y343431D01*
X501196Y343416D01*
X501292Y343391D01*
X501392Y343385D01*
X501412Y343381D01*
X501425Y343383D01*
X501453Y343381D01*
X503009Y343381D01*
X505581Y342315D01*
X505590Y342313D01*
X505598Y342308D01*
X505743Y342271D01*
X505887Y342231D01*
X505897Y342231D01*
X505906Y342229D01*
X506066Y342219D01*
X659339Y342219D01*
X659358Y342193D01*
X659421Y342092D01*
X659451Y342064D01*
X659474Y342031D01*
X659566Y341956D01*
X659653Y341874D01*
X659688Y341854D01*
X659719Y341829D01*
X659827Y341778D01*
X659931Y341720D01*
X659971Y341710D01*
X660007Y341693D01*
X660124Y341671D01*
X660239Y341641D01*
X660300Y341637D01*
X660320Y341633D01*
X660340Y341635D01*
X660400Y341631D01*
X685800Y341631D01*
X685918Y341646D01*
X686037Y341653D01*
X686075Y341666D01*
X686116Y341671D01*
X686226Y341714D01*
X686339Y341751D01*
X686374Y341773D01*
X686411Y341788D01*
X686507Y341858D01*
X686608Y341921D01*
X686636Y341951D01*
X686669Y341974D01*
X686745Y342066D01*
X686826Y342153D01*
X686846Y342188D01*
X686871Y342219D01*
X686922Y342327D01*
X686980Y342431D01*
X686990Y342471D01*
X687007Y342507D01*
X687029Y342624D01*
X687059Y342739D01*
X687063Y342800D01*
X687067Y342820D01*
X687065Y342840D01*
X687069Y342900D01*
X687069Y347517D01*
X687052Y347654D01*
X687039Y347793D01*
X687032Y347812D01*
X687029Y347832D01*
X686978Y347961D01*
X686931Y348092D01*
X686920Y348109D01*
X686912Y348128D01*
X686831Y348240D01*
X686753Y348355D01*
X686737Y348369D01*
X686726Y348385D01*
X686618Y348474D01*
X686514Y348566D01*
X686496Y348575D01*
X686481Y348588D01*
X686355Y348647D01*
X686231Y348711D01*
X686211Y348715D01*
X686193Y348724D01*
X686057Y348750D01*
X685921Y348780D01*
X685900Y348780D01*
X685881Y348783D01*
X685742Y348775D01*
X685603Y348771D01*
X685583Y348765D01*
X685563Y348764D01*
X685431Y348721D01*
X685297Y348682D01*
X685280Y348672D01*
X685261Y348666D01*
X685143Y348591D01*
X685023Y348521D01*
X685002Y348502D01*
X684992Y348495D01*
X684978Y348481D01*
X684903Y348414D01*
X684781Y348292D01*
X667515Y348292D01*
X666622Y349185D01*
X666622Y349250D01*
X666607Y349368D01*
X666600Y349487D01*
X666587Y349525D01*
X666582Y349566D01*
X666539Y349676D01*
X666502Y349789D01*
X666480Y349824D01*
X666465Y349861D01*
X666396Y349957D01*
X666332Y350058D01*
X666302Y350086D01*
X666279Y350119D01*
X666187Y350195D01*
X666100Y350276D01*
X666065Y350296D01*
X666034Y350321D01*
X665926Y350372D01*
X665822Y350430D01*
X665782Y350440D01*
X665746Y350457D01*
X665629Y350479D01*
X665514Y350509D01*
X665454Y350513D01*
X665434Y350517D01*
X665413Y350515D01*
X665353Y350519D01*
X665098Y350519D01*
X665098Y357176D01*
X666884Y358962D01*
X685412Y358962D01*
X687189Y357185D01*
X687283Y357112D01*
X687372Y357033D01*
X687408Y357015D01*
X687440Y356990D01*
X687549Y356943D01*
X687655Y356889D01*
X687694Y356880D01*
X687732Y356864D01*
X687849Y356845D01*
X687965Y356819D01*
X688006Y356820D01*
X688046Y356814D01*
X688164Y356825D01*
X688283Y356829D01*
X688322Y356840D01*
X688362Y356844D01*
X688474Y356884D01*
X688589Y356917D01*
X688624Y356938D01*
X688662Y356951D01*
X688760Y357018D01*
X688863Y357079D01*
X688908Y357118D01*
X688925Y357130D01*
X688938Y357145D01*
X688984Y357185D01*
X690760Y358962D01*
X705612Y358962D01*
X705730Y358977D01*
X705849Y358984D01*
X705887Y358997D01*
X705928Y359002D01*
X706038Y359045D01*
X706151Y359082D01*
X706186Y359104D01*
X706223Y359119D01*
X706319Y359188D01*
X706420Y359252D01*
X706448Y359282D01*
X706481Y359305D01*
X706557Y359397D01*
X706638Y359484D01*
X706658Y359519D01*
X706683Y359550D01*
X706734Y359658D01*
X706792Y359762D01*
X706802Y359802D01*
X706819Y359838D01*
X706841Y359955D01*
X706871Y360070D01*
X706875Y360130D01*
X706879Y360150D01*
X706877Y360171D01*
X706881Y360231D01*
X706881Y365985D01*
X706869Y366084D01*
X706866Y366183D01*
X706849Y366241D01*
X706841Y366301D01*
X706805Y366393D01*
X706777Y366488D01*
X706747Y366540D01*
X706724Y366597D01*
X706666Y366677D01*
X706616Y366762D01*
X706550Y366837D01*
X706538Y366854D01*
X706528Y366862D01*
X706510Y366883D01*
X678033Y395360D01*
X677955Y395420D01*
X677882Y395488D01*
X677829Y395517D01*
X677782Y395554D01*
X677691Y395594D01*
X677604Y395642D01*
X677545Y395657D01*
X677490Y395681D01*
X677392Y395696D01*
X677296Y395721D01*
X677196Y395727D01*
X677176Y395731D01*
X677163Y395729D01*
X677135Y395731D01*
X588761Y395731D01*
X559316Y425177D01*
X559292Y425195D01*
X559273Y425217D01*
X559167Y425292D01*
X559064Y425372D01*
X559037Y425383D01*
X559013Y425400D01*
X558892Y425446D01*
X558773Y425498D01*
X558743Y425503D01*
X558716Y425513D01*
X558587Y425527D01*
X558458Y425548D01*
X558429Y425545D01*
X558400Y425548D01*
X558271Y425530D01*
X558142Y425518D01*
X558114Y425508D01*
X558085Y425504D01*
X557932Y425452D01*
X554474Y424019D01*
X550735Y424019D01*
X547281Y425450D01*
X544637Y428094D01*
X543206Y431549D01*
X543206Y435288D01*
X544637Y438742D01*
X547281Y441386D01*
X548482Y441883D01*
X548525Y441908D01*
X548572Y441925D01*
X548663Y441987D01*
X548758Y442041D01*
X548794Y442076D01*
X548835Y442103D01*
X548907Y442186D01*
X548986Y442262D01*
X549012Y442305D01*
X549045Y442342D01*
X549095Y442440D01*
X549153Y442533D01*
X549167Y442581D01*
X549190Y442625D01*
X549214Y442732D01*
X549246Y442837D01*
X549249Y442887D01*
X549259Y442935D01*
X549256Y443045D01*
X549261Y443155D01*
X549251Y443204D01*
X549250Y443253D01*
X549219Y443359D01*
X549197Y443466D01*
X549175Y443511D01*
X549161Y443559D01*
X549106Y443653D01*
X549057Y443752D01*
X549025Y443790D01*
X549000Y443833D01*
X548893Y443954D01*
X545180Y447667D01*
X545140Y447698D01*
X545107Y447735D01*
X545015Y447795D01*
X544928Y447862D01*
X544883Y447882D01*
X544841Y447909D01*
X544738Y447945D01*
X544637Y447989D01*
X544587Y447996D01*
X544540Y448013D01*
X544431Y448021D01*
X544322Y448038D01*
X544273Y448034D01*
X544223Y448038D01*
X544115Y448019D01*
X544006Y448009D01*
X543959Y447992D01*
X543910Y447983D01*
X543810Y447938D01*
X543707Y447901D01*
X543665Y447873D01*
X543620Y447853D01*
X543534Y447784D01*
X543443Y447722D01*
X543411Y447685D01*
X543372Y447654D01*
X543306Y447566D01*
X543233Y447484D01*
X543210Y447440D01*
X543180Y447400D01*
X543110Y447256D01*
X542612Y446055D01*
X539968Y443411D01*
X536514Y441980D01*
X532775Y441980D01*
X529320Y443411D01*
X526676Y446055D01*
X525246Y449509D01*
X525246Y453248D01*
X525743Y454449D01*
X525756Y454497D01*
X525777Y454542D01*
X525798Y454650D01*
X525827Y454756D01*
X525828Y454805D01*
X525837Y454854D01*
X525830Y454964D01*
X525832Y455074D01*
X525820Y455122D01*
X525817Y455172D01*
X525783Y455276D01*
X525758Y455383D01*
X525735Y455427D01*
X525719Y455474D01*
X525660Y455567D01*
X525609Y455664D01*
X525576Y455701D01*
X525549Y455743D01*
X525469Y455818D01*
X525395Y455899D01*
X525354Y455927D01*
X525317Y455961D01*
X525221Y456014D01*
X525130Y456074D01*
X525082Y456090D01*
X525039Y456114D01*
X524933Y456142D01*
X524829Y456177D01*
X524779Y456181D01*
X524731Y456194D01*
X524570Y456204D01*
X523711Y456204D01*
X448316Y531599D01*
X448293Y531617D01*
X448274Y531640D01*
X448168Y531714D01*
X448065Y531794D01*
X448038Y531806D01*
X448014Y531823D01*
X447892Y531869D01*
X447773Y531920D01*
X447744Y531925D01*
X447716Y531936D01*
X447587Y531950D01*
X447459Y531970D01*
X447430Y531968D01*
X447400Y531971D01*
X447272Y531953D01*
X447142Y531941D01*
X447115Y531931D01*
X447085Y531926D01*
X446933Y531874D01*
X446711Y531783D01*
X442972Y531783D01*
X439518Y533213D01*
X436874Y535857D01*
X436061Y537820D01*
X436036Y537863D01*
X436019Y537910D01*
X435958Y538001D01*
X435903Y538096D01*
X435869Y538132D01*
X435841Y538173D01*
X435759Y538246D01*
X435682Y538325D01*
X435640Y538351D01*
X435602Y538384D01*
X435505Y538434D01*
X435411Y538491D01*
X435364Y538506D01*
X435319Y538528D01*
X435212Y538552D01*
X435107Y538585D01*
X435057Y538587D01*
X435009Y538598D01*
X434899Y538595D01*
X434789Y538600D01*
X434741Y538590D01*
X434691Y538588D01*
X434586Y538558D01*
X434478Y538535D01*
X434433Y538514D01*
X434386Y538500D01*
X434291Y538444D01*
X434192Y538396D01*
X434154Y538364D01*
X434112Y538338D01*
X433991Y538232D01*
X429831Y534072D01*
X429800Y534032D01*
X429763Y533999D01*
X429703Y533907D01*
X429636Y533820D01*
X429616Y533775D01*
X429589Y533733D01*
X429553Y533630D01*
X429509Y533529D01*
X429502Y533480D01*
X429485Y533433D01*
X429477Y533323D01*
X429460Y533215D01*
X429464Y533165D01*
X429460Y533116D01*
X429479Y533007D01*
X429489Y532898D01*
X429506Y532851D01*
X429515Y532802D01*
X429560Y532702D01*
X429597Y532599D01*
X429625Y532557D01*
X429645Y532512D01*
X429714Y532426D01*
X429776Y532336D01*
X429813Y532303D01*
X429844Y532264D01*
X429932Y532198D01*
X430014Y532125D01*
X430058Y532102D01*
X430098Y532073D01*
X430242Y532002D01*
X432205Y531189D01*
X434849Y528545D01*
X436280Y525090D01*
X436280Y521351D01*
X434849Y517897D01*
X432205Y515253D01*
X431984Y515161D01*
X431958Y515146D01*
X431930Y515137D01*
X431820Y515068D01*
X431707Y515004D01*
X431686Y514983D01*
X431661Y514967D01*
X431572Y514873D01*
X431479Y514782D01*
X431463Y514757D01*
X431443Y514736D01*
X431380Y514622D01*
X431313Y514511D01*
X431304Y514483D01*
X431290Y514457D01*
X431257Y514331D01*
X431219Y514207D01*
X431218Y514178D01*
X431210Y514149D01*
X431200Y513988D01*
X431200Y502533D01*
X431212Y502435D01*
X431215Y502336D01*
X431232Y502278D01*
X431240Y502218D01*
X431276Y502126D01*
X431304Y502031D01*
X431335Y501978D01*
X431357Y501922D01*
X431415Y501842D01*
X431465Y501757D01*
X431532Y501681D01*
X431544Y501665D01*
X431553Y501657D01*
X431572Y501636D01*
X432073Y501134D01*
X432130Y501091D01*
X434900Y498320D01*
X434956Y498277D01*
X435004Y498227D01*
X435081Y498180D01*
X435152Y498125D01*
X435216Y498097D01*
X435275Y498061D01*
X435361Y498034D01*
X435444Y497999D01*
X435513Y497988D01*
X435579Y497967D01*
X435669Y497963D01*
X435758Y497949D01*
X435827Y497955D01*
X435897Y497952D01*
X435985Y497970D01*
X436074Y497979D01*
X436140Y498002D01*
X436208Y498016D01*
X436289Y498056D01*
X436374Y498086D01*
X436431Y498125D01*
X436494Y498156D01*
X436562Y498214D01*
X436637Y498265D01*
X436683Y498317D01*
X436736Y498362D01*
X436788Y498436D01*
X436847Y498503D01*
X436879Y498565D01*
X436919Y498622D01*
X436951Y498706D01*
X436992Y498786D01*
X437007Y498855D01*
X437032Y498920D01*
X437042Y499009D01*
X437061Y499097D01*
X437059Y499166D01*
X437067Y499236D01*
X437054Y499325D01*
X437052Y499415D01*
X437032Y499482D01*
X437023Y499551D01*
X436971Y499703D01*
X435443Y503391D01*
X435443Y507130D01*
X436874Y510584D01*
X439518Y513228D01*
X442972Y514659D01*
X446711Y514659D01*
X450166Y513228D01*
X452810Y510584D01*
X454241Y507130D01*
X454241Y503391D01*
X452810Y499936D01*
X450166Y497292D01*
X446711Y495861D01*
X442972Y495861D01*
X439285Y497389D01*
X439217Y497407D01*
X439153Y497435D01*
X439064Y497449D01*
X438978Y497473D01*
X438908Y497474D01*
X438839Y497485D01*
X438750Y497477D01*
X438660Y497478D01*
X438592Y497462D01*
X438523Y497455D01*
X438438Y497425D01*
X438351Y497404D01*
X438289Y497371D01*
X438223Y497348D01*
X438149Y497297D01*
X438070Y497255D01*
X438018Y497208D01*
X437960Y497169D01*
X437901Y497102D01*
X437834Y497041D01*
X437796Y496983D01*
X437750Y496931D01*
X437709Y496851D01*
X437659Y496775D01*
X437637Y496709D01*
X437605Y496647D01*
X437585Y496560D01*
X437556Y496475D01*
X437551Y496405D01*
X437535Y496337D01*
X437538Y496247D01*
X437531Y496158D01*
X437543Y496089D01*
X437545Y496019D01*
X437570Y495933D01*
X437585Y495844D01*
X437614Y495781D01*
X437633Y495714D01*
X437679Y495636D01*
X437716Y495554D01*
X437760Y495500D01*
X437795Y495440D01*
X437901Y495319D01*
X440623Y492598D01*
X440676Y492537D01*
X440688Y492521D01*
X440697Y492513D01*
X440716Y492492D01*
X474219Y458989D01*
X474219Y450367D01*
X474231Y450269D01*
X474234Y450170D01*
X474251Y450112D01*
X474259Y450052D01*
X474295Y449959D01*
X474323Y449864D01*
X474353Y449812D01*
X474376Y449756D01*
X474434Y449676D01*
X474484Y449590D01*
X474550Y449515D01*
X474562Y449499D01*
X474572Y449491D01*
X474590Y449470D01*
X475691Y448369D01*
X476731Y445859D01*
X476731Y443141D01*
X475691Y440631D01*
X473769Y438709D01*
X471259Y437669D01*
X468541Y437669D01*
X466031Y438709D01*
X464109Y440631D01*
X463069Y443141D01*
X463069Y445859D01*
X464109Y448369D01*
X465210Y449470D01*
X465270Y449548D01*
X465338Y449620D01*
X465367Y449673D01*
X465404Y449721D01*
X465444Y449812D01*
X465492Y449898D01*
X465507Y449957D01*
X465531Y450013D01*
X465546Y450111D01*
X465571Y450206D01*
X465577Y450306D01*
X465581Y450327D01*
X465579Y450339D01*
X465581Y450367D01*
X465581Y454885D01*
X465569Y454984D01*
X465566Y455083D01*
X465549Y455141D01*
X465541Y455201D01*
X465505Y455293D01*
X465477Y455388D01*
X465447Y455440D01*
X465424Y455497D01*
X465366Y455577D01*
X465316Y455662D01*
X465250Y455737D01*
X465238Y455754D01*
X465228Y455762D01*
X465210Y455783D01*
X437413Y483579D01*
X437374Y483610D01*
X437340Y483647D01*
X437249Y483707D01*
X437162Y483774D01*
X437116Y483794D01*
X437075Y483821D01*
X436971Y483857D01*
X436870Y483901D01*
X436821Y483909D01*
X436774Y483925D01*
X436664Y483933D01*
X436556Y483951D01*
X436506Y483946D01*
X436457Y483950D01*
X436348Y483931D01*
X436239Y483921D01*
X436192Y483904D01*
X436143Y483895D01*
X436043Y483850D01*
X435940Y483813D01*
X435899Y483785D01*
X435853Y483765D01*
X435768Y483696D01*
X435677Y483635D01*
X435644Y483597D01*
X435605Y483566D01*
X435539Y483478D01*
X435466Y483396D01*
X435444Y483352D01*
X435414Y483312D01*
X435343Y483168D01*
X434849Y481976D01*
X432205Y479332D01*
X428751Y477901D01*
X425012Y477901D01*
X421557Y479332D01*
X418913Y481976D01*
X417483Y485430D01*
X417483Y489169D01*
X418913Y492624D01*
X421557Y495268D01*
X422749Y495761D01*
X422792Y495786D01*
X422839Y495803D01*
X422930Y495864D01*
X423025Y495919D01*
X423061Y495953D01*
X423102Y495981D01*
X423175Y496064D01*
X423254Y496140D01*
X423280Y496182D01*
X423313Y496220D01*
X423363Y496318D01*
X423420Y496411D01*
X423435Y496459D01*
X423457Y496503D01*
X423481Y496610D01*
X423514Y496715D01*
X423516Y496765D01*
X423527Y496813D01*
X423524Y496923D01*
X423529Y497033D01*
X423519Y497081D01*
X423517Y497131D01*
X423487Y497237D01*
X423465Y497344D01*
X423443Y497389D01*
X423429Y497437D01*
X423373Y497531D01*
X423325Y497630D01*
X423293Y497668D01*
X423267Y497711D01*
X423161Y497831D01*
X422563Y498430D01*
X422563Y513988D01*
X422559Y514018D01*
X422561Y514047D01*
X422539Y514175D01*
X422523Y514304D01*
X422512Y514331D01*
X422507Y514360D01*
X422453Y514479D01*
X422406Y514600D01*
X422388Y514624D01*
X422376Y514650D01*
X422295Y514752D01*
X422219Y514857D01*
X422196Y514876D01*
X422178Y514899D01*
X422074Y514977D01*
X421974Y515060D01*
X421947Y515072D01*
X421924Y515090D01*
X421779Y515161D01*
X421557Y515253D01*
X418913Y517897D01*
X418100Y519860D01*
X418076Y519903D01*
X418059Y519949D01*
X417997Y520040D01*
X417943Y520136D01*
X417908Y520172D01*
X417880Y520213D01*
X417798Y520285D01*
X417722Y520364D01*
X417679Y520390D01*
X417642Y520423D01*
X417544Y520473D01*
X417450Y520530D01*
X417403Y520545D01*
X417359Y520568D01*
X417251Y520592D01*
X417146Y520624D01*
X417097Y520626D01*
X417048Y520637D01*
X416938Y520634D01*
X416829Y520639D01*
X416780Y520629D01*
X416731Y520628D01*
X416625Y520597D01*
X416517Y520575D01*
X416473Y520553D01*
X416425Y520539D01*
X416331Y520484D01*
X416232Y520435D01*
X416194Y520403D01*
X416151Y520378D01*
X416030Y520271D01*
X411870Y516111D01*
X411840Y516072D01*
X411803Y516039D01*
X411743Y515947D01*
X411675Y515860D01*
X411655Y515814D01*
X411628Y515773D01*
X411592Y515669D01*
X411549Y515568D01*
X411541Y515519D01*
X411525Y515472D01*
X411516Y515363D01*
X411499Y515254D01*
X411504Y515205D01*
X411500Y515155D01*
X411518Y515047D01*
X411529Y514937D01*
X411546Y514891D01*
X411554Y514842D01*
X411599Y514742D01*
X411636Y514638D01*
X411664Y514597D01*
X411685Y514552D01*
X411753Y514466D01*
X411815Y514375D01*
X411852Y514342D01*
X411883Y514303D01*
X411971Y514237D01*
X412053Y514164D01*
X412098Y514142D01*
X412137Y514112D01*
X412282Y514041D01*
X414245Y513228D01*
X416889Y510584D01*
X418319Y507130D01*
X418319Y503391D01*
X416889Y499936D01*
X414245Y497292D01*
X410790Y495861D01*
X407051Y495861D01*
X403597Y497292D01*
X400953Y499936D01*
X400140Y501899D01*
X400115Y501942D01*
X400098Y501989D01*
X400037Y502080D01*
X399982Y502175D01*
X399948Y502211D01*
X399920Y502252D01*
X399838Y502325D01*
X399761Y502404D01*
X399719Y502430D01*
X399681Y502463D01*
X399584Y502513D01*
X399490Y502570D01*
X399442Y502585D01*
X399398Y502607D01*
X399291Y502631D01*
X399186Y502664D01*
X399136Y502666D01*
X399088Y502677D01*
X398978Y502674D01*
X398868Y502679D01*
X398820Y502669D01*
X398770Y502667D01*
X398664Y502637D01*
X398557Y502614D01*
X398512Y502593D01*
X398465Y502579D01*
X398370Y502523D01*
X398271Y502475D01*
X398233Y502442D01*
X398191Y502417D01*
X398070Y502311D01*
X393910Y498151D01*
X393879Y498111D01*
X393842Y498078D01*
X393782Y497986D01*
X393715Y497899D01*
X393695Y497854D01*
X393668Y497812D01*
X393632Y497708D01*
X393588Y497608D01*
X393581Y497559D01*
X393564Y497512D01*
X393556Y497402D01*
X393538Y497294D01*
X393543Y497244D01*
X393539Y497195D01*
X393558Y497086D01*
X393568Y496977D01*
X393585Y496930D01*
X393594Y496881D01*
X393639Y496781D01*
X393676Y496678D01*
X393704Y496636D01*
X393724Y496591D01*
X393793Y496505D01*
X393854Y496414D01*
X393892Y496382D01*
X393923Y496343D01*
X394011Y496277D01*
X394093Y496204D01*
X394137Y496181D01*
X394177Y496152D01*
X394321Y496081D01*
X396284Y495268D01*
X398928Y492624D01*
X400359Y489169D01*
X400359Y485430D01*
X398928Y481976D01*
X396284Y479332D01*
X392830Y477901D01*
X389091Y477901D01*
X385636Y479332D01*
X382992Y481976D01*
X382179Y483939D01*
X382155Y483982D01*
X382138Y484028D01*
X382076Y484119D01*
X382022Y484215D01*
X381987Y484251D01*
X381959Y484292D01*
X381877Y484364D01*
X381801Y484443D01*
X381758Y484469D01*
X381721Y484502D01*
X381623Y484552D01*
X381529Y484609D01*
X381482Y484624D01*
X381438Y484647D01*
X381330Y484671D01*
X381225Y484703D01*
X381176Y484705D01*
X381127Y484716D01*
X381017Y484713D01*
X380908Y484718D01*
X380859Y484708D01*
X380809Y484707D01*
X380704Y484676D01*
X380596Y484654D01*
X380552Y484632D01*
X380504Y484618D01*
X380409Y484563D01*
X380311Y484514D01*
X380273Y484482D01*
X380230Y484457D01*
X380109Y484350D01*
X375949Y480190D01*
X375919Y480151D01*
X375882Y480118D01*
X375822Y480026D01*
X375754Y479939D01*
X375734Y479893D01*
X375707Y479852D01*
X375671Y479748D01*
X375628Y479647D01*
X375620Y479598D01*
X375604Y479551D01*
X375595Y479442D01*
X375578Y479333D01*
X375583Y479284D01*
X375579Y479234D01*
X375597Y479126D01*
X375608Y479016D01*
X375625Y478970D01*
X375633Y478921D01*
X375678Y478821D01*
X375715Y478717D01*
X375743Y478676D01*
X375764Y478631D01*
X375832Y478545D01*
X375894Y478454D01*
X375931Y478421D01*
X375962Y478382D01*
X376050Y478316D01*
X376132Y478243D01*
X376177Y478221D01*
X376216Y478191D01*
X376361Y478120D01*
X378324Y477307D01*
X380968Y474663D01*
X382398Y471209D01*
X382398Y467470D01*
X380968Y464015D01*
X378324Y461371D01*
X374778Y459903D01*
X374762Y459901D01*
X374716Y459882D01*
X374667Y459872D01*
X374568Y459824D01*
X374466Y459784D01*
X374426Y459754D01*
X374381Y459733D01*
X374298Y459661D01*
X374209Y459597D01*
X374177Y459559D01*
X374139Y459526D01*
X374076Y459436D01*
X374006Y459352D01*
X373985Y459307D01*
X373956Y459266D01*
X373917Y459163D01*
X373871Y459064D01*
X373861Y459015D01*
X373844Y458969D01*
X373831Y458859D01*
X373811Y458752D01*
X373814Y458702D01*
X373808Y458653D01*
X373824Y458544D01*
X373831Y458434D01*
X373846Y458387D01*
X373853Y458338D01*
X373905Y458185D01*
X374090Y457738D01*
X374090Y445019D01*
X373905Y444572D01*
X373892Y444524D01*
X373871Y444479D01*
X373850Y444371D01*
X373821Y444265D01*
X373820Y444215D01*
X373811Y444167D01*
X373818Y444057D01*
X373816Y443947D01*
X373827Y443899D01*
X373831Y443849D01*
X373864Y443745D01*
X373890Y443638D01*
X373913Y443594D01*
X373929Y443547D01*
X373987Y443454D01*
X374039Y443357D01*
X374072Y443320D01*
X374099Y443278D01*
X374179Y443203D01*
X374253Y443121D01*
X374294Y443094D01*
X374330Y443060D01*
X374426Y443007D01*
X374518Y442947D01*
X374565Y442931D01*
X374609Y442907D01*
X374715Y442879D01*
X374738Y442871D01*
X378324Y441386D01*
X380968Y438742D01*
X382398Y435288D01*
X382398Y431549D01*
X380968Y428094D01*
X378324Y425450D01*
X374869Y424019D01*
X371130Y424019D01*
X367676Y425450D01*
X364879Y428247D01*
X364770Y428332D01*
X364663Y428421D01*
X364644Y428429D01*
X364628Y428442D01*
X364500Y428497D01*
X364375Y428556D01*
X364355Y428560D01*
X364336Y428568D01*
X364198Y428590D01*
X364062Y428616D01*
X364042Y428615D01*
X364022Y428618D01*
X363883Y428605D01*
X363745Y428596D01*
X363726Y428590D01*
X363706Y428588D01*
X363574Y428541D01*
X363443Y428498D01*
X363425Y428487D01*
X363406Y428480D01*
X363291Y428402D01*
X363174Y428328D01*
X363160Y428313D01*
X363143Y428302D01*
X363051Y428197D01*
X362956Y428096D01*
X362946Y428079D01*
X362933Y428063D01*
X362869Y427939D01*
X362802Y427818D01*
X362797Y427798D01*
X362788Y427780D01*
X362758Y427644D01*
X362723Y427510D01*
X362721Y427482D01*
X362718Y427470D01*
X362719Y427449D01*
X362713Y427349D01*
X362713Y366885D01*
X361630Y364271D01*
X305934Y308576D01*
X305874Y308497D01*
X305806Y308425D01*
X305777Y308372D01*
X305740Y308324D01*
X305700Y308233D01*
X305652Y308147D01*
X305637Y308088D01*
X305613Y308032D01*
X305598Y307934D01*
X305573Y307839D01*
X305567Y307739D01*
X305563Y307718D01*
X305565Y307706D01*
X305563Y307678D01*
X305563Y205034D01*
X305575Y204935D01*
X305578Y204836D01*
X305595Y204778D01*
X305603Y204718D01*
X305639Y204626D01*
X305667Y204531D01*
X305697Y204479D01*
X305720Y204422D01*
X305778Y204342D01*
X305828Y204257D01*
X305894Y204181D01*
X305906Y204165D01*
X305916Y204157D01*
X305934Y204136D01*
X307952Y202119D01*
X307991Y202088D01*
X308024Y202052D01*
X308116Y201991D01*
X308203Y201924D01*
X308249Y201904D01*
X308290Y201877D01*
X308394Y201841D01*
X308495Y201798D01*
X308544Y201790D01*
X308591Y201774D01*
X308700Y201765D01*
X308809Y201748D01*
X308858Y201752D01*
X308908Y201749D01*
X309016Y201767D01*
X309125Y201778D01*
X309172Y201794D01*
X309221Y201803D01*
X309321Y201848D01*
X309425Y201885D01*
X309466Y201913D01*
X309511Y201934D01*
X309597Y202002D01*
X309688Y202064D01*
X309721Y202101D01*
X309760Y202132D01*
X309826Y202220D01*
X309898Y202302D01*
X309921Y202346D01*
X309951Y202386D01*
X310022Y202531D01*
X311150Y205255D01*
X313794Y207899D01*
X317249Y209330D01*
X320988Y209330D01*
X324442Y207899D01*
X327086Y205255D01*
X328517Y201801D01*
X328517Y198062D01*
X327086Y194608D01*
X324442Y191964D01*
X320896Y190495D01*
X320880Y190493D01*
X320834Y190475D01*
X320785Y190465D01*
X320687Y190416D01*
X320585Y190376D01*
X320544Y190347D01*
X320500Y190325D01*
X320416Y190254D01*
X320327Y190189D01*
X320296Y190151D01*
X320258Y190119D01*
X320195Y190029D01*
X320125Y189944D01*
X320103Y189899D01*
X320075Y189859D01*
X320036Y189756D01*
X319989Y189656D01*
X319980Y189608D01*
X319962Y189561D01*
X319950Y189452D01*
X319929Y189344D01*
X319932Y189295D01*
X319927Y189245D01*
X319942Y189136D01*
X319949Y189027D01*
X319964Y188979D01*
X319971Y188930D01*
X320023Y188778D01*
X320208Y188331D01*
X320208Y179326D01*
X320221Y179228D01*
X320224Y179129D01*
X320241Y179071D01*
X320248Y179011D01*
X320285Y178919D01*
X320312Y178823D01*
X320343Y178771D01*
X320365Y178715D01*
X320423Y178635D01*
X320474Y178550D01*
X320540Y178474D01*
X320552Y178458D01*
X320562Y178450D01*
X320580Y178429D01*
X358174Y140834D01*
X358253Y140774D01*
X358325Y140706D01*
X358378Y140677D01*
X358426Y140640D01*
X358517Y140600D01*
X358603Y140552D01*
X358662Y140537D01*
X358718Y140513D01*
X358816Y140498D01*
X358911Y140473D01*
X359011Y140467D01*
X359032Y140463D01*
X359044Y140465D01*
X359072Y140463D01*
X436233Y140463D01*
X436242Y140464D01*
X436251Y140463D01*
X436400Y140484D01*
X436548Y140503D01*
X436557Y140506D01*
X436566Y140507D01*
X436718Y140559D01*
X436912Y140640D01*
X439742Y140640D01*
X442356Y139557D01*
X444535Y137378D01*
X444535Y137377D01*
X464338Y117574D01*
X464339Y117574D01*
X466518Y115395D01*
X467601Y112781D01*
X467601Y110718D01*
X467616Y110600D01*
X467623Y110481D01*
X467636Y110443D01*
X467641Y110402D01*
X467684Y110292D01*
X467721Y110179D01*
X467743Y110144D01*
X467758Y110107D01*
X467827Y110011D01*
X467891Y109910D01*
X467921Y109882D01*
X467944Y109849D01*
X468036Y109773D01*
X468123Y109692D01*
X468158Y109672D01*
X468189Y109647D01*
X468297Y109596D01*
X468401Y109538D01*
X468441Y109528D01*
X468477Y109511D01*
X468594Y109489D01*
X468709Y109459D01*
X468769Y109455D01*
X468789Y109451D01*
X468810Y109453D01*
X468870Y109449D01*
X475316Y109449D01*
X475366Y109455D01*
X475415Y109453D01*
X475523Y109475D01*
X475632Y109489D01*
X475678Y109507D01*
X475727Y109517D01*
X475825Y109565D01*
X475928Y109606D01*
X475968Y109635D01*
X476012Y109657D01*
X476096Y109728D01*
X476185Y109792D01*
X476217Y109831D01*
X476254Y109863D01*
X476318Y109953D01*
X476388Y110037D01*
X476409Y110082D01*
X476438Y110123D01*
X476477Y110226D01*
X476523Y110325D01*
X476533Y110374D01*
X476550Y110420D01*
X476562Y110530D01*
X476583Y110637D01*
X476580Y110687D01*
X476586Y110736D01*
X476570Y110845D01*
X476563Y110955D01*
X476548Y111002D01*
X476541Y111051D01*
X476489Y111204D01*
X475769Y112941D01*
X475769Y115659D01*
X476809Y118169D01*
X478731Y120091D01*
X481241Y121131D01*
X483959Y121131D01*
X486469Y120091D01*
X488391Y118169D01*
X489431Y115659D01*
X489431Y114462D01*
X489443Y114364D01*
X489446Y114265D01*
X489463Y114206D01*
X489471Y114146D01*
X489507Y114054D01*
X489535Y113959D01*
X489565Y113907D01*
X489588Y113851D01*
X489646Y113771D01*
X489696Y113685D01*
X489762Y113610D01*
X489774Y113593D01*
X489784Y113585D01*
X489802Y113564D01*
X493546Y109820D01*
X493625Y109760D01*
X493697Y109692D01*
X493750Y109663D01*
X493798Y109626D01*
X493889Y109586D01*
X493975Y109538D01*
X494034Y109523D01*
X494089Y109499D01*
X494187Y109484D01*
X494283Y109459D01*
X494383Y109453D01*
X494404Y109449D01*
X494416Y109451D01*
X494444Y109449D01*
X496163Y109449D01*
X497949Y107663D01*
X497949Y70137D01*
X496163Y68351D01*
X483637Y68351D01*
X481851Y70137D01*
X481851Y106369D01*
X481848Y106398D01*
X481850Y106427D01*
X481828Y106555D01*
X481811Y106684D01*
X481801Y106711D01*
X481796Y106741D01*
X481742Y106859D01*
X481694Y106980D01*
X481677Y107004D01*
X481665Y107031D01*
X481584Y107132D01*
X481508Y107237D01*
X481485Y107256D01*
X481466Y107279D01*
X481363Y107357D01*
X481263Y107440D01*
X481236Y107452D01*
X481212Y107470D01*
X481068Y107541D01*
X479704Y108106D01*
X479656Y108119D01*
X479611Y108140D01*
X479503Y108161D01*
X479397Y108190D01*
X479347Y108191D01*
X479298Y108200D01*
X479189Y108193D01*
X479079Y108195D01*
X479031Y108184D01*
X478981Y108180D01*
X478877Y108147D01*
X478770Y108121D01*
X478726Y108098D01*
X478679Y108082D01*
X478586Y108024D01*
X478489Y107972D01*
X478452Y107939D01*
X478410Y107912D01*
X478335Y107832D01*
X478253Y107758D01*
X478226Y107717D01*
X478192Y107681D01*
X478139Y107584D01*
X478079Y107493D01*
X478062Y107446D01*
X478038Y107402D01*
X478011Y107296D01*
X477975Y107192D01*
X477971Y107142D01*
X477959Y107094D01*
X477949Y106934D01*
X477949Y70137D01*
X476163Y68351D01*
X463595Y68351D01*
X463581Y68358D01*
X463549Y68383D01*
X463440Y68431D01*
X463334Y68485D01*
X463294Y68494D01*
X463257Y68510D01*
X463140Y68528D01*
X463023Y68554D01*
X462983Y68553D01*
X462943Y68559D01*
X462825Y68548D01*
X462705Y68545D01*
X462667Y68533D01*
X462626Y68530D01*
X462514Y68489D01*
X462400Y68456D01*
X462365Y68436D01*
X462327Y68422D01*
X462229Y68355D01*
X462126Y68295D01*
X462081Y68255D01*
X462064Y68244D01*
X462050Y68228D01*
X462005Y68188D01*
X459094Y65277D01*
X372756Y65277D01*
X372372Y65661D01*
X372278Y65734D01*
X372189Y65812D01*
X372153Y65831D01*
X372121Y65856D01*
X372012Y65903D01*
X371906Y65957D01*
X371867Y65966D01*
X371829Y65982D01*
X371712Y66001D01*
X371596Y66027D01*
X371555Y66025D01*
X371515Y66032D01*
X371397Y66021D01*
X371278Y66017D01*
X371239Y66006D01*
X371199Y66002D01*
X371087Y65962D01*
X370972Y65929D01*
X370937Y65908D01*
X370899Y65894D01*
X370801Y65828D01*
X370698Y65767D01*
X370653Y65727D01*
X370636Y65716D01*
X370623Y65700D01*
X370577Y65661D01*
X370194Y65277D01*
X283856Y65277D01*
X281177Y67956D01*
X281177Y116194D01*
X283856Y118873D01*
X370194Y118873D01*
X370578Y118489D01*
X370672Y118416D01*
X370761Y118338D01*
X370797Y118319D01*
X370829Y118294D01*
X370938Y118247D01*
X371044Y118193D01*
X371083Y118184D01*
X371121Y118168D01*
X371238Y118149D01*
X371354Y118123D01*
X371395Y118125D01*
X371435Y118118D01*
X371553Y118129D01*
X371672Y118133D01*
X371711Y118144D01*
X371751Y118148D01*
X371863Y118188D01*
X371978Y118221D01*
X372013Y118242D01*
X372051Y118256D01*
X372149Y118322D01*
X372252Y118383D01*
X372297Y118423D01*
X372314Y118434D01*
X372327Y118450D01*
X372373Y118489D01*
X372756Y118873D01*
X439858Y118873D01*
X439995Y118890D01*
X440134Y118903D01*
X440153Y118910D01*
X440173Y118913D01*
X440302Y118964D01*
X440433Y119011D01*
X440450Y119022D01*
X440469Y119030D01*
X440581Y119111D01*
X440697Y119189D01*
X440710Y119205D01*
X440726Y119216D01*
X440815Y119324D01*
X440907Y119428D01*
X440916Y119446D01*
X440929Y119461D01*
X440988Y119587D01*
X441052Y119711D01*
X441056Y119731D01*
X441065Y119749D01*
X441091Y119885D01*
X441121Y120021D01*
X441121Y120042D01*
X441125Y120061D01*
X441116Y120200D01*
X441112Y120339D01*
X441106Y120359D01*
X441105Y120379D01*
X441062Y120511D01*
X441023Y120645D01*
X441013Y120662D01*
X441007Y120681D01*
X440932Y120799D01*
X440862Y120919D01*
X440843Y120940D01*
X440837Y120950D01*
X440822Y120964D01*
X440755Y121039D01*
X435929Y125866D01*
X435851Y125926D01*
X435779Y125994D01*
X435726Y126023D01*
X435678Y126060D01*
X435587Y126100D01*
X435500Y126148D01*
X435442Y126163D01*
X435386Y126187D01*
X435288Y126202D01*
X435193Y126227D01*
X435092Y126233D01*
X435072Y126237D01*
X435060Y126235D01*
X435032Y126237D01*
X354185Y126237D01*
X351571Y127320D01*
X307066Y171825D01*
X306696Y172718D01*
X306637Y172822D01*
X306585Y172928D01*
X306559Y172959D01*
X306538Y172994D01*
X306456Y173080D01*
X306378Y173170D01*
X306345Y173194D01*
X306317Y173223D01*
X306216Y173285D01*
X306118Y173354D01*
X306081Y173368D01*
X306046Y173389D01*
X305932Y173424D01*
X305821Y173466D01*
X305781Y173471D01*
X305742Y173483D01*
X305623Y173488D01*
X305505Y173502D01*
X305465Y173496D01*
X305424Y173498D01*
X305308Y173474D01*
X305190Y173457D01*
X305133Y173438D01*
X305113Y173434D01*
X305095Y173425D01*
X305038Y173405D01*
X303027Y172572D01*
X299288Y172572D01*
X295834Y174003D01*
X293190Y176647D01*
X291759Y180101D01*
X291759Y183841D01*
X293190Y187295D01*
X295834Y189939D01*
X297035Y190436D01*
X297078Y190461D01*
X297124Y190478D01*
X297215Y190539D01*
X297311Y190594D01*
X297346Y190628D01*
X297388Y190656D01*
X297460Y190739D01*
X297539Y190815D01*
X297565Y190857D01*
X297598Y190895D01*
X297648Y190993D01*
X297705Y191086D01*
X297720Y191134D01*
X297743Y191178D01*
X297767Y191285D01*
X297799Y191390D01*
X297801Y191440D01*
X297812Y191488D01*
X297809Y191598D01*
X297814Y191708D01*
X297804Y191756D01*
X297803Y191806D01*
X297772Y191912D01*
X297750Y192019D01*
X297728Y192064D01*
X297714Y192112D01*
X297659Y192206D01*
X297610Y192305D01*
X297578Y192343D01*
X297553Y192386D01*
X297446Y192506D01*
X292420Y197533D01*
X291337Y200147D01*
X291337Y312565D01*
X292420Y315179D01*
X294599Y317358D01*
X294600Y317358D01*
X348116Y370874D01*
X348176Y370953D01*
X348244Y371025D01*
X348273Y371078D01*
X348310Y371126D01*
X348350Y371217D01*
X348398Y371303D01*
X348413Y371362D01*
X348437Y371418D01*
X348452Y371516D01*
X348477Y371611D01*
X348483Y371711D01*
X348487Y371732D01*
X348485Y371744D01*
X348487Y371772D01*
X348487Y430020D01*
X348479Y430089D01*
X348480Y430159D01*
X348459Y430246D01*
X348447Y430335D01*
X348422Y430400D01*
X348405Y430468D01*
X348363Y430548D01*
X348330Y430631D01*
X348289Y430688D01*
X348257Y430749D01*
X348196Y430816D01*
X348144Y430889D01*
X348090Y430933D01*
X348043Y430985D01*
X347968Y431034D01*
X347899Y431091D01*
X347835Y431121D01*
X347777Y431159D01*
X347692Y431189D01*
X347611Y431227D01*
X347542Y431240D01*
X347476Y431263D01*
X347387Y431270D01*
X347299Y431287D01*
X347229Y431282D01*
X347159Y431288D01*
X347071Y431272D01*
X346981Y431267D01*
X346915Y431245D01*
X346846Y431233D01*
X346764Y431197D01*
X346679Y431169D01*
X346620Y431132D01*
X346556Y431103D01*
X346486Y431047D01*
X346410Y430999D01*
X346362Y430948D01*
X346308Y430904D01*
X346253Y430832D01*
X346192Y430767D01*
X346158Y430706D01*
X346116Y430650D01*
X346045Y430506D01*
X345047Y428094D01*
X342403Y425450D01*
X341202Y424953D01*
X341159Y424928D01*
X341112Y424912D01*
X341021Y424850D01*
X340926Y424795D01*
X340890Y424761D01*
X340849Y424733D01*
X340776Y424651D01*
X340697Y424574D01*
X340671Y424532D01*
X340638Y424495D01*
X340588Y424397D01*
X340531Y424303D01*
X340516Y424256D01*
X340494Y424211D01*
X340470Y424104D01*
X340437Y423999D01*
X340435Y423949D01*
X340424Y423901D01*
X340427Y423791D01*
X340422Y423681D01*
X340432Y423633D01*
X340434Y423583D01*
X340464Y423477D01*
X340486Y423370D01*
X340508Y423325D01*
X340522Y423278D01*
X340578Y423183D01*
X340626Y423084D01*
X340658Y423047D01*
X340684Y423004D01*
X340790Y422883D01*
X342580Y421093D01*
X343663Y418479D01*
X343663Y414592D01*
X342580Y411977D01*
X331334Y400732D01*
X331274Y400654D01*
X331206Y400582D01*
X331177Y400529D01*
X331140Y400481D01*
X331100Y400390D01*
X331052Y400303D01*
X331037Y400245D01*
X331013Y400189D01*
X330998Y400091D01*
X330973Y399995D01*
X330967Y399895D01*
X330963Y399875D01*
X330965Y399863D01*
X330963Y399835D01*
X330963Y366885D01*
X329880Y364271D01*
X327701Y362092D01*
X327700Y362092D01*
X276884Y311276D01*
X276824Y311197D01*
X276756Y311125D01*
X276727Y311072D01*
X276690Y311024D01*
X276650Y310933D01*
X276602Y310847D01*
X276587Y310788D01*
X276563Y310732D01*
X276548Y310634D01*
X276523Y310539D01*
X276517Y310439D01*
X276513Y310418D01*
X276515Y310406D01*
X276513Y310378D01*
X276513Y173314D01*
X276519Y173265D01*
X276517Y173215D01*
X276539Y173108D01*
X276553Y172999D01*
X276571Y172953D01*
X276581Y172904D01*
X276629Y172805D01*
X276670Y172703D01*
X276699Y172663D01*
X276721Y172618D01*
X276792Y172535D01*
X276856Y172446D01*
X276895Y172414D01*
X276927Y172376D01*
X277017Y172313D01*
X277101Y172243D01*
X277146Y172222D01*
X277187Y172193D01*
X277290Y172154D01*
X277389Y172107D01*
X277438Y172098D01*
X277484Y172081D01*
X277594Y172068D01*
X277701Y172048D01*
X277751Y172051D01*
X277800Y172045D01*
X277909Y172061D01*
X278019Y172067D01*
X278066Y172083D01*
X278115Y172090D01*
X278268Y172142D01*
X281328Y173409D01*
X285067Y173409D01*
X288521Y171978D01*
X291165Y169334D01*
X292596Y165880D01*
X292596Y162141D01*
X291165Y158687D01*
X288521Y156043D01*
X284975Y154574D01*
X284959Y154572D01*
X284913Y154554D01*
X284864Y154544D01*
X284766Y154495D01*
X284664Y154455D01*
X284624Y154426D01*
X284579Y154404D01*
X284495Y154333D01*
X284406Y154268D01*
X284375Y154230D01*
X284337Y154197D01*
X284274Y154108D01*
X284204Y154023D01*
X284182Y153978D01*
X284154Y153937D01*
X284115Y153835D01*
X284068Y153735D01*
X284059Y153687D01*
X284041Y153640D01*
X284029Y153531D01*
X284008Y153423D01*
X284011Y153373D01*
X284006Y153324D01*
X284021Y153215D01*
X284028Y153106D01*
X284043Y153058D01*
X284050Y153009D01*
X284102Y152857D01*
X284288Y152410D01*
X284288Y139690D01*
X283205Y137076D01*
X276884Y130756D01*
X276824Y130678D01*
X276756Y130606D01*
X276727Y130553D01*
X276690Y130505D01*
X276650Y130414D01*
X276602Y130327D01*
X276587Y130268D01*
X276563Y130213D01*
X276548Y130115D01*
X276523Y130019D01*
X276517Y129919D01*
X276513Y129899D01*
X276515Y129886D01*
X276513Y129858D01*
X276513Y109125D01*
X276525Y109026D01*
X276528Y108927D01*
X276545Y108869D01*
X276553Y108809D01*
X276589Y108717D01*
X276617Y108622D01*
X276647Y108570D01*
X276670Y108513D01*
X276728Y108433D01*
X276778Y108348D01*
X276844Y108273D01*
X276856Y108256D01*
X276866Y108248D01*
X276885Y108227D01*
X277449Y107663D01*
X277449Y70137D01*
X275663Y68351D01*
X263137Y68351D01*
X261351Y70137D01*
X261351Y107663D01*
X261915Y108227D01*
X261976Y108305D01*
X262044Y108377D01*
X262073Y108430D01*
X262110Y108478D01*
X262150Y108569D01*
X262198Y108656D01*
X262213Y108715D01*
X262237Y108770D01*
X262252Y108868D01*
X262277Y108964D01*
X262283Y109064D01*
X262287Y109084D01*
X262285Y109097D01*
X262287Y109125D01*
X262287Y134745D01*
X262634Y135581D01*
X262665Y135696D01*
X262704Y135809D01*
X262707Y135849D01*
X262718Y135888D01*
X262719Y136007D01*
X262729Y136126D01*
X262722Y136165D01*
X262723Y136206D01*
X262695Y136322D01*
X262674Y136439D01*
X262658Y136476D01*
X262648Y136515D01*
X262593Y136620D01*
X262544Y136729D01*
X262519Y136761D01*
X262500Y136796D01*
X262420Y136884D01*
X262345Y136977D01*
X262313Y137002D01*
X262286Y137032D01*
X262186Y137097D01*
X262091Y137169D01*
X262037Y137195D01*
X262020Y137206D01*
X262001Y137213D01*
X261947Y137240D01*
X259913Y138082D01*
X257269Y140726D01*
X255838Y144180D01*
X255838Y147920D01*
X257269Y151374D01*
X259913Y154018D01*
X261947Y154860D01*
X262050Y154919D01*
X262157Y154972D01*
X262188Y154998D01*
X262223Y155018D01*
X262309Y155101D01*
X262399Y155178D01*
X262422Y155211D01*
X262451Y155239D01*
X262514Y155341D01*
X262582Y155438D01*
X262596Y155476D01*
X262618Y155510D01*
X262653Y155624D01*
X262695Y155735D01*
X262699Y155776D01*
X262711Y155814D01*
X262717Y155933D01*
X262730Y156051D01*
X262724Y156092D01*
X262726Y156132D01*
X262702Y156248D01*
X262686Y156366D01*
X262666Y156423D01*
X262662Y156443D01*
X262653Y156462D01*
X262634Y156519D01*
X262287Y157355D01*
X262287Y315265D01*
X263370Y317879D01*
X316366Y370874D01*
X316426Y370953D01*
X316494Y371025D01*
X316523Y371078D01*
X316560Y371126D01*
X316600Y371217D01*
X316648Y371303D01*
X316663Y371362D01*
X316687Y371418D01*
X316702Y371516D01*
X316727Y371611D01*
X316733Y371711D01*
X316737Y371732D01*
X316735Y371744D01*
X316737Y371772D01*
X316737Y404721D01*
X316799Y404871D01*
X316831Y404986D01*
X316869Y405099D01*
X316873Y405139D01*
X316883Y405178D01*
X316885Y405297D01*
X316895Y405416D01*
X316888Y405456D01*
X316888Y405496D01*
X316861Y405611D01*
X316840Y405729D01*
X316824Y405766D01*
X316814Y405805D01*
X316759Y405910D01*
X316710Y406019D01*
X316684Y406050D01*
X316666Y406086D01*
X316585Y406174D01*
X316511Y406267D01*
X316479Y406292D01*
X316452Y406322D01*
X316352Y406387D01*
X316257Y406459D01*
X316203Y406485D01*
X316186Y406496D01*
X316167Y406503D01*
X316112Y406530D01*
X313794Y407490D01*
X311150Y410134D01*
X309719Y413588D01*
X309719Y417327D01*
X311150Y420782D01*
X313794Y423426D01*
X317340Y424894D01*
X317356Y424896D01*
X317402Y424915D01*
X317451Y424925D01*
X317549Y424973D01*
X317652Y425013D01*
X317692Y425042D01*
X317737Y425064D01*
X317820Y425135D01*
X317909Y425200D01*
X317941Y425238D01*
X317979Y425271D01*
X318042Y425360D01*
X318112Y425445D01*
X318133Y425490D01*
X318162Y425531D01*
X318201Y425634D01*
X318247Y425733D01*
X318257Y425781D01*
X318274Y425828D01*
X318287Y425937D01*
X318307Y426045D01*
X318304Y426095D01*
X318310Y426144D01*
X318294Y426253D01*
X318287Y426363D01*
X318272Y426410D01*
X318265Y426459D01*
X318213Y426611D01*
X318028Y427059D01*
X318028Y439778D01*
X319111Y442392D01*
X329066Y452347D01*
X329126Y452425D01*
X329194Y452497D01*
X329223Y452550D01*
X329260Y452598D01*
X329300Y452689D01*
X329348Y452776D01*
X329363Y452834D01*
X329387Y452890D01*
X329402Y452988D01*
X329427Y453084D01*
X329433Y453184D01*
X329437Y453204D01*
X329435Y453216D01*
X329437Y453244D01*
X329437Y472665D01*
X329420Y472803D01*
X329407Y472942D01*
X329400Y472961D01*
X329397Y472981D01*
X329346Y473110D01*
X329299Y473241D01*
X329288Y473258D01*
X329280Y473277D01*
X329199Y473389D01*
X329121Y473504D01*
X329105Y473518D01*
X329094Y473534D01*
X328986Y473623D01*
X328882Y473715D01*
X328864Y473724D01*
X328849Y473737D01*
X328723Y473796D01*
X328599Y473859D01*
X328579Y473864D01*
X328561Y473872D01*
X328425Y473898D01*
X328289Y473929D01*
X328268Y473928D01*
X328249Y473932D01*
X328110Y473923D01*
X327971Y473919D01*
X327951Y473914D01*
X327931Y473912D01*
X327799Y473870D01*
X327665Y473831D01*
X327648Y473821D01*
X327629Y473814D01*
X327511Y473740D01*
X327391Y473669D01*
X327370Y473651D01*
X327360Y473644D01*
X327346Y473629D01*
X327271Y473563D01*
X290320Y436613D01*
X290260Y436535D01*
X290192Y436462D01*
X290163Y436409D01*
X290126Y436362D01*
X290086Y436271D01*
X290038Y436184D01*
X290023Y436125D01*
X289999Y436070D01*
X289984Y435972D01*
X289959Y435876D01*
X289953Y435776D01*
X289949Y435756D01*
X289951Y435743D01*
X289949Y435715D01*
X289949Y427187D01*
X289109Y426348D01*
X289036Y426254D01*
X288957Y426164D01*
X288939Y426128D01*
X288914Y426096D01*
X288867Y425987D01*
X288813Y425881D01*
X288804Y425842D01*
X288788Y425804D01*
X288769Y425687D01*
X288743Y425571D01*
X288744Y425530D01*
X288738Y425490D01*
X288749Y425372D01*
X288753Y425253D01*
X288764Y425214D01*
X288768Y425174D01*
X288808Y425061D01*
X288841Y424947D01*
X288862Y424913D01*
X288875Y424874D01*
X288942Y424776D01*
X289003Y424673D01*
X289043Y424628D01*
X289054Y424611D01*
X289069Y424598D01*
X289109Y424553D01*
X289949Y423713D01*
X289949Y408187D01*
X288163Y406401D01*
X284988Y406401D01*
X284870Y406386D01*
X284751Y406379D01*
X284713Y406366D01*
X284672Y406361D01*
X284562Y406318D01*
X284449Y406281D01*
X284414Y406259D01*
X284377Y406244D01*
X284281Y406175D01*
X284180Y406111D01*
X284152Y406081D01*
X284119Y406058D01*
X284043Y405966D01*
X283962Y405879D01*
X283942Y405844D01*
X283917Y405813D01*
X283866Y405705D01*
X283808Y405601D01*
X283798Y405561D01*
X283781Y405525D01*
X283759Y405408D01*
X283729Y405293D01*
X283725Y405233D01*
X283721Y405213D01*
X283723Y405192D01*
X283719Y405132D01*
X283719Y390205D01*
X283734Y390086D01*
X283741Y389968D01*
X283754Y389929D01*
X283759Y389889D01*
X283802Y389778D01*
X283839Y389665D01*
X283861Y389631D01*
X283876Y389593D01*
X283945Y389497D01*
X284009Y389397D01*
X284039Y389369D01*
X284062Y389336D01*
X284154Y389260D01*
X284241Y389179D01*
X284276Y389159D01*
X284307Y389133D01*
X284415Y389083D01*
X284519Y389025D01*
X284559Y389015D01*
X284595Y388998D01*
X284712Y388975D01*
X284827Y388946D01*
X284887Y388942D01*
X284907Y388938D01*
X284928Y388939D01*
X284988Y388935D01*
X285067Y388935D01*
X288521Y387505D01*
X291165Y384861D01*
X292596Y381406D01*
X292596Y377667D01*
X291165Y374213D01*
X288521Y371569D01*
X285067Y370138D01*
X281328Y370138D01*
X277873Y371569D01*
X275229Y374213D01*
X273798Y377667D01*
X273798Y381406D01*
X274985Y384270D01*
X274987Y384279D01*
X274992Y384287D01*
X275029Y384432D01*
X275069Y384577D01*
X275069Y384586D01*
X275071Y384595D01*
X275081Y384756D01*
X275081Y405132D01*
X275066Y405250D01*
X275059Y405369D01*
X275046Y405407D01*
X275041Y405448D01*
X274998Y405558D01*
X274961Y405671D01*
X274939Y405706D01*
X274924Y405743D01*
X274855Y405839D01*
X274791Y405940D01*
X274761Y405968D01*
X274738Y406001D01*
X274646Y406077D01*
X274559Y406158D01*
X274524Y406178D01*
X274493Y406203D01*
X274385Y406254D01*
X274281Y406312D01*
X274241Y406322D01*
X274205Y406339D01*
X274088Y406361D01*
X273973Y406391D01*
X273913Y406395D01*
X273893Y406399D01*
X273872Y406397D01*
X273812Y406401D01*
X270637Y406401D01*
X268851Y408187D01*
X268851Y423713D01*
X269691Y424553D01*
X269764Y424647D01*
X269843Y424736D01*
X269861Y424772D01*
X269886Y424804D01*
X269933Y424913D01*
X269987Y425019D01*
X269996Y425058D01*
X270012Y425096D01*
X270031Y425213D01*
X270057Y425329D01*
X270056Y425370D01*
X270062Y425410D01*
X270051Y425528D01*
X270047Y425647D01*
X270036Y425686D01*
X270032Y425726D01*
X269992Y425838D01*
X269959Y425953D01*
X269938Y425988D01*
X269925Y426026D01*
X269858Y426124D01*
X269797Y426227D01*
X269758Y426272D01*
X269746Y426289D01*
X269731Y426302D01*
X269691Y426348D01*
X268851Y427187D01*
X268851Y437479D01*
X268834Y437617D01*
X268821Y437756D01*
X268814Y437775D01*
X268811Y437795D01*
X268760Y437924D01*
X268713Y438055D01*
X268702Y438072D01*
X268694Y438091D01*
X268613Y438203D01*
X268535Y438318D01*
X268519Y438332D01*
X268508Y438348D01*
X268400Y438437D01*
X268296Y438529D01*
X268278Y438538D01*
X268263Y438551D01*
X268137Y438610D01*
X268013Y438673D01*
X267993Y438678D01*
X267975Y438686D01*
X267839Y438712D01*
X267703Y438743D01*
X267682Y438742D01*
X267663Y438746D01*
X267524Y438737D01*
X267385Y438733D01*
X267365Y438728D01*
X267345Y438726D01*
X267213Y438684D01*
X267079Y438645D01*
X267062Y438635D01*
X267043Y438628D01*
X266925Y438554D01*
X266805Y438483D01*
X266784Y438465D01*
X266774Y438458D01*
X266760Y438443D01*
X266685Y438377D01*
X258690Y430383D01*
X258630Y430305D01*
X258562Y430232D01*
X258533Y430179D01*
X258496Y430132D01*
X258456Y430041D01*
X258408Y429954D01*
X258393Y429895D01*
X258369Y429840D01*
X258354Y429742D01*
X258329Y429646D01*
X258323Y429546D01*
X258319Y429526D01*
X258321Y429513D01*
X258319Y429485D01*
X258319Y426718D01*
X258334Y426600D01*
X258341Y426481D01*
X258354Y426443D01*
X258359Y426402D01*
X258402Y426292D01*
X258439Y426179D01*
X258461Y426144D01*
X258476Y426107D01*
X258546Y426010D01*
X258609Y425910D01*
X258639Y425882D01*
X258662Y425849D01*
X258754Y425773D01*
X258841Y425692D01*
X258876Y425672D01*
X258907Y425647D01*
X259015Y425596D01*
X259119Y425538D01*
X259159Y425528D01*
X259195Y425511D01*
X259312Y425489D01*
X259427Y425459D01*
X259487Y425455D01*
X259507Y425451D01*
X259528Y425453D01*
X259588Y425449D01*
X262763Y425449D01*
X264549Y423663D01*
X264549Y408137D01*
X263709Y407298D01*
X263636Y407204D01*
X263557Y407114D01*
X263539Y407078D01*
X263514Y407046D01*
X263467Y406937D01*
X263413Y406831D01*
X263404Y406792D01*
X263388Y406754D01*
X263369Y406637D01*
X263343Y406521D01*
X263344Y406480D01*
X263338Y406440D01*
X263349Y406322D01*
X263353Y406203D01*
X263364Y406164D01*
X263368Y406124D01*
X263408Y406011D01*
X263441Y405897D01*
X263462Y405863D01*
X263475Y405824D01*
X263542Y405726D01*
X263603Y405623D01*
X263643Y405578D01*
X263654Y405561D01*
X263669Y405548D01*
X263709Y405503D01*
X264549Y404663D01*
X264549Y389137D01*
X262763Y387351D01*
X259588Y387351D01*
X259470Y387336D01*
X259351Y387329D01*
X259313Y387316D01*
X259272Y387311D01*
X259162Y387268D01*
X259049Y387231D01*
X259014Y387209D01*
X258977Y387194D01*
X258881Y387125D01*
X258780Y387061D01*
X258752Y387031D01*
X258719Y387008D01*
X258643Y386916D01*
X258562Y386829D01*
X258542Y386794D01*
X258517Y386763D01*
X258466Y386655D01*
X258408Y386551D01*
X258398Y386511D01*
X258381Y386475D01*
X258359Y386358D01*
X258329Y386243D01*
X258325Y386183D01*
X258321Y386163D01*
X258323Y386142D01*
X258319Y386082D01*
X258319Y376965D01*
X258331Y376866D01*
X258334Y376767D01*
X258351Y376709D01*
X258359Y376649D01*
X258395Y376557D01*
X258423Y376462D01*
X258453Y376410D01*
X258476Y376353D01*
X258534Y376273D01*
X258584Y376188D01*
X258650Y376113D01*
X258662Y376096D01*
X258672Y376088D01*
X258690Y376067D01*
X263411Y371347D01*
X263489Y371286D01*
X263561Y371218D01*
X263614Y371189D01*
X263662Y371152D01*
X263753Y371112D01*
X263840Y371065D01*
X263898Y371049D01*
X263954Y371025D01*
X264052Y371010D01*
X264148Y370985D01*
X264248Y370979D01*
X264268Y370975D01*
X264281Y370977D01*
X264309Y370975D01*
X267106Y370975D01*
X270561Y369544D01*
X273205Y366900D01*
X274635Y363446D01*
X274635Y359707D01*
X273205Y356252D01*
X270561Y353608D01*
X267106Y352177D01*
X263367Y352177D01*
X259913Y353608D01*
X257269Y356252D01*
X255838Y359707D01*
X255838Y363446D01*
X256468Y364966D01*
X256476Y364995D01*
X256489Y365021D01*
X256518Y365148D01*
X256552Y365273D01*
X256552Y365303D01*
X256559Y365332D01*
X256555Y365461D01*
X256557Y365591D01*
X256550Y365620D01*
X256549Y365649D01*
X256513Y365774D01*
X256483Y365900D01*
X256469Y365927D01*
X256461Y365955D01*
X256395Y366067D01*
X256334Y366182D01*
X256314Y366203D01*
X256299Y366229D01*
X256193Y366350D01*
X252583Y369960D01*
X249681Y372861D01*
X249681Y386082D01*
X249666Y386200D01*
X249659Y386319D01*
X249646Y386357D01*
X249641Y386398D01*
X249598Y386508D01*
X249561Y386621D01*
X249539Y386656D01*
X249524Y386693D01*
X249455Y386789D01*
X249391Y386890D01*
X249361Y386918D01*
X249338Y386951D01*
X249246Y387027D01*
X249159Y387108D01*
X249124Y387128D01*
X249093Y387153D01*
X248985Y387204D01*
X248881Y387262D01*
X248841Y387272D01*
X248805Y387289D01*
X248688Y387311D01*
X248573Y387341D01*
X248513Y387345D01*
X248493Y387349D01*
X248472Y387347D01*
X248412Y387351D01*
X245237Y387351D01*
X243451Y389137D01*
X243451Y404663D01*
X244291Y405503D01*
X244364Y405597D01*
X244443Y405686D01*
X244461Y405722D01*
X244486Y405754D01*
X244533Y405863D01*
X244587Y405969D01*
X244596Y406008D01*
X244612Y406046D01*
X244631Y406163D01*
X244657Y406279D01*
X244656Y406320D01*
X244662Y406360D01*
X244651Y406478D01*
X244647Y406597D01*
X244636Y406636D01*
X244632Y406676D01*
X244592Y406789D01*
X244559Y406903D01*
X244538Y406938D01*
X244525Y406976D01*
X244458Y407074D01*
X244397Y407177D01*
X244357Y407222D01*
X244346Y407239D01*
X244331Y407252D01*
X244291Y407298D01*
X243841Y407747D01*
X243732Y407832D01*
X243625Y407921D01*
X243606Y407929D01*
X243590Y407942D01*
X243462Y407997D01*
X243337Y408056D01*
X243317Y408060D01*
X243298Y408068D01*
X243160Y408090D01*
X243024Y408116D01*
X243004Y408115D01*
X242984Y408118D01*
X242845Y408105D01*
X242707Y408096D01*
X242688Y408090D01*
X242668Y408088D01*
X242536Y408041D01*
X242405Y407998D01*
X242387Y407988D01*
X242368Y407981D01*
X242253Y407903D01*
X242136Y407828D01*
X242122Y407813D01*
X242105Y407802D01*
X242013Y407698D01*
X241918Y407597D01*
X241908Y407579D01*
X241895Y407564D01*
X241831Y407440D01*
X241764Y407318D01*
X241759Y407299D01*
X241750Y407280D01*
X241720Y407145D01*
X241685Y407010D01*
X241684Y407002D01*
X229995Y395313D01*
X229935Y395235D01*
X229867Y395162D01*
X229838Y395109D01*
X229801Y395062D01*
X229761Y394971D01*
X229713Y394884D01*
X229698Y394825D01*
X229674Y394770D01*
X229659Y394672D01*
X229634Y394576D01*
X229628Y394476D01*
X229624Y394456D01*
X229626Y394443D01*
X229624Y394415D01*
X229624Y382737D01*
X228784Y381898D01*
X228711Y381804D01*
X228632Y381714D01*
X228614Y381678D01*
X228589Y381646D01*
X228542Y381537D01*
X228488Y381431D01*
X228479Y381392D01*
X228463Y381354D01*
X228444Y381237D01*
X228418Y381121D01*
X228419Y381080D01*
X228413Y381040D01*
X228424Y380922D01*
X228428Y380803D01*
X228439Y380764D01*
X228443Y380724D01*
X228483Y380611D01*
X228516Y380497D01*
X228537Y380463D01*
X228550Y380424D01*
X228617Y380326D01*
X228678Y380223D01*
X228718Y380178D01*
X228729Y380161D01*
X228744Y380148D01*
X228784Y380103D01*
X229624Y379263D01*
X229624Y367901D01*
X229636Y367803D01*
X229639Y367704D01*
X229656Y367646D01*
X229664Y367586D01*
X229700Y367494D01*
X229728Y367399D01*
X229758Y367346D01*
X229781Y367290D01*
X229839Y367210D01*
X229889Y367125D01*
X229955Y367049D01*
X229967Y367033D01*
X229977Y367025D01*
X229995Y367004D01*
X243802Y353198D01*
X243825Y353180D01*
X243844Y353157D01*
X243950Y353082D01*
X244053Y353003D01*
X244080Y352991D01*
X244104Y352974D01*
X244226Y352928D01*
X244345Y352876D01*
X244374Y352872D01*
X244402Y352861D01*
X244531Y352847D01*
X244659Y352827D01*
X244688Y352829D01*
X244718Y352826D01*
X244846Y352844D01*
X244976Y352856D01*
X245003Y352866D01*
X245033Y352870D01*
X245185Y352923D01*
X245407Y353014D01*
X249146Y353014D01*
X252600Y351584D01*
X255244Y348940D01*
X256675Y345485D01*
X256675Y341746D01*
X255244Y338292D01*
X252600Y335648D01*
X249146Y334217D01*
X245407Y334217D01*
X241952Y335648D01*
X239308Y338292D01*
X237877Y341746D01*
X237877Y345485D01*
X237969Y345707D01*
X237977Y345735D01*
X237990Y345762D01*
X238019Y345888D01*
X238053Y346014D01*
X238054Y346043D01*
X238060Y346072D01*
X238056Y346202D01*
X238058Y346332D01*
X238051Y346360D01*
X238050Y346390D01*
X238014Y346515D01*
X237984Y346641D01*
X237970Y346667D01*
X237962Y346695D01*
X237896Y346807D01*
X237835Y346922D01*
X237815Y346944D01*
X237800Y346969D01*
X237694Y347090D01*
X223205Y361580D01*
X223126Y361640D01*
X223054Y361708D01*
X223001Y361737D01*
X222953Y361774D01*
X222862Y361814D01*
X222776Y361862D01*
X222717Y361877D01*
X222662Y361901D01*
X222564Y361916D01*
X222468Y361941D01*
X222368Y361947D01*
X222347Y361951D01*
X222335Y361949D01*
X222307Y361951D01*
X210312Y361951D01*
X208526Y363737D01*
X208526Y379263D01*
X209366Y380103D01*
X209439Y380197D01*
X209518Y380286D01*
X209536Y380322D01*
X209561Y380354D01*
X209608Y380463D01*
X209662Y380569D01*
X209671Y380608D01*
X209687Y380646D01*
X209706Y380763D01*
X209732Y380879D01*
X209731Y380920D01*
X209737Y380960D01*
X209726Y381078D01*
X209722Y381197D01*
X209711Y381236D01*
X209707Y381276D01*
X209667Y381388D01*
X209634Y381503D01*
X209613Y381538D01*
X209600Y381576D01*
X209533Y381674D01*
X209472Y381777D01*
X209433Y381822D01*
X209421Y381839D01*
X209406Y381852D01*
X209366Y381898D01*
X208526Y382737D01*
X208526Y398263D01*
X210312Y400049D01*
X221990Y400049D01*
X222089Y400061D01*
X222188Y400064D01*
X222246Y400081D01*
X222306Y400089D01*
X222398Y400125D01*
X222493Y400153D01*
X222545Y400183D01*
X222602Y400206D01*
X222682Y400264D01*
X222767Y400314D01*
X222842Y400380D01*
X222859Y400392D01*
X222867Y400402D01*
X222888Y400420D01*
X232666Y410198D01*
X232726Y410276D01*
X232794Y410349D01*
X232823Y410402D01*
X232860Y410449D01*
X232900Y410540D01*
X232948Y410627D01*
X232963Y410686D01*
X232987Y410741D01*
X233002Y410839D01*
X233027Y410935D01*
X233033Y411035D01*
X233037Y411055D01*
X233035Y411068D01*
X233037Y411096D01*
X233037Y427065D01*
X233020Y427203D01*
X233007Y427342D01*
X233000Y427361D01*
X232997Y427381D01*
X232946Y427510D01*
X232899Y427641D01*
X232888Y427658D01*
X232880Y427677D01*
X232799Y427789D01*
X232721Y427904D01*
X232705Y427918D01*
X232694Y427934D01*
X232586Y428023D01*
X232482Y428115D01*
X232464Y428124D01*
X232449Y428137D01*
X232323Y428196D01*
X232199Y428259D01*
X232179Y428264D01*
X232161Y428272D01*
X232025Y428298D01*
X231889Y428329D01*
X231868Y428328D01*
X231849Y428332D01*
X231710Y428323D01*
X231571Y428319D01*
X231551Y428314D01*
X231531Y428312D01*
X231399Y428270D01*
X231265Y428231D01*
X231248Y428221D01*
X231229Y428214D01*
X231111Y428140D01*
X230991Y428069D01*
X230970Y428051D01*
X230960Y428044D01*
X230946Y428029D01*
X230871Y427963D01*
X195190Y392283D01*
X195130Y392205D01*
X195062Y392132D01*
X195033Y392079D01*
X194996Y392032D01*
X194956Y391941D01*
X194908Y391854D01*
X194893Y391795D01*
X194869Y391740D01*
X194854Y391642D01*
X194829Y391546D01*
X194823Y391446D01*
X194819Y391426D01*
X194821Y391413D01*
X194819Y391385D01*
X194819Y373378D01*
X194834Y373260D01*
X194841Y373141D01*
X194854Y373103D01*
X194859Y373062D01*
X194902Y372952D01*
X194939Y372839D01*
X194961Y372804D01*
X194976Y372767D01*
X195045Y372671D01*
X195109Y372570D01*
X195139Y372542D01*
X195162Y372509D01*
X195254Y372433D01*
X195341Y372352D01*
X195376Y372332D01*
X195407Y372307D01*
X195515Y372256D01*
X195619Y372198D01*
X195659Y372188D01*
X195695Y372171D01*
X195812Y372149D01*
X195927Y372119D01*
X195987Y372115D01*
X196007Y372111D01*
X196028Y372113D01*
X196088Y372109D01*
X199263Y372109D01*
X201049Y370323D01*
X201049Y354797D01*
X199850Y353598D01*
X199777Y353504D01*
X199698Y353415D01*
X199680Y353379D01*
X199655Y353347D01*
X199608Y353238D01*
X199553Y353132D01*
X199545Y353092D01*
X199529Y353055D01*
X199510Y352937D01*
X199484Y352821D01*
X199485Y352781D01*
X199479Y352741D01*
X199490Y352622D01*
X199493Y352504D01*
X199505Y352465D01*
X199509Y352424D01*
X199549Y352312D01*
X199582Y352198D01*
X199602Y352163D01*
X199616Y352125D01*
X199683Y352027D01*
X199743Y351924D01*
X199783Y351879D01*
X199795Y351862D01*
X199810Y351849D01*
X199850Y351803D01*
X200033Y351620D01*
X200368Y351041D01*
X200541Y350394D01*
X200541Y346099D01*
X191770Y346099D01*
X191652Y346084D01*
X191533Y346077D01*
X191495Y346064D01*
X191455Y346059D01*
X191344Y346015D01*
X191231Y345979D01*
X191196Y345957D01*
X191159Y345942D01*
X191063Y345872D01*
X190962Y345809D01*
X190934Y345779D01*
X190902Y345755D01*
X190826Y345664D01*
X190744Y345577D01*
X190725Y345542D01*
X190699Y345510D01*
X190648Y345403D01*
X190591Y345299D01*
X190580Y345259D01*
X190563Y345223D01*
X190541Y345106D01*
X190511Y344991D01*
X190507Y344930D01*
X190503Y344910D01*
X190505Y344890D01*
X190501Y344830D01*
X190501Y343559D01*
X190499Y343559D01*
X190499Y344830D01*
X190484Y344948D01*
X190477Y345067D01*
X190464Y345105D01*
X190459Y345145D01*
X190415Y345256D01*
X190379Y345369D01*
X190357Y345404D01*
X190342Y345441D01*
X190272Y345537D01*
X190209Y345638D01*
X190179Y345666D01*
X190155Y345698D01*
X190064Y345774D01*
X189977Y345856D01*
X189942Y345875D01*
X189910Y345901D01*
X189803Y345952D01*
X189699Y346009D01*
X189659Y346020D01*
X189623Y346037D01*
X189506Y346059D01*
X189391Y346089D01*
X189330Y346093D01*
X189310Y346097D01*
X189290Y346095D01*
X189230Y346099D01*
X180459Y346099D01*
X180459Y350394D01*
X180632Y351041D01*
X180967Y351620D01*
X181150Y351803D01*
X181223Y351897D01*
X181302Y351987D01*
X181320Y352023D01*
X181345Y352055D01*
X181392Y352164D01*
X181447Y352270D01*
X181455Y352309D01*
X181471Y352346D01*
X181490Y352464D01*
X181516Y352580D01*
X181515Y352621D01*
X181521Y352661D01*
X181510Y352779D01*
X181507Y352898D01*
X181495Y352937D01*
X181491Y352977D01*
X181451Y353089D01*
X181418Y353204D01*
X181398Y353238D01*
X181384Y353276D01*
X181317Y353375D01*
X181257Y353477D01*
X181217Y353523D01*
X181205Y353540D01*
X181190Y353553D01*
X181150Y353598D01*
X179951Y354797D01*
X179951Y370323D01*
X181737Y372109D01*
X184912Y372109D01*
X185030Y372124D01*
X185149Y372131D01*
X185187Y372144D01*
X185228Y372149D01*
X185338Y372192D01*
X185451Y372229D01*
X185486Y372251D01*
X185523Y372266D01*
X185619Y372335D01*
X185720Y372399D01*
X185748Y372429D01*
X185781Y372452D01*
X185857Y372544D01*
X185938Y372631D01*
X185958Y372666D01*
X185983Y372697D01*
X186034Y372805D01*
X186092Y372909D01*
X186102Y372949D01*
X186119Y372985D01*
X186141Y373102D01*
X186171Y373217D01*
X186175Y373277D01*
X186179Y373297D01*
X186177Y373318D01*
X186181Y373378D01*
X186181Y395489D01*
X271261Y480569D01*
X276018Y480569D01*
X276155Y480586D01*
X276294Y480599D01*
X276313Y480606D01*
X276333Y480609D01*
X276462Y480660D01*
X276593Y480707D01*
X276610Y480718D01*
X276629Y480726D01*
X276741Y480807D01*
X276856Y480885D01*
X276870Y480901D01*
X276886Y480912D01*
X276975Y481020D01*
X277067Y481124D01*
X277076Y481142D01*
X277089Y481157D01*
X277148Y481283D01*
X277211Y481407D01*
X277216Y481427D01*
X277224Y481445D01*
X277251Y481581D01*
X277281Y481717D01*
X277280Y481738D01*
X277284Y481757D01*
X277276Y481896D01*
X277271Y482035D01*
X277266Y482055D01*
X277264Y482075D01*
X277222Y482207D01*
X277183Y482341D01*
X277173Y482358D01*
X277166Y482377D01*
X277092Y482495D01*
X277021Y482615D01*
X277003Y482636D01*
X276996Y482646D01*
X276981Y482660D01*
X276915Y482735D01*
X274615Y485036D01*
X272720Y489610D01*
X272720Y494562D01*
X274615Y499137D01*
X278116Y502638D01*
X282691Y504533D01*
X287642Y504533D01*
X289997Y503557D01*
X290132Y503521D01*
X290264Y503480D01*
X290285Y503479D01*
X290304Y503474D01*
X290444Y503471D01*
X290582Y503465D01*
X290602Y503469D01*
X290622Y503468D01*
X290758Y503501D01*
X290894Y503529D01*
X290912Y503538D01*
X290931Y503543D01*
X291054Y503608D01*
X291179Y503669D01*
X291195Y503682D01*
X291213Y503691D01*
X291315Y503785D01*
X291421Y503875D01*
X291433Y503892D01*
X291448Y503905D01*
X291524Y504022D01*
X291604Y504135D01*
X291612Y504154D01*
X291623Y504171D01*
X291668Y504303D01*
X291717Y504433D01*
X291719Y504453D01*
X291726Y504472D01*
X291737Y504610D01*
X291752Y504749D01*
X291750Y504769D01*
X291751Y504789D01*
X291727Y504926D01*
X291708Y505063D01*
X291699Y505090D01*
X291697Y505102D01*
X291688Y505121D01*
X291656Y505216D01*
X290680Y507571D01*
X290680Y512523D01*
X292575Y517097D01*
X296077Y520599D01*
X300651Y522494D01*
X305603Y522494D01*
X307958Y521518D01*
X308092Y521481D01*
X308225Y521440D01*
X308245Y521439D01*
X308265Y521434D01*
X308404Y521432D01*
X308543Y521425D01*
X308562Y521429D01*
X308583Y521429D01*
X308718Y521461D01*
X308854Y521490D01*
X308872Y521498D01*
X308892Y521503D01*
X309015Y521568D01*
X309140Y521629D01*
X309155Y521642D01*
X309173Y521652D01*
X309276Y521745D01*
X309382Y521836D01*
X309393Y521852D01*
X309408Y521866D01*
X309485Y521982D01*
X309565Y522096D01*
X309572Y522115D01*
X309583Y522131D01*
X309628Y522263D01*
X309678Y522393D01*
X309680Y522413D01*
X309686Y522432D01*
X309697Y522571D01*
X309713Y522709D01*
X309710Y522729D01*
X309712Y522749D01*
X309688Y522887D01*
X309668Y523024D01*
X309659Y523051D01*
X309657Y523063D01*
X309649Y523081D01*
X309616Y523176D01*
X308641Y525531D01*
X308641Y530483D01*
X310536Y535058D01*
X314037Y538559D01*
X318612Y540454D01*
X323563Y540454D01*
X325919Y539479D01*
X326053Y539442D01*
X326185Y539401D01*
X326206Y539400D01*
X326225Y539395D01*
X326365Y539392D01*
X326503Y539386D01*
X326523Y539390D01*
X326543Y539390D01*
X326679Y539422D01*
X326815Y539450D01*
X326833Y539459D01*
X326852Y539464D01*
X326975Y539529D01*
X327100Y539590D01*
X327116Y539603D01*
X327134Y539612D01*
X327236Y539706D01*
X327342Y539796D01*
X327354Y539813D01*
X327369Y539826D01*
X327446Y539943D01*
X327525Y540056D01*
X327533Y540075D01*
X327544Y540092D01*
X327589Y540224D01*
X327638Y540354D01*
X327640Y540374D01*
X327647Y540393D01*
X327658Y540531D01*
X327673Y540670D01*
X327671Y540690D01*
X327672Y540710D01*
X327648Y540847D01*
X327629Y540985D01*
X327620Y541011D01*
X327618Y541023D01*
X327609Y541042D01*
X327577Y541137D01*
X326601Y543492D01*
X326601Y548444D01*
X328496Y553018D01*
X331998Y556520D01*
X336572Y558415D01*
X341524Y558415D01*
X343879Y557439D01*
X344013Y557402D01*
X344146Y557361D01*
X344166Y557360D01*
X344186Y557355D01*
X344325Y557353D01*
X344464Y557346D01*
X344483Y557350D01*
X344504Y557350D01*
X344640Y557383D01*
X344775Y557411D01*
X344793Y557419D01*
X344813Y557424D01*
X344936Y557489D01*
X345061Y557550D01*
X345076Y557563D01*
X345094Y557573D01*
X345197Y557666D01*
X345303Y557757D01*
X345314Y557773D01*
X345329Y557787D01*
X345406Y557903D01*
X345486Y558017D01*
X345493Y558036D01*
X345504Y558053D01*
X345549Y558184D01*
X345599Y558314D01*
X345601Y558334D01*
X345607Y558353D01*
X345618Y558492D01*
X345634Y558630D01*
X345631Y558650D01*
X345633Y558670D01*
X345609Y558808D01*
X345589Y558945D01*
X345580Y558972D01*
X345578Y558984D01*
X345570Y559002D01*
X345537Y559097D01*
X344562Y561452D01*
X344562Y566404D01*
X346457Y570979D01*
X349958Y574480D01*
X354533Y576375D01*
X359484Y576375D01*
X361840Y575400D01*
X361974Y575363D01*
X362107Y575322D01*
X362127Y575321D01*
X362146Y575316D01*
X362286Y575313D01*
X362424Y575307D01*
X362444Y575311D01*
X362464Y575311D01*
X362600Y575343D01*
X362736Y575371D01*
X362754Y575380D01*
X362774Y575385D01*
X362896Y575450D01*
X363021Y575511D01*
X363037Y575524D01*
X363055Y575533D01*
X363157Y575627D01*
X363263Y575717D01*
X363275Y575734D01*
X363290Y575747D01*
X363366Y575863D01*
X363446Y575977D01*
X363454Y575996D01*
X363465Y576013D01*
X363510Y576144D01*
X363559Y576275D01*
X363561Y576295D01*
X363568Y576314D01*
X363579Y576452D01*
X363594Y576591D01*
X363592Y576611D01*
X363593Y576631D01*
X363569Y576768D01*
X363550Y576906D01*
X363541Y576932D01*
X363539Y576944D01*
X363530Y576963D01*
X363498Y577058D01*
X362522Y579413D01*
X362522Y584365D01*
X364417Y588939D01*
X367919Y592441D01*
X372493Y594336D01*
X377445Y594336D01*
X379800Y593360D01*
X379934Y593323D01*
X380067Y593282D01*
X380087Y593281D01*
X380107Y593276D01*
X380246Y593274D01*
X380385Y593267D01*
X380404Y593271D01*
X380425Y593271D01*
X380561Y593304D01*
X380696Y593332D01*
X380714Y593340D01*
X380734Y593345D01*
X380857Y593410D01*
X380982Y593471D01*
X380997Y593484D01*
X381015Y593494D01*
X381118Y593587D01*
X381224Y593678D01*
X381235Y593694D01*
X381250Y593708D01*
X381327Y593824D01*
X381407Y593938D01*
X381414Y593957D01*
X381425Y593974D01*
X381470Y594105D01*
X381520Y594235D01*
X381522Y594255D01*
X381528Y594274D01*
X381539Y594413D01*
X381555Y594551D01*
X381552Y594571D01*
X381554Y594591D01*
X381530Y594729D01*
X381510Y594866D01*
X381501Y594893D01*
X381499Y594905D01*
X381491Y594923D01*
X381458Y595018D01*
X380483Y597373D01*
X380483Y602325D01*
X382378Y606900D01*
X385879Y610401D01*
X390454Y612296D01*
X395405Y612296D01*
X398431Y611043D01*
X398460Y611035D01*
X398487Y611021D01*
X398613Y610993D01*
X398738Y610959D01*
X398768Y610958D01*
X398797Y610952D01*
X398926Y610956D01*
X399056Y610954D01*
X399085Y610961D01*
X399115Y610962D01*
X399239Y610998D01*
X399365Y611028D01*
X399392Y611042D01*
X399420Y611050D01*
X399532Y611116D01*
X399646Y611177D01*
X399668Y611197D01*
X399694Y611212D01*
X399786Y611304D01*
X399882Y611391D01*
X399898Y611415D01*
X399919Y611437D01*
X399985Y611548D01*
X400056Y611656D01*
X400066Y611684D01*
X400081Y611710D01*
X400118Y611835D01*
X400160Y611957D01*
X400162Y611987D01*
X400170Y612016D01*
X400175Y612145D01*
X400185Y612274D01*
X400180Y612304D01*
X400181Y612333D01*
X400153Y612460D01*
X400131Y612587D01*
X400118Y612615D01*
X400112Y612644D01*
X400048Y612792D01*
X399826Y613227D01*
X399245Y615014D01*
X398951Y616870D01*
X398951Y618749D01*
X399245Y620606D01*
X399826Y622393D01*
X400679Y624067D01*
X400832Y624277D01*
X408196Y616912D01*
X408291Y616839D01*
X408380Y616761D01*
X408416Y616742D01*
X408448Y616718D01*
X408557Y616670D01*
X408663Y616616D01*
X408702Y616607D01*
X408740Y616591D01*
X408857Y616572D01*
X408973Y616546D01*
X409014Y616548D01*
X409054Y616541D01*
X409172Y616552D01*
X409291Y616556D01*
X409330Y616567D01*
X409370Y616571D01*
X409482Y616611D01*
X409597Y616645D01*
X409631Y616665D01*
X409670Y616679D01*
X409768Y616746D01*
X409871Y616806D01*
X409916Y616846D01*
X409933Y616857D01*
X409946Y616873D01*
X409991Y616912D01*
X410890Y617811D01*
X410891Y617810D01*
X409993Y616911D01*
X409920Y616817D01*
X409841Y616728D01*
X409823Y616692D01*
X409798Y616660D01*
X409750Y616550D01*
X409696Y616445D01*
X409688Y616405D01*
X409671Y616368D01*
X409653Y616250D01*
X409627Y616134D01*
X409628Y616094D01*
X409622Y616054D01*
X409633Y615935D01*
X409636Y615816D01*
X409648Y615778D01*
X409651Y615737D01*
X409692Y615625D01*
X409725Y615511D01*
X409745Y615476D01*
X409759Y615438D01*
X409826Y615339D01*
X409886Y615237D01*
X409926Y615192D01*
X409938Y615175D01*
X409953Y615161D01*
X409993Y615116D01*
X417357Y607752D01*
X417147Y607599D01*
X415473Y606746D01*
X413686Y606165D01*
X411830Y605871D01*
X409951Y605871D01*
X408094Y606165D01*
X406307Y606746D01*
X405872Y606968D01*
X405844Y606978D01*
X405818Y606993D01*
X405695Y607031D01*
X405573Y607075D01*
X405543Y607078D01*
X405514Y607087D01*
X405385Y607093D01*
X405256Y607105D01*
X405227Y607101D01*
X405197Y607102D01*
X405070Y607076D01*
X404942Y607056D01*
X404915Y607044D01*
X404885Y607038D01*
X404768Y606981D01*
X404650Y606930D01*
X404626Y606911D01*
X404600Y606898D01*
X404501Y606814D01*
X404399Y606735D01*
X404380Y606711D01*
X404358Y606692D01*
X404283Y606586D01*
X404204Y606484D01*
X404192Y606456D01*
X404174Y606432D01*
X404129Y606311D01*
X404077Y606192D01*
X404072Y606162D01*
X404062Y606134D01*
X404047Y606006D01*
X404027Y605878D01*
X404030Y605848D01*
X404026Y605818D01*
X404045Y605690D01*
X404057Y605561D01*
X404067Y605533D01*
X404071Y605503D01*
X404123Y605351D01*
X405376Y602325D01*
X405376Y597373D01*
X403481Y592799D01*
X399980Y589297D01*
X395405Y587403D01*
X390454Y587403D01*
X388099Y588378D01*
X387965Y588415D01*
X387832Y588456D01*
X387811Y588457D01*
X387792Y588462D01*
X387652Y588464D01*
X387514Y588471D01*
X387494Y588467D01*
X387474Y588467D01*
X387338Y588435D01*
X387203Y588407D01*
X387184Y588398D01*
X387165Y588393D01*
X387042Y588328D01*
X386917Y588267D01*
X386901Y588254D01*
X386884Y588244D01*
X386781Y588151D01*
X386675Y588061D01*
X386663Y588044D01*
X386648Y588030D01*
X386572Y587914D01*
X386492Y587800D01*
X386485Y587782D01*
X386473Y587765D01*
X386428Y587633D01*
X386379Y587503D01*
X386377Y587483D01*
X386370Y587464D01*
X386359Y587325D01*
X386344Y587187D01*
X386347Y587167D01*
X386345Y587147D01*
X386369Y587010D01*
X386388Y586872D01*
X386397Y586846D01*
X386399Y586833D01*
X386408Y586815D01*
X386440Y586720D01*
X387416Y584365D01*
X387416Y579413D01*
X385521Y574838D01*
X382020Y571337D01*
X377445Y569442D01*
X372493Y569442D01*
X370138Y570418D01*
X370004Y570454D01*
X369871Y570495D01*
X369851Y570496D01*
X369831Y570502D01*
X369692Y570504D01*
X369553Y570510D01*
X369534Y570506D01*
X369513Y570507D01*
X369378Y570474D01*
X369242Y570446D01*
X369224Y570437D01*
X369204Y570432D01*
X369081Y570368D01*
X368956Y570306D01*
X368941Y570293D01*
X368923Y570284D01*
X368820Y570190D01*
X368714Y570100D01*
X368703Y570083D01*
X368688Y570070D01*
X368611Y569954D01*
X368531Y569840D01*
X368524Y569821D01*
X368513Y569804D01*
X368468Y569673D01*
X368419Y569543D01*
X368416Y569522D01*
X368410Y569503D01*
X368399Y569365D01*
X368383Y569227D01*
X368386Y569207D01*
X368384Y569186D01*
X368408Y569049D01*
X368428Y568912D01*
X368437Y568885D01*
X368439Y568873D01*
X368447Y568854D01*
X368480Y568759D01*
X369455Y566404D01*
X369455Y561452D01*
X367560Y556878D01*
X364059Y553376D01*
X359484Y551482D01*
X354533Y551482D01*
X352178Y552457D01*
X352044Y552494D01*
X351911Y552535D01*
X351890Y552536D01*
X351871Y552541D01*
X351731Y552543D01*
X351593Y552550D01*
X351573Y552546D01*
X351553Y552546D01*
X351417Y552514D01*
X351282Y552486D01*
X351263Y552477D01*
X351244Y552472D01*
X351121Y552407D01*
X350996Y552346D01*
X350980Y552333D01*
X350963Y552323D01*
X350860Y552230D01*
X350754Y552139D01*
X350742Y552123D01*
X350727Y552109D01*
X350651Y551993D01*
X350571Y551879D01*
X350564Y551861D01*
X350552Y551844D01*
X350507Y551712D01*
X350458Y551582D01*
X350456Y551562D01*
X350449Y551543D01*
X350438Y551404D01*
X350423Y551266D01*
X350426Y551246D01*
X350424Y551226D01*
X350448Y551089D01*
X350467Y550951D01*
X350476Y550925D01*
X350478Y550912D01*
X350487Y550894D01*
X350519Y550799D01*
X351495Y548444D01*
X351495Y543492D01*
X349600Y538917D01*
X346099Y535416D01*
X341524Y533521D01*
X336572Y533521D01*
X334217Y534497D01*
X334083Y534533D01*
X333950Y534574D01*
X333930Y534575D01*
X333910Y534581D01*
X333771Y534583D01*
X333632Y534589D01*
X333613Y534585D01*
X333592Y534586D01*
X333456Y534553D01*
X333321Y534525D01*
X333303Y534516D01*
X333283Y534511D01*
X333160Y534446D01*
X333035Y534385D01*
X333020Y534372D01*
X333002Y534363D01*
X332899Y534269D01*
X332793Y534179D01*
X332782Y534162D01*
X332767Y534149D01*
X332690Y534032D01*
X332610Y533919D01*
X332603Y533900D01*
X332592Y533883D01*
X332547Y533752D01*
X332498Y533622D01*
X332495Y533601D01*
X332489Y533582D01*
X332478Y533444D01*
X332462Y533306D01*
X332465Y533285D01*
X332463Y533265D01*
X332487Y533128D01*
X332507Y532991D01*
X332516Y532964D01*
X332518Y532952D01*
X332526Y532933D01*
X332559Y532838D01*
X333534Y530483D01*
X333534Y525531D01*
X331639Y520957D01*
X328138Y517455D01*
X323563Y515561D01*
X318612Y515561D01*
X316257Y516536D01*
X316123Y516573D01*
X315990Y516614D01*
X315969Y516615D01*
X315950Y516620D01*
X315810Y516622D01*
X315672Y516629D01*
X315652Y516625D01*
X315632Y516625D01*
X315496Y516593D01*
X315360Y516565D01*
X315342Y516556D01*
X315323Y516551D01*
X315200Y516486D01*
X315075Y516425D01*
X315059Y516412D01*
X315041Y516402D01*
X314939Y516309D01*
X314833Y516218D01*
X314821Y516202D01*
X314806Y516188D01*
X314730Y516072D01*
X314650Y515958D01*
X314643Y515940D01*
X314631Y515923D01*
X314586Y515791D01*
X314537Y515661D01*
X314535Y515641D01*
X314528Y515622D01*
X314517Y515483D01*
X314502Y515345D01*
X314505Y515325D01*
X314503Y515305D01*
X314527Y515168D01*
X314546Y515030D01*
X314555Y515004D01*
X314557Y514991D01*
X314566Y514973D01*
X314598Y514878D01*
X315574Y512523D01*
X315574Y507571D01*
X313679Y502996D01*
X310178Y499495D01*
X305603Y497600D01*
X300651Y497600D01*
X298296Y498576D01*
X298162Y498612D01*
X298029Y498653D01*
X298009Y498654D01*
X297989Y498660D01*
X297850Y498662D01*
X297711Y498668D01*
X297692Y498664D01*
X297671Y498665D01*
X297535Y498632D01*
X297400Y498604D01*
X297382Y498595D01*
X297362Y498590D01*
X297239Y498525D01*
X297114Y498464D01*
X297099Y498451D01*
X297081Y498442D01*
X296978Y498348D01*
X296872Y498258D01*
X296861Y498241D01*
X296846Y498228D01*
X296769Y498111D01*
X296689Y497998D01*
X296682Y497979D01*
X296671Y497962D01*
X296626Y497830D01*
X296576Y497701D01*
X296574Y497680D01*
X296568Y497661D01*
X296557Y497523D01*
X296541Y497384D01*
X296544Y497364D01*
X296542Y497344D01*
X296566Y497207D01*
X296586Y497070D01*
X296595Y497043D01*
X296597Y497031D01*
X296605Y497012D01*
X296638Y496917D01*
X297613Y494562D01*
X297613Y489610D01*
X295718Y485036D01*
X293418Y482735D01*
X293333Y482626D01*
X293244Y482519D01*
X293236Y482500D01*
X293223Y482484D01*
X293168Y482356D01*
X293109Y482231D01*
X293105Y482211D01*
X293097Y482192D01*
X293075Y482054D01*
X293049Y481918D01*
X293050Y481898D01*
X293047Y481878D01*
X293060Y481739D01*
X293069Y481601D01*
X293075Y481582D01*
X293077Y481562D01*
X293124Y481430D01*
X293167Y481299D01*
X293177Y481281D01*
X293184Y481262D01*
X293262Y481147D01*
X293337Y481030D01*
X293352Y481016D01*
X293363Y480999D01*
X293467Y480907D01*
X293568Y480812D01*
X293586Y480802D01*
X293601Y480789D01*
X293725Y480725D01*
X293847Y480658D01*
X293866Y480653D01*
X293885Y480644D01*
X294020Y480614D01*
X294155Y480579D01*
X294183Y480577D01*
X294195Y480574D01*
X294215Y480575D01*
X294316Y480569D01*
X296135Y480569D01*
X296234Y480581D01*
X296333Y480584D01*
X296391Y480601D01*
X296451Y480609D01*
X296543Y480645D01*
X296638Y480673D01*
X296690Y480703D01*
X296747Y480726D01*
X296827Y480784D01*
X296912Y480834D01*
X296987Y480900D01*
X297004Y480912D01*
X297012Y480922D01*
X297033Y480940D01*
X449061Y632969D01*
X473935Y632969D01*
X474034Y632981D01*
X474133Y632984D01*
X474191Y633001D01*
X474251Y633009D01*
X474343Y633045D01*
X474438Y633073D01*
X474490Y633103D01*
X474547Y633126D01*
X474627Y633184D01*
X474712Y633234D01*
X474787Y633300D01*
X474804Y633312D01*
X474812Y633322D01*
X474833Y633340D01*
X485729Y644236D01*
X485789Y644314D01*
X485857Y644387D01*
X485886Y644440D01*
X485923Y644487D01*
X485963Y644578D01*
X486011Y644665D01*
X486026Y644724D01*
X486050Y644779D01*
X486065Y644877D01*
X486090Y644973D01*
X486096Y645073D01*
X486100Y645093D01*
X486098Y645106D01*
X486100Y645134D01*
X486100Y646907D01*
X486085Y647025D01*
X486078Y647144D01*
X486065Y647182D01*
X486060Y647223D01*
X486017Y647333D01*
X485980Y647446D01*
X485958Y647481D01*
X485943Y647518D01*
X485874Y647614D01*
X485810Y647715D01*
X485780Y647743D01*
X485757Y647776D01*
X485665Y647852D01*
X485578Y647933D01*
X485543Y647953D01*
X485512Y647978D01*
X485404Y648029D01*
X485300Y648087D01*
X485260Y648097D01*
X485224Y648114D01*
X485107Y648136D01*
X484992Y648166D01*
X484932Y648170D01*
X484912Y648174D01*
X484891Y648172D01*
X484831Y648176D01*
X473899Y648176D01*
X473877Y648180D01*
X473845Y648177D01*
X473814Y648181D01*
X473687Y648163D01*
X473560Y648151D01*
X473530Y648141D01*
X473499Y648136D01*
X473346Y648084D01*
X471259Y647219D01*
X468541Y647219D01*
X466031Y648259D01*
X464109Y650181D01*
X463069Y652691D01*
X463069Y655409D01*
X464109Y657919D01*
X466031Y659841D01*
X468541Y660881D01*
X470097Y660881D01*
X470196Y660893D01*
X470295Y660896D01*
X470353Y660913D01*
X470413Y660921D01*
X470505Y660957D01*
X470600Y660985D01*
X470652Y661015D01*
X470709Y661038D01*
X470789Y661096D01*
X470874Y661146D01*
X470949Y661212D01*
X470966Y661224D01*
X470974Y661234D01*
X470995Y661252D01*
X471286Y661544D01*
X471307Y661544D01*
X471425Y661559D01*
X471544Y661566D01*
X471582Y661579D01*
X471623Y661584D01*
X471733Y661627D01*
X471846Y661664D01*
X471881Y661686D01*
X471918Y661701D01*
X472014Y661770D01*
X472115Y661834D01*
X472143Y661864D01*
X472176Y661887D01*
X472252Y661979D01*
X472333Y662066D01*
X472353Y662101D01*
X472378Y662132D01*
X472429Y662240D01*
X472487Y662344D01*
X472497Y662384D01*
X472514Y662420D01*
X472536Y662537D01*
X472566Y662652D01*
X472570Y662712D01*
X472574Y662732D01*
X472572Y662753D01*
X472576Y662813D01*
X472576Y664488D01*
X474362Y666274D01*
X489089Y666274D01*
X489187Y666286D01*
X489286Y666289D01*
X489344Y666306D01*
X489405Y666314D01*
X489497Y666350D01*
X489592Y666378D01*
X489644Y666408D01*
X489700Y666431D01*
X489780Y666489D01*
X489866Y666539D01*
X489941Y666605D01*
X489958Y666617D01*
X489965Y666627D01*
X489986Y666645D01*
X490256Y666915D01*
X490329Y667009D01*
X490408Y667098D01*
X490426Y667134D01*
X490451Y667166D01*
X490498Y667276D01*
X490552Y667381D01*
X490561Y667421D01*
X490577Y667458D01*
X490596Y667576D01*
X490622Y667692D01*
X490621Y667732D01*
X490627Y667772D01*
X490616Y667890D01*
X490612Y668010D01*
X490601Y668049D01*
X490597Y668089D01*
X490557Y668201D01*
X490524Y668315D01*
X490503Y668350D01*
X490490Y668388D01*
X490423Y668486D01*
X490362Y668589D01*
X490323Y668634D01*
X490311Y668651D01*
X490296Y668665D01*
X490256Y668710D01*
X489509Y669457D01*
X488469Y671967D01*
X488469Y674685D01*
X488598Y674995D01*
X488622Y675085D01*
X488657Y675173D01*
X488664Y675238D01*
X488682Y675301D01*
X488683Y675396D01*
X488694Y675489D01*
X488686Y675554D01*
X488687Y675619D01*
X488665Y675711D01*
X488652Y675804D01*
X488628Y675865D01*
X488612Y675929D01*
X488568Y676012D01*
X488533Y676099D01*
X488494Y676152D01*
X488464Y676210D01*
X488401Y676279D01*
X488345Y676355D01*
X488294Y676397D01*
X488250Y676445D01*
X488171Y676497D01*
X488098Y676556D01*
X488039Y676584D01*
X487984Y676620D01*
X487895Y676650D01*
X487810Y676690D01*
X487745Y676702D01*
X487683Y676723D01*
X487589Y676731D01*
X487497Y676748D01*
X487432Y676743D01*
X487366Y676748D01*
X487274Y676732D01*
X487180Y676726D01*
X487071Y676697D01*
X487053Y676694D01*
X487044Y676690D01*
X487024Y676685D01*
X478781Y673939D01*
X478762Y673930D01*
X478696Y673907D01*
X431365Y654292D01*
X431346Y654282D01*
X431283Y654255D01*
X385471Y631314D01*
X385453Y631302D01*
X385391Y631271D01*
X341331Y605122D01*
X341314Y605109D01*
X341255Y605073D01*
X299172Y575849D01*
X299156Y575835D01*
X299100Y575795D01*
X259208Y543645D01*
X259193Y543629D01*
X259139Y543586D01*
X257860Y542395D01*
X252408Y537318D01*
X252407Y537318D01*
X246955Y532241D01*
X246954Y532241D01*
X245591Y530972D01*
X245591Y530971D01*
X241502Y527164D01*
X240138Y525895D01*
X240138Y525894D01*
X234686Y520818D01*
X234685Y520818D01*
X234685Y520817D01*
X233322Y519548D01*
X229233Y515741D01*
X229232Y515740D01*
X227869Y514471D01*
X222417Y509394D01*
X222416Y509394D01*
X221641Y508673D01*
X221628Y508656D01*
X221577Y508609D01*
X186664Y471111D01*
X186652Y471093D01*
X186605Y471042D01*
X154455Y431150D01*
X154444Y431132D01*
X154401Y431078D01*
X125177Y388995D01*
X125167Y388976D01*
X125128Y388919D01*
X98979Y344859D01*
X98971Y344839D01*
X98936Y344779D01*
X75995Y298967D01*
X75988Y298947D01*
X75958Y298885D01*
X56343Y251554D01*
X56337Y251533D01*
X56311Y251469D01*
X40121Y202859D01*
X40116Y202838D01*
X40095Y202772D01*
X27412Y153132D01*
X27409Y153111D01*
X27393Y153044D01*
X18282Y102626D01*
X18281Y102604D01*
X18269Y102536D01*
X15167Y73766D01*
X15168Y73717D01*
X15160Y73667D01*
X15171Y73558D01*
X15173Y73448D01*
X15186Y73400D01*
X15191Y73351D01*
X15228Y73248D01*
X15257Y73142D01*
X15282Y73099D01*
X15299Y73052D01*
X15361Y72961D01*
X15416Y72866D01*
X15450Y72830D01*
X15478Y72789D01*
X15561Y72717D01*
X15637Y72638D01*
X15680Y72612D01*
X15717Y72579D01*
X15815Y72530D01*
X15909Y72473D01*
X15956Y72458D01*
X16001Y72435D01*
X16108Y72412D01*
X16213Y72380D01*
X16263Y72377D01*
X16312Y72367D01*
X16421Y72370D01*
X16531Y72365D01*
X16580Y72375D01*
X16629Y72377D01*
X16786Y72413D01*
X25534Y74981D01*
X37966Y74981D01*
X49894Y71479D01*
X60351Y64758D01*
X68492Y55363D01*
X73656Y44055D01*
X75426Y31750D01*
X73656Y19445D01*
X70585Y12719D01*
X70563Y12650D01*
X70533Y12585D01*
X70516Y12499D01*
X70490Y12416D01*
X70486Y12343D01*
X70473Y12272D01*
X70478Y12185D01*
X70474Y12098D01*
X70488Y12027D01*
X70492Y11955D01*
X70519Y11872D01*
X70537Y11786D01*
X70568Y11721D01*
X70591Y11653D01*
X70637Y11579D01*
X70675Y11500D01*
X70722Y11445D01*
X70761Y11384D01*
X70824Y11324D01*
X70881Y11257D01*
X70940Y11215D01*
X70992Y11166D01*
X71069Y11124D01*
X71140Y11073D01*
X71208Y11047D01*
X71271Y11012D01*
X71355Y10991D01*
X71437Y10959D01*
X71509Y10951D01*
X71579Y10933D01*
X71739Y10923D01*
X234501Y10923D01*
X234639Y10940D01*
G37*
%LPC*%
G36*
X395297Y202564D02*
X395297Y202564D01*
X393064Y204797D01*
X393064Y246053D01*
X395297Y248286D01*
X684203Y248286D01*
X686436Y246053D01*
X686436Y204797D01*
X684203Y202564D01*
X395297Y202564D01*
G37*
%LPD*%
G36*
X681121Y207141D02*
X681121Y207141D01*
X681140Y207139D01*
X681242Y207161D01*
X681344Y207177D01*
X681361Y207187D01*
X681381Y207191D01*
X681470Y207244D01*
X681561Y207293D01*
X681575Y207307D01*
X681592Y207317D01*
X681659Y207396D01*
X681731Y207471D01*
X681739Y207489D01*
X681752Y207504D01*
X681791Y207600D01*
X681834Y207694D01*
X681836Y207714D01*
X681844Y207732D01*
X681862Y207899D01*
X681862Y242951D01*
X681859Y242971D01*
X681861Y242990D01*
X681839Y243092D01*
X681823Y243194D01*
X681813Y243211D01*
X681809Y243231D01*
X681756Y243320D01*
X681707Y243411D01*
X681693Y243425D01*
X681683Y243442D01*
X681604Y243509D01*
X681529Y243581D01*
X681511Y243589D01*
X681496Y243602D01*
X681400Y243641D01*
X681306Y243684D01*
X681286Y243686D01*
X681268Y243694D01*
X681101Y243712D01*
X398399Y243712D01*
X398379Y243709D01*
X398360Y243711D01*
X398258Y243689D01*
X398156Y243673D01*
X398139Y243663D01*
X398119Y243659D01*
X398030Y243606D01*
X397939Y243557D01*
X397925Y243543D01*
X397908Y243533D01*
X397841Y243454D01*
X397769Y243379D01*
X397761Y243361D01*
X397748Y243346D01*
X397709Y243250D01*
X397666Y243156D01*
X397664Y243136D01*
X397656Y243118D01*
X397638Y242951D01*
X397638Y207899D01*
X397641Y207879D01*
X397639Y207860D01*
X397661Y207758D01*
X397677Y207656D01*
X397687Y207639D01*
X397691Y207619D01*
X397744Y207530D01*
X397793Y207439D01*
X397807Y207425D01*
X397817Y207408D01*
X397896Y207341D01*
X397971Y207269D01*
X397989Y207261D01*
X398004Y207248D01*
X398100Y207209D01*
X398194Y207166D01*
X398214Y207164D01*
X398232Y207156D01*
X398399Y207138D01*
X681101Y207138D01*
X681121Y207141D01*
G37*
G36*
X349559Y68333D02*
X349559Y68333D01*
X349610Y68330D01*
X349731Y68352D01*
X349854Y68367D01*
X349902Y68384D01*
X349952Y68393D01*
X350066Y68442D01*
X350182Y68484D01*
X350225Y68512D01*
X350272Y68532D01*
X350371Y68606D01*
X350475Y68673D01*
X350511Y68710D01*
X350552Y68740D01*
X350631Y68835D01*
X350717Y68924D01*
X350743Y68968D01*
X350776Y69007D01*
X350833Y69117D01*
X350896Y69223D01*
X350912Y69271D01*
X350935Y69317D01*
X350965Y69437D01*
X351002Y69555D01*
X351006Y69606D01*
X351019Y69655D01*
X351020Y69779D01*
X351030Y69902D01*
X351023Y69953D01*
X351023Y70004D01*
X350979Y70244D01*
X350759Y71066D01*
X350759Y86401D01*
X357324Y86401D01*
X357350Y86404D01*
X357376Y86402D01*
X357523Y86424D01*
X357670Y86441D01*
X357695Y86449D01*
X357721Y86453D01*
X357858Y86508D01*
X357998Y86558D01*
X358020Y86572D01*
X358045Y86582D01*
X358166Y86667D01*
X358291Y86747D01*
X358303Y86760D01*
X358350Y86715D01*
X358373Y86701D01*
X358392Y86684D01*
X358522Y86612D01*
X358649Y86536D01*
X358674Y86528D01*
X358697Y86515D01*
X358840Y86475D01*
X358981Y86430D01*
X359007Y86427D01*
X359032Y86420D01*
X359276Y86401D01*
X365841Y86401D01*
X365841Y71066D01*
X365621Y70244D01*
X365613Y70194D01*
X365598Y70145D01*
X365588Y70022D01*
X365570Y69900D01*
X365574Y69849D01*
X365570Y69798D01*
X365588Y69675D01*
X365598Y69552D01*
X365614Y69504D01*
X365621Y69453D01*
X365667Y69338D01*
X365705Y69220D01*
X365731Y69177D01*
X365750Y69129D01*
X365821Y69028D01*
X365884Y68922D01*
X365920Y68885D01*
X365949Y68843D01*
X366041Y68760D01*
X366127Y68671D01*
X366170Y68644D01*
X366208Y68610D01*
X366316Y68550D01*
X366420Y68483D01*
X366468Y68466D01*
X366513Y68441D01*
X366632Y68408D01*
X366748Y68366D01*
X366799Y68360D01*
X366848Y68346D01*
X367092Y68327D01*
X368300Y68327D01*
X368326Y68330D01*
X368352Y68328D01*
X368499Y68350D01*
X368646Y68367D01*
X368671Y68375D01*
X368697Y68379D01*
X368835Y68434D01*
X368974Y68484D01*
X368996Y68498D01*
X369021Y68508D01*
X369142Y68593D01*
X369267Y68673D01*
X369285Y68692D01*
X369307Y68707D01*
X369406Y68817D01*
X369509Y68924D01*
X369523Y68946D01*
X369540Y68966D01*
X369612Y69096D01*
X369688Y69223D01*
X369696Y69248D01*
X369709Y69271D01*
X369749Y69414D01*
X369794Y69555D01*
X369796Y69581D01*
X369804Y69606D01*
X369823Y69850D01*
X369823Y114300D01*
X369820Y114326D01*
X369822Y114352D01*
X369800Y114499D01*
X369783Y114646D01*
X369775Y114671D01*
X369771Y114697D01*
X369716Y114835D01*
X369666Y114974D01*
X369652Y114996D01*
X369642Y115021D01*
X369557Y115142D01*
X369477Y115267D01*
X369458Y115285D01*
X369443Y115307D01*
X369333Y115406D01*
X369226Y115509D01*
X369204Y115523D01*
X369184Y115540D01*
X369054Y115612D01*
X368927Y115688D01*
X368902Y115696D01*
X368879Y115709D01*
X368736Y115749D01*
X368595Y115794D01*
X368569Y115796D01*
X368544Y115804D01*
X368300Y115823D01*
X285750Y115823D01*
X285724Y115820D01*
X285698Y115822D01*
X285551Y115800D01*
X285404Y115783D01*
X285379Y115775D01*
X285353Y115771D01*
X285215Y115716D01*
X285076Y115666D01*
X285054Y115652D01*
X285029Y115642D01*
X284908Y115557D01*
X284783Y115477D01*
X284765Y115458D01*
X284743Y115443D01*
X284644Y115333D01*
X284541Y115226D01*
X284527Y115204D01*
X284510Y115184D01*
X284438Y115054D01*
X284362Y114927D01*
X284354Y114902D01*
X284341Y114879D01*
X284301Y114736D01*
X284256Y114595D01*
X284254Y114569D01*
X284246Y114544D01*
X284227Y114300D01*
X284227Y110464D01*
X284230Y110438D01*
X284228Y110412D01*
X284250Y110265D01*
X284267Y110118D01*
X284275Y110093D01*
X284279Y110067D01*
X284334Y109929D01*
X284384Y109790D01*
X284398Y109768D01*
X284408Y109743D01*
X284493Y109622D01*
X284573Y109497D01*
X284592Y109479D01*
X284607Y109457D01*
X284717Y109358D01*
X284824Y109255D01*
X284846Y109241D01*
X284866Y109224D01*
X284996Y109152D01*
X285123Y109076D01*
X285148Y109068D01*
X285171Y109055D01*
X285314Y109015D01*
X285455Y108970D01*
X285481Y108968D01*
X285506Y108960D01*
X285750Y108941D01*
X286901Y108941D01*
X286901Y89876D01*
X286904Y89850D01*
X286902Y89824D01*
X286924Y89677D01*
X286941Y89530D01*
X286949Y89505D01*
X286953Y89479D01*
X287008Y89342D01*
X287058Y89202D01*
X287072Y89180D01*
X287082Y89155D01*
X287167Y89034D01*
X287247Y88909D01*
X287266Y88891D01*
X287281Y88869D01*
X287391Y88770D01*
X287498Y88667D01*
X287520Y88653D01*
X287540Y88636D01*
X287670Y88564D01*
X287797Y88488D01*
X287822Y88480D01*
X287845Y88467D01*
X287988Y88427D01*
X288129Y88382D01*
X288155Y88380D01*
X288180Y88373D01*
X288424Y88353D01*
X288853Y88353D01*
X288853Y87924D01*
X288856Y87898D01*
X288854Y87872D01*
X288876Y87725D01*
X288893Y87578D01*
X288902Y87553D01*
X288906Y87527D01*
X288960Y87389D01*
X289010Y87250D01*
X289025Y87228D01*
X289034Y87203D01*
X289119Y87082D01*
X289199Y86957D01*
X289218Y86939D01*
X289233Y86917D01*
X289343Y86818D01*
X289450Y86715D01*
X289473Y86701D01*
X289492Y86684D01*
X289622Y86612D01*
X289749Y86536D01*
X289774Y86528D01*
X289797Y86515D01*
X289940Y86475D01*
X290081Y86430D01*
X290107Y86427D01*
X290132Y86420D01*
X290376Y86401D01*
X296941Y86401D01*
X296941Y71065D01*
X296721Y70244D01*
X296713Y70194D01*
X296698Y70145D01*
X296688Y70022D01*
X296670Y69899D01*
X296674Y69849D01*
X296670Y69798D01*
X296688Y69675D01*
X296698Y69552D01*
X296714Y69504D01*
X296721Y69453D01*
X296767Y69338D01*
X296805Y69220D01*
X296831Y69177D01*
X296850Y69129D01*
X296921Y69028D01*
X296984Y68922D01*
X297020Y68885D01*
X297049Y68843D01*
X297141Y68760D01*
X297227Y68671D01*
X297270Y68644D01*
X297308Y68610D01*
X297416Y68550D01*
X297520Y68483D01*
X297568Y68466D01*
X297613Y68441D01*
X297732Y68408D01*
X297848Y68366D01*
X297899Y68360D01*
X297948Y68346D01*
X298192Y68327D01*
X349508Y68327D01*
X349559Y68333D01*
G37*
G36*
X441159Y68333D02*
X441159Y68333D01*
X441210Y68330D01*
X441331Y68352D01*
X441454Y68367D01*
X441502Y68384D01*
X441552Y68393D01*
X441666Y68442D01*
X441782Y68484D01*
X441825Y68512D01*
X441872Y68532D01*
X441971Y68606D01*
X442075Y68673D01*
X442111Y68710D01*
X442152Y68740D01*
X442231Y68835D01*
X442317Y68924D01*
X442343Y68968D01*
X442376Y69007D01*
X442433Y69117D01*
X442496Y69223D01*
X442512Y69271D01*
X442535Y69317D01*
X442565Y69437D01*
X442602Y69555D01*
X442606Y69606D01*
X442619Y69655D01*
X442620Y69779D01*
X442630Y69902D01*
X442623Y69953D01*
X442623Y70004D01*
X442579Y70244D01*
X442359Y71066D01*
X442359Y86401D01*
X448924Y86401D01*
X448950Y86404D01*
X448976Y86402D01*
X449123Y86424D01*
X449270Y86441D01*
X449295Y86449D01*
X449321Y86453D01*
X449458Y86508D01*
X449598Y86558D01*
X449620Y86572D01*
X449645Y86582D01*
X449766Y86667D01*
X449891Y86747D01*
X449909Y86766D01*
X449931Y86781D01*
X450030Y86891D01*
X450133Y86998D01*
X450147Y87020D01*
X450164Y87040D01*
X450236Y87170D01*
X450312Y87297D01*
X450320Y87322D01*
X450333Y87345D01*
X450373Y87488D01*
X450418Y87629D01*
X450420Y87655D01*
X450427Y87680D01*
X450447Y87924D01*
X450447Y88353D01*
X450876Y88353D01*
X450902Y88356D01*
X450928Y88354D01*
X451075Y88376D01*
X451222Y88393D01*
X451247Y88402D01*
X451273Y88406D01*
X451411Y88460D01*
X451550Y88510D01*
X451572Y88525D01*
X451597Y88534D01*
X451718Y88619D01*
X451843Y88699D01*
X451861Y88718D01*
X451883Y88733D01*
X451982Y88843D01*
X452085Y88950D01*
X452099Y88973D01*
X452116Y88992D01*
X452188Y89122D01*
X452264Y89249D01*
X452272Y89274D01*
X452285Y89297D01*
X452325Y89440D01*
X452370Y89581D01*
X452372Y89607D01*
X452380Y89632D01*
X452399Y89876D01*
X452399Y108765D01*
X452385Y108890D01*
X452378Y109016D01*
X452365Y109063D01*
X452359Y109111D01*
X452317Y109230D01*
X452282Y109351D01*
X452258Y109393D01*
X452242Y109439D01*
X452173Y109545D01*
X452112Y109655D01*
X452072Y109702D01*
X452053Y109732D01*
X452018Y109765D01*
X451953Y109842D01*
X446418Y115377D01*
X446319Y115456D01*
X446225Y115540D01*
X446183Y115564D01*
X446145Y115594D01*
X446031Y115648D01*
X445920Y115709D01*
X445873Y115722D01*
X445830Y115743D01*
X445706Y115769D01*
X445584Y115804D01*
X445524Y115809D01*
X445489Y115816D01*
X445441Y115815D01*
X445341Y115823D01*
X374650Y115823D01*
X374624Y115820D01*
X374598Y115822D01*
X374451Y115800D01*
X374304Y115783D01*
X374279Y115775D01*
X374253Y115771D01*
X374115Y115716D01*
X373976Y115666D01*
X373954Y115652D01*
X373929Y115642D01*
X373808Y115557D01*
X373683Y115477D01*
X373665Y115458D01*
X373643Y115443D01*
X373544Y115333D01*
X373441Y115226D01*
X373427Y115204D01*
X373410Y115184D01*
X373338Y115054D01*
X373262Y114927D01*
X373254Y114902D01*
X373241Y114879D01*
X373201Y114736D01*
X373156Y114595D01*
X373154Y114569D01*
X373146Y114544D01*
X373127Y114300D01*
X373127Y110464D01*
X373130Y110438D01*
X373128Y110412D01*
X373150Y110265D01*
X373167Y110118D01*
X373175Y110093D01*
X373179Y110067D01*
X373234Y109929D01*
X373284Y109790D01*
X373298Y109768D01*
X373308Y109743D01*
X373393Y109622D01*
X373473Y109497D01*
X373492Y109479D01*
X373507Y109457D01*
X373617Y109358D01*
X373724Y109255D01*
X373746Y109241D01*
X373766Y109224D01*
X373896Y109152D01*
X374023Y109076D01*
X374048Y109068D01*
X374071Y109055D01*
X374214Y109015D01*
X374355Y108970D01*
X374381Y108968D01*
X374406Y108960D01*
X374650Y108941D01*
X375801Y108941D01*
X375801Y89876D01*
X375804Y89850D01*
X375802Y89824D01*
X375824Y89677D01*
X375841Y89530D01*
X375849Y89505D01*
X375853Y89479D01*
X375908Y89342D01*
X375958Y89202D01*
X375972Y89180D01*
X375982Y89155D01*
X376067Y89034D01*
X376147Y88909D01*
X376166Y88891D01*
X376181Y88869D01*
X376291Y88770D01*
X376398Y88667D01*
X376420Y88653D01*
X376440Y88636D01*
X376570Y88564D01*
X376697Y88488D01*
X376722Y88480D01*
X376745Y88467D01*
X376888Y88427D01*
X377029Y88382D01*
X377055Y88380D01*
X377080Y88373D01*
X377324Y88353D01*
X377753Y88353D01*
X377753Y87924D01*
X377756Y87898D01*
X377754Y87872D01*
X377776Y87725D01*
X377793Y87578D01*
X377802Y87553D01*
X377806Y87527D01*
X377860Y87389D01*
X377910Y87250D01*
X377925Y87228D01*
X377934Y87203D01*
X378019Y87082D01*
X378099Y86957D01*
X378118Y86939D01*
X378133Y86917D01*
X378243Y86818D01*
X378350Y86715D01*
X378373Y86701D01*
X378392Y86684D01*
X378522Y86612D01*
X378649Y86536D01*
X378674Y86528D01*
X378697Y86515D01*
X378840Y86475D01*
X378981Y86430D01*
X379007Y86427D01*
X379032Y86420D01*
X379276Y86401D01*
X385841Y86401D01*
X385841Y71066D01*
X385621Y70244D01*
X385613Y70194D01*
X385598Y70145D01*
X385588Y70022D01*
X385570Y69900D01*
X385574Y69849D01*
X385570Y69798D01*
X385588Y69675D01*
X385598Y69552D01*
X385614Y69504D01*
X385621Y69453D01*
X385667Y69338D01*
X385705Y69220D01*
X385731Y69177D01*
X385750Y69129D01*
X385821Y69028D01*
X385884Y68922D01*
X385920Y68885D01*
X385949Y68843D01*
X386041Y68760D01*
X386127Y68671D01*
X386170Y68644D01*
X386208Y68610D01*
X386316Y68550D01*
X386420Y68483D01*
X386468Y68466D01*
X386513Y68441D01*
X386632Y68408D01*
X386748Y68366D01*
X386799Y68360D01*
X386848Y68346D01*
X387092Y68327D01*
X441108Y68327D01*
X441159Y68333D01*
G37*
%LPC*%
G36*
X544741Y348769D02*
X544741Y348769D01*
X542231Y349809D01*
X540309Y351731D01*
X539269Y354241D01*
X539269Y356959D01*
X540309Y359469D01*
X541156Y360316D01*
X541216Y360394D01*
X541284Y360466D01*
X541313Y360519D01*
X541350Y360567D01*
X541390Y360658D01*
X541438Y360744D01*
X541453Y360803D01*
X541477Y360859D01*
X541492Y360957D01*
X541517Y361052D01*
X541523Y361146D01*
X541525Y361155D01*
X541524Y361159D01*
X541527Y361173D01*
X541525Y361185D01*
X541527Y361213D01*
X541527Y365880D01*
X541515Y365978D01*
X541512Y366077D01*
X541495Y366136D01*
X541487Y366196D01*
X541451Y366288D01*
X541423Y366383D01*
X541393Y366435D01*
X541370Y366491D01*
X541312Y366571D01*
X541262Y366657D01*
X541196Y366732D01*
X541184Y366749D01*
X541174Y366757D01*
X541156Y366778D01*
X520059Y387874D01*
X520036Y387892D01*
X520017Y387915D01*
X519911Y387989D01*
X519808Y388069D01*
X519781Y388081D01*
X519757Y388098D01*
X519635Y388144D01*
X519516Y388195D01*
X519487Y388200D01*
X519459Y388210D01*
X519330Y388225D01*
X519202Y388245D01*
X519172Y388242D01*
X519143Y388246D01*
X519015Y388228D01*
X518885Y388215D01*
X518857Y388205D01*
X518828Y388201D01*
X518676Y388149D01*
X518553Y388098D01*
X514814Y388098D01*
X511360Y389529D01*
X508716Y392173D01*
X507285Y395628D01*
X507285Y399367D01*
X508716Y402821D01*
X511360Y405465D01*
X514814Y406896D01*
X518553Y406896D01*
X522008Y405465D01*
X524652Y402821D01*
X526083Y399367D01*
X526083Y395532D01*
X526076Y395508D01*
X526076Y395479D01*
X526069Y395450D01*
X526073Y395320D01*
X526071Y395190D01*
X526078Y395162D01*
X526079Y395132D01*
X526115Y395007D01*
X526145Y394881D01*
X526159Y394855D01*
X526167Y394826D01*
X526233Y394715D01*
X526294Y394600D01*
X526314Y394578D01*
X526329Y394552D01*
X526435Y394432D01*
X550673Y370194D01*
X550673Y361213D01*
X550685Y361115D01*
X550688Y361016D01*
X550705Y360958D01*
X550713Y360898D01*
X550749Y360805D01*
X550777Y360710D01*
X550807Y360658D01*
X550830Y360602D01*
X550888Y360522D01*
X550938Y360436D01*
X551004Y360361D01*
X551016Y360345D01*
X551026Y360337D01*
X551044Y360316D01*
X551891Y359469D01*
X552931Y356959D01*
X552931Y354241D01*
X551891Y351731D01*
X549969Y349809D01*
X547459Y348769D01*
X544741Y348769D01*
G37*
%LPD*%
%LPC*%
G36*
X525691Y348769D02*
X525691Y348769D01*
X523181Y349809D01*
X521259Y351731D01*
X520219Y354241D01*
X520219Y355797D01*
X520207Y355896D01*
X520204Y355995D01*
X520187Y356053D01*
X520179Y356113D01*
X520143Y356205D01*
X520115Y356300D01*
X520085Y356352D01*
X520062Y356409D01*
X520004Y356489D01*
X519954Y356574D01*
X519888Y356649D01*
X519876Y356666D01*
X519866Y356674D01*
X519848Y356695D01*
X505302Y371240D01*
X505279Y371259D01*
X505259Y371281D01*
X505153Y371356D01*
X505051Y371435D01*
X505024Y371447D01*
X504999Y371464D01*
X504878Y371510D01*
X504759Y371562D01*
X504730Y371566D01*
X504702Y371577D01*
X504573Y371591D01*
X504445Y371612D01*
X504415Y371609D01*
X504386Y371612D01*
X504258Y371594D01*
X504128Y371582D01*
X504100Y371572D01*
X504071Y371568D01*
X503919Y371516D01*
X500593Y370138D01*
X496854Y370138D01*
X493399Y371569D01*
X490755Y374213D01*
X489325Y377667D01*
X489325Y381406D01*
X490755Y384861D01*
X493399Y387505D01*
X496854Y388935D01*
X500593Y388935D01*
X504047Y387505D01*
X506691Y384861D01*
X508122Y381406D01*
X508122Y381161D01*
X508134Y381063D01*
X508137Y380964D01*
X508154Y380906D01*
X508162Y380846D01*
X508198Y380754D01*
X508226Y380659D01*
X508257Y380606D01*
X508279Y380550D01*
X508337Y380470D01*
X508387Y380385D01*
X508454Y380309D01*
X508466Y380293D01*
X508475Y380285D01*
X508494Y380264D01*
X525955Y362802D01*
X526033Y362742D01*
X526106Y362674D01*
X526159Y362645D01*
X526206Y362608D01*
X526297Y362568D01*
X526384Y362520D01*
X526443Y362505D01*
X526498Y362481D01*
X526596Y362466D01*
X526692Y362441D01*
X526792Y362435D01*
X526812Y362431D01*
X526825Y362433D01*
X526853Y362431D01*
X528409Y362431D01*
X530919Y361391D01*
X532841Y359469D01*
X533881Y356959D01*
X533881Y354241D01*
X532841Y351731D01*
X530919Y349809D01*
X528409Y348769D01*
X525691Y348769D01*
G37*
%LPD*%
%LPC*%
G36*
X65801Y154612D02*
X65801Y154612D01*
X62347Y156043D01*
X59703Y158687D01*
X58272Y162141D01*
X58272Y165880D01*
X59703Y169334D01*
X62347Y171978D01*
X65801Y173409D01*
X69541Y173409D01*
X72995Y171978D01*
X75639Y169334D01*
X77070Y165880D01*
X77070Y162141D01*
X75639Y158687D01*
X72995Y156043D01*
X69541Y154612D01*
X65801Y154612D01*
G37*
%LPD*%
%LPC*%
G36*
X47841Y136651D02*
X47841Y136651D01*
X44387Y138082D01*
X41743Y140726D01*
X40312Y144180D01*
X40312Y147920D01*
X41743Y151374D01*
X44387Y154018D01*
X47841Y155449D01*
X51580Y155449D01*
X55034Y154018D01*
X57678Y151374D01*
X59109Y147920D01*
X59109Y144180D01*
X57678Y140726D01*
X55034Y138082D01*
X51580Y136651D01*
X47841Y136651D01*
G37*
%LPD*%
%LPC*%
G36*
X407051Y459940D02*
X407051Y459940D01*
X403597Y461371D01*
X400953Y464015D01*
X399522Y467470D01*
X399522Y471209D01*
X400953Y474663D01*
X403597Y477307D01*
X407051Y478738D01*
X410790Y478738D01*
X414245Y477307D01*
X416889Y474663D01*
X418319Y471209D01*
X418319Y467470D01*
X416889Y464015D01*
X414245Y461371D01*
X410790Y459940D01*
X407051Y459940D01*
G37*
%LPD*%
%LPC*%
G36*
X389091Y441980D02*
X389091Y441980D01*
X385636Y443411D01*
X382992Y446055D01*
X381561Y449509D01*
X381561Y453248D01*
X382992Y456703D01*
X385636Y459347D01*
X389091Y460777D01*
X392830Y460777D01*
X396284Y459347D01*
X398928Y456703D01*
X400359Y453248D01*
X400359Y449509D01*
X398928Y446055D01*
X396284Y443411D01*
X392830Y441980D01*
X389091Y441980D01*
G37*
%LPD*%
%LPC*%
G36*
X496854Y406059D02*
X496854Y406059D01*
X493399Y407490D01*
X490755Y410134D01*
X489325Y413588D01*
X489325Y417327D01*
X490755Y420782D01*
X493399Y423426D01*
X496854Y424856D01*
X500593Y424856D01*
X504047Y423426D01*
X506691Y420782D01*
X508122Y417327D01*
X508122Y413588D01*
X506691Y410134D01*
X504047Y407490D01*
X500593Y406059D01*
X496854Y406059D01*
G37*
%LPD*%
%LPC*%
G36*
X227446Y136651D02*
X227446Y136651D01*
X223992Y138082D01*
X221348Y140726D01*
X219917Y144180D01*
X219917Y147920D01*
X221348Y151374D01*
X223992Y154018D01*
X227446Y155449D01*
X231185Y155449D01*
X234640Y154018D01*
X237284Y151374D01*
X238714Y147920D01*
X238714Y144180D01*
X237284Y140726D01*
X234640Y138082D01*
X231185Y136651D01*
X227446Y136651D01*
G37*
%LPD*%
%LPC*%
G36*
X137643Y226454D02*
X137643Y226454D01*
X134189Y227885D01*
X131545Y230529D01*
X130114Y233983D01*
X130114Y237722D01*
X131545Y241176D01*
X134189Y243820D01*
X137643Y245251D01*
X141383Y245251D01*
X144837Y243820D01*
X147481Y241176D01*
X148912Y237722D01*
X148912Y233983D01*
X147481Y230529D01*
X144837Y227885D01*
X141383Y226454D01*
X137643Y226454D01*
G37*
%LPD*%
%LPC*%
G36*
X245407Y118691D02*
X245407Y118691D01*
X241952Y120122D01*
X239308Y122766D01*
X237877Y126220D01*
X237877Y129959D01*
X239308Y133413D01*
X241952Y136057D01*
X245407Y137488D01*
X249146Y137488D01*
X252600Y136057D01*
X255244Y133413D01*
X256675Y129959D01*
X256675Y126220D01*
X255244Y122766D01*
X252600Y120122D01*
X249146Y118691D01*
X245407Y118691D01*
G37*
%LPD*%
%LPC*%
G36*
X227446Y100730D02*
X227446Y100730D01*
X223992Y102161D01*
X221348Y104805D01*
X219917Y108259D01*
X219917Y111999D01*
X221348Y115453D01*
X223992Y118097D01*
X227446Y119528D01*
X231185Y119528D01*
X234640Y118097D01*
X237284Y115453D01*
X238714Y111999D01*
X238714Y108259D01*
X237284Y104805D01*
X234640Y102161D01*
X231185Y100730D01*
X227446Y100730D01*
G37*
%LPD*%
%LPC*%
G36*
X478893Y388098D02*
X478893Y388098D01*
X475439Y389529D01*
X472795Y392173D01*
X471364Y395628D01*
X471364Y399367D01*
X472795Y402821D01*
X475439Y405465D01*
X478893Y406896D01*
X482632Y406896D01*
X486087Y405465D01*
X488731Y402821D01*
X490162Y399367D01*
X490162Y395628D01*
X488731Y392173D01*
X486087Y389529D01*
X482632Y388098D01*
X478893Y388098D01*
G37*
%LPD*%
%LPC*%
G36*
X299288Y388098D02*
X299288Y388098D01*
X295834Y389529D01*
X293190Y392173D01*
X291759Y395628D01*
X291759Y399367D01*
X293190Y402821D01*
X295834Y405465D01*
X299288Y406896D01*
X303027Y406896D01*
X306482Y405465D01*
X309126Y402821D01*
X310556Y399367D01*
X310556Y395628D01*
X309126Y392173D01*
X306482Y389529D01*
X303027Y388098D01*
X299288Y388098D01*
G37*
%LPD*%
%LPC*%
G36*
X209486Y82770D02*
X209486Y82770D01*
X206031Y84201D01*
X203387Y86845D01*
X201956Y90299D01*
X201956Y94038D01*
X203387Y97492D01*
X206031Y100136D01*
X209486Y101567D01*
X213225Y101567D01*
X216679Y100136D01*
X219323Y97492D01*
X220754Y94038D01*
X220754Y90299D01*
X219323Y86845D01*
X216679Y84201D01*
X213225Y82770D01*
X209486Y82770D01*
G37*
%LPD*%
%LPC*%
G36*
X191525Y64809D02*
X191525Y64809D01*
X188071Y66240D01*
X185427Y68884D01*
X183996Y72338D01*
X183996Y76078D01*
X185427Y79532D01*
X188071Y82176D01*
X191525Y83607D01*
X195264Y83607D01*
X198719Y82176D01*
X201362Y79532D01*
X202793Y76078D01*
X202793Y72338D01*
X201362Y68884D01*
X198719Y66240D01*
X195264Y64809D01*
X191525Y64809D01*
G37*
%LPD*%
%LPC*%
G36*
X227446Y316256D02*
X227446Y316256D01*
X223992Y317687D01*
X221348Y320331D01*
X219917Y323786D01*
X219917Y327525D01*
X221348Y330979D01*
X223992Y333623D01*
X227446Y335054D01*
X231185Y335054D01*
X234640Y333623D01*
X237284Y330979D01*
X238714Y327525D01*
X238714Y323786D01*
X237284Y320331D01*
X234640Y317687D01*
X231185Y316256D01*
X227446Y316256D01*
G37*
%LPD*%
%LPC*%
G36*
X425012Y298296D02*
X425012Y298296D01*
X421557Y299727D01*
X418913Y302371D01*
X417483Y305825D01*
X417483Y309564D01*
X418913Y313019D01*
X421557Y315662D01*
X425012Y317093D01*
X428751Y317093D01*
X432205Y315662D01*
X434849Y313019D01*
X436280Y309564D01*
X436280Y305825D01*
X434849Y302371D01*
X432205Y299727D01*
X428751Y298296D01*
X425012Y298296D01*
G37*
%LPD*%
%LPC*%
G36*
X173565Y46849D02*
X173565Y46849D01*
X170110Y48280D01*
X167466Y50924D01*
X166035Y54378D01*
X166035Y58117D01*
X167466Y61571D01*
X170110Y64215D01*
X173565Y65646D01*
X177304Y65646D01*
X180758Y64215D01*
X183402Y61571D01*
X184833Y58117D01*
X184833Y54378D01*
X183402Y50924D01*
X180758Y48280D01*
X177304Y46849D01*
X173565Y46849D01*
G37*
%LPD*%
%LPC*%
G36*
X191525Y280335D02*
X191525Y280335D01*
X188071Y281766D01*
X185427Y284410D01*
X183996Y287865D01*
X183996Y291604D01*
X185427Y295058D01*
X188071Y297702D01*
X191525Y299133D01*
X195264Y299133D01*
X198719Y297702D01*
X201362Y295058D01*
X202793Y291604D01*
X202793Y287865D01*
X201362Y284410D01*
X198719Y281766D01*
X195264Y280335D01*
X191525Y280335D01*
G37*
%LPD*%
%LPC*%
G36*
X407051Y280335D02*
X407051Y280335D01*
X403597Y281766D01*
X400953Y284410D01*
X399522Y287865D01*
X399522Y291604D01*
X400953Y295058D01*
X403597Y297702D01*
X407051Y299133D01*
X410790Y299133D01*
X414245Y297702D01*
X416889Y295058D01*
X418319Y291604D01*
X418319Y287865D01*
X416889Y284410D01*
X414245Y281766D01*
X410790Y280335D01*
X407051Y280335D01*
G37*
%LPD*%
%LPC*%
G36*
X173565Y262375D02*
X173565Y262375D01*
X170110Y263806D01*
X167466Y266450D01*
X166035Y269904D01*
X166035Y273643D01*
X167466Y277097D01*
X170110Y279741D01*
X173565Y281172D01*
X177304Y281172D01*
X180758Y279741D01*
X183402Y277097D01*
X184833Y273643D01*
X184833Y269904D01*
X183402Y266450D01*
X180758Y263806D01*
X177304Y262375D01*
X173565Y262375D01*
G37*
%LPD*%
%LPC*%
G36*
X389091Y262375D02*
X389091Y262375D01*
X385636Y263806D01*
X382992Y266450D01*
X381561Y269904D01*
X381561Y273643D01*
X382992Y277097D01*
X385636Y279741D01*
X389091Y281172D01*
X392830Y281172D01*
X396284Y279741D01*
X398928Y277097D01*
X400359Y273643D01*
X400359Y269904D01*
X398928Y266450D01*
X396284Y263806D01*
X392830Y262375D01*
X389091Y262375D01*
G37*
%LPD*%
%LPC*%
G36*
X371130Y244414D02*
X371130Y244414D01*
X367676Y245845D01*
X365032Y248489D01*
X363601Y251943D01*
X363601Y255683D01*
X365032Y259137D01*
X367676Y261781D01*
X371130Y263212D01*
X374869Y263212D01*
X378324Y261781D01*
X380968Y259137D01*
X382398Y255683D01*
X382398Y251943D01*
X380968Y248489D01*
X378324Y245845D01*
X374869Y244414D01*
X371130Y244414D01*
G37*
%LPD*%
%LPC*%
G36*
X155604Y244414D02*
X155604Y244414D01*
X152150Y245845D01*
X149506Y248489D01*
X148075Y251943D01*
X148075Y255683D01*
X149506Y259137D01*
X152150Y261781D01*
X155604Y263212D01*
X159343Y263212D01*
X162797Y261781D01*
X165441Y259137D01*
X166872Y255683D01*
X166872Y251943D01*
X165441Y248489D01*
X162797Y245845D01*
X159343Y244414D01*
X155604Y244414D01*
G37*
%LPD*%
%LPC*%
G36*
X155604Y28888D02*
X155604Y28888D01*
X152150Y30319D01*
X149506Y32963D01*
X148075Y36417D01*
X148075Y40156D01*
X149506Y43611D01*
X152150Y46255D01*
X155604Y47686D01*
X159343Y47686D01*
X162797Y46255D01*
X165441Y43611D01*
X166872Y40156D01*
X166872Y36417D01*
X165441Y32963D01*
X162797Y30319D01*
X159343Y28888D01*
X155604Y28888D01*
G37*
%LPD*%
%LPC*%
G36*
X353170Y226454D02*
X353170Y226454D01*
X349715Y227885D01*
X347071Y230529D01*
X345640Y233983D01*
X345640Y237722D01*
X347071Y241176D01*
X349715Y243820D01*
X353170Y245251D01*
X356909Y245251D01*
X360363Y243820D01*
X363007Y241176D01*
X364438Y237722D01*
X364438Y233983D01*
X363007Y230529D01*
X360363Y227885D01*
X356909Y226454D01*
X353170Y226454D01*
G37*
%LPD*%
%LPC*%
G36*
X119683Y208493D02*
X119683Y208493D01*
X116229Y209924D01*
X113585Y212568D01*
X112154Y216022D01*
X112154Y219762D01*
X113585Y223216D01*
X116229Y225860D01*
X119683Y227291D01*
X123422Y227291D01*
X126876Y225860D01*
X129520Y223216D01*
X130951Y219762D01*
X130951Y216022D01*
X129520Y212568D01*
X126876Y209924D01*
X123422Y208493D01*
X119683Y208493D01*
G37*
%LPD*%
%LPC*%
G36*
X335209Y208493D02*
X335209Y208493D01*
X331755Y209924D01*
X329111Y212568D01*
X327680Y216022D01*
X327680Y219762D01*
X329111Y223216D01*
X331755Y225860D01*
X335209Y227291D01*
X338948Y227291D01*
X342403Y225860D01*
X345047Y223216D01*
X346477Y219762D01*
X346477Y216022D01*
X345047Y212568D01*
X342403Y209924D01*
X338948Y208493D01*
X335209Y208493D01*
G37*
%LPD*%
%LPC*%
G36*
X155604Y208493D02*
X155604Y208493D01*
X152150Y209924D01*
X149506Y212568D01*
X148075Y216022D01*
X148075Y219762D01*
X149506Y223216D01*
X152150Y225860D01*
X155604Y227291D01*
X159343Y227291D01*
X162797Y225860D01*
X165441Y223216D01*
X166872Y219762D01*
X166872Y216022D01*
X165441Y212568D01*
X162797Y209924D01*
X159343Y208493D01*
X155604Y208493D01*
G37*
%LPD*%
%LPC*%
G36*
X101722Y190533D02*
X101722Y190533D01*
X98268Y191964D01*
X95624Y194608D01*
X94193Y198062D01*
X94193Y201801D01*
X95624Y205255D01*
X98268Y207899D01*
X101722Y209330D01*
X105462Y209330D01*
X108916Y207899D01*
X111560Y205255D01*
X112991Y201801D01*
X112991Y198062D01*
X111560Y194608D01*
X108916Y191964D01*
X105462Y190533D01*
X101722Y190533D01*
G37*
%LPD*%
%LPC*%
G36*
X191525Y172572D02*
X191525Y172572D01*
X188071Y174003D01*
X185427Y176647D01*
X183996Y180101D01*
X183996Y183841D01*
X185427Y187295D01*
X188071Y189939D01*
X191525Y191370D01*
X195264Y191370D01*
X198719Y189939D01*
X201362Y187295D01*
X202793Y183841D01*
X202793Y180101D01*
X201362Y176647D01*
X198719Y174003D01*
X195264Y172572D01*
X191525Y172572D01*
G37*
%LPD*%
%LPC*%
G36*
X83762Y172572D02*
X83762Y172572D01*
X80308Y174003D01*
X77664Y176647D01*
X76233Y180101D01*
X76233Y183841D01*
X77664Y187295D01*
X80308Y189939D01*
X83762Y191370D01*
X87501Y191370D01*
X90955Y189939D01*
X93599Y187295D01*
X95030Y183841D01*
X95030Y180101D01*
X93599Y176647D01*
X90955Y174003D01*
X87501Y172572D01*
X83762Y172572D01*
G37*
%LPD*%
%LPC*%
G36*
X209486Y154612D02*
X209486Y154612D01*
X206031Y156043D01*
X203387Y158687D01*
X201956Y162141D01*
X201956Y165880D01*
X203387Y169334D01*
X206031Y171978D01*
X209486Y173409D01*
X213225Y173409D01*
X216679Y171978D01*
X219323Y169334D01*
X220754Y165880D01*
X220754Y162141D01*
X219323Y158687D01*
X216679Y156043D01*
X213225Y154612D01*
X209486Y154612D01*
G37*
%LPD*%
%LPC*%
G36*
X291899Y91399D02*
X291899Y91399D01*
X291899Y108941D01*
X294735Y108941D01*
X295381Y108768D01*
X295960Y108433D01*
X296433Y107960D01*
X296768Y107381D01*
X296941Y106735D01*
X296941Y91399D01*
X291899Y91399D01*
G37*
%LPD*%
%LPC*%
G36*
X360799Y91399D02*
X360799Y91399D01*
X360799Y108941D01*
X363635Y108941D01*
X364281Y108768D01*
X364860Y108433D01*
X365333Y107960D01*
X365668Y107381D01*
X365841Y106735D01*
X365841Y91399D01*
X360799Y91399D01*
G37*
%LPD*%
%LPC*%
G36*
X380799Y91399D02*
X380799Y91399D01*
X380799Y108941D01*
X383635Y108941D01*
X384281Y108768D01*
X384860Y108433D01*
X385333Y107960D01*
X385668Y107381D01*
X385841Y106735D01*
X385841Y91399D01*
X380799Y91399D01*
G37*
%LPD*%
%LPC*%
G36*
X442359Y91399D02*
X442359Y91399D01*
X442359Y106735D01*
X442532Y107381D01*
X442867Y107960D01*
X443340Y108433D01*
X443919Y108768D01*
X444565Y108941D01*
X447401Y108941D01*
X447401Y91399D01*
X442359Y91399D01*
G37*
%LPD*%
%LPC*%
G36*
X350759Y91399D02*
X350759Y91399D01*
X350759Y106735D01*
X350932Y107381D01*
X351267Y107960D01*
X351740Y108433D01*
X352319Y108768D01*
X352965Y108941D01*
X355801Y108941D01*
X355801Y91399D01*
X350759Y91399D01*
G37*
%LPD*%
%LPC*%
G36*
X404423Y627868D02*
X404423Y627868D01*
X404633Y628021D01*
X406307Y628874D01*
X408094Y629455D01*
X409951Y629749D01*
X411830Y629749D01*
X413686Y629455D01*
X415473Y628874D01*
X417147Y628021D01*
X417357Y627868D01*
X410890Y621401D01*
X404423Y627868D01*
G37*
%LPD*%
%LPC*%
G36*
X414481Y617810D02*
X414481Y617810D01*
X420948Y624277D01*
X421101Y624067D01*
X421954Y622393D01*
X422535Y620606D01*
X422829Y618749D01*
X422829Y616870D01*
X422535Y615014D01*
X421954Y613227D01*
X421101Y611553D01*
X420948Y611343D01*
X414481Y617810D01*
G37*
%LPD*%
%LPC*%
G36*
X193039Y334519D02*
X193039Y334519D01*
X193039Y341021D01*
X200541Y341021D01*
X200541Y336726D01*
X200368Y336079D01*
X200033Y335500D01*
X199560Y335027D01*
X198981Y334692D01*
X198334Y334519D01*
X193039Y334519D01*
G37*
%LPD*%
%LPC*%
G36*
X182666Y334519D02*
X182666Y334519D01*
X182019Y334692D01*
X181440Y335027D01*
X180967Y335500D01*
X180632Y336079D01*
X180459Y336726D01*
X180459Y341021D01*
X187961Y341021D01*
X187961Y334519D01*
X182666Y334519D01*
G37*
%LPD*%
%LPC*%
G36*
X529823Y422929D02*
X529823Y422929D01*
X530433Y423337D01*
X532051Y424007D01*
X533769Y424348D01*
X535520Y424348D01*
X537238Y424007D01*
X538856Y423337D01*
X539465Y422929D01*
X534644Y418108D01*
X529823Y422929D01*
G37*
%LPD*%
%LPC*%
G36*
X537295Y415458D02*
X537295Y415458D01*
X542116Y420279D01*
X542523Y419669D01*
X543193Y418051D01*
X543535Y416333D01*
X543535Y414582D01*
X543193Y412864D01*
X542523Y411246D01*
X542116Y410637D01*
X537295Y415458D01*
G37*
%LPD*%
%LPC*%
G36*
X206534Y315166D02*
X206534Y315166D01*
X207144Y315574D01*
X208762Y316244D01*
X210480Y316585D01*
X212231Y316585D01*
X213949Y316244D01*
X215566Y315574D01*
X216176Y315166D01*
X211355Y310345D01*
X206534Y315166D01*
G37*
%LPD*%
%LPC*%
G36*
X170613Y207403D02*
X170613Y207403D01*
X171223Y207810D01*
X172841Y208481D01*
X174559Y208822D01*
X176310Y208822D01*
X178028Y208481D01*
X179645Y207810D01*
X180255Y207403D01*
X175434Y202582D01*
X170613Y207403D01*
G37*
%LPD*%
%LPC*%
G36*
X214006Y307695D02*
X214006Y307695D01*
X218827Y312515D01*
X219234Y311906D01*
X219904Y310288D01*
X220246Y308570D01*
X220246Y306819D01*
X219904Y305101D01*
X219234Y303483D01*
X218827Y302874D01*
X214006Y307695D01*
G37*
%LPD*%
%LPC*%
G36*
X178085Y199932D02*
X178085Y199932D01*
X182906Y204752D01*
X183313Y204143D01*
X183983Y202525D01*
X184325Y200807D01*
X184325Y199056D01*
X183983Y197338D01*
X183313Y195720D01*
X182906Y195111D01*
X178085Y199932D01*
G37*
%LPD*%
%LPC*%
G36*
X526765Y411246D02*
X526765Y411246D01*
X526095Y412864D01*
X525754Y414582D01*
X525754Y416333D01*
X526095Y418051D01*
X526765Y419669D01*
X527173Y420279D01*
X531994Y415458D01*
X527173Y410637D01*
X526765Y411246D01*
G37*
%LPD*%
%LPC*%
G36*
X533769Y406567D02*
X533769Y406567D01*
X532051Y406909D01*
X530433Y407579D01*
X529823Y407986D01*
X534644Y412807D01*
X539465Y407986D01*
X538856Y407579D01*
X537238Y406909D01*
X535520Y406567D01*
X533769Y406567D01*
G37*
%LPD*%
%LPC*%
G36*
X167555Y195720D02*
X167555Y195720D01*
X166885Y197338D01*
X166543Y199056D01*
X166543Y200807D01*
X166885Y202525D01*
X167555Y204143D01*
X167963Y204752D01*
X172783Y199932D01*
X167963Y195111D01*
X167555Y195720D01*
G37*
%LPD*%
%LPC*%
G36*
X203476Y303483D02*
X203476Y303483D01*
X202806Y305101D01*
X202464Y306819D01*
X202464Y308570D01*
X202806Y310288D01*
X203476Y311906D01*
X203884Y312515D01*
X208704Y307695D01*
X203884Y302874D01*
X203476Y303483D01*
G37*
%LPD*%
%LPC*%
G36*
X174559Y191041D02*
X174559Y191041D01*
X172841Y191382D01*
X171223Y192053D01*
X170613Y192460D01*
X175434Y197281D01*
X180255Y192460D01*
X179645Y192053D01*
X178028Y191382D01*
X176310Y191041D01*
X174559Y191041D01*
G37*
%LPD*%
%LPC*%
G36*
X210480Y298804D02*
X210480Y298804D01*
X208762Y299146D01*
X207144Y299816D01*
X206534Y300223D01*
X211355Y305044D01*
X216176Y300223D01*
X215566Y299816D01*
X213949Y299146D01*
X212231Y298804D01*
X210480Y298804D01*
G37*
%LPD*%
D10*
X569300Y685800D03*
X548300Y685800D03*
X522900Y657225D03*
X543900Y657225D03*
X510200Y676275D03*
X531200Y676275D03*
D11*
X444842Y541181D03*
X426881Y523221D03*
X408921Y505260D03*
X390960Y487300D03*
X373000Y469339D03*
X355039Y451379D03*
X337079Y433418D03*
X319118Y415458D03*
X301158Y397497D03*
X283197Y379537D03*
X265237Y361576D03*
X247276Y343616D03*
X229316Y325655D03*
X211355Y307695D03*
X193395Y289734D03*
X175434Y271774D03*
X157474Y253813D03*
X139513Y235853D03*
X121553Y217892D03*
X103592Y199932D03*
X85632Y181971D03*
X67671Y164011D03*
X49711Y146050D03*
X157474Y38287D03*
X175434Y56247D03*
X193395Y74208D03*
X211355Y92168D03*
X229316Y110129D03*
X247276Y128089D03*
X265237Y146050D03*
X283197Y164011D03*
X301158Y181971D03*
X319118Y199932D03*
X337079Y217892D03*
X355039Y235853D03*
X373000Y253813D03*
X390960Y271774D03*
X408921Y289734D03*
X426881Y307695D03*
X444842Y325655D03*
X462802Y343616D03*
X480763Y361576D03*
X498723Y379537D03*
X516684Y397497D03*
X552605Y433418D03*
X462802Y559142D03*
X570565Y451379D03*
X534644Y415458D03*
X157474Y217892D03*
X175434Y199932D03*
X193395Y181971D03*
X211355Y164011D03*
X229316Y146050D03*
X444842Y505260D03*
X426881Y487300D03*
X408921Y469339D03*
X390960Y451379D03*
X373000Y433418D03*
X534644Y451379D03*
X498723Y415458D03*
X480763Y397497D03*
X462802Y379537D03*
D12*
X378300Y88900D03*
X358300Y88900D03*
D13*
X401800Y31400D03*
X334800Y31400D03*
D12*
X289400Y88900D03*
X269400Y88900D03*
D13*
X312900Y31400D03*
X245900Y31400D03*
D12*
X449900Y88900D03*
X469900Y88900D03*
X489900Y88900D03*
D13*
X513400Y31400D03*
X426400Y31400D03*
D14*
X190500Y362560D03*
X190500Y343560D03*
X279400Y434950D03*
X279400Y415950D03*
X254000Y415900D03*
X254000Y396900D03*
D15*
X676148Y342900D03*
X700024Y337900D03*
X676148Y332900D03*
X700024Y327900D03*
X676148Y322900D03*
X700024Y317900D03*
X676148Y312900D03*
X700024Y307900D03*
X676148Y302900D03*
X700024Y297900D03*
X676148Y292900D03*
X700024Y287900D03*
D16*
X700024Y277935D03*
X700024Y352865D03*
X676148Y277935D03*
X676148Y352865D03*
D17*
X694380Y495763D03*
X694380Y448773D03*
X694380Y542753D03*
X710382Y574757D03*
X678378Y574757D03*
X710382Y416769D03*
X678378Y416769D03*
D10*
X481625Y657225D03*
X502625Y657225D03*
D14*
X219075Y390500D03*
X219075Y371500D03*
D18*
X505661Y554282D02*
X517515Y566136D01*
X535475Y548175D02*
X523621Y536321D01*
X541582Y518361D02*
X553436Y530215D01*
D19*
X466750Y577850D03*
X485750Y577850D03*
X587400Y488950D03*
X606400Y488950D03*
D20*
X410890Y617810D03*
X392930Y599849D03*
X374969Y581889D03*
X357009Y563928D03*
X339048Y545968D03*
X321088Y528007D03*
X303127Y510047D03*
X285167Y492086D03*
D21*
X503000Y337900D02*
X700024Y337900D01*
X503000Y337900D02*
X501650Y336550D01*
D22*
X501650Y336550D03*
X450850Y419100D03*
D21*
X485768Y352432D02*
X501650Y336550D01*
X485768Y352432D02*
X476975Y352432D01*
X450850Y378557D01*
X450850Y419100D01*
X670974Y327726D02*
X676148Y332900D01*
X670974Y327726D02*
X666990Y327726D01*
X664919Y325655D02*
X444842Y325655D01*
X664919Y325655D02*
X666990Y327726D01*
D22*
X431800Y393700D03*
D21*
X431800Y338697D01*
X444842Y325655D01*
X699474Y298450D02*
X700024Y297900D01*
X699474Y298450D02*
X685682Y298450D01*
X685306Y298074D01*
X666990Y298074D01*
X666614Y298450D01*
X584200Y298450D02*
X577850Y304800D01*
D22*
X577850Y304800D03*
X546100Y355600D03*
D21*
X584200Y298450D02*
X666614Y298450D01*
D23*
X546100Y355600D02*
X546100Y368300D01*
X516903Y397497D01*
X516684Y397497D01*
D21*
X558000Y292900D02*
X676148Y292900D01*
X558000Y292900D02*
X546100Y304800D01*
D22*
X546100Y304800D03*
X527050Y355600D03*
D21*
X503113Y379537D01*
X498723Y379537D01*
D22*
X412750Y107950D03*
X412750Y95250D03*
X412750Y82550D03*
D24*
X495300Y587400D02*
X495300Y590550D01*
X495300Y587400D02*
X485750Y577850D01*
D22*
X495300Y590550D03*
D24*
X606400Y488950D02*
X622300Y488950D01*
D22*
X622300Y488950D03*
D25*
X700024Y287900D02*
X713935Y287900D01*
X715546Y286289D01*
D22*
X715546Y286289D03*
D21*
X522900Y649900D02*
X522900Y657225D01*
X522900Y649900D02*
X514350Y641350D01*
D22*
X514350Y641350D03*
D21*
X507251Y673326D02*
X510200Y676275D01*
X507251Y673326D02*
X495300Y673326D01*
D22*
X495300Y673326D03*
D21*
X481625Y657225D02*
X473075Y657225D01*
X469900Y654050D01*
D22*
X469900Y654050D03*
D21*
X569300Y677250D02*
X569300Y685800D01*
X569300Y677250D02*
X565150Y673100D01*
D22*
X565150Y673100D03*
D21*
X561749Y428851D02*
X590550Y400050D01*
X561749Y428851D02*
X561749Y437206D01*
X700024Y327900D02*
X705198Y333074D01*
X709182Y333074D01*
X711200Y335092D01*
X711200Y368300D01*
X679450Y400050D01*
X590550Y400050D01*
X525500Y460523D02*
X444842Y541181D01*
X525500Y460523D02*
X538432Y460523D01*
X561749Y437206D01*
D22*
X603250Y317500D03*
D21*
X667911Y322900D02*
X676148Y322900D01*
X667911Y322900D02*
X666602Y321591D01*
X607341Y321591D01*
X603250Y317500D01*
D22*
X469900Y444500D03*
D21*
X469900Y457200D01*
X426881Y500219D02*
X426881Y523221D01*
X436025Y491087D02*
X436025Y491075D01*
X436025Y491087D02*
X430669Y496444D01*
X430656Y496444D01*
X426881Y500219D01*
X436025Y491075D02*
X469900Y457200D01*
D24*
X582846Y488950D02*
X587400Y488950D01*
X582846Y488950D02*
X547509Y524288D01*
D26*
X587400Y488950D02*
X587400Y468213D01*
X570565Y451379D01*
D24*
X323850Y368300D02*
X269400Y313850D01*
X277175Y150995D02*
X277175Y141105D01*
X269400Y133330D02*
X269400Y88900D01*
X269400Y158770D02*
X269400Y313850D01*
X277175Y141105D02*
X269400Y133330D01*
X277175Y150995D02*
X269400Y158770D01*
X323850Y368300D02*
X323850Y403307D01*
X336550Y416007D01*
X325141Y428473D02*
X325141Y438363D01*
X336550Y417064D02*
X336550Y416007D01*
X336550Y449772D02*
X336550Y476250D01*
X325141Y428473D02*
X336550Y417064D01*
X325141Y438363D02*
X336550Y449772D01*
X336550Y476250D02*
X463550Y603250D01*
X707508Y501201D02*
X707508Y490325D01*
X694380Y477197D01*
X694380Y448773D01*
X707508Y501201D02*
X605459Y603250D01*
X463550Y603250D01*
X460488Y98312D02*
X469900Y88900D01*
X460488Y98312D02*
X460488Y111366D01*
X438327Y133527D01*
X694380Y495763D02*
X637694Y552450D01*
X590550Y552450D02*
X571500Y571500D01*
X522879Y571500D01*
X511588Y560209D01*
X590550Y552450D02*
X637694Y552450D01*
X511588Y560209D02*
X478619Y560209D01*
X467747Y571080D01*
X456780Y571080D01*
X355600Y469900D01*
X366977Y456324D02*
X366977Y446434D01*
X355600Y467701D02*
X355600Y469900D01*
X355600Y435056D02*
X355600Y368300D01*
X366977Y456324D02*
X355600Y467701D01*
X366977Y446434D02*
X355600Y435056D01*
X355600Y368300D02*
X298450Y311150D01*
X355600Y133350D02*
X438150Y133350D01*
X438327Y133527D01*
X355600Y133350D02*
X313096Y175854D01*
X313096Y186916D01*
X298450Y201562D02*
X298450Y311150D01*
X298450Y201562D02*
X313096Y186916D01*
X466750Y572077D02*
X466750Y577850D01*
X466750Y572077D02*
X467747Y571080D01*
D22*
X482600Y114300D03*
D23*
X488950Y107950D01*
X488950Y89850D02*
X489900Y88900D01*
X488950Y89850D02*
X488950Y107950D01*
D21*
X283197Y379537D02*
X279400Y383334D01*
X279400Y415950D01*
X265237Y363413D02*
X265237Y361576D01*
X265237Y363413D02*
X254000Y374650D01*
X254000Y396900D01*
X219392Y371500D02*
X247276Y343616D01*
X219392Y371500D02*
X219075Y371500D01*
X190500Y362560D02*
X190500Y393700D01*
X273050Y476250D01*
X298450Y476250D01*
X450850Y628650D01*
X476250Y628650D01*
X490419Y642819D01*
X490419Y660400D01*
X493831Y663812D01*
X493831Y664382D01*
X496199Y666750D01*
X522406Y683432D02*
X524043Y685069D01*
X522406Y672530D02*
X516626Y666750D01*
X522406Y672530D02*
X522406Y683432D01*
X516626Y666750D02*
X496199Y666750D01*
X524043Y685069D02*
X547569Y685069D01*
X548300Y685800D01*
X463550Y615950D02*
X282550Y434950D01*
X279400Y434950D01*
X543900Y651850D02*
X543900Y657225D01*
X508000Y615950D02*
X463550Y615950D01*
X508000Y615950D02*
X543900Y651850D01*
X279400Y457200D02*
X254000Y431800D01*
X254000Y415900D01*
X299053Y457200D02*
X461867Y620014D01*
X505714Y620014D02*
X533400Y647700D01*
X505714Y620014D02*
X461867Y620014D01*
X299053Y457200D02*
X279400Y457200D01*
X531200Y676275D02*
X533400Y674075D01*
X533400Y647700D01*
X237356Y408781D02*
X219075Y390500D01*
X237356Y408781D02*
X237356Y427253D01*
X273653Y463550D01*
X299655Y463550D01*
X460183Y624078D01*
X502625Y629625D02*
X502625Y657225D01*
X497078Y624078D02*
X460183Y624078D01*
X497078Y624078D02*
X502625Y629625D01*
M02*
