M48
;GenerationSoftware,Autodesk,EAGLE,9.2.2*%
;CreationDate,2019-02-12T03:46:58Z*%
FMAT,2
ICI,OFF
METRIC,TZ,000.000
T7C0.350
T6C0.750
T5C1.000
T4C1.016
T3C1.118
T2C3.200
T1C3.302
%
G90
M71
T1
X63552Y64822
T2
X69850Y69850
X3175Y3175
X57150Y3175
X69850Y15875
T3
X54751Y52429
X52955Y54225
X51159Y56021
T4
X28517Y49209
X30313Y51005
X32109Y52801
X33905Y54597
X35701Y56393
X37497Y58189
X39293Y59985
X41089Y61781
T5
X67838Y57476
X67838Y41677
X71038Y41677
X71038Y57476
X69438Y54275
X69438Y44877
X69438Y49576
T6
X42688Y52322
X46280Y37954
X44484Y50526
X44484Y54118
X40892Y50526
X39096Y48730
X37300Y46934
X35504Y45138
X33708Y43342
X31912Y41546
X30116Y39750
X28320Y37954
X26524Y36158
X24728Y34362
X22932Y32566
X21136Y30769
X19339Y28973
X17543Y27177
X15747Y25381
X13951Y23585
X12155Y21789
X10359Y19993
X8563Y18197
X6767Y16401
X4971Y14605
X15747Y3829
X17543Y5625
X19339Y7421
X21136Y9217
X22932Y11013
X24728Y12809
X26524Y14605
X28320Y16401
X30116Y18197
X31912Y19993
X33708Y21789
X35504Y23585
X37300Y25381
X39096Y27177
X40892Y28973
X42688Y30769
X44484Y32566
X46280Y34362
X48076Y36158
X49872Y37954
X51668Y39750
X55260Y43342
X46280Y55914
X57057Y45138
X53464Y41546
X15747Y21789
X17543Y19993
X19339Y18197
X21136Y16401
X22932Y14605
X42688Y48730
X40892Y46934
X39096Y45138
X37300Y43342
X53464Y45138
X49872Y41546
X48076Y39750
T7
X45085Y41910
X43180Y39370
X48260Y11430
X46990Y44450
X60325Y31750
X56515Y67310
X50165Y33655
X46990Y65405
X49530Y67333
X71555Y28629
X62230Y48895
X49530Y59055
X41275Y8255
X41275Y9525
X41275Y10795
X52705Y35560
X54610Y30480
X54610Y35560
X57785Y30480
X51435Y64135
M30