G04 EAGLE Gerber RS-274X export*
G75*
%MOMM*%
%FSLAX34Y34*%
%LPD*%
%INTop Paste*%
%IPPOS*%
%AMOC8*
5,1,8,0,0,1.08239X$1,22.5*%
G01*
%ADD10R,1.200000X1.200000*%
%ADD11R,1.000000X3.500000*%
%ADD12R,1.500000X3.400000*%
%ADD13R,1.500000X1.300000*%
%ADD14R,1.600200X0.406400*%
%ADD15R,1.600200X0.609600*%
%ADD16R,1.300000X1.500000*%


D10*
X569300Y685800D03*
X548300Y685800D03*
X522900Y657225D03*
X543900Y657225D03*
X510200Y676275D03*
X531200Y676275D03*
D11*
X378300Y88900D03*
X358300Y88900D03*
D12*
X401800Y31400D03*
X334800Y31400D03*
D11*
X289400Y88900D03*
X269400Y88900D03*
D12*
X312900Y31400D03*
X245900Y31400D03*
D11*
X449900Y88900D03*
X469900Y88900D03*
X489900Y88900D03*
D12*
X513400Y31400D03*
X426400Y31400D03*
D13*
X190500Y362560D03*
X190500Y343560D03*
X279400Y434950D03*
X279400Y415950D03*
X254000Y415900D03*
X254000Y396900D03*
D14*
X676148Y342900D03*
X700024Y337900D03*
X676148Y332900D03*
X700024Y327900D03*
X676148Y322900D03*
X700024Y317900D03*
X676148Y312900D03*
X700024Y307900D03*
X676148Y302900D03*
X700024Y297900D03*
X676148Y292900D03*
X700024Y287900D03*
D15*
X700024Y277935D03*
X700024Y352865D03*
X676148Y277935D03*
X676148Y352865D03*
D10*
X481625Y657225D03*
X502625Y657225D03*
D13*
X219075Y390500D03*
X219075Y371500D03*
D16*
X466750Y577850D03*
X485750Y577850D03*
X587400Y488950D03*
X606400Y488950D03*
M02*
