G04 EAGLE Gerber RS-274X export*
G75*
%MOMM*%
%FSLAX34Y34*%
%LPD*%
%INBottom Copper*%
%IPPOS*%
%AMOC8*
5,1,8,0,0,1.08239X$1,22.5*%
G01*
%ADD10C,1.270000*%
%ADD11C,1.508000*%
%ADD12C,1.676400*%
%ADD13C,1.879600*%
%ADD14C,0.756400*%
%ADD15C,0.254000*%
%ADD16C,0.304800*%

G36*
X531582Y10932D02*
X531582Y10932D01*
X531655Y10931D01*
X531739Y10952D01*
X531826Y10963D01*
X531893Y10989D01*
X531964Y11006D01*
X532041Y11047D01*
X532122Y11080D01*
X532180Y11122D01*
X532244Y11156D01*
X532308Y11215D01*
X532379Y11266D01*
X532425Y11322D01*
X532479Y11371D01*
X532526Y11444D01*
X532582Y11511D01*
X532613Y11577D01*
X532652Y11637D01*
X532680Y11720D01*
X532717Y11799D01*
X532731Y11870D01*
X532754Y11939D01*
X532761Y12026D01*
X532777Y12111D01*
X532773Y12184D01*
X532778Y12256D01*
X532763Y12342D01*
X532757Y12429D01*
X532735Y12498D01*
X532723Y12569D01*
X532665Y12719D01*
X529594Y19445D01*
X527824Y31750D01*
X529594Y44055D01*
X534758Y55363D01*
X542899Y64758D01*
X553356Y71479D01*
X565284Y74981D01*
X577716Y74981D01*
X589644Y71479D01*
X600101Y64758D01*
X604115Y60126D01*
X604146Y60098D01*
X604171Y60065D01*
X604264Y59993D01*
X604351Y59914D01*
X604388Y59895D01*
X604421Y59869D01*
X604529Y59822D01*
X604633Y59767D01*
X604674Y59758D01*
X604713Y59741D01*
X604829Y59722D01*
X604943Y59695D01*
X604985Y59696D01*
X605026Y59689D01*
X605144Y59700D01*
X605261Y59702D01*
X605301Y59714D01*
X605343Y59717D01*
X605454Y59756D01*
X605567Y59788D01*
X605604Y59809D01*
X605643Y59823D01*
X605741Y59889D01*
X605843Y59948D01*
X605872Y59977D01*
X605907Y60000D01*
X605985Y60088D01*
X606070Y60170D01*
X606091Y60206D01*
X606119Y60237D01*
X606202Y60376D01*
X612582Y72738D01*
X625176Y89978D01*
X640272Y105074D01*
X657512Y117668D01*
X669472Y123840D01*
X669563Y123903D01*
X669658Y123958D01*
X669693Y123993D01*
X669734Y124020D01*
X669806Y124104D01*
X669885Y124181D01*
X669911Y124223D01*
X669943Y124260D01*
X669993Y124359D01*
X670050Y124453D01*
X670064Y124500D01*
X670086Y124544D01*
X670109Y124652D01*
X670141Y124758D01*
X670143Y124807D01*
X670154Y124855D01*
X670150Y124965D01*
X670154Y125076D01*
X670144Y125124D01*
X670142Y125173D01*
X670111Y125278D01*
X670088Y125387D01*
X670066Y125431D01*
X670052Y125478D01*
X669996Y125572D01*
X669946Y125671D01*
X669900Y125732D01*
X669889Y125751D01*
X669877Y125763D01*
X669849Y125799D01*
X661758Y135137D01*
X656594Y146445D01*
X654824Y158750D01*
X656594Y171055D01*
X661758Y182363D01*
X669898Y191758D01*
X680356Y198479D01*
X692284Y201981D01*
X704716Y201981D01*
X716644Y198479D01*
X717372Y198011D01*
X717375Y198009D01*
X717377Y198007D01*
X717516Y197942D01*
X717659Y197874D01*
X717662Y197873D01*
X717665Y197872D01*
X717816Y197843D01*
X717971Y197812D01*
X717974Y197812D01*
X717978Y197812D01*
X718131Y197821D01*
X718288Y197830D01*
X718292Y197831D01*
X718295Y197832D01*
X718442Y197879D01*
X718591Y197927D01*
X718594Y197929D01*
X718597Y197930D01*
X718729Y198013D01*
X718861Y198095D01*
X718863Y198098D01*
X718866Y198100D01*
X718974Y198214D01*
X719080Y198326D01*
X719082Y198329D01*
X719084Y198331D01*
X719158Y198466D01*
X719235Y198604D01*
X719236Y198607D01*
X719238Y198610D01*
X719276Y198761D01*
X719316Y198911D01*
X719316Y198915D01*
X719317Y198918D01*
X719327Y199079D01*
X719327Y407675D01*
X719310Y407813D01*
X719297Y407952D01*
X719290Y407971D01*
X719287Y407991D01*
X719236Y408120D01*
X719189Y408251D01*
X719178Y408268D01*
X719170Y408287D01*
X719089Y408399D01*
X719011Y408514D01*
X718995Y408528D01*
X718984Y408544D01*
X718876Y408633D01*
X718772Y408725D01*
X718754Y408734D01*
X718739Y408747D01*
X718613Y408806D01*
X718489Y408869D01*
X718469Y408874D01*
X718451Y408882D01*
X718314Y408908D01*
X718179Y408939D01*
X718158Y408938D01*
X718139Y408942D01*
X718000Y408933D01*
X717861Y408929D01*
X717841Y408924D01*
X717821Y408922D01*
X717689Y408880D01*
X717555Y408841D01*
X717538Y408830D01*
X717519Y408824D01*
X717401Y408750D01*
X717281Y408679D01*
X717260Y408661D01*
X717250Y408654D01*
X717236Y408639D01*
X717161Y408573D01*
X716380Y407793D01*
X712489Y406181D01*
X708276Y406181D01*
X704384Y407793D01*
X701406Y410771D01*
X699794Y414663D01*
X699794Y418876D01*
X701406Y422767D01*
X704384Y425746D01*
X708276Y427358D01*
X712489Y427358D01*
X716380Y425746D01*
X717161Y424966D01*
X717270Y424881D01*
X717377Y424792D01*
X717396Y424783D01*
X717412Y424771D01*
X717539Y424716D01*
X717665Y424656D01*
X717685Y424653D01*
X717704Y424644D01*
X717842Y424623D01*
X717978Y424597D01*
X717998Y424598D01*
X718018Y424595D01*
X718157Y424608D01*
X718295Y424616D01*
X718314Y424622D01*
X718334Y424624D01*
X718466Y424672D01*
X718597Y424714D01*
X718615Y424725D01*
X718634Y424732D01*
X718749Y424810D01*
X718866Y424884D01*
X718880Y424899D01*
X718897Y424911D01*
X718989Y425015D01*
X719084Y425116D01*
X719094Y425134D01*
X719107Y425149D01*
X719170Y425273D01*
X719238Y425395D01*
X719243Y425414D01*
X719252Y425432D01*
X719282Y425568D01*
X719317Y425703D01*
X719319Y425731D01*
X719322Y425743D01*
X719321Y425763D01*
X719327Y425863D01*
X719327Y565663D01*
X719310Y565801D01*
X719297Y565940D01*
X719290Y565959D01*
X719287Y565979D01*
X719236Y566108D01*
X719189Y566239D01*
X719178Y566256D01*
X719170Y566275D01*
X719089Y566387D01*
X719011Y566502D01*
X718995Y566516D01*
X718984Y566532D01*
X718876Y566621D01*
X718772Y566713D01*
X718754Y566722D01*
X718739Y566735D01*
X718613Y566794D01*
X718489Y566857D01*
X718469Y566862D01*
X718451Y566870D01*
X718314Y566896D01*
X718179Y566927D01*
X718158Y566926D01*
X718139Y566930D01*
X718000Y566921D01*
X717861Y566917D01*
X717841Y566912D01*
X717821Y566910D01*
X717689Y566868D01*
X717555Y566829D01*
X717538Y566818D01*
X717519Y566812D01*
X717401Y566738D01*
X717281Y566667D01*
X717260Y566649D01*
X717250Y566642D01*
X717236Y566627D01*
X717161Y566561D01*
X716380Y565781D01*
X712489Y564169D01*
X708276Y564169D01*
X704384Y565781D01*
X701406Y568759D01*
X699794Y572651D01*
X699794Y576864D01*
X701406Y580755D01*
X704384Y583734D01*
X708276Y585346D01*
X712489Y585346D01*
X716380Y583734D01*
X717161Y582954D01*
X717270Y582869D01*
X717377Y582780D01*
X717396Y582771D01*
X717412Y582759D01*
X717539Y582704D01*
X717665Y582644D01*
X717685Y582641D01*
X717704Y582632D01*
X717842Y582611D01*
X717978Y582585D01*
X717998Y582586D01*
X718018Y582583D01*
X718157Y582596D01*
X718295Y582604D01*
X718314Y582610D01*
X718334Y582612D01*
X718466Y582660D01*
X718597Y582702D01*
X718615Y582713D01*
X718634Y582720D01*
X718749Y582798D01*
X718866Y582872D01*
X718880Y582887D01*
X718897Y582899D01*
X718989Y583003D01*
X719084Y583104D01*
X719094Y583122D01*
X719107Y583137D01*
X719170Y583261D01*
X719238Y583383D01*
X719243Y583402D01*
X719252Y583420D01*
X719282Y583556D01*
X719317Y583691D01*
X719319Y583719D01*
X719322Y583731D01*
X719321Y583751D01*
X719327Y583851D01*
X719327Y658171D01*
X719327Y658175D01*
X719327Y658178D01*
X719307Y658330D01*
X719287Y658487D01*
X719286Y658490D01*
X719286Y658494D01*
X719228Y658638D01*
X719170Y658783D01*
X719168Y658785D01*
X719167Y658789D01*
X719076Y658912D01*
X718984Y659040D01*
X718981Y659042D01*
X718979Y659045D01*
X718860Y659142D01*
X718739Y659243D01*
X718736Y659244D01*
X718733Y659246D01*
X718591Y659313D01*
X718451Y659378D01*
X718448Y659379D01*
X718444Y659380D01*
X718291Y659409D01*
X718139Y659438D01*
X718135Y659438D01*
X718132Y659439D01*
X717975Y659428D01*
X717821Y659418D01*
X717818Y659417D01*
X717815Y659417D01*
X717665Y659368D01*
X717519Y659320D01*
X717516Y659319D01*
X717512Y659318D01*
X717372Y659239D01*
X716643Y658771D01*
X704716Y655269D01*
X692284Y655269D01*
X680356Y658771D01*
X669899Y665492D01*
X661758Y674887D01*
X656594Y686195D01*
X654824Y698500D01*
X656594Y710805D01*
X657728Y713289D01*
X657770Y713423D01*
X657815Y713555D01*
X657817Y713574D01*
X657823Y713592D01*
X657830Y713732D01*
X657841Y713872D01*
X657838Y713891D01*
X657839Y713910D01*
X657811Y714047D01*
X657788Y714185D01*
X657780Y714203D01*
X657776Y714222D01*
X657715Y714347D01*
X657658Y714476D01*
X657646Y714491D01*
X657638Y714508D01*
X657547Y714615D01*
X657460Y714725D01*
X657445Y714736D01*
X657432Y714751D01*
X657318Y714832D01*
X657206Y714916D01*
X657188Y714924D01*
X657173Y714935D01*
X657042Y714985D01*
X656913Y715039D01*
X656894Y715042D01*
X656876Y715049D01*
X656736Y715065D01*
X656598Y715085D01*
X656572Y715084D01*
X656560Y715085D01*
X656540Y715083D01*
X656437Y715078D01*
X627714Y711981D01*
X627693Y711976D01*
X627624Y711968D01*
X577206Y702857D01*
X577186Y702851D01*
X577118Y702838D01*
X576281Y702624D01*
X571314Y701355D01*
X571313Y701355D01*
X566346Y700086D01*
X561378Y698816D01*
X541507Y693739D01*
X536539Y692470D01*
X531571Y691201D01*
X527478Y690155D01*
X527458Y690147D01*
X527391Y690129D01*
X478781Y673939D01*
X478762Y673930D01*
X478696Y673907D01*
X431365Y654292D01*
X431346Y654282D01*
X431283Y654255D01*
X385471Y631314D01*
X385453Y631302D01*
X385391Y631271D01*
X341331Y605122D01*
X341314Y605109D01*
X341255Y605073D01*
X299172Y575849D01*
X299156Y575835D01*
X299100Y575795D01*
X259208Y543645D01*
X259193Y543629D01*
X259139Y543586D01*
X257860Y542395D01*
X252408Y537318D01*
X252407Y537318D01*
X246955Y532241D01*
X246954Y532241D01*
X245591Y530972D01*
X245591Y530971D01*
X241502Y527164D01*
X240138Y525895D01*
X240138Y525894D01*
X234686Y520818D01*
X234685Y520818D01*
X234685Y520817D01*
X233322Y519548D01*
X229233Y515741D01*
X229232Y515740D01*
X227869Y514471D01*
X222417Y509394D01*
X222416Y509394D01*
X221641Y508673D01*
X221628Y508656D01*
X221577Y508609D01*
X186664Y471111D01*
X186652Y471093D01*
X186605Y471042D01*
X154455Y431150D01*
X154444Y431132D01*
X154401Y431078D01*
X125177Y388995D01*
X125167Y388976D01*
X125128Y388919D01*
X98979Y344859D01*
X98971Y344839D01*
X98936Y344779D01*
X75995Y298967D01*
X75988Y298947D01*
X75958Y298885D01*
X56343Y251554D01*
X56337Y251533D01*
X56311Y251469D01*
X40121Y202859D01*
X40116Y202838D01*
X40095Y202772D01*
X27412Y153132D01*
X27409Y153111D01*
X27393Y153044D01*
X18282Y102626D01*
X18281Y102604D01*
X18269Y102536D01*
X15167Y73766D01*
X15168Y73717D01*
X15160Y73667D01*
X15171Y73558D01*
X15173Y73448D01*
X15186Y73400D01*
X15191Y73351D01*
X15228Y73248D01*
X15257Y73142D01*
X15282Y73099D01*
X15299Y73052D01*
X15361Y72961D01*
X15416Y72866D01*
X15450Y72830D01*
X15478Y72789D01*
X15561Y72717D01*
X15637Y72638D01*
X15680Y72612D01*
X15717Y72579D01*
X15815Y72530D01*
X15909Y72473D01*
X15956Y72458D01*
X16001Y72435D01*
X16108Y72412D01*
X16213Y72380D01*
X16263Y72377D01*
X16312Y72367D01*
X16421Y72370D01*
X16531Y72365D01*
X16580Y72375D01*
X16629Y72377D01*
X16786Y72413D01*
X25534Y74981D01*
X37966Y74981D01*
X49894Y71479D01*
X60351Y64758D01*
X68492Y55363D01*
X73656Y44055D01*
X75426Y31750D01*
X73656Y19445D01*
X70585Y12719D01*
X70563Y12650D01*
X70533Y12585D01*
X70516Y12499D01*
X70490Y12416D01*
X70486Y12343D01*
X70473Y12272D01*
X70478Y12185D01*
X70474Y12098D01*
X70488Y12027D01*
X70492Y11955D01*
X70519Y11872D01*
X70537Y11786D01*
X70568Y11721D01*
X70591Y11653D01*
X70637Y11579D01*
X70675Y11500D01*
X70722Y11445D01*
X70761Y11384D01*
X70824Y11324D01*
X70881Y11257D01*
X70940Y11215D01*
X70992Y11166D01*
X71069Y11124D01*
X71140Y11073D01*
X71208Y11047D01*
X71271Y11012D01*
X71355Y10991D01*
X71437Y10959D01*
X71509Y10951D01*
X71579Y10933D01*
X71739Y10923D01*
X531511Y10923D01*
X531582Y10932D01*
G37*
%LPC*%
G36*
X430441Y386869D02*
X430441Y386869D01*
X427931Y387909D01*
X426009Y389831D01*
X424969Y392341D01*
X424969Y395059D01*
X426009Y397569D01*
X427931Y399491D01*
X430441Y400531D01*
X431997Y400531D01*
X432096Y400543D01*
X432195Y400546D01*
X432253Y400563D01*
X432313Y400571D01*
X432405Y400607D01*
X432500Y400635D01*
X432552Y400665D01*
X432609Y400688D01*
X432689Y400746D01*
X432774Y400796D01*
X432849Y400862D01*
X432866Y400874D01*
X432874Y400884D01*
X432895Y400902D01*
X433460Y401467D01*
X433520Y401545D01*
X433588Y401618D01*
X433617Y401671D01*
X433654Y401718D01*
X433694Y401809D01*
X433742Y401896D01*
X433757Y401955D01*
X433781Y402010D01*
X433796Y402108D01*
X433821Y402204D01*
X433827Y402304D01*
X433831Y402324D01*
X433829Y402337D01*
X433831Y402365D01*
X433831Y478106D01*
X433825Y478155D01*
X433827Y478205D01*
X433805Y478312D01*
X433791Y478421D01*
X433773Y478467D01*
X433763Y478516D01*
X433715Y478615D01*
X433674Y478717D01*
X433645Y478757D01*
X433623Y478802D01*
X433552Y478886D01*
X433488Y478974D01*
X433449Y479006D01*
X433417Y479044D01*
X433327Y479107D01*
X433243Y479177D01*
X433198Y479198D01*
X433157Y479227D01*
X433054Y479266D01*
X432955Y479313D01*
X432906Y479322D01*
X432860Y479340D01*
X432750Y479352D01*
X432643Y479373D01*
X432593Y479369D01*
X432544Y479375D01*
X432435Y479360D01*
X432325Y479353D01*
X432278Y479337D01*
X432229Y479331D01*
X432076Y479278D01*
X428751Y477901D01*
X425012Y477901D01*
X421557Y479332D01*
X418913Y481976D01*
X417483Y485430D01*
X417483Y489169D01*
X418913Y492624D01*
X421557Y495268D01*
X425012Y496698D01*
X427580Y496698D01*
X427717Y496716D01*
X427856Y496729D01*
X427875Y496736D01*
X427895Y496738D01*
X428024Y496789D01*
X428155Y496836D01*
X428172Y496848D01*
X428191Y496855D01*
X428303Y496937D01*
X428418Y497015D01*
X428432Y497030D01*
X428448Y497042D01*
X428537Y497149D01*
X428629Y497254D01*
X428638Y497272D01*
X428651Y497287D01*
X428710Y497413D01*
X428774Y497537D01*
X428778Y497557D01*
X428787Y497575D01*
X428813Y497711D01*
X428843Y497847D01*
X428843Y497867D01*
X428846Y497887D01*
X428838Y498026D01*
X428834Y498165D01*
X428828Y498184D01*
X428827Y498205D01*
X428784Y498336D01*
X428745Y498470D01*
X428735Y498488D01*
X428729Y498507D01*
X428654Y498625D01*
X428584Y498744D01*
X428565Y498766D01*
X428558Y498776D01*
X428544Y498790D01*
X428477Y498865D01*
X420486Y506856D01*
X420398Y506925D01*
X420364Y506956D01*
X420347Y506966D01*
X420269Y507030D01*
X420251Y507039D01*
X420235Y507051D01*
X420107Y507107D01*
X419982Y507166D01*
X419962Y507169D01*
X419943Y507177D01*
X419805Y507199D01*
X419669Y507225D01*
X419649Y507224D01*
X419629Y507227D01*
X419490Y507214D01*
X419352Y507206D01*
X419333Y507199D01*
X419312Y507197D01*
X419181Y507150D01*
X419049Y507108D01*
X419032Y507097D01*
X419013Y507090D01*
X418898Y507012D01*
X418781Y506937D01*
X418767Y506923D01*
X418750Y506911D01*
X418658Y506807D01*
X418563Y506706D01*
X418553Y506688D01*
X418539Y506673D01*
X418476Y506549D01*
X418409Y506427D01*
X418404Y506408D01*
X418395Y506390D01*
X418364Y506254D01*
X418330Y506119D01*
X418328Y506091D01*
X418325Y506079D01*
X418326Y506059D01*
X418323Y506017D01*
X418322Y506011D01*
X418322Y506005D01*
X418319Y505959D01*
X418319Y503391D01*
X416889Y499936D01*
X414245Y497292D01*
X410790Y495861D01*
X407051Y495861D01*
X403597Y497292D01*
X400953Y499936D01*
X399522Y503391D01*
X399522Y507130D01*
X399614Y507351D01*
X399622Y507380D01*
X399635Y507406D01*
X399663Y507533D01*
X399698Y507658D01*
X399698Y507688D01*
X399705Y507716D01*
X399701Y507846D01*
X399703Y507976D01*
X399696Y508005D01*
X399695Y508034D01*
X399659Y508159D01*
X399629Y508285D01*
X399615Y508312D01*
X399607Y508340D01*
X399541Y508451D01*
X399480Y508566D01*
X399460Y508588D01*
X399445Y508614D01*
X399339Y508735D01*
X356964Y551110D01*
X356885Y551171D01*
X356813Y551238D01*
X356760Y551268D01*
X356712Y551305D01*
X356621Y551344D01*
X356535Y551392D01*
X356476Y551407D01*
X356420Y551431D01*
X356322Y551447D01*
X356227Y551471D01*
X356127Y551478D01*
X356106Y551481D01*
X356094Y551480D01*
X356066Y551482D01*
X354533Y551482D01*
X352178Y552457D01*
X352044Y552494D01*
X351911Y552535D01*
X351890Y552536D01*
X351871Y552541D01*
X351731Y552543D01*
X351593Y552550D01*
X351573Y552546D01*
X351553Y552546D01*
X351417Y552514D01*
X351282Y552486D01*
X351263Y552477D01*
X351244Y552472D01*
X351121Y552407D01*
X350996Y552346D01*
X350980Y552333D01*
X350963Y552323D01*
X350860Y552230D01*
X350754Y552139D01*
X350742Y552123D01*
X350727Y552109D01*
X350651Y551993D01*
X350571Y551879D01*
X350564Y551861D01*
X350552Y551844D01*
X350507Y551712D01*
X350458Y551582D01*
X350456Y551562D01*
X350449Y551543D01*
X350438Y551404D01*
X350423Y551266D01*
X350426Y551246D01*
X350424Y551226D01*
X350448Y551089D01*
X350467Y550951D01*
X350476Y550925D01*
X350478Y550912D01*
X350487Y550894D01*
X350519Y550799D01*
X351495Y548444D01*
X351495Y543492D01*
X349600Y538917D01*
X348423Y537740D01*
X348350Y537646D01*
X348271Y537557D01*
X348252Y537521D01*
X348228Y537489D01*
X348180Y537380D01*
X348126Y537273D01*
X348117Y537234D01*
X348101Y537197D01*
X348083Y537079D01*
X348057Y536963D01*
X348058Y536923D01*
X348051Y536883D01*
X348063Y536764D01*
X348066Y536645D01*
X348077Y536606D01*
X348081Y536566D01*
X348122Y536454D01*
X348155Y536340D01*
X348175Y536305D01*
X348189Y536267D01*
X348256Y536168D01*
X348316Y536066D01*
X348356Y536021D01*
X348367Y536004D01*
X348383Y535990D01*
X348423Y535945D01*
X387486Y496882D01*
X387509Y496864D01*
X387528Y496841D01*
X387634Y496767D01*
X387737Y496687D01*
X387764Y496675D01*
X387788Y496658D01*
X387910Y496612D01*
X388029Y496560D01*
X388058Y496556D01*
X388086Y496545D01*
X388215Y496531D01*
X388343Y496511D01*
X388372Y496513D01*
X388402Y496510D01*
X388530Y496528D01*
X388660Y496540D01*
X388687Y496550D01*
X388717Y496555D01*
X388869Y496607D01*
X389091Y496698D01*
X392830Y496698D01*
X396284Y495268D01*
X398928Y492624D01*
X400359Y489169D01*
X400359Y485430D01*
X398928Y481976D01*
X396284Y479332D01*
X392830Y477901D01*
X389091Y477901D01*
X385636Y479332D01*
X382992Y481976D01*
X381561Y485430D01*
X381561Y489169D01*
X381653Y489391D01*
X381661Y489419D01*
X381675Y489446D01*
X381703Y489572D01*
X381737Y489698D01*
X381738Y489727D01*
X381744Y489756D01*
X381740Y489886D01*
X381742Y490016D01*
X381735Y490044D01*
X381735Y490074D01*
X381698Y490198D01*
X381668Y490325D01*
X381654Y490351D01*
X381646Y490379D01*
X381580Y490491D01*
X381519Y490606D01*
X381500Y490628D01*
X381485Y490653D01*
X381378Y490774D01*
X339003Y533149D01*
X338925Y533210D01*
X338853Y533278D01*
X338800Y533307D01*
X338752Y533344D01*
X338661Y533384D01*
X338574Y533431D01*
X338516Y533447D01*
X338460Y533471D01*
X338362Y533486D01*
X338266Y533511D01*
X338166Y533517D01*
X338146Y533520D01*
X338133Y533519D01*
X338105Y533521D01*
X336572Y533521D01*
X334217Y534497D01*
X334083Y534533D01*
X333950Y534574D01*
X333930Y534575D01*
X333910Y534581D01*
X333771Y534583D01*
X333632Y534589D01*
X333613Y534585D01*
X333592Y534586D01*
X333456Y534553D01*
X333321Y534525D01*
X333303Y534516D01*
X333283Y534511D01*
X333160Y534446D01*
X333035Y534385D01*
X333020Y534372D01*
X333002Y534363D01*
X332899Y534269D01*
X332793Y534179D01*
X332782Y534162D01*
X332767Y534149D01*
X332690Y534032D01*
X332610Y533919D01*
X332603Y533900D01*
X332592Y533883D01*
X332547Y533752D01*
X332498Y533622D01*
X332495Y533601D01*
X332489Y533582D01*
X332478Y533444D01*
X332462Y533306D01*
X332465Y533285D01*
X332463Y533265D01*
X332487Y533128D01*
X332507Y532991D01*
X332516Y532964D01*
X332518Y532952D01*
X332526Y532933D01*
X332559Y532838D01*
X333534Y530483D01*
X333534Y525531D01*
X331639Y520957D01*
X330462Y519779D01*
X330389Y519686D01*
X330310Y519596D01*
X330292Y519560D01*
X330267Y519528D01*
X330220Y519419D01*
X330166Y519313D01*
X330157Y519273D01*
X330141Y519236D01*
X330122Y519119D01*
X330096Y519003D01*
X330097Y518962D01*
X330091Y518922D01*
X330102Y518804D01*
X330106Y518685D01*
X330117Y518646D01*
X330121Y518606D01*
X330161Y518493D01*
X330194Y518379D01*
X330215Y518344D01*
X330228Y518306D01*
X330295Y518208D01*
X330356Y518105D01*
X330396Y518060D01*
X330407Y518043D01*
X330422Y518030D01*
X330462Y517984D01*
X369525Y478921D01*
X369549Y478903D01*
X369568Y478881D01*
X369674Y478806D01*
X369777Y478726D01*
X369804Y478715D01*
X369828Y478698D01*
X369949Y478652D01*
X370068Y478600D01*
X370098Y478595D01*
X370125Y478585D01*
X370254Y478571D01*
X370383Y478550D01*
X370412Y478553D01*
X370441Y478550D01*
X370570Y478568D01*
X370699Y478580D01*
X370727Y478590D01*
X370756Y478594D01*
X370909Y478646D01*
X371130Y478738D01*
X374869Y478738D01*
X378324Y477307D01*
X380968Y474663D01*
X382398Y471209D01*
X382398Y467470D01*
X380968Y464015D01*
X378324Y461371D01*
X374869Y459940D01*
X371130Y459940D01*
X367676Y461371D01*
X365032Y464015D01*
X363601Y467470D01*
X363601Y471209D01*
X363693Y471430D01*
X363701Y471459D01*
X363714Y471485D01*
X363742Y471612D01*
X363777Y471737D01*
X363777Y471767D01*
X363784Y471795D01*
X363780Y471925D01*
X363782Y472055D01*
X363775Y472084D01*
X363774Y472113D01*
X363738Y472238D01*
X363708Y472364D01*
X363694Y472391D01*
X363686Y472419D01*
X363620Y472531D01*
X363559Y472646D01*
X363539Y472667D01*
X363524Y472693D01*
X363418Y472814D01*
X321042Y515189D01*
X320964Y515250D01*
X320892Y515317D01*
X320839Y515347D01*
X320791Y515384D01*
X320700Y515423D01*
X320614Y515471D01*
X320555Y515486D01*
X320499Y515510D01*
X320401Y515526D01*
X320306Y515550D01*
X320206Y515557D01*
X320185Y515560D01*
X320173Y515559D01*
X320145Y515561D01*
X318612Y515561D01*
X316257Y516536D01*
X316122Y516573D01*
X315990Y516614D01*
X315969Y516615D01*
X315950Y516620D01*
X315810Y516622D01*
X315672Y516629D01*
X315652Y516625D01*
X315632Y516625D01*
X315496Y516593D01*
X315360Y516565D01*
X315342Y516556D01*
X315323Y516551D01*
X315200Y516486D01*
X315075Y516425D01*
X315059Y516412D01*
X315041Y516402D01*
X314939Y516309D01*
X314833Y516219D01*
X314821Y516202D01*
X314806Y516188D01*
X314730Y516072D01*
X314650Y515958D01*
X314643Y515940D01*
X314631Y515923D01*
X314586Y515791D01*
X314537Y515661D01*
X314535Y515641D01*
X314528Y515622D01*
X314517Y515483D01*
X314502Y515345D01*
X314505Y515325D01*
X314503Y515305D01*
X314527Y515168D01*
X314546Y515030D01*
X314555Y515004D01*
X314557Y514991D01*
X314566Y514973D01*
X314598Y514878D01*
X315574Y512523D01*
X315574Y507571D01*
X313679Y502996D01*
X312502Y501819D01*
X312429Y501725D01*
X312350Y501636D01*
X312331Y501600D01*
X312307Y501568D01*
X312259Y501459D01*
X312205Y501352D01*
X312196Y501313D01*
X312180Y501276D01*
X312162Y501158D01*
X312136Y501042D01*
X312137Y501002D01*
X312130Y500962D01*
X312142Y500843D01*
X312145Y500724D01*
X312156Y500685D01*
X312160Y500645D01*
X312201Y500533D01*
X312234Y500419D01*
X312254Y500384D01*
X312268Y500346D01*
X312335Y500247D01*
X312395Y500145D01*
X312435Y500100D01*
X312446Y500083D01*
X312462Y500069D01*
X312502Y500024D01*
X351565Y460961D01*
X351588Y460943D01*
X351607Y460920D01*
X351713Y460846D01*
X351816Y460766D01*
X351843Y460754D01*
X351867Y460737D01*
X351989Y460691D01*
X352108Y460639D01*
X352137Y460635D01*
X352165Y460624D01*
X352294Y460610D01*
X352422Y460590D01*
X352451Y460592D01*
X352481Y460589D01*
X352609Y460607D01*
X352739Y460619D01*
X352766Y460629D01*
X352796Y460634D01*
X352948Y460686D01*
X353170Y460777D01*
X356909Y460777D01*
X360363Y459347D01*
X363007Y456703D01*
X364438Y453248D01*
X364438Y449509D01*
X363007Y446055D01*
X360363Y443411D01*
X356909Y441980D01*
X353170Y441980D01*
X349715Y443411D01*
X347071Y446055D01*
X345640Y449509D01*
X345640Y453248D01*
X345732Y453470D01*
X345740Y453498D01*
X345754Y453525D01*
X345782Y453651D01*
X345816Y453777D01*
X345817Y453806D01*
X345823Y453835D01*
X345819Y453965D01*
X345821Y454095D01*
X345814Y454123D01*
X345814Y454153D01*
X345777Y454277D01*
X345747Y454404D01*
X345733Y454430D01*
X345725Y454458D01*
X345659Y454570D01*
X345598Y454685D01*
X345579Y454707D01*
X345564Y454732D01*
X345457Y454853D01*
X303082Y497228D01*
X303004Y497289D01*
X302932Y497357D01*
X302879Y497386D01*
X302831Y497423D01*
X302740Y497463D01*
X302653Y497510D01*
X302595Y497525D01*
X302539Y497550D01*
X302441Y497565D01*
X302345Y497590D01*
X302245Y497596D01*
X302225Y497599D01*
X302212Y497598D01*
X302184Y497600D01*
X300651Y497600D01*
X297625Y498853D01*
X297597Y498861D01*
X297570Y498875D01*
X297443Y498903D01*
X297319Y498937D01*
X297289Y498938D01*
X297260Y498944D01*
X297130Y498940D01*
X297001Y498942D01*
X296972Y498935D01*
X296942Y498934D01*
X296818Y498898D01*
X296691Y498868D01*
X296665Y498854D01*
X296636Y498846D01*
X296525Y498780D01*
X296410Y498720D01*
X296388Y498699D01*
X296362Y498684D01*
X296271Y498593D01*
X296175Y498506D01*
X296159Y498481D01*
X296137Y498460D01*
X296071Y498348D01*
X296000Y498240D01*
X295990Y498212D01*
X295975Y498186D01*
X295939Y498062D01*
X295897Y497939D01*
X295895Y497909D01*
X295886Y497881D01*
X295882Y497752D01*
X295872Y497622D01*
X295877Y497593D01*
X295876Y497563D01*
X295904Y497437D01*
X295926Y497309D01*
X295938Y497281D01*
X295945Y497252D01*
X296009Y497105D01*
X296231Y496669D01*
X296811Y494882D01*
X297105Y493026D01*
X297105Y491147D01*
X296811Y489291D01*
X296231Y487503D01*
X295378Y485829D01*
X295225Y485619D01*
X287860Y492984D01*
X287766Y493057D01*
X287677Y493135D01*
X287641Y493154D01*
X287609Y493179D01*
X287500Y493226D01*
X287394Y493280D01*
X287354Y493289D01*
X287317Y493305D01*
X287199Y493324D01*
X287083Y493350D01*
X287043Y493348D01*
X287003Y493355D01*
X286884Y493344D01*
X286765Y493340D01*
X286727Y493329D01*
X286686Y493325D01*
X286574Y493285D01*
X286460Y493252D01*
X286425Y493231D01*
X286387Y493217D01*
X286289Y493151D01*
X286186Y493090D01*
X286141Y493050D01*
X286124Y493039D01*
X286110Y493024D01*
X286065Y492984D01*
X285167Y492085D01*
X285165Y492086D01*
X286064Y492985D01*
X286137Y493079D01*
X286216Y493168D01*
X286234Y493204D01*
X286259Y493236D01*
X286306Y493346D01*
X286360Y493451D01*
X286369Y493491D01*
X286385Y493528D01*
X286404Y493646D01*
X286430Y493762D01*
X286429Y493802D01*
X286435Y493842D01*
X286424Y493961D01*
X286420Y494080D01*
X286409Y494118D01*
X286405Y494159D01*
X286365Y494271D01*
X286332Y494385D01*
X286311Y494420D01*
X286298Y494458D01*
X286231Y494557D01*
X286170Y494659D01*
X286131Y494704D01*
X286119Y494721D01*
X286104Y494735D01*
X286064Y494780D01*
X278699Y502145D01*
X278909Y502297D01*
X280584Y503150D01*
X282371Y503731D01*
X284227Y504025D01*
X286106Y504025D01*
X287962Y503731D01*
X289749Y503150D01*
X290185Y502929D01*
X290213Y502918D01*
X290238Y502903D01*
X290362Y502865D01*
X290484Y502821D01*
X290514Y502818D01*
X290542Y502809D01*
X290671Y502803D01*
X290801Y502791D01*
X290830Y502795D01*
X290860Y502794D01*
X290986Y502820D01*
X291115Y502840D01*
X291142Y502852D01*
X291171Y502858D01*
X291288Y502915D01*
X291407Y502967D01*
X291430Y502985D01*
X291457Y502998D01*
X291556Y503082D01*
X291658Y503161D01*
X291676Y503185D01*
X291699Y503204D01*
X291774Y503310D01*
X291853Y503413D01*
X291865Y503440D01*
X291882Y503464D01*
X291928Y503585D01*
X291980Y503704D01*
X291984Y503734D01*
X291995Y503762D01*
X292009Y503891D01*
X292030Y504018D01*
X292027Y504048D01*
X292030Y504078D01*
X292012Y504206D01*
X292000Y504335D01*
X291990Y504363D01*
X291986Y504393D01*
X291934Y504545D01*
X290680Y507571D01*
X290680Y512523D01*
X292575Y517097D01*
X296077Y520599D01*
X300651Y522494D01*
X305603Y522494D01*
X307958Y521518D01*
X308092Y521481D01*
X308225Y521440D01*
X308245Y521439D01*
X308265Y521434D01*
X308404Y521432D01*
X308543Y521425D01*
X308562Y521429D01*
X308583Y521429D01*
X308719Y521462D01*
X308854Y521490D01*
X308872Y521498D01*
X308892Y521503D01*
X309015Y521568D01*
X309140Y521629D01*
X309155Y521642D01*
X309173Y521652D01*
X309276Y521745D01*
X309382Y521836D01*
X309393Y521852D01*
X309408Y521866D01*
X309485Y521982D01*
X309565Y522096D01*
X309572Y522114D01*
X309583Y522131D01*
X309628Y522263D01*
X309678Y522393D01*
X309680Y522413D01*
X309686Y522432D01*
X309697Y522571D01*
X309713Y522709D01*
X309710Y522729D01*
X309712Y522749D01*
X309688Y522886D01*
X309668Y523024D01*
X309659Y523051D01*
X309657Y523063D01*
X309649Y523081D01*
X309616Y523176D01*
X308641Y525531D01*
X308641Y530483D01*
X310536Y535058D01*
X314037Y538559D01*
X318612Y540454D01*
X323563Y540454D01*
X325919Y539479D01*
X326053Y539442D01*
X326185Y539401D01*
X326206Y539400D01*
X326225Y539395D01*
X326365Y539392D01*
X326503Y539386D01*
X326523Y539390D01*
X326543Y539390D01*
X326679Y539422D01*
X326815Y539450D01*
X326833Y539459D01*
X326852Y539464D01*
X326975Y539529D01*
X327100Y539590D01*
X327116Y539603D01*
X327134Y539612D01*
X327236Y539706D01*
X327342Y539796D01*
X327354Y539813D01*
X327369Y539826D01*
X327445Y539942D01*
X327525Y540056D01*
X327533Y540075D01*
X327544Y540092D01*
X327589Y540224D01*
X327638Y540354D01*
X327640Y540374D01*
X327647Y540393D01*
X327658Y540531D01*
X327673Y540670D01*
X327671Y540690D01*
X327672Y540710D01*
X327648Y540847D01*
X327629Y540985D01*
X327620Y541011D01*
X327618Y541023D01*
X327609Y541042D01*
X327577Y541137D01*
X326601Y543492D01*
X326601Y548444D01*
X328496Y553018D01*
X331998Y556520D01*
X336572Y558415D01*
X341524Y558415D01*
X343879Y557439D01*
X344013Y557402D01*
X344146Y557361D01*
X344166Y557360D01*
X344186Y557355D01*
X344325Y557353D01*
X344464Y557346D01*
X344483Y557350D01*
X344504Y557350D01*
X344640Y557383D01*
X344775Y557411D01*
X344793Y557419D01*
X344813Y557424D01*
X344936Y557489D01*
X345061Y557550D01*
X345076Y557563D01*
X345094Y557573D01*
X345197Y557666D01*
X345303Y557757D01*
X345314Y557773D01*
X345329Y557787D01*
X345406Y557903D01*
X345486Y558017D01*
X345493Y558036D01*
X345504Y558053D01*
X345549Y558184D01*
X345599Y558314D01*
X345601Y558334D01*
X345607Y558353D01*
X345618Y558492D01*
X345634Y558630D01*
X345631Y558650D01*
X345633Y558670D01*
X345609Y558808D01*
X345589Y558945D01*
X345580Y558972D01*
X345578Y558984D01*
X345570Y559002D01*
X345537Y559097D01*
X344562Y561452D01*
X344562Y566404D01*
X346457Y570979D01*
X349958Y574480D01*
X354533Y576375D01*
X359484Y576375D01*
X361840Y575399D01*
X361974Y575363D01*
X362107Y575322D01*
X362127Y575321D01*
X362146Y575316D01*
X362286Y575313D01*
X362424Y575307D01*
X362444Y575311D01*
X362464Y575310D01*
X362600Y575343D01*
X362736Y575371D01*
X362754Y575380D01*
X362774Y575385D01*
X362896Y575450D01*
X363021Y575511D01*
X363037Y575524D01*
X363055Y575533D01*
X363158Y575627D01*
X363263Y575717D01*
X363275Y575734D01*
X363290Y575747D01*
X363366Y575863D01*
X363446Y575977D01*
X363454Y575996D01*
X363465Y576013D01*
X363510Y576145D01*
X363559Y576275D01*
X363561Y576295D01*
X363568Y576314D01*
X363579Y576452D01*
X363594Y576591D01*
X363592Y576611D01*
X363593Y576631D01*
X363569Y576768D01*
X363550Y576905D01*
X363541Y576932D01*
X363539Y576944D01*
X363530Y576963D01*
X363498Y577058D01*
X362522Y579413D01*
X362522Y584365D01*
X364417Y588939D01*
X367919Y592441D01*
X372493Y594336D01*
X377445Y594336D01*
X379800Y593360D01*
X379934Y593323D01*
X380067Y593282D01*
X380087Y593281D01*
X380107Y593276D01*
X380246Y593274D01*
X380385Y593267D01*
X380404Y593271D01*
X380425Y593271D01*
X380561Y593304D01*
X380696Y593332D01*
X380714Y593340D01*
X380734Y593345D01*
X380857Y593410D01*
X380982Y593471D01*
X380997Y593484D01*
X381015Y593494D01*
X381118Y593587D01*
X381224Y593678D01*
X381235Y593694D01*
X381250Y593708D01*
X381327Y593824D01*
X381407Y593938D01*
X381414Y593957D01*
X381425Y593974D01*
X381470Y594105D01*
X381520Y594235D01*
X381522Y594255D01*
X381528Y594274D01*
X381539Y594413D01*
X381555Y594551D01*
X381552Y594571D01*
X381554Y594591D01*
X381530Y594729D01*
X381510Y594866D01*
X381501Y594893D01*
X381499Y594905D01*
X381491Y594923D01*
X381458Y595018D01*
X380483Y597373D01*
X380483Y602325D01*
X382378Y606900D01*
X385879Y610401D01*
X390454Y612296D01*
X395405Y612296D01*
X397761Y611321D01*
X397895Y611284D01*
X398028Y611243D01*
X398048Y611242D01*
X398067Y611237D01*
X398207Y611234D01*
X398345Y611228D01*
X398365Y611232D01*
X398385Y611232D01*
X398521Y611264D01*
X398657Y611292D01*
X398675Y611301D01*
X398695Y611306D01*
X398818Y611371D01*
X398942Y611432D01*
X398958Y611445D01*
X398976Y611454D01*
X399079Y611548D01*
X399184Y611638D01*
X399196Y611655D01*
X399211Y611668D01*
X399288Y611785D01*
X399367Y611898D01*
X399375Y611917D01*
X399386Y611934D01*
X399431Y612066D01*
X399480Y612196D01*
X399482Y612216D01*
X399489Y612235D01*
X399500Y612373D01*
X399515Y612512D01*
X399513Y612532D01*
X399514Y612552D01*
X399490Y612689D01*
X399471Y612827D01*
X399462Y612853D01*
X399460Y612865D01*
X399451Y612884D01*
X399419Y612979D01*
X398443Y615334D01*
X398443Y620286D01*
X400338Y624860D01*
X403840Y628362D01*
X408414Y630257D01*
X413366Y630257D01*
X417941Y628362D01*
X421442Y624860D01*
X423337Y620286D01*
X423337Y615334D01*
X421442Y610759D01*
X417941Y607258D01*
X413366Y605363D01*
X408414Y605363D01*
X406059Y606339D01*
X405925Y606375D01*
X405792Y606416D01*
X405772Y606417D01*
X405752Y606423D01*
X405613Y606425D01*
X405474Y606431D01*
X405455Y606427D01*
X405434Y606428D01*
X405299Y606395D01*
X405163Y606367D01*
X405145Y606358D01*
X405125Y606354D01*
X405002Y606289D01*
X404877Y606227D01*
X404862Y606214D01*
X404844Y606205D01*
X404741Y606111D01*
X404635Y606021D01*
X404624Y606005D01*
X404609Y605991D01*
X404532Y605875D01*
X404452Y605761D01*
X404445Y605742D01*
X404434Y605725D01*
X404389Y605594D01*
X404340Y605464D01*
X404337Y605444D01*
X404331Y605424D01*
X404320Y605286D01*
X404304Y605148D01*
X404307Y605128D01*
X404305Y605107D01*
X404329Y604970D01*
X404349Y604833D01*
X404358Y604806D01*
X404360Y604794D01*
X404368Y604775D01*
X404401Y604680D01*
X405376Y602325D01*
X405376Y597373D01*
X403931Y593885D01*
X403923Y593856D01*
X403910Y593830D01*
X403881Y593703D01*
X403847Y593578D01*
X403847Y593548D01*
X403840Y593519D01*
X403844Y593390D01*
X403842Y593260D01*
X403849Y593231D01*
X403850Y593202D01*
X403886Y593077D01*
X403916Y592951D01*
X403930Y592924D01*
X403938Y592896D01*
X404004Y592784D01*
X404065Y592669D01*
X404085Y592648D01*
X404100Y592622D01*
X404206Y592501D01*
X436119Y560589D01*
X436119Y548814D01*
X436136Y548676D01*
X436149Y548538D01*
X436156Y548519D01*
X436159Y548499D01*
X436210Y548369D01*
X436257Y548239D01*
X436268Y548222D01*
X436276Y548203D01*
X436357Y548091D01*
X436435Y547975D01*
X436451Y547962D01*
X436462Y547946D01*
X436570Y547857D01*
X436674Y547765D01*
X436692Y547756D01*
X436707Y547743D01*
X436833Y547684D01*
X436957Y547620D01*
X436977Y547616D01*
X436995Y547607D01*
X437132Y547581D01*
X437267Y547551D01*
X437288Y547551D01*
X437307Y547548D01*
X437446Y547556D01*
X437585Y547560D01*
X437605Y547566D01*
X437625Y547567D01*
X437757Y547610D01*
X437891Y547649D01*
X437908Y547659D01*
X437927Y547665D01*
X438045Y547740D01*
X438165Y547810D01*
X438186Y547829D01*
X438196Y547835D01*
X438210Y547850D01*
X438285Y547917D01*
X439518Y549149D01*
X442972Y550580D01*
X446711Y550580D01*
X450166Y549149D01*
X452810Y546505D01*
X454241Y543051D01*
X454241Y539312D01*
X452810Y535857D01*
X450166Y533213D01*
X446711Y531783D01*
X442967Y531783D01*
X442916Y531797D01*
X442851Y531824D01*
X442763Y531838D01*
X442676Y531862D01*
X442606Y531863D01*
X442537Y531874D01*
X442448Y531866D01*
X442358Y531867D01*
X442290Y531851D01*
X442221Y531844D01*
X442136Y531814D01*
X442049Y531793D01*
X441987Y531760D01*
X441921Y531737D01*
X441847Y531686D01*
X441768Y531644D01*
X441716Y531597D01*
X441658Y531558D01*
X441599Y531491D01*
X441532Y531430D01*
X441494Y531372D01*
X441448Y531320D01*
X441407Y531240D01*
X441358Y531165D01*
X441335Y531099D01*
X441303Y531036D01*
X441284Y530949D01*
X441254Y530864D01*
X441249Y530794D01*
X441234Y530726D01*
X441236Y530636D01*
X441229Y530547D01*
X441241Y530478D01*
X441243Y530408D01*
X441268Y530322D01*
X441284Y530234D01*
X441312Y530170D01*
X441332Y530103D01*
X441377Y530025D01*
X441414Y529944D01*
X441458Y529889D01*
X441493Y529829D01*
X441600Y529708D01*
X458305Y513003D01*
X458305Y499684D01*
X455540Y496920D01*
X455480Y496841D01*
X455412Y496769D01*
X455383Y496716D01*
X455346Y496668D01*
X455306Y496577D01*
X455258Y496491D01*
X455243Y496432D01*
X455219Y496376D01*
X455204Y496278D01*
X455179Y496183D01*
X455173Y496083D01*
X455169Y496062D01*
X455171Y496050D01*
X455169Y496022D01*
X455169Y424967D01*
X455181Y424869D01*
X455184Y424770D01*
X455201Y424712D01*
X455209Y424652D01*
X455245Y424559D01*
X455273Y424464D01*
X455303Y424412D01*
X455326Y424356D01*
X455384Y424276D01*
X455434Y424190D01*
X455500Y424115D01*
X455512Y424099D01*
X455522Y424091D01*
X455540Y424070D01*
X456641Y422969D01*
X457681Y420459D01*
X457681Y417741D01*
X456641Y415231D01*
X454719Y413309D01*
X452209Y412269D01*
X449491Y412269D01*
X446981Y413309D01*
X445059Y415231D01*
X444911Y415589D01*
X444876Y415650D01*
X444850Y415715D01*
X444798Y415788D01*
X444753Y415866D01*
X444705Y415916D01*
X444664Y415972D01*
X444594Y416030D01*
X444532Y416094D01*
X444472Y416131D01*
X444419Y416175D01*
X444337Y416213D01*
X444261Y416260D01*
X444194Y416281D01*
X444131Y416311D01*
X444043Y416327D01*
X443957Y416354D01*
X443887Y416357D01*
X443818Y416370D01*
X443729Y416365D01*
X443639Y416369D01*
X443571Y416355D01*
X443501Y416351D01*
X443416Y416323D01*
X443328Y416305D01*
X443265Y416274D01*
X443199Y416253D01*
X443123Y416205D01*
X443042Y416165D01*
X442989Y416120D01*
X442930Y416082D01*
X442868Y416017D01*
X442800Y415959D01*
X442760Y415902D01*
X442712Y415851D01*
X442669Y415772D01*
X442617Y415699D01*
X442592Y415633D01*
X442558Y415572D01*
X442536Y415485D01*
X442504Y415401D01*
X442496Y415332D01*
X442479Y415264D01*
X442469Y415104D01*
X442469Y398261D01*
X439002Y394795D01*
X438942Y394717D01*
X438874Y394644D01*
X438845Y394591D01*
X438808Y394544D01*
X438768Y394453D01*
X438720Y394366D01*
X438705Y394307D01*
X438681Y394252D01*
X438666Y394154D01*
X438641Y394058D01*
X438635Y393958D01*
X438631Y393938D01*
X438633Y393925D01*
X438631Y393897D01*
X438631Y392341D01*
X437591Y389831D01*
X435669Y387909D01*
X433159Y386869D01*
X430441Y386869D01*
G37*
%LPD*%
%LPC*%
G36*
X576491Y297969D02*
X576491Y297969D01*
X573981Y299009D01*
X572059Y300931D01*
X571019Y303441D01*
X571019Y304997D01*
X571007Y305096D01*
X571004Y305195D01*
X570987Y305253D01*
X570979Y305313D01*
X570943Y305405D01*
X570915Y305500D01*
X570885Y305552D01*
X570862Y305609D01*
X570804Y305689D01*
X570754Y305774D01*
X570688Y305849D01*
X570676Y305866D01*
X570666Y305874D01*
X570648Y305895D01*
X541781Y334761D01*
X541781Y349733D01*
X541769Y349831D01*
X541766Y349930D01*
X541749Y349988D01*
X541741Y350048D01*
X541705Y350141D01*
X541677Y350236D01*
X541647Y350288D01*
X541624Y350344D01*
X541566Y350424D01*
X541516Y350510D01*
X541450Y350585D01*
X541438Y350601D01*
X541428Y350609D01*
X541410Y350630D01*
X540309Y351731D01*
X539269Y354241D01*
X539269Y356959D01*
X540309Y359469D01*
X542231Y361391D01*
X544741Y362431D01*
X547459Y362431D01*
X549677Y361512D01*
X549745Y361493D01*
X549809Y361466D01*
X549897Y361451D01*
X549984Y361428D01*
X550054Y361427D01*
X550123Y361416D01*
X550212Y361424D01*
X550302Y361423D01*
X550370Y361439D01*
X550439Y361446D01*
X550524Y361476D01*
X550611Y361497D01*
X550673Y361530D01*
X550739Y361553D01*
X550813Y361604D01*
X550892Y361646D01*
X550944Y361692D01*
X551002Y361732D01*
X551061Y361799D01*
X551128Y361860D01*
X551166Y361918D01*
X551212Y361970D01*
X551253Y362050D01*
X551303Y362125D01*
X551325Y362191D01*
X551357Y362253D01*
X551377Y362341D01*
X551406Y362426D01*
X551411Y362496D01*
X551427Y362564D01*
X551424Y362653D01*
X551431Y362743D01*
X551419Y362812D01*
X551417Y362882D01*
X551392Y362968D01*
X551377Y363056D01*
X551348Y363120D01*
X551328Y363187D01*
X551283Y363264D01*
X551246Y363346D01*
X551202Y363401D01*
X551167Y363461D01*
X551061Y363582D01*
X530980Y383663D01*
X530901Y383723D01*
X530829Y383791D01*
X530776Y383820D01*
X530728Y383858D01*
X530638Y383897D01*
X530551Y383945D01*
X530492Y383960D01*
X530437Y383984D01*
X530339Y383999D01*
X530243Y384024D01*
X530143Y384031D01*
X530123Y384034D01*
X530110Y384033D01*
X530082Y384034D01*
X511107Y384034D01*
X508665Y386477D01*
X508609Y386520D01*
X508561Y386570D01*
X508484Y386617D01*
X508413Y386672D01*
X508349Y386700D01*
X508290Y386736D01*
X508204Y386763D01*
X508122Y386798D01*
X508053Y386809D01*
X507986Y386830D01*
X507896Y386834D01*
X507807Y386848D01*
X507738Y386842D01*
X507668Y386845D01*
X507580Y386827D01*
X507491Y386818D01*
X507425Y386795D01*
X507357Y386781D01*
X507276Y386741D01*
X507192Y386711D01*
X507134Y386672D01*
X507071Y386641D01*
X507003Y386583D01*
X506928Y386532D01*
X506882Y386480D01*
X506829Y386435D01*
X506777Y386361D01*
X506718Y386294D01*
X506686Y386232D01*
X506646Y386175D01*
X506614Y386091D01*
X506573Y386011D01*
X506558Y385942D01*
X506533Y385877D01*
X506523Y385788D01*
X506504Y385700D01*
X506506Y385630D01*
X506498Y385561D01*
X506511Y385472D01*
X506513Y385382D01*
X506533Y385315D01*
X506543Y385246D01*
X506595Y385094D01*
X508122Y381406D01*
X508122Y377667D01*
X506691Y374213D01*
X504047Y371569D01*
X500593Y370138D01*
X496854Y370138D01*
X493399Y371569D01*
X490755Y374213D01*
X489325Y377667D01*
X489325Y381406D01*
X490755Y384861D01*
X493399Y387505D01*
X496854Y388935D01*
X500593Y388935D01*
X504280Y387408D01*
X504348Y387390D01*
X504412Y387362D01*
X504501Y387348D01*
X504587Y387324D01*
X504657Y387323D01*
X504726Y387312D01*
X504815Y387320D01*
X504905Y387319D01*
X504973Y387335D01*
X505043Y387342D01*
X505127Y387372D01*
X505214Y387393D01*
X505276Y387426D01*
X505342Y387449D01*
X505416Y387500D01*
X505496Y387542D01*
X505547Y387589D01*
X505605Y387628D01*
X505665Y387695D01*
X505731Y387756D01*
X505769Y387814D01*
X505815Y387866D01*
X505856Y387946D01*
X505906Y388021D01*
X505928Y388088D01*
X505960Y388150D01*
X505980Y388237D01*
X506009Y388322D01*
X506014Y388392D01*
X506030Y388460D01*
X506027Y388550D01*
X506034Y388639D01*
X506022Y388708D01*
X506020Y388778D01*
X505995Y388864D01*
X505980Y388953D01*
X505951Y389016D01*
X505932Y389083D01*
X505886Y389161D01*
X505849Y389243D01*
X505806Y389297D01*
X505770Y389357D01*
X505664Y389478D01*
X490704Y404437D01*
X490704Y404438D01*
X487703Y407439D01*
X485261Y409881D01*
X485261Y422506D01*
X485248Y422604D01*
X485245Y422703D01*
X485228Y422762D01*
X485221Y422822D01*
X485184Y422914D01*
X485157Y423009D01*
X485126Y423061D01*
X485104Y423117D01*
X485046Y423197D01*
X484995Y423283D01*
X484929Y423358D01*
X484917Y423375D01*
X484907Y423382D01*
X484889Y423404D01*
X470995Y437298D01*
X470917Y437358D01*
X470844Y437426D01*
X470791Y437455D01*
X470744Y437492D01*
X470653Y437532D01*
X470566Y437580D01*
X470507Y437595D01*
X470452Y437619D01*
X470354Y437634D01*
X470258Y437659D01*
X470158Y437665D01*
X470138Y437669D01*
X470125Y437667D01*
X470097Y437669D01*
X468541Y437669D01*
X466031Y438709D01*
X464109Y440631D01*
X463069Y443141D01*
X463069Y445859D01*
X464109Y448369D01*
X466031Y450291D01*
X468541Y451331D01*
X471259Y451331D01*
X473769Y450291D01*
X475691Y448369D01*
X476731Y445859D01*
X476731Y444303D01*
X476743Y444204D01*
X476746Y444105D01*
X476763Y444047D01*
X476771Y443987D01*
X476807Y443895D01*
X476835Y443800D01*
X476865Y443748D01*
X476888Y443691D01*
X476946Y443611D01*
X476996Y443526D01*
X477062Y443451D01*
X477074Y443434D01*
X477084Y443426D01*
X477102Y443405D01*
X493898Y426610D01*
X493898Y425532D01*
X493904Y425482D01*
X493902Y425433D01*
X493924Y425325D01*
X493938Y425216D01*
X493956Y425170D01*
X493966Y425121D01*
X494014Y425023D01*
X494055Y424920D01*
X494084Y424880D01*
X494106Y424836D01*
X494177Y424752D01*
X494242Y424663D01*
X494280Y424631D01*
X494312Y424594D01*
X494402Y424530D01*
X494487Y424460D01*
X494532Y424439D01*
X494572Y424410D01*
X494675Y424371D01*
X494774Y424325D01*
X494823Y424315D01*
X494870Y424298D01*
X494979Y424286D01*
X495087Y424265D01*
X495136Y424268D01*
X495186Y424262D01*
X495295Y424278D01*
X495404Y424285D01*
X495451Y424300D01*
X495501Y424307D01*
X495653Y424359D01*
X496854Y424856D01*
X500593Y424856D01*
X504047Y423426D01*
X506691Y420782D01*
X508122Y417327D01*
X508122Y413588D01*
X506691Y410134D01*
X504047Y407490D01*
X502846Y406992D01*
X502803Y406968D01*
X502757Y406951D01*
X502666Y406889D01*
X502570Y406835D01*
X502535Y406800D01*
X502493Y406772D01*
X502421Y406690D01*
X502342Y406614D01*
X502316Y406571D01*
X502283Y406534D01*
X502233Y406436D01*
X502176Y406342D01*
X502161Y406295D01*
X502138Y406251D01*
X502114Y406143D01*
X502082Y406039D01*
X502080Y405989D01*
X502069Y405940D01*
X502072Y405830D01*
X502067Y405721D01*
X502077Y405672D01*
X502078Y405623D01*
X502109Y405517D01*
X502131Y405409D01*
X502153Y405365D01*
X502167Y405317D01*
X502222Y405223D01*
X502271Y405124D01*
X502303Y405086D01*
X502328Y405043D01*
X502435Y404922D01*
X506148Y401209D01*
X506188Y401178D01*
X506221Y401141D01*
X506313Y401081D01*
X506400Y401014D01*
X506445Y400994D01*
X506487Y400967D01*
X506591Y400931D01*
X506692Y400887D01*
X506741Y400879D01*
X506788Y400863D01*
X506897Y400855D01*
X507006Y400837D01*
X507055Y400842D01*
X507105Y400838D01*
X507213Y400857D01*
X507322Y400867D01*
X507369Y400884D01*
X507418Y400893D01*
X507518Y400938D01*
X507622Y400975D01*
X507663Y401003D01*
X507708Y401023D01*
X507794Y401092D01*
X507885Y401153D01*
X507918Y401191D01*
X507956Y401222D01*
X508023Y401310D01*
X508095Y401392D01*
X508118Y401436D01*
X508148Y401476D01*
X508219Y401620D01*
X508716Y402821D01*
X511360Y405465D01*
X514814Y406896D01*
X518553Y406896D01*
X522008Y405465D01*
X524652Y402821D01*
X526083Y399367D01*
X526083Y395628D01*
X525585Y394427D01*
X525572Y394379D01*
X525551Y394334D01*
X525530Y394226D01*
X525501Y394120D01*
X525500Y394070D01*
X525491Y394022D01*
X525498Y393912D01*
X525496Y393802D01*
X525508Y393754D01*
X525511Y393704D01*
X525545Y393600D01*
X525570Y393493D01*
X525594Y393449D01*
X525609Y393402D01*
X525668Y393309D01*
X525719Y393212D01*
X525752Y393175D01*
X525779Y393133D01*
X525859Y393058D01*
X525933Y392976D01*
X525974Y392949D01*
X526011Y392915D01*
X526107Y392862D01*
X526199Y392802D01*
X526246Y392785D01*
X526289Y392762D01*
X526395Y392734D01*
X526499Y392698D01*
X526549Y392694D01*
X526597Y392682D01*
X526758Y392672D01*
X534186Y392672D01*
X602155Y324702D01*
X602233Y324642D01*
X602306Y324574D01*
X602359Y324545D01*
X602406Y324508D01*
X602497Y324468D01*
X602584Y324420D01*
X602643Y324405D01*
X602698Y324381D01*
X602796Y324366D01*
X602892Y324341D01*
X602992Y324335D01*
X603012Y324331D01*
X603025Y324333D01*
X603053Y324331D01*
X604609Y324331D01*
X607119Y323291D01*
X609041Y321369D01*
X610081Y318859D01*
X610081Y316141D01*
X609041Y313631D01*
X607119Y311709D01*
X604609Y310669D01*
X601891Y310669D01*
X599381Y311709D01*
X597459Y313631D01*
X596419Y316141D01*
X596419Y317697D01*
X596407Y317796D01*
X596404Y317895D01*
X596387Y317953D01*
X596379Y318013D01*
X596343Y318105D01*
X596315Y318200D01*
X596285Y318252D01*
X596262Y318309D01*
X596204Y318389D01*
X596154Y318474D01*
X596088Y318549D01*
X596076Y318566D01*
X596066Y318574D01*
X596048Y318595D01*
X554082Y360561D01*
X554027Y360603D01*
X553978Y360653D01*
X553902Y360700D01*
X553831Y360755D01*
X553766Y360783D01*
X553707Y360820D01*
X553621Y360846D01*
X553539Y360882D01*
X553470Y360893D01*
X553403Y360913D01*
X553314Y360918D01*
X553225Y360932D01*
X553155Y360925D01*
X553085Y360928D01*
X552998Y360910D01*
X552908Y360902D01*
X552842Y360878D01*
X552774Y360864D01*
X552693Y360825D01*
X552609Y360794D01*
X552551Y360755D01*
X552488Y360724D01*
X552420Y360666D01*
X552346Y360616D01*
X552299Y360563D01*
X552246Y360518D01*
X552195Y360445D01*
X552135Y360377D01*
X552103Y360315D01*
X552063Y360258D01*
X552031Y360174D01*
X551991Y360094D01*
X551975Y360026D01*
X551950Y359961D01*
X551941Y359871D01*
X551921Y359784D01*
X551923Y359714D01*
X551915Y359645D01*
X551928Y359556D01*
X551931Y359466D01*
X551950Y359399D01*
X551960Y359330D01*
X552012Y359177D01*
X552931Y356959D01*
X552931Y354241D01*
X551891Y351731D01*
X550790Y350630D01*
X550730Y350552D01*
X550662Y350480D01*
X550633Y350427D01*
X550596Y350379D01*
X550556Y350288D01*
X550508Y350202D01*
X550493Y350143D01*
X550469Y350087D01*
X550454Y349989D01*
X550429Y349894D01*
X550423Y349794D01*
X550419Y349773D01*
X550421Y349761D01*
X550419Y349733D01*
X550419Y338865D01*
X550431Y338766D01*
X550434Y338667D01*
X550451Y338609D01*
X550459Y338549D01*
X550495Y338457D01*
X550523Y338362D01*
X550553Y338310D01*
X550576Y338253D01*
X550634Y338173D01*
X550684Y338088D01*
X550750Y338013D01*
X550762Y337996D01*
X550772Y337988D01*
X550790Y337967D01*
X576755Y312002D01*
X576833Y311942D01*
X576906Y311874D01*
X576959Y311845D01*
X577006Y311808D01*
X577097Y311768D01*
X577184Y311720D01*
X577243Y311705D01*
X577298Y311681D01*
X577396Y311666D01*
X577492Y311641D01*
X577592Y311635D01*
X577612Y311631D01*
X577625Y311633D01*
X577653Y311631D01*
X579209Y311631D01*
X581719Y310591D01*
X583641Y308669D01*
X584681Y306159D01*
X584681Y303441D01*
X583641Y300931D01*
X581719Y299009D01*
X579209Y297969D01*
X576491Y297969D01*
G37*
%LPD*%
%LPC*%
G36*
X631770Y619766D02*
X631770Y619766D01*
X624534Y621705D01*
X618047Y625450D01*
X612750Y630747D01*
X609005Y637234D01*
X607066Y644470D01*
X607066Y651960D01*
X609005Y659196D01*
X612750Y665683D01*
X618047Y670980D01*
X624534Y674725D01*
X631770Y676664D01*
X639260Y676664D01*
X646496Y674725D01*
X652983Y670980D01*
X658280Y665683D01*
X662025Y659196D01*
X663964Y651960D01*
X663964Y644470D01*
X662025Y637234D01*
X658280Y630747D01*
X652983Y625450D01*
X646496Y621705D01*
X639260Y619766D01*
X631770Y619766D01*
G37*
%LPD*%
%LPC*%
G36*
X481241Y107469D02*
X481241Y107469D01*
X478731Y108509D01*
X476809Y110431D01*
X475769Y112941D01*
X475769Y114138D01*
X475757Y114236D01*
X475754Y114335D01*
X475737Y114394D01*
X475729Y114454D01*
X475693Y114546D01*
X475665Y114641D01*
X475635Y114693D01*
X475612Y114749D01*
X475554Y114829D01*
X475504Y114915D01*
X475438Y114990D01*
X475426Y115007D01*
X475416Y115015D01*
X475398Y115036D01*
X467288Y123145D01*
X467210Y123206D01*
X467138Y123274D01*
X467085Y123303D01*
X467037Y123340D01*
X466946Y123379D01*
X466859Y123427D01*
X466801Y123442D01*
X466745Y123466D01*
X466647Y123482D01*
X466551Y123507D01*
X466451Y123513D01*
X466431Y123516D01*
X466419Y123515D01*
X466391Y123517D01*
X256403Y123517D01*
X256374Y123513D01*
X256344Y123515D01*
X256217Y123493D01*
X256088Y123477D01*
X256060Y123466D01*
X256031Y123461D01*
X255913Y123408D01*
X255792Y123360D01*
X255768Y123343D01*
X255741Y123330D01*
X255640Y123249D01*
X255535Y123173D01*
X255516Y123150D01*
X255493Y123132D01*
X255415Y123028D01*
X255332Y122928D01*
X255319Y122901D01*
X255301Y122878D01*
X255249Y122770D01*
X252600Y120122D01*
X249146Y118691D01*
X245407Y118691D01*
X241952Y120122D01*
X239308Y122766D01*
X237877Y126220D01*
X237877Y129959D01*
X239308Y133413D01*
X241952Y136057D01*
X245407Y137488D01*
X249146Y137488D01*
X252600Y136057D01*
X255249Y133408D01*
X255254Y133392D01*
X255324Y133282D01*
X255388Y133170D01*
X255409Y133148D01*
X255424Y133123D01*
X255519Y133034D01*
X255609Y132941D01*
X255635Y132926D01*
X255656Y132905D01*
X255770Y132843D01*
X255880Y132775D01*
X255909Y132766D01*
X255935Y132752D01*
X256060Y132719D01*
X256184Y132681D01*
X256214Y132680D01*
X256243Y132672D01*
X256403Y132662D01*
X470705Y132662D01*
X481864Y121502D01*
X481943Y121442D01*
X482015Y121374D01*
X482068Y121345D01*
X482116Y121308D01*
X482207Y121268D01*
X482293Y121220D01*
X482352Y121205D01*
X482407Y121181D01*
X482505Y121166D01*
X482601Y121141D01*
X482701Y121135D01*
X482722Y121131D01*
X482734Y121133D01*
X482762Y121131D01*
X483959Y121131D01*
X486469Y120091D01*
X488391Y118169D01*
X489431Y115659D01*
X489431Y112941D01*
X488391Y110431D01*
X486469Y108509D01*
X483959Y107469D01*
X481241Y107469D01*
G37*
%LPD*%
%LPC*%
G36*
X425012Y298296D02*
X425012Y298296D01*
X421557Y299727D01*
X418913Y302371D01*
X417483Y305825D01*
X417483Y309564D01*
X418913Y313019D01*
X421557Y315662D01*
X425012Y317093D01*
X428751Y317093D01*
X432205Y315662D01*
X434849Y313019D01*
X434941Y312797D01*
X434956Y312771D01*
X434965Y312743D01*
X435034Y312633D01*
X435098Y312521D01*
X435119Y312499D01*
X435135Y312474D01*
X435229Y312385D01*
X435320Y312292D01*
X435345Y312277D01*
X435366Y312257D01*
X435480Y312194D01*
X435591Y312126D01*
X435619Y312117D01*
X435645Y312103D01*
X435771Y312071D01*
X435895Y312032D01*
X435924Y312031D01*
X435953Y312024D01*
X436114Y312013D01*
X470480Y312013D01*
X470578Y312026D01*
X470677Y312029D01*
X470735Y312046D01*
X470795Y312053D01*
X470888Y312090D01*
X470983Y312117D01*
X471035Y312148D01*
X471091Y312170D01*
X471171Y312228D01*
X471257Y312279D01*
X471332Y312345D01*
X471349Y312357D01*
X471356Y312366D01*
X471377Y312385D01*
X494448Y335455D01*
X494508Y335533D01*
X494576Y335606D01*
X494605Y335659D01*
X494642Y335706D01*
X494682Y335797D01*
X494730Y335884D01*
X494745Y335943D01*
X494769Y335998D01*
X494784Y336096D01*
X494809Y336192D01*
X494815Y336292D01*
X494819Y336312D01*
X494817Y336325D01*
X494819Y336353D01*
X494819Y337909D01*
X495859Y340419D01*
X497781Y342341D01*
X500291Y343381D01*
X503009Y343381D01*
X505519Y342341D01*
X507441Y340419D01*
X508481Y337909D01*
X508481Y335191D01*
X507441Y332681D01*
X505519Y330759D01*
X503009Y329719D01*
X501453Y329719D01*
X501354Y329707D01*
X501255Y329704D01*
X501197Y329687D01*
X501137Y329679D01*
X501045Y329643D01*
X500950Y329615D01*
X500898Y329585D01*
X500841Y329562D01*
X500761Y329504D01*
X500676Y329454D01*
X500601Y329388D01*
X500584Y329376D01*
X500576Y329366D01*
X500555Y329348D01*
X474583Y303376D01*
X436114Y303376D01*
X436084Y303372D01*
X436055Y303375D01*
X435927Y303352D01*
X435798Y303336D01*
X435771Y303325D01*
X435742Y303320D01*
X435623Y303267D01*
X435502Y303219D01*
X435478Y303202D01*
X435452Y303190D01*
X435350Y303108D01*
X435245Y303032D01*
X435226Y303009D01*
X435203Y302991D01*
X435125Y302887D01*
X435042Y302787D01*
X435030Y302760D01*
X435012Y302737D01*
X434941Y302592D01*
X434849Y302371D01*
X432205Y299727D01*
X428751Y298296D01*
X425012Y298296D01*
G37*
%LPD*%
%LPC*%
G36*
X503387Y542851D02*
X503387Y542851D01*
X499186Y544591D01*
X495970Y547807D01*
X494230Y552008D01*
X494230Y556555D01*
X495970Y560757D01*
X511040Y575826D01*
X515241Y577566D01*
X519788Y577566D01*
X523990Y575826D01*
X527205Y572611D01*
X528945Y568409D01*
X528945Y563862D01*
X527205Y559661D01*
X512136Y544591D01*
X507934Y542851D01*
X503387Y542851D01*
G37*
%LPD*%
%LPC*%
G36*
X539308Y506930D02*
X539308Y506930D01*
X535107Y508670D01*
X531891Y511886D01*
X530151Y516087D01*
X530151Y520634D01*
X531891Y524836D01*
X546961Y539905D01*
X551162Y541645D01*
X555709Y541645D01*
X559911Y539905D01*
X563126Y536690D01*
X564866Y532488D01*
X564866Y527941D01*
X563126Y523740D01*
X548057Y508670D01*
X543855Y506930D01*
X539308Y506930D01*
G37*
%LPD*%
%LPC*%
G36*
X544741Y297969D02*
X544741Y297969D01*
X542231Y299009D01*
X540309Y300931D01*
X539269Y303441D01*
X539269Y304997D01*
X539257Y305096D01*
X539254Y305195D01*
X539237Y305253D01*
X539229Y305313D01*
X539193Y305405D01*
X539165Y305500D01*
X539135Y305552D01*
X539112Y305609D01*
X539054Y305689D01*
X539004Y305774D01*
X538938Y305849D01*
X538926Y305866D01*
X538916Y305874D01*
X538898Y305895D01*
X522731Y322061D01*
X522731Y349733D01*
X522719Y349831D01*
X522716Y349930D01*
X522699Y349988D01*
X522691Y350048D01*
X522655Y350141D01*
X522627Y350236D01*
X522597Y350288D01*
X522574Y350344D01*
X522516Y350424D01*
X522466Y350510D01*
X522400Y350585D01*
X522388Y350601D01*
X522378Y350609D01*
X522360Y350630D01*
X521259Y351731D01*
X520219Y354241D01*
X520219Y356959D01*
X521259Y359469D01*
X523181Y361391D01*
X525691Y362431D01*
X528409Y362431D01*
X530919Y361391D01*
X532841Y359469D01*
X533881Y356959D01*
X533881Y354241D01*
X532841Y351731D01*
X531740Y350630D01*
X531680Y350552D01*
X531612Y350480D01*
X531583Y350427D01*
X531546Y350379D01*
X531506Y350288D01*
X531458Y350202D01*
X531443Y350143D01*
X531419Y350087D01*
X531404Y349989D01*
X531379Y349894D01*
X531373Y349794D01*
X531369Y349773D01*
X531371Y349761D01*
X531369Y349733D01*
X531369Y326165D01*
X531381Y326066D01*
X531384Y325967D01*
X531401Y325909D01*
X531409Y325849D01*
X531445Y325757D01*
X531473Y325662D01*
X531503Y325610D01*
X531526Y325553D01*
X531584Y325473D01*
X531634Y325388D01*
X531700Y325313D01*
X531712Y325296D01*
X531722Y325288D01*
X531740Y325267D01*
X545005Y312002D01*
X545083Y311942D01*
X545156Y311874D01*
X545209Y311845D01*
X545256Y311808D01*
X545347Y311768D01*
X545434Y311720D01*
X545493Y311705D01*
X545548Y311681D01*
X545646Y311666D01*
X545742Y311641D01*
X545842Y311635D01*
X545862Y311631D01*
X545875Y311633D01*
X545903Y311631D01*
X547459Y311631D01*
X549969Y310591D01*
X551891Y308669D01*
X552931Y306159D01*
X552931Y303441D01*
X551891Y300931D01*
X549969Y299009D01*
X547459Y297969D01*
X544741Y297969D01*
G37*
%LPD*%
%LPC*%
G36*
X676272Y564169D02*
X676272Y564169D01*
X672380Y565781D01*
X669402Y568759D01*
X667790Y572651D01*
X667790Y576864D01*
X669402Y580755D01*
X672380Y583734D01*
X676272Y585346D01*
X680485Y585346D01*
X684376Y583734D01*
X687355Y580755D01*
X688967Y576864D01*
X688967Y572651D01*
X687355Y568759D01*
X684376Y565781D01*
X680485Y564169D01*
X676272Y564169D01*
G37*
%LPD*%
%LPC*%
G36*
X676272Y406181D02*
X676272Y406181D01*
X672380Y407793D01*
X669402Y410771D01*
X667790Y414663D01*
X667790Y418876D01*
X669402Y422767D01*
X672380Y425746D01*
X676272Y427358D01*
X680485Y427358D01*
X684376Y425746D01*
X687355Y422767D01*
X688967Y418876D01*
X688967Y414663D01*
X687355Y410771D01*
X684376Y407793D01*
X680485Y406181D01*
X676272Y406181D01*
G37*
%LPD*%
%LPC*%
G36*
X692274Y485175D02*
X692274Y485175D01*
X688382Y486787D01*
X685404Y489765D01*
X683792Y493657D01*
X683792Y497870D01*
X685404Y501761D01*
X688382Y504740D01*
X692274Y506352D01*
X696487Y506352D01*
X700378Y504740D01*
X703357Y501761D01*
X704969Y497870D01*
X704969Y493657D01*
X703357Y489765D01*
X700378Y486787D01*
X696487Y485175D01*
X692274Y485175D01*
G37*
%LPD*%
%LPC*%
G36*
X692274Y438185D02*
X692274Y438185D01*
X688382Y439797D01*
X685404Y442775D01*
X683792Y446667D01*
X683792Y450880D01*
X685404Y454771D01*
X688382Y457750D01*
X692274Y459362D01*
X696487Y459362D01*
X700378Y457750D01*
X703357Y454771D01*
X704969Y450880D01*
X704969Y446667D01*
X703357Y442775D01*
X700378Y439797D01*
X696487Y438185D01*
X692274Y438185D01*
G37*
%LPD*%
%LPC*%
G36*
X173565Y190533D02*
X173565Y190533D01*
X170110Y191964D01*
X167466Y194608D01*
X166035Y198062D01*
X166035Y201801D01*
X167466Y205255D01*
X170110Y207899D01*
X173565Y209330D01*
X177304Y209330D01*
X180758Y207899D01*
X183402Y205255D01*
X184833Y201801D01*
X184833Y198062D01*
X183402Y194608D01*
X180758Y191964D01*
X177304Y190533D01*
X173565Y190533D01*
G37*
%LPD*%
%LPC*%
G36*
X209486Y154612D02*
X209486Y154612D01*
X206031Y156043D01*
X203387Y158687D01*
X201956Y162141D01*
X201956Y165880D01*
X203387Y169334D01*
X206031Y171978D01*
X209486Y173409D01*
X213225Y173409D01*
X216679Y171978D01*
X219323Y169334D01*
X220754Y165880D01*
X220754Y162141D01*
X219323Y158687D01*
X216679Y156043D01*
X213225Y154612D01*
X209486Y154612D01*
G37*
%LPD*%
%LPC*%
G36*
X299288Y172572D02*
X299288Y172572D01*
X295834Y174003D01*
X293190Y176647D01*
X291759Y180101D01*
X291759Y183841D01*
X293190Y187295D01*
X295834Y189939D01*
X299288Y191370D01*
X303027Y191370D01*
X306482Y189939D01*
X309126Y187295D01*
X310556Y183841D01*
X310556Y180101D01*
X309126Y176647D01*
X306482Y174003D01*
X303027Y172572D01*
X299288Y172572D01*
G37*
%LPD*%
%LPC*%
G36*
X83762Y172572D02*
X83762Y172572D01*
X80308Y174003D01*
X77664Y176647D01*
X76233Y180101D01*
X76233Y183841D01*
X77664Y187295D01*
X80308Y189939D01*
X83762Y191370D01*
X87501Y191370D01*
X90955Y189939D01*
X93599Y187295D01*
X95030Y183841D01*
X95030Y180101D01*
X93599Y176647D01*
X90955Y174003D01*
X87501Y172572D01*
X83762Y172572D01*
G37*
%LPD*%
%LPC*%
G36*
X281328Y154612D02*
X281328Y154612D01*
X277873Y156043D01*
X275229Y158687D01*
X273798Y162141D01*
X273798Y165880D01*
X275229Y169334D01*
X277873Y171978D01*
X281328Y173409D01*
X285067Y173409D01*
X288521Y171978D01*
X291165Y169334D01*
X292596Y165880D01*
X292596Y162141D01*
X291165Y158687D01*
X288521Y156043D01*
X285067Y154612D01*
X281328Y154612D01*
G37*
%LPD*%
%LPC*%
G36*
X460933Y334217D02*
X460933Y334217D01*
X457478Y335648D01*
X454834Y338292D01*
X453404Y341746D01*
X453404Y345485D01*
X454834Y348940D01*
X457478Y351584D01*
X460933Y353014D01*
X464672Y353014D01*
X468126Y351584D01*
X470770Y348940D01*
X472201Y345485D01*
X472201Y341746D01*
X470770Y338292D01*
X468126Y335648D01*
X464672Y334217D01*
X460933Y334217D01*
G37*
%LPD*%
%LPC*%
G36*
X65801Y154612D02*
X65801Y154612D01*
X62347Y156043D01*
X59703Y158687D01*
X58272Y162141D01*
X58272Y165880D01*
X59703Y169334D01*
X62347Y171978D01*
X65801Y173409D01*
X69541Y173409D01*
X72995Y171978D01*
X75639Y169334D01*
X77070Y165880D01*
X77070Y162141D01*
X75639Y158687D01*
X72995Y156043D01*
X69541Y154612D01*
X65801Y154612D01*
G37*
%LPD*%
%LPC*%
G36*
X47841Y136651D02*
X47841Y136651D01*
X44387Y138082D01*
X41743Y140726D01*
X40312Y144180D01*
X40312Y147920D01*
X41743Y151374D01*
X44387Y154018D01*
X47841Y155449D01*
X51580Y155449D01*
X55034Y154018D01*
X57678Y151374D01*
X59109Y147920D01*
X59109Y144180D01*
X57678Y140726D01*
X55034Y138082D01*
X51580Y136651D01*
X47841Y136651D01*
G37*
%LPD*%
%LPC*%
G36*
X263367Y136651D02*
X263367Y136651D01*
X259913Y138082D01*
X257269Y140726D01*
X255838Y144180D01*
X255838Y147920D01*
X257269Y151374D01*
X259913Y154018D01*
X263367Y155449D01*
X267106Y155449D01*
X270561Y154018D01*
X273205Y151374D01*
X274635Y147920D01*
X274635Y144180D01*
X273205Y140726D01*
X270561Y138082D01*
X267106Y136651D01*
X263367Y136651D01*
G37*
%LPD*%
%LPC*%
G36*
X227446Y136651D02*
X227446Y136651D01*
X223992Y138082D01*
X221348Y140726D01*
X219917Y144180D01*
X219917Y147920D01*
X221348Y151374D01*
X223992Y154018D01*
X227446Y155449D01*
X231185Y155449D01*
X234640Y154018D01*
X237284Y151374D01*
X238714Y147920D01*
X238714Y144180D01*
X237284Y140726D01*
X234640Y138082D01*
X231185Y136651D01*
X227446Y136651D01*
G37*
%LPD*%
%LPC*%
G36*
X227446Y100730D02*
X227446Y100730D01*
X223992Y102161D01*
X221348Y104805D01*
X219917Y108259D01*
X219917Y111999D01*
X221348Y115453D01*
X223992Y118097D01*
X227446Y119528D01*
X231185Y119528D01*
X234640Y118097D01*
X237284Y115453D01*
X238714Y111999D01*
X238714Y108259D01*
X237284Y104805D01*
X234640Y102161D01*
X231185Y100730D01*
X227446Y100730D01*
G37*
%LPD*%
%LPC*%
G36*
X209486Y82770D02*
X209486Y82770D01*
X206031Y84201D01*
X203387Y86845D01*
X201956Y90299D01*
X201956Y94038D01*
X203387Y97492D01*
X206031Y100136D01*
X209486Y101567D01*
X213225Y101567D01*
X216679Y100136D01*
X219323Y97492D01*
X220754Y94038D01*
X220754Y90299D01*
X219323Y86845D01*
X216679Y84201D01*
X213225Y82770D01*
X209486Y82770D01*
G37*
%LPD*%
%LPC*%
G36*
X191525Y64809D02*
X191525Y64809D01*
X188071Y66240D01*
X185427Y68884D01*
X183996Y72338D01*
X183996Y76078D01*
X185427Y79532D01*
X188071Y82176D01*
X191525Y83607D01*
X195264Y83607D01*
X198719Y82176D01*
X201362Y79532D01*
X202793Y76078D01*
X202793Y72338D01*
X201362Y68884D01*
X198719Y66240D01*
X195264Y64809D01*
X191525Y64809D01*
G37*
%LPD*%
%LPC*%
G36*
X173565Y46849D02*
X173565Y46849D01*
X170110Y48280D01*
X167466Y50924D01*
X166035Y54378D01*
X166035Y58117D01*
X167466Y61571D01*
X170110Y64215D01*
X173565Y65646D01*
X177304Y65646D01*
X180758Y64215D01*
X183402Y61571D01*
X184833Y58117D01*
X184833Y54378D01*
X183402Y50924D01*
X180758Y48280D01*
X177304Y46849D01*
X173565Y46849D01*
G37*
%LPD*%
%LPC*%
G36*
X407051Y459940D02*
X407051Y459940D01*
X403597Y461371D01*
X400953Y464015D01*
X399522Y467470D01*
X399522Y471209D01*
X400953Y474663D01*
X403597Y477307D01*
X407051Y478738D01*
X410790Y478738D01*
X414245Y477307D01*
X416889Y474663D01*
X418319Y471209D01*
X418319Y467470D01*
X416889Y464015D01*
X414245Y461371D01*
X410790Y459940D01*
X407051Y459940D01*
G37*
%LPD*%
%LPC*%
G36*
X532775Y441980D02*
X532775Y441980D01*
X529320Y443411D01*
X526676Y446055D01*
X525246Y449509D01*
X525246Y453248D01*
X526676Y456703D01*
X529320Y459347D01*
X532775Y460777D01*
X536514Y460777D01*
X539968Y459347D01*
X542612Y456703D01*
X544043Y453248D01*
X544043Y449509D01*
X542612Y446055D01*
X539968Y443411D01*
X536514Y441980D01*
X532775Y441980D01*
G37*
%LPD*%
%LPC*%
G36*
X389091Y441980D02*
X389091Y441980D01*
X385636Y443411D01*
X382992Y446055D01*
X381561Y449509D01*
X381561Y453248D01*
X382992Y456703D01*
X385636Y459347D01*
X389091Y460777D01*
X392830Y460777D01*
X396284Y459347D01*
X398928Y456703D01*
X400359Y453248D01*
X400359Y449509D01*
X398928Y446055D01*
X396284Y443411D01*
X392830Y441980D01*
X389091Y441980D01*
G37*
%LPD*%
%LPC*%
G36*
X568696Y441980D02*
X568696Y441980D01*
X565241Y443411D01*
X562597Y446055D01*
X561167Y449509D01*
X561167Y453248D01*
X562597Y456703D01*
X565241Y459347D01*
X568696Y460777D01*
X572435Y460777D01*
X575889Y459347D01*
X578533Y456703D01*
X579964Y453248D01*
X579964Y449509D01*
X578533Y446055D01*
X575889Y443411D01*
X572435Y441980D01*
X568696Y441980D01*
G37*
%LPD*%
%LPC*%
G36*
X550735Y424019D02*
X550735Y424019D01*
X547281Y425450D01*
X544637Y428094D01*
X543206Y431549D01*
X543206Y435288D01*
X544637Y438742D01*
X547281Y441386D01*
X550735Y442817D01*
X554474Y442817D01*
X557929Y441386D01*
X560573Y438742D01*
X562004Y435288D01*
X562004Y431549D01*
X560573Y428094D01*
X557929Y425450D01*
X554474Y424019D01*
X550735Y424019D01*
G37*
%LPD*%
%LPC*%
G36*
X335209Y424019D02*
X335209Y424019D01*
X331755Y425450D01*
X329111Y428094D01*
X327680Y431549D01*
X327680Y435288D01*
X329111Y438742D01*
X331755Y441386D01*
X335209Y442817D01*
X338948Y442817D01*
X342403Y441386D01*
X345047Y438742D01*
X346477Y435288D01*
X346477Y431549D01*
X345047Y428094D01*
X342403Y425450D01*
X338948Y424019D01*
X335209Y424019D01*
G37*
%LPD*%
%LPC*%
G36*
X371130Y424019D02*
X371130Y424019D01*
X367676Y425450D01*
X365032Y428094D01*
X363601Y431549D01*
X363601Y435288D01*
X365032Y438742D01*
X367676Y441386D01*
X371130Y442817D01*
X374869Y442817D01*
X378324Y441386D01*
X380968Y438742D01*
X382398Y435288D01*
X382398Y431549D01*
X380968Y428094D01*
X378324Y425450D01*
X374869Y424019D01*
X371130Y424019D01*
G37*
%LPD*%
%LPC*%
G36*
X532775Y406059D02*
X532775Y406059D01*
X529320Y407490D01*
X526676Y410134D01*
X525246Y413588D01*
X525246Y417327D01*
X526676Y420782D01*
X529320Y423426D01*
X532775Y424856D01*
X536514Y424856D01*
X539968Y423426D01*
X542612Y420782D01*
X544043Y417327D01*
X544043Y413588D01*
X542612Y410134D01*
X539968Y407490D01*
X536514Y406059D01*
X532775Y406059D01*
G37*
%LPD*%
%LPC*%
G36*
X317249Y406059D02*
X317249Y406059D01*
X313794Y407490D01*
X311150Y410134D01*
X309719Y413588D01*
X309719Y417327D01*
X311150Y420782D01*
X313794Y423426D01*
X317249Y424856D01*
X320988Y424856D01*
X324442Y423426D01*
X327086Y420782D01*
X328517Y417327D01*
X328517Y413588D01*
X327086Y410134D01*
X324442Y407490D01*
X320988Y406059D01*
X317249Y406059D01*
G37*
%LPD*%
%LPC*%
G36*
X299288Y388098D02*
X299288Y388098D01*
X295834Y389529D01*
X293190Y392173D01*
X291759Y395628D01*
X291759Y399367D01*
X293190Y402821D01*
X295834Y405465D01*
X299288Y406896D01*
X303027Y406896D01*
X306482Y405465D01*
X309126Y402821D01*
X310556Y399367D01*
X310556Y395628D01*
X309126Y392173D01*
X306482Y389529D01*
X303027Y388098D01*
X299288Y388098D01*
G37*
%LPD*%
%LPC*%
G36*
X281328Y370138D02*
X281328Y370138D01*
X277873Y371569D01*
X275229Y374213D01*
X273798Y377667D01*
X273798Y381406D01*
X275229Y384861D01*
X277873Y387505D01*
X281328Y388935D01*
X285067Y388935D01*
X288521Y387505D01*
X291165Y384861D01*
X292596Y381406D01*
X292596Y377667D01*
X291165Y374213D01*
X288521Y371569D01*
X285067Y370138D01*
X281328Y370138D01*
G37*
%LPD*%
%LPC*%
G36*
X460933Y370138D02*
X460933Y370138D01*
X457478Y371569D01*
X454834Y374213D01*
X453404Y377667D01*
X453404Y381406D01*
X454834Y384861D01*
X457478Y387505D01*
X460933Y388935D01*
X464672Y388935D01*
X468126Y387505D01*
X470770Y384861D01*
X472201Y381406D01*
X472201Y377667D01*
X470770Y374213D01*
X468126Y371569D01*
X464672Y370138D01*
X460933Y370138D01*
G37*
%LPD*%
%LPC*%
G36*
X263367Y352177D02*
X263367Y352177D01*
X259913Y353608D01*
X257269Y356252D01*
X255838Y359707D01*
X255838Y363446D01*
X257269Y366900D01*
X259913Y369544D01*
X263367Y370975D01*
X267106Y370975D01*
X270561Y369544D01*
X273205Y366900D01*
X274635Y363446D01*
X274635Y359707D01*
X273205Y356252D01*
X270561Y353608D01*
X267106Y352177D01*
X263367Y352177D01*
G37*
%LPD*%
%LPC*%
G36*
X478893Y352177D02*
X478893Y352177D01*
X475439Y353608D01*
X472795Y356252D01*
X471364Y359707D01*
X471364Y363446D01*
X472795Y366900D01*
X475439Y369544D01*
X478893Y370975D01*
X482632Y370975D01*
X486087Y369544D01*
X488731Y366900D01*
X490162Y363446D01*
X490162Y359707D01*
X488731Y356252D01*
X486087Y353608D01*
X482632Y352177D01*
X478893Y352177D01*
G37*
%LPD*%
%LPC*%
G36*
X155604Y28888D02*
X155604Y28888D01*
X152150Y30319D01*
X149506Y32963D01*
X148075Y36417D01*
X148075Y40156D01*
X149506Y43611D01*
X152150Y46255D01*
X155604Y47686D01*
X159343Y47686D01*
X162797Y46255D01*
X165441Y43611D01*
X166872Y40156D01*
X166872Y36417D01*
X165441Y32963D01*
X162797Y30319D01*
X159343Y28888D01*
X155604Y28888D01*
G37*
%LPD*%
%LPC*%
G36*
X245407Y334217D02*
X245407Y334217D01*
X241952Y335648D01*
X239308Y338292D01*
X237877Y341746D01*
X237877Y345485D01*
X239308Y348940D01*
X241952Y351584D01*
X245407Y353014D01*
X249146Y353014D01*
X252600Y351584D01*
X255244Y348940D01*
X256675Y345485D01*
X256675Y341746D01*
X255244Y338292D01*
X252600Y335648D01*
X249146Y334217D01*
X245407Y334217D01*
G37*
%LPD*%
%LPC*%
G36*
X442972Y316256D02*
X442972Y316256D01*
X439518Y317687D01*
X436874Y320331D01*
X435443Y323786D01*
X435443Y327525D01*
X436874Y330979D01*
X439518Y333623D01*
X442972Y335054D01*
X446711Y335054D01*
X450166Y333623D01*
X452810Y330979D01*
X454241Y327525D01*
X454241Y323786D01*
X452810Y320331D01*
X450166Y317687D01*
X446711Y316256D01*
X442972Y316256D01*
G37*
%LPD*%
%LPC*%
G36*
X227446Y316256D02*
X227446Y316256D01*
X223992Y317687D01*
X221348Y320331D01*
X219917Y323786D01*
X219917Y327525D01*
X221348Y330979D01*
X223992Y333623D01*
X227446Y335054D01*
X231185Y335054D01*
X234640Y333623D01*
X237284Y330979D01*
X238714Y327525D01*
X238714Y323786D01*
X237284Y320331D01*
X234640Y317687D01*
X231185Y316256D01*
X227446Y316256D01*
G37*
%LPD*%
%LPC*%
G36*
X209486Y298296D02*
X209486Y298296D01*
X206031Y299727D01*
X203387Y302371D01*
X201956Y305825D01*
X201956Y309564D01*
X203387Y313019D01*
X206031Y315662D01*
X209486Y317093D01*
X213225Y317093D01*
X216679Y315662D01*
X219323Y313019D01*
X220754Y309564D01*
X220754Y305825D01*
X219323Y302371D01*
X216679Y299727D01*
X213225Y298296D01*
X209486Y298296D01*
G37*
%LPD*%
%LPC*%
G36*
X191525Y280335D02*
X191525Y280335D01*
X188071Y281766D01*
X185427Y284410D01*
X183996Y287865D01*
X183996Y291604D01*
X185427Y295058D01*
X188071Y297702D01*
X191525Y299133D01*
X195264Y299133D01*
X198719Y297702D01*
X201362Y295058D01*
X202793Y291604D01*
X202793Y287865D01*
X201362Y284410D01*
X198719Y281766D01*
X195264Y280335D01*
X191525Y280335D01*
G37*
%LPD*%
%LPC*%
G36*
X407051Y280335D02*
X407051Y280335D01*
X403597Y281766D01*
X400953Y284410D01*
X399522Y287865D01*
X399522Y291604D01*
X400953Y295058D01*
X403597Y297702D01*
X407051Y299133D01*
X410790Y299133D01*
X414245Y297702D01*
X416889Y295058D01*
X418319Y291604D01*
X418319Y287865D01*
X416889Y284410D01*
X414245Y281766D01*
X410790Y280335D01*
X407051Y280335D01*
G37*
%LPD*%
%LPC*%
G36*
X389091Y262375D02*
X389091Y262375D01*
X385636Y263806D01*
X382992Y266450D01*
X381561Y269904D01*
X381561Y273643D01*
X382992Y277097D01*
X385636Y279741D01*
X389091Y281172D01*
X392830Y281172D01*
X396284Y279741D01*
X398928Y277097D01*
X400359Y273643D01*
X400359Y269904D01*
X398928Y266450D01*
X396284Y263806D01*
X392830Y262375D01*
X389091Y262375D01*
G37*
%LPD*%
%LPC*%
G36*
X173565Y262375D02*
X173565Y262375D01*
X170110Y263806D01*
X167466Y266450D01*
X166035Y269904D01*
X166035Y273643D01*
X167466Y277097D01*
X170110Y279741D01*
X173565Y281172D01*
X177304Y281172D01*
X180758Y279741D01*
X183402Y277097D01*
X184833Y273643D01*
X184833Y269904D01*
X183402Y266450D01*
X180758Y263806D01*
X177304Y262375D01*
X173565Y262375D01*
G37*
%LPD*%
%LPC*%
G36*
X155604Y244414D02*
X155604Y244414D01*
X152150Y245845D01*
X149506Y248489D01*
X148075Y251943D01*
X148075Y255683D01*
X149506Y259137D01*
X152150Y261781D01*
X155604Y263212D01*
X159343Y263212D01*
X162797Y261781D01*
X165441Y259137D01*
X166872Y255683D01*
X166872Y251943D01*
X165441Y248489D01*
X162797Y245845D01*
X159343Y244414D01*
X155604Y244414D01*
G37*
%LPD*%
%LPC*%
G36*
X371130Y244414D02*
X371130Y244414D01*
X367676Y245845D01*
X365032Y248489D01*
X363601Y251943D01*
X363601Y255683D01*
X365032Y259137D01*
X367676Y261781D01*
X371130Y263212D01*
X374869Y263212D01*
X378324Y261781D01*
X380968Y259137D01*
X382398Y255683D01*
X382398Y251943D01*
X380968Y248489D01*
X378324Y245845D01*
X374869Y244414D01*
X371130Y244414D01*
G37*
%LPD*%
%LPC*%
G36*
X353170Y226454D02*
X353170Y226454D01*
X349715Y227885D01*
X347071Y230529D01*
X345640Y233983D01*
X345640Y237722D01*
X347071Y241176D01*
X349715Y243820D01*
X353170Y245251D01*
X356909Y245251D01*
X360363Y243820D01*
X363007Y241176D01*
X364438Y237722D01*
X364438Y233983D01*
X363007Y230529D01*
X360363Y227885D01*
X356909Y226454D01*
X353170Y226454D01*
G37*
%LPD*%
%LPC*%
G36*
X137643Y226454D02*
X137643Y226454D01*
X134189Y227885D01*
X131545Y230529D01*
X130114Y233983D01*
X130114Y237722D01*
X131545Y241176D01*
X134189Y243820D01*
X137643Y245251D01*
X141383Y245251D01*
X144837Y243820D01*
X147481Y241176D01*
X148912Y237722D01*
X148912Y233983D01*
X147481Y230529D01*
X144837Y227885D01*
X141383Y226454D01*
X137643Y226454D01*
G37*
%LPD*%
%LPC*%
G36*
X155604Y208493D02*
X155604Y208493D01*
X152150Y209924D01*
X149506Y212568D01*
X148075Y216022D01*
X148075Y219762D01*
X149506Y223216D01*
X152150Y225860D01*
X155604Y227291D01*
X159343Y227291D01*
X162797Y225860D01*
X165441Y223216D01*
X166872Y219762D01*
X166872Y216022D01*
X165441Y212568D01*
X162797Y209924D01*
X159343Y208493D01*
X155604Y208493D01*
G37*
%LPD*%
%LPC*%
G36*
X119683Y208493D02*
X119683Y208493D01*
X116229Y209924D01*
X113585Y212568D01*
X112154Y216022D01*
X112154Y219762D01*
X113585Y223216D01*
X116229Y225860D01*
X119683Y227291D01*
X123422Y227291D01*
X126876Y225860D01*
X129520Y223216D01*
X130951Y219762D01*
X130951Y216022D01*
X129520Y212568D01*
X126876Y209924D01*
X123422Y208493D01*
X119683Y208493D01*
G37*
%LPD*%
%LPC*%
G36*
X335209Y208493D02*
X335209Y208493D01*
X331755Y209924D01*
X329111Y212568D01*
X327680Y216022D01*
X327680Y219762D01*
X329111Y223216D01*
X331755Y225860D01*
X335209Y227291D01*
X338948Y227291D01*
X342403Y225860D01*
X345047Y223216D01*
X346477Y219762D01*
X346477Y216022D01*
X345047Y212568D01*
X342403Y209924D01*
X338948Y208493D01*
X335209Y208493D01*
G37*
%LPD*%
%LPC*%
G36*
X101722Y190533D02*
X101722Y190533D01*
X98268Y191964D01*
X95624Y194608D01*
X94193Y198062D01*
X94193Y201801D01*
X95624Y205255D01*
X98268Y207899D01*
X101722Y209330D01*
X105462Y209330D01*
X108916Y207899D01*
X111560Y205255D01*
X112991Y201801D01*
X112991Y198062D01*
X111560Y194608D01*
X108916Y191964D01*
X105462Y190533D01*
X101722Y190533D01*
G37*
%LPD*%
%LPC*%
G36*
X478893Y388098D02*
X478893Y388098D01*
X475439Y389529D01*
X472795Y392173D01*
X471364Y395628D01*
X471364Y399367D01*
X472795Y402821D01*
X475439Y405465D01*
X478893Y406896D01*
X482632Y406896D01*
X486087Y405465D01*
X488731Y402821D01*
X490162Y399367D01*
X490162Y395628D01*
X488731Y392173D01*
X486087Y389529D01*
X482632Y388098D01*
X478893Y388098D01*
G37*
%LPD*%
%LPC*%
G36*
X523620Y551767D02*
X523620Y551767D01*
X528359Y556507D01*
X529750Y557517D01*
X531282Y558298D01*
X532917Y558829D01*
X534615Y559098D01*
X536335Y559098D01*
X538033Y558829D01*
X539668Y558298D01*
X541200Y557517D01*
X541215Y557506D01*
X529548Y545839D01*
X523620Y551767D01*
G37*
%LPD*%
%LPC*%
G36*
X533139Y542248D02*
X533139Y542248D01*
X544806Y553915D01*
X544817Y553900D01*
X545598Y552368D01*
X546129Y550733D01*
X546398Y549035D01*
X546398Y547315D01*
X546129Y545617D01*
X545598Y543982D01*
X544817Y542450D01*
X543807Y541059D01*
X539067Y536320D01*
X533139Y542248D01*
G37*
%LPD*%
%LPC*%
G36*
X514279Y530596D02*
X514279Y530596D01*
X513499Y532128D01*
X512967Y533763D01*
X512698Y535461D01*
X512698Y537181D01*
X512967Y538879D01*
X513499Y540514D01*
X514279Y542046D01*
X515290Y543437D01*
X520029Y548176D01*
X525957Y542248D01*
X514290Y530581D01*
X514279Y530596D01*
G37*
%LPD*%
%LPC*%
G36*
X522761Y525398D02*
X522761Y525398D01*
X521063Y525667D01*
X519428Y526199D01*
X517896Y526979D01*
X517881Y526990D01*
X529548Y538657D01*
X535476Y532729D01*
X530737Y527990D01*
X529346Y526979D01*
X527814Y526199D01*
X526179Y525667D01*
X524481Y525398D01*
X522761Y525398D01*
G37*
%LPD*%
%LPC*%
G36*
X274956Y485829D02*
X274956Y485829D01*
X274102Y487503D01*
X273522Y489291D01*
X273228Y491147D01*
X273228Y493026D01*
X273522Y494882D01*
X274102Y496669D01*
X274956Y498343D01*
X275108Y498554D01*
X281575Y492086D01*
X275108Y485619D01*
X274956Y485829D01*
G37*
%LPD*%
%LPC*%
G36*
X284227Y480148D02*
X284227Y480148D01*
X282371Y480442D01*
X280584Y481022D01*
X278909Y481875D01*
X278699Y482028D01*
X285167Y488495D01*
X291634Y482028D01*
X291424Y481875D01*
X289749Y481022D01*
X287962Y480442D01*
X286106Y480148D01*
X284227Y480148D01*
G37*
%LPD*%
%LPC*%
G36*
X696880Y545253D02*
X696880Y545253D01*
X696880Y552541D01*
X698250Y552095D01*
X699664Y551375D01*
X700947Y550442D01*
X702069Y549320D01*
X703002Y548037D01*
X703722Y546623D01*
X704168Y545253D01*
X696880Y545253D01*
G37*
%LPD*%
%LPC*%
G36*
X684593Y545253D02*
X684593Y545253D01*
X685038Y546623D01*
X685758Y548037D01*
X686691Y549320D01*
X687813Y550442D01*
X689097Y551375D01*
X690511Y552095D01*
X691881Y552541D01*
X691881Y545253D01*
X684593Y545253D01*
G37*
%LPD*%
%LPC*%
G36*
X696880Y540254D02*
X696880Y540254D01*
X704168Y540254D01*
X703722Y538884D01*
X703002Y537470D01*
X702069Y536186D01*
X700947Y535064D01*
X699664Y534131D01*
X698250Y533411D01*
X696880Y532966D01*
X696880Y540254D01*
G37*
%LPD*%
%LPC*%
G36*
X690511Y533411D02*
X690511Y533411D01*
X689097Y534131D01*
X687813Y535064D01*
X686691Y536186D01*
X685758Y537470D01*
X685038Y538884D01*
X684593Y540254D01*
X691881Y540254D01*
X691881Y532966D01*
X690511Y533411D01*
G37*
%LPD*%
%LPC*%
G36*
X457981Y566613D02*
X457981Y566613D01*
X458591Y567021D01*
X460209Y567691D01*
X461927Y568033D01*
X463678Y568033D01*
X465396Y567691D01*
X467014Y567021D01*
X467623Y566613D01*
X462802Y561792D01*
X457981Y566613D01*
G37*
%LPD*%
%LPC*%
G36*
X465453Y559142D02*
X465453Y559142D01*
X470274Y563963D01*
X470681Y563353D01*
X471351Y561735D01*
X471693Y560017D01*
X471693Y558266D01*
X471351Y556548D01*
X470681Y554931D01*
X470274Y554321D01*
X465453Y559142D01*
G37*
%LPD*%
%LPC*%
G36*
X314297Y207403D02*
X314297Y207403D01*
X314907Y207810D01*
X316525Y208481D01*
X318243Y208822D01*
X319994Y208822D01*
X321712Y208481D01*
X323329Y207810D01*
X323939Y207403D01*
X319118Y202582D01*
X314297Y207403D01*
G37*
%LPD*%
%LPC*%
G36*
X188574Y189443D02*
X188574Y189443D01*
X189183Y189850D01*
X190801Y190520D01*
X192519Y190862D01*
X194270Y190862D01*
X195988Y190520D01*
X197606Y189850D01*
X198215Y189443D01*
X193395Y184622D01*
X188574Y189443D01*
G37*
%LPD*%
%LPC*%
G36*
X196045Y181971D02*
X196045Y181971D01*
X200866Y186792D01*
X201274Y186182D01*
X201944Y184564D01*
X202285Y182847D01*
X202285Y181095D01*
X201944Y179378D01*
X201274Y177760D01*
X200866Y177150D01*
X196045Y181971D01*
G37*
%LPD*%
%LPC*%
G36*
X321769Y199932D02*
X321769Y199932D01*
X326590Y204752D01*
X326997Y204143D01*
X327667Y202525D01*
X328009Y200807D01*
X328009Y199056D01*
X327667Y197338D01*
X326997Y195720D01*
X326590Y195111D01*
X321769Y199932D01*
G37*
%LPD*%
%LPC*%
G36*
X454923Y554931D02*
X454923Y554931D01*
X454253Y556548D01*
X453912Y558266D01*
X453912Y560017D01*
X454253Y561735D01*
X454923Y563353D01*
X455331Y563963D01*
X460152Y559142D01*
X455331Y554321D01*
X454923Y554931D01*
G37*
%LPD*%
%LPC*%
G36*
X461927Y550251D02*
X461927Y550251D01*
X460209Y550593D01*
X458591Y551263D01*
X457981Y551670D01*
X462802Y556491D01*
X467623Y551670D01*
X467014Y551263D01*
X465396Y550593D01*
X463678Y550251D01*
X461927Y550251D01*
G37*
%LPD*%
%LPC*%
G36*
X318243Y191041D02*
X318243Y191041D01*
X316525Y191382D01*
X314907Y192053D01*
X314297Y192460D01*
X319118Y197281D01*
X323939Y192460D01*
X323329Y192053D01*
X321712Y191382D01*
X319994Y191041D01*
X318243Y191041D01*
G37*
%LPD*%
%LPC*%
G36*
X185516Y177760D02*
X185516Y177760D01*
X184846Y179378D01*
X184504Y181095D01*
X184504Y182847D01*
X184846Y184564D01*
X185516Y186182D01*
X185923Y186792D01*
X190744Y181971D01*
X185923Y177150D01*
X185516Y177760D01*
G37*
%LPD*%
%LPC*%
G36*
X192519Y173080D02*
X192519Y173080D01*
X190801Y173422D01*
X189183Y174092D01*
X188574Y174499D01*
X193395Y179320D01*
X198215Y174499D01*
X197606Y174092D01*
X195988Y173422D01*
X194270Y173080D01*
X192519Y173080D01*
G37*
%LPD*%
%LPC*%
G36*
X311239Y195720D02*
X311239Y195720D01*
X310569Y197338D01*
X310227Y199056D01*
X310227Y200807D01*
X310569Y202525D01*
X311239Y204143D01*
X311647Y204752D01*
X316467Y199932D01*
X311647Y195111D01*
X311239Y195720D01*
G37*
%LPD*%
%LPC*%
G36*
X529547Y542248D02*
X529547Y542248D01*
X529548Y542249D01*
X529549Y542248D01*
X529548Y542247D01*
X529547Y542248D01*
G37*
%LPD*%
D10*
X444842Y541181D03*
X426881Y523221D03*
X408921Y505260D03*
X390960Y487300D03*
X373000Y469339D03*
X355039Y451379D03*
X337079Y433418D03*
X319118Y415458D03*
X301158Y397497D03*
X283197Y379537D03*
X265237Y361576D03*
X247276Y343616D03*
X229316Y325655D03*
X211355Y307695D03*
X193395Y289734D03*
X175434Y271774D03*
X157474Y253813D03*
X139513Y235853D03*
X121553Y217892D03*
X103592Y199932D03*
X85632Y181971D03*
X67671Y164011D03*
X49711Y146050D03*
X157474Y38287D03*
X175434Y56247D03*
X193395Y74208D03*
X211355Y92168D03*
X229316Y110129D03*
X247276Y128089D03*
X265237Y146050D03*
X283197Y164011D03*
X301158Y181971D03*
X319118Y199932D03*
X337079Y217892D03*
X355039Y235853D03*
X373000Y253813D03*
X390960Y271774D03*
X408921Y289734D03*
X426881Y307695D03*
X444842Y325655D03*
X462802Y343616D03*
X480763Y361576D03*
X498723Y379537D03*
X516684Y397497D03*
X552605Y433418D03*
X462802Y559142D03*
X570565Y451379D03*
X534644Y415458D03*
X157474Y217892D03*
X175434Y199932D03*
X193395Y181971D03*
X211355Y164011D03*
X229316Y146050D03*
X444842Y505260D03*
X426881Y487300D03*
X408921Y469339D03*
X390960Y451379D03*
X373000Y433418D03*
X534644Y451379D03*
X498723Y415458D03*
X480763Y397497D03*
X462802Y379537D03*
D11*
X694380Y495763D03*
X694380Y448773D03*
X694380Y542753D03*
X710382Y574757D03*
X678378Y574757D03*
X710382Y416769D03*
X678378Y416769D03*
D12*
X517515Y566136D02*
X505661Y554282D01*
X523621Y536321D02*
X535475Y548175D01*
X553436Y530215D02*
X541582Y518361D01*
D13*
X410890Y617810D03*
X392930Y599849D03*
X374969Y581889D03*
X357009Y563928D03*
X339048Y545968D03*
X321088Y528007D03*
X303127Y510047D03*
X285167Y492086D03*
D14*
X501650Y336550D03*
D15*
X472795Y307695D01*
X426881Y307695D01*
D14*
X450850Y419100D03*
D15*
X393700Y596900D02*
X393700Y599079D01*
X392930Y599849D01*
X431800Y558800D02*
X431800Y533400D01*
X453986Y501473D02*
X450850Y498337D01*
X453986Y501473D02*
X453986Y511214D01*
X431800Y533400D01*
X450850Y498337D02*
X450850Y419100D01*
X431800Y558800D02*
X393700Y596900D01*
D14*
X431800Y393700D03*
D15*
X438150Y400050D01*
X438150Y495300D01*
X393700Y539750D01*
X393700Y563158D02*
X374969Y581889D01*
X393700Y563158D02*
X393700Y539750D01*
D14*
X577850Y304800D03*
D15*
X546100Y336550D01*
X546100Y355600D01*
D14*
X546100Y355600D03*
X546100Y304800D03*
D15*
X527050Y323850D01*
X527050Y355600D01*
D14*
X527050Y355600D03*
X412750Y107950D03*
X412750Y95250D03*
X412750Y82550D03*
X495300Y590550D03*
X622300Y488950D03*
X715546Y286289D03*
X514350Y641350D03*
X495300Y673326D03*
X469900Y654050D03*
X565150Y673100D03*
X603250Y317500D03*
X469900Y444500D03*
D15*
X532397Y388353D02*
X603250Y317500D01*
X532397Y388353D02*
X512896Y388353D01*
X489579Y411670D02*
X489579Y424821D01*
X469900Y444500D01*
X489579Y411670D02*
X512896Y388353D01*
D16*
X468811Y128089D02*
X247276Y128089D01*
X468811Y128089D02*
X482600Y114300D01*
D14*
X482600Y114300D03*
D15*
X408921Y505260D02*
X357009Y557172D01*
X357009Y563928D01*
X339048Y539212D02*
X390960Y487300D01*
X339048Y539212D02*
X339048Y545968D01*
X321088Y521251D02*
X373000Y469339D01*
X321088Y521251D02*
X321088Y528007D01*
X303127Y503291D02*
X355039Y451379D01*
X303127Y503291D02*
X303127Y510047D01*
M02*
