G04 EAGLE Gerber RS-274X export*
G75*
%MOMM*%
%FSLAX34Y34*%
%LPD*%
%INBottom Silkscreen*%
%IPPOS*%
%AMOC8*
5,1,8,0,0,1.08239X$1,22.5*%
G01*
%ADD10C,0.025400*%


D10*
X215773Y400177D02*
X215773Y403987D01*
X214715Y403987D01*
X214651Y403985D01*
X214587Y403979D01*
X214524Y403970D01*
X214462Y403956D01*
X214400Y403939D01*
X214340Y403918D01*
X214281Y403894D01*
X214223Y403866D01*
X214168Y403834D01*
X214114Y403800D01*
X214063Y403762D01*
X214013Y403721D01*
X213967Y403677D01*
X213923Y403631D01*
X213882Y403581D01*
X213844Y403530D01*
X213810Y403476D01*
X213778Y403421D01*
X213750Y403363D01*
X213726Y403304D01*
X213705Y403244D01*
X213688Y403182D01*
X213674Y403120D01*
X213665Y403057D01*
X213659Y402993D01*
X213657Y402929D01*
X213659Y402865D01*
X213665Y402801D01*
X213674Y402738D01*
X213688Y402676D01*
X213705Y402614D01*
X213726Y402554D01*
X213750Y402495D01*
X213778Y402437D01*
X213810Y402382D01*
X213844Y402328D01*
X213882Y402277D01*
X213923Y402227D01*
X213967Y402181D01*
X214013Y402137D01*
X214063Y402096D01*
X214114Y402058D01*
X214168Y402024D01*
X214223Y401992D01*
X214281Y401964D01*
X214340Y401940D01*
X214400Y401919D01*
X214462Y401902D01*
X214524Y401888D01*
X214587Y401879D01*
X214651Y401873D01*
X214715Y401871D01*
X214715Y401870D02*
X215773Y401870D01*
X214503Y401870D02*
X213656Y400177D01*
X212136Y400177D02*
X211078Y400177D01*
X211014Y400179D01*
X210950Y400185D01*
X210887Y400194D01*
X210825Y400208D01*
X210763Y400225D01*
X210703Y400246D01*
X210644Y400270D01*
X210586Y400298D01*
X210531Y400330D01*
X210477Y400364D01*
X210426Y400402D01*
X210376Y400443D01*
X210330Y400487D01*
X210286Y400533D01*
X210245Y400583D01*
X210207Y400634D01*
X210173Y400688D01*
X210141Y400743D01*
X210113Y400801D01*
X210089Y400860D01*
X210068Y400920D01*
X210051Y400982D01*
X210037Y401044D01*
X210028Y401107D01*
X210022Y401171D01*
X210020Y401235D01*
X210022Y401299D01*
X210028Y401363D01*
X210037Y401426D01*
X210051Y401488D01*
X210068Y401550D01*
X210089Y401610D01*
X210113Y401669D01*
X210141Y401727D01*
X210173Y401782D01*
X210207Y401836D01*
X210245Y401887D01*
X210286Y401937D01*
X210330Y401983D01*
X210376Y402027D01*
X210426Y402068D01*
X210477Y402106D01*
X210531Y402140D01*
X210586Y402172D01*
X210644Y402200D01*
X210703Y402224D01*
X210763Y402245D01*
X210825Y402262D01*
X210887Y402276D01*
X210950Y402285D01*
X211014Y402291D01*
X211078Y402293D01*
X210866Y403987D02*
X212136Y403987D01*
X210866Y403987D02*
X210809Y403985D01*
X210753Y403979D01*
X210697Y403970D01*
X210642Y403957D01*
X210588Y403940D01*
X210535Y403920D01*
X210484Y403896D01*
X210434Y403869D01*
X210387Y403838D01*
X210341Y403805D01*
X210298Y403768D01*
X210257Y403729D01*
X210219Y403687D01*
X210184Y403642D01*
X210152Y403596D01*
X210123Y403547D01*
X210098Y403497D01*
X210076Y403444D01*
X210057Y403391D01*
X210042Y403336D01*
X210031Y403281D01*
X210023Y403225D01*
X210019Y403168D01*
X210019Y403112D01*
X210023Y403055D01*
X210031Y402999D01*
X210042Y402944D01*
X210057Y402889D01*
X210076Y402836D01*
X210098Y402783D01*
X210123Y402733D01*
X210152Y402684D01*
X210184Y402638D01*
X210219Y402593D01*
X210257Y402551D01*
X210298Y402512D01*
X210341Y402475D01*
X210387Y402442D01*
X210434Y402411D01*
X210484Y402384D01*
X210535Y402360D01*
X210588Y402340D01*
X210642Y402323D01*
X210697Y402310D01*
X210753Y402301D01*
X210809Y402295D01*
X210866Y402293D01*
X210866Y402294D02*
X211713Y402294D01*
M02*
